
  <svg id="SVG_ROOT" xmlns="http://www.w3.org/2000/svg" class="innerBox" preserveAspectRatio="xMinYMin meet" style="shape-rendering:geometricPrecision; text-rendering:geometricPrecision; fill-rule:evenodd" viewBox="-159.52999877929688 -213.5700225830078 239.3800048828125 285.96002197265625" width="239.3800048828125mm" height="285.96002197265625mm"><g transform="scale(1,-1)"><g id="Soma">
<polyline points="0,0" style="fill:none;stroke:#ffffff;stroke-width:11.447500228881836"></polyline>
</g>
<g id="Soma.1">
<polyline points="0,0 2.609999895095825,-5.090000152587891" style="fill:none;stroke:#ffffff;stroke-width:11.447500228881836"></polyline>
</g>
<g id="Soma.2">
<polyline points="0,0 -2.609999895095825,5.090000152587891" style="fill:none;stroke:#ffffff;stroke-width:11.447500228881836"></polyline>
</g>
<g id="(basal) Dendrite #1">
<polyline points="0,0 -6.150000095367432,1.25 -10.359999656677246,2.7799999713897705 -14.25,5.849999904632568 -16.950000762939453,8.710000038146973" style="fill:none;stroke:#000000;stroke-width:1.7625000476837158"></polyline>
</g>
<g id="(basal) Dendrite #1.1">
<polyline points="-16.950000762939453,8.710000038146973 -19.030000686645508,10.369999885559082" style="fill:none;stroke:#000000;stroke-width:1.5800000429153442"></polyline>
</g>
<g id="(basal) Dendrite #1.1.1">
<polyline points="-19.030000686645508,10.369999885559082 -23.860000610351562,8.3100004196167 -26.059999465942383,6.210000038146973 -26.860000610351562,4.579999923706055" style="fill:none;stroke:#000000;stroke-width:1.2133333683013916"></polyline>
</g>
<g id="(basal) Dendrite #1.1.1.1">
<polyline points="-26.860000610351562,4.579999923706055 -27.549999237060547,2.990000009536743" style="fill:none;stroke:#000000;stroke-width:1.090000033378601"></polyline>
</g>
<g id="(basal) Dendrite #1.1.1.1.1">
<polyline points="-27.549999237060547,2.990000009536743 -26.389999389648438,1.25 -28.3799991607666,-1.2599999904632568 -29.600000381469727,-3.6600000858306885 -28.43000030517578,-6.480000019073486 -29.59000015258789,-9.539999961853027 -31.06999969482422,-13.859999656677246" style="fill:none;stroke:#000000;stroke-width:0.7100000182787577"></polyline>
</g>
<g id="(basal) Dendrite #1.1.1.1.2">
<polyline points="-27.549999237060547,2.990000009536743 -31.959999084472656,2.7799999713897705 -33.18000030517578,0.10000000149011612" style="fill:none;stroke:#000000;stroke-width:0.9700000286102295"></polyline>
</g>
<g id="(basal) Dendrite #1.1.1.1.2.1">
<polyline points="-33.18000030517578,0.10000000149011612 -32.619998931884766,-1.7799999713897705 -34.88999938964844,-3.5 -37.029998779296875,-5.96999979019165 -38.849998474121094,-9.359999656677246 -39.650001525878906,-10.729999542236328 -41.91999816894531,-11.890000343322754" style="fill:none;stroke:#000000;stroke-width:0.7300000190734863"></polyline>
</g>
<g id="(basal) Dendrite #1.1.1.1.2.2">
<polyline points="-33.18000030517578,0.10000000149011612 -34.880001068115234,1.2799999713897705 -38.06999969482422,4.840000152587891 -40.20000076293945,10.3100004196167 -43.2599983215332,11.75 -46.900001525878906,11.390000343322754 -50.779998779296875,12.550000190734863 -53.619998931884766,13.550000190734863 -54.66999816894531,15.890000343322754 -55.65999984741211,16.469999313354492" style="fill:none;stroke:#000000;stroke-width:0.7700000206629435"></polyline>
</g>
<g id="(basal) Dendrite #1.1.1.1.2.2.1">
<polyline points="-55.65999984741211,16.469999313354492 -58.90999984741211,15.079999923706055 -63.5099983215332,13.399999618530273 -65.73999786376953,12.9399995803833 -67.19999694824219,12.0600004196167 -70.4000015258789,11.369999885559082 -73.79000091552734,12.09000015258789 -76.91999816894531,15.279999732971191 -78.52999877929688,18.690000534057617 -81.18000030517578,22.260000228881836 -84.12000274658203,27.719999313354492 -90.05000305175781,27.010000228881836 -94.4000015258789,26.959999084472656 -97.94999694824219,28.559999465942383 -102.08999633789062,28.360000610351562 -105.70999908447266,27.170000076293945 -107.33999633789062,25.799999237060547 -110.58000183105469,24.1299991607666 -113.47000122070312,24.43000030517578 -116.87999725341797,27.329999923706055 -117.83999633789062,26.020000457763672 -120.30999755859375,28.170000076293945 -123.62999725341797,28.520000457763672 -124.58999633789062,26.389999389648438 -130.41000366210938,26.540000915527344 -134.6699981689453,28.579999923706055 -135.86000061035156,27.969999313354492 -140.41000366210938,30.959999084472656 -143.97000122070312,28.860000610351562 -148.63999938964844,27.290000915527344 -151.8000030517578,27.040000915527344 -156.1699981689453,28.899999618530273 -159.52999877929688,28.530000686645508" style="fill:none;stroke:#000000;stroke-width:0.5612500123679638"></polyline>
</g>
<g id="(basal) Dendrite #1.1.1.1.2.2.2">
<polyline points="-55.65999984741211,16.469999313354492 -58.599998474121094,17.270000457763672 -62.20000076293945,17.610000610351562 -63.79999923706055,20.209999084472656 -66.94999694824219,20.5 -72.11000061035156,24.149999618530273 -74.41999816894531,26.520000457763672 -73.37999725341797,30.350000381469727 -78.3499984741211,32.58000183105469 -80.51000213623047,31.190000534057617 -83.30000305175781,32.09000015258789 -88.08000183105469,32.369998931884766 -93.41999816894531,32.369998931884766 -97.05000305175781,31.729999542236328 -102.31999969482422,30.260000228881836 -102.41000366210938,28.309999465942383 -107.20999908447266,25.690000534057617 -111.54000091552734,28.260000228881836 -113.83000183105469,28.729999542236328 -115.72000122070312,27.6200008392334 -119.62999725341797,31.229999542236328 -124.75,31.610000610351562 -128.88999938964844,27.709999084472656 -133.07000732421875,27.06999969482422 -138.7100067138672,25 -141.1999969482422,22.899999618530273 -144.17999267578125,22.600000381469727 -146.35000610351562,22.030000686645508" style="fill:none;stroke:#000000;stroke-width:0.5555555688010322"></polyline>
</g>
<g id="(basal) Dendrite #1.1.1.2">
<polyline points="-26.860000610351562,4.579999923706055 -28.690000534057617,5.710000038146973 -29.809999465942383,8.420000076293945 -32.939998626708984,11.880000114440918 -35.52000045776367,13.970000267028809 -35.22999954223633,16.850000381469727 -36.93000030517578,17.760000228881836 -38.560001373291016,18.020000457763672 -39.45000076293945,20.020000457763672 -42.13999938964844,21.790000915527344 -43.61000061035156,21.719999313354492 -45.70000076293945,24.200000762939453 -47.599998474121094,28.43000030517578 -49.13999938964844,30.639999389648438 -52.59000015258789,32.84000015258789 -51.650001525878906,36.060001373291016 -57.27000045776367,38.2400016784668 -63.119998931884766,40.29999923706055 -67.18000030517578,43.150001525878906 -70.56999969482422,44.959999084472656 -73.87999725341797,48.7400016784668 -79.16000366210938,55.63999938964844 -81.54000091552734,54.41999816894531 -87.87999725341797,57.459999084472656 -89.61000061035156,60.81999969482422 -92.97000122070312,64.69999694824219" style="fill:none;stroke:#000000;stroke-width:0.7252000188827514"></polyline>
</g>
<g id="(basal) Dendrite #1.1.2">
<polyline points="-19.030000686645508,10.369999885559082 -21.600000381469727,15.420000076293945 -21.549999237060547,21.450000762939453 -19.170000076293945,27.190000534057617 -16.170000076293945,31.75 -16.25,34.29999923706055" style="fill:none;stroke:#000000;stroke-width:0.6100000143051147"></polyline>
</g>
<g id="(basal) Dendrite #1.1.2.1">
<polyline points="-16.25,34.29999923706055 -14.229999542236328,39.16999816894531 -13.010000228881836,42.119998931884766 -12.109999656677246,44.630001068115234 -10.350000381469727,47.310001373291016 -9.819999694824219,49.220001220703125 -7.239999771118164,51.650001525878906" style="fill:none;stroke:#000000;stroke-width:0.5700000127156576"></polyline>
</g>
<g id="(basal) Dendrite #1.1.2.2">
<polyline points="-16.25,34.29999923706055 -19.770000457763672,39.09000015258789 -20.25,43.5 -22.790000915527344,47.119998931884766 -25.530000686645508,48.16999816894531 -25.299999237060547,53.349998474121094 -32.95000076293945,55.720001220703125 -37,63.08000183105469 -39.220001220703125,67.41999816894531 -43.869998931884766,69.2699966430664 -52.41999816894531,70.22000122070312" style="fill:none;stroke:#000000;stroke-width:0.49900001287460327"></polyline>
</g>
<g id="(basal) Dendrite #1.2">
<polyline points="-16.950000762939453,8.710000038146973 -16.09000015258789,13.960000038146973 -15.670000076293945,15.539999961853027 -16.079999923706055,18.200000762939453" style="fill:none;stroke:#000000;stroke-width:0.7300000190734863"></polyline>
</g>
<g id="(basal) Dendrite #1.2.1">
<polyline points="-16.079999923706055,18.200000762939453 -17.110000610351562,23.149999618530273 -18.1200008392334,26.18000030517578 -19.889999389648438,28.559999465942383" style="fill:none;stroke:#000000;stroke-width:0.7300000190734863"></polyline>
</g>
<g id="(basal) Dendrite #1.2.2">
<polyline points="-16.079999923706055,18.200000762939453 -13.710000038146973,19.969999313354492 -12.550000190734863,24.110000610351562 -12.109999656677246,28.579999923706055 -9.600000381469727,32.75 -8.569999694824219,38.7400016784668 -8.329999923706055,41.20000076293945 -9.40999984741211,45.43000030517578 -8.779999732971191,47.400001525878906 -8.770000457763672,52.189998626708984" style="fill:none;stroke:#000000;stroke-width:0.6900000174840292"></polyline>
</g>
<g id="(basal) Dendrite #2">
<polyline points="0,0 -0.15000000596046448,-6.179999828338623 -1.590000033378601,-9.779999732971191 -6.360000133514404,-15.109999656677246 -9.380000114440918,-18.290000915527344" style="fill:none;stroke:#000000;stroke-width:1.7000000476837158"></polyline>
</g>
<g id="(basal) Dendrite #2.1">
<polyline points="-9.380000114440918,-18.290000915527344 -11,-23.649999618530273 -10.210000038146973,-27.34000015258789 -11.319999694824219,-30.510000228881836" style="fill:none;stroke:#000000;stroke-width:1.2200000286102295"></polyline>
</g>
<g id="(basal) Dendrite #2.1.1">
<polyline points="-11.319999694824219,-30.510000228881836 -13.34000015258789,-34.0099983215332 -13.600000381469727,-35.650001525878906 -11.489999771118164,-39.220001220703125 -8.529999732971191,-41.25 -7.139999866485596,-45.04999923706055" style="fill:none;stroke:#000000;stroke-width:1.0420000314712525"></polyline>
</g>
<g id="(basal) Dendrite #2.1.1.1">
<polyline points="-7.139999866485596,-45.04999923706055 -6.309999942779541,-51.459999084472656 -4.190000057220459,-60.90999984741211 -1.4800000190734863,-69.55999755859375 -1.3899999856948853,-72.38999938964844" style="fill:none;stroke:#000000;stroke-width:0.8800000250339508"></polyline>
</g>
<g id="(basal) Dendrite #2.1.1.2">
<polyline points="-7.139999866485596,-45.04999923706055 -3.680000066757202,-46.349998474121094 -1.2400000095367432,-51.11000061035156 1.899999976158142,-56.470001220703125 5.619999885559082,-57.84000015258789 6.809999942779541,-57.5099983215332 11.5600004196167,-53.97999954223633 10.770000457763672,-51.099998474121094 17.899999618530273,-45.529998779296875 20.110000610351562,-43.97999954223633 22.709999084472656,-43.470001220703125 23.399999618530273,-41.06999969482422 25.170000076293945,-39.7400016784668 26.889999389648438,-37.220001220703125 29.979999542236328,-35.22999954223633 29.5,-31.649999618530273 30.559999465942383,-29.459999084472656 31.18000030517578,-26.1299991607666 32.540000915527344,-21.059999465942383 34.58000183105469,-18.639999389648438 35.20000076293945,-15.579999923706055" style="fill:none;stroke:#000000;stroke-width:0.6220000147819519"></polyline>
</g>
<g id="(basal) Dendrite #2.1.2">
<polyline points="-11.319999694824219,-30.510000228881836 -11.0600004196167,-33.58000183105469 -15.199999809265137,-37.7599983215332 -16.209999084472656,-44.84000015258789" style="fill:none;stroke:#000000;stroke-width:0.9300000270207723"></polyline>
</g>
<g id="(basal) Dendrite #2.1.2.1">
<polyline points="-16.209999084472656,-44.84000015258789 -18.899999618530273,-47.86000061035156" style="fill:none;stroke:#000000;stroke-width:0.7300000190734863"></polyline>
</g>
<g id="(basal) Dendrite #2.1.2.2">
<polyline points="-16.209999084472656,-44.84000015258789 -15.539999961853027,-46.40999984741211 -16.780000686645508,-48.279998779296875" style="fill:none;stroke:#000000;stroke-width:0.6100000143051147"></polyline>
</g>
<g id="(basal) Dendrite #2.2">
<polyline points="-9.380000114440918,-18.290000915527344 -13.520000457763672,-16.790000915527344 -15.529999732971191,-16.860000610351562 -16.56999969482422,-17.25 -17.450000762939453,-15.529999732971191 -17.469999313354492,-13.890000343322754 -18.139999389648438,-12.319999694824219 -20.309999465942383,-13.15999984741211 -25.8700008392334,-11.359999656677246 -27.329999923706055,-7.730000019073486 -31.639999389648438,-6.519999980926514 -32.900001525878906,-6.860000133514404" style="fill:none;stroke:#000000;stroke-width:0.8172727498141202"></polyline>
</g>
<g id="(basal) Dendrite #2.2.1">
<polyline points="-32.900001525878906,-6.860000133514404 -33.79999923706055,-9.100000381469727 -37.189998626708984,-12.350000381469727 -40.4900016784668,-14.170000076293945 -41.58000183105469,-13.90999984741211" style="fill:none;stroke:#000000;stroke-width:0.7300000190734863"></polyline>
</g>
<g id="(basal) Dendrite #2.2.2">
<polyline points="-32.900001525878906,-6.860000133514404 -36.52000045776367,-3.799999952316284 -38.84000015258789,-0.6000000238418579 -38.720001220703125,3.130000114440918 -40.150001525878906,4.320000171661377 -43.939998626708984,3.740000009536743 -46.43000030517578,6.429999828338623 -46.56999969482422,9.920000076293945 -50.25,12.539999961853027 -51.13999938964844,14.279999732971191 -53.61000061035156,17.239999771118164 -57.84000015258789,21.5 -60.33000183105469,25.010000228881836 -61.45000076293945,27.18000030517578 -61.56999969482422,29.030000686645508 -64.4800033569336,31.5 -66.0999984741211,34.90999984741211 -68.30999755859375,37.880001068115234 -69.72000122070312,37.97999954223633" style="fill:none;stroke:#000000;stroke-width:0.6766666836208768"></polyline>
</g>
<g id="(basal) Dendrite #3">
<polyline points="0,0 3.2200000286102295,7.179999828338623 3.9100000858306885,10.5 4.570000171661377,13.720000267028809 -0.8100000023841858,19.709999084472656 -2.809999942779541,23.8799991607666 -4.5,28.209999084472656 -4.429999828338623,33.439998626708984 0.27000001072883606,40.5099983215332 1.5,42.369998931884766" style="fill:none;stroke:#000000;stroke-width:2.0944444470935397"></polyline>
</g>
<g id="(basal) Dendrite #3.1">
<polyline points="1.5,42.369998931884766 2.180000066757202,45.040000915527344 3.9800000190734863,49.529998779296875" style="fill:none;stroke:#000000;stroke-width:1.340000033378601"></polyline>
</g>
<g id="(basal) Dendrite #3.1.1">
<polyline points="3.9800000190734863,49.529998779296875 4.889999866485596,51.220001220703125" style="fill:none;stroke:#000000;stroke-width:1.340000033378601"></polyline>
</g>
<g id="(basal) Dendrite #3.1.1.1">
<polyline points="4.889999866485596,51.220001220703125 6.739999771118164,50.810001373291016 9.020000457763672,51.43000030517578 11.170000076293945,53.08000183105469 14.539999961853027,59.04999923706055" style="fill:none;stroke:#000000;stroke-width:1.0000000298023224"></polyline>
</g>
<g id="(basal) Dendrite #3.1.1.1.1">
<polyline points="14.539999961853027,59.04999923706055 17.889999389648438,61.040000915527344 19.6299991607666,61.65999984741211 20.90999984741211,64.2300033569336 22.56999969482422,66.04000091552734 25.270000457763672,67.97000122070312 25.739999771118164,69.98999786376953 26.360000610351562,72.2300033569336 27.899999618530273,76.16999816894531" style="fill:none;stroke:#000000;stroke-width:0.7000000178813934"></polyline>
</g>
<g id="(basal) Dendrite #3.1.1.1.2">
<polyline points="14.539999961853027,59.04999923706055 14.029999732971191,60.83000183105469 16.489999771118164,65.11000061035156 15.210000038146973,67.5999984741211 14.619999885559082,71.68000030517578 16.149999618530273,76.69999694824219 19.010000228881836,83.36000061035156 17.65999984741211,87.4000015258789 18.530000686645508,92.0999984741211 20.030000686645508,94.2300033569336 18.969999313354492,96.01000213623047 20.639999389648438,98.37000274658203 20.239999771118164,100.22000122070312 21.170000076293945,104.25 20.979999542236328,106.4800033569336 21.270000457763672,111.27999877929688 23.239999771118164,113.80000305175781 24.190000534057617,117.30000305175781 25.06999969482422,121.98999786376953 23.979999542236328,126.76000213623047 23.649999618530273,132.1999969482422 23.1200008392334,136.1699981689453 24.6200008392334,139.1199951171875 27.139999389648438,141.64999389648438 29.1200008392334,144.17999267578125 29.440000534057617,144.88999938964844" style="fill:none;stroke:#000000;stroke-width:0.6820000171661377"></polyline>
</g>
<g id="(basal) Dendrite #3.1.1.2">
<polyline points="4.889999866485596,51.220001220703125 7.239999771118164,53.880001068115234 7.079999923706055,58.720001220703125 7.360000133514404,62.43000030517578 7.360000133514404,68.30000305175781 8.0600004196167,73.05000305175781 8.829999923706055,77.94999694824219 10.210000038146973,81.66999816894531 9.09000015258789,84.0999984741211 10.630000114440918,87.76000213623047 11.739999771118164,90.38999938964844 11.829999923706055,92.88999938964844 12.109999656677246,96.31999969482422" style="fill:none;stroke:#000000;stroke-width:0.6400000154972076"></polyline>
</g>
<g id="(basal) Dendrite #3.1.2">
<polyline points="3.9800000190734863,49.529998779296875 2.940000057220459,53.72999954223633 2.4600000381469727,58.13999938964844 2.0299999713897705,62.70000076293945 1.059999942779541,66.70999908447266 2.130000114440918,68.36000061035156 2.6700000762939453,69.45999908447266 1.7300000190734863,70.47000122070312" style="fill:none;stroke:#000000;stroke-width:0.7471428768975394"></polyline>
</g>
<g id="(basal) Dendrite #3.1.2.1">
<polyline points="1.7300000190734863,70.47000122070312 2.75,72.2300033569336 3.690000057220459,75.98999786376953 4.409999847412109,79.6500015258789 4.380000114440918,81.55999755859375 0.8100000023841858,85.05000305175781 0.5099999904632568,87.5 -1.7999999523162842,91.5 -3.380000114440918,97.26000213623047 -5.650000095367432,99.79000091552734 -5.119999885559082,101.69999694824219 -7.210000038146973,103.63999938964844 -7.619999885559082,106.02999877929688 -8.529999732971191,109.94000244140625 -8.979999542236328,111.62999725341797 -13.5,116.41999816894531 -13.229999542236328,117.23999786376953 -14.34000015258789,119.41000366210938 -15.239999771118164,121.68000030517578 -15.3100004196167,123.1500015258789 -16.690000534057617,124.5 -17.979999542236328,128.6199951171875 -16.719999313354492,133.63999938964844 -20.190000534057617,135.2100067138672 -22.299999237060547,138.77000427246094 -23.469999313354492,141.0500030517578 -23.600000381469727,143.44000244140625 -24.81999969482422,145.5500030517578" style="fill:none;stroke:#000000;stroke-width:0.7344444636945371"></polyline>
</g>
<g id="(basal) Dendrite #3.1.2.2">
<polyline points="1.7300000190734863,70.47000122070312 -0.6899999976158142,72.1500015258789 -2.2699999809265137,76.80999755859375 -3.490000009536743,79.47000122070312 -5.849999904632568,81.66999816894531 -6.920000076293945,84.55000305175781 -8.890000343322754,86 -11.600000381469727,90.76000213623047 -14.260000228881836,95.13999938964844 -16.3700008392334,98.16999816894531 -20.8700008392334,102.13999938964844 -22.8799991607666,107.12999725341797 -24.6299991607666,113.48999786376953 -25.540000915527344,117.12000274658203 -26.93000030517578,118.73999786376953 -28,122.43000030517578 -31.469999313354492,128.1999969482422 -30.969999313354492,132.02000427246094 -32.29999923706055,135.14999389648438 -32.400001525878906,138.52999877929688 -35.20000076293945,141.3300018310547 -37.439998626708984,147.02000427246094 -39.20000076293945,153.9199981689453 -40.91999816894531,162.05999755859375 -45.83000183105469,168.7100067138672 -46.79999923706055,172.4499969482422 -46.38999938964844,175.1199951171875 -48.61000061035156,179.17999267578125 -51.400001525878906,185.27999877929688 -54.43000030517578,188.24000549316406 -55.380001068115234,191.17999267578125 -57.779998779296875,191.86000061035156 -58.75,195.8800048828125 -62.58000183105469,197.72999572753906 -64.20999908447266,202.24000549316406 -65.23999786376953,207.17999267578125 -67.55999755859375,210.3699951171875 -68.77999877929688,213.57000732421875" style="fill:none;stroke:#000000;stroke-width:0.8208108334927946"></polyline>
</g>
<g id="(basal) Dendrite #3.2">
<polyline points="1.5,42.369998931884766 -0.5400000214576721,44.619998931884766 -0.949999988079071,47.290000915527344 0.03999999910593033,50.130001068115234 -1.0800000429153442,54.20000076293945 -2.930000066757202,59.400001525878906 -5.199999809265137,62.75 -6.960000038146973,65.4000015258789 -9.039999961853027,71.30999755859375 -12.069999694824219,80.1500015258789 -14.329999923706055,82.69000244140625 -15.739999771118164,87.02999877929688 -16.93000030517578,90.94000244140625 -17.579999923706055,96.20999908447266 -23.329999923706055,99.69000244140625 -29.969999313354492,113.48999786376953 -30.790000915527344,119.08999633789062 -36.459999084472656,125.08000183105469 -37.689998626708984,128 -42.52000045776367,136.3300018310547 -42.060001373291016,140.52999877929688 -47.65999984741211,145.30999755859375 -52.4900016784668,153.9199981689453 -53.369998931884766,159.3300018310547 -57.439998626708984,163.25999450683594 -59.22999954223633,166.99000549316406 -62.04999923706055,171.7100067138672 -64.72000122070312,176.89999389648438 -65.62000274658203,179.4499969482422 -70.87999725341797,183.58999633789062 -72.16000366210938,186.6199951171875 -76.56999969482422,192.02000427246094 -78.91999816894531,197.66000366210938" style="fill:none;stroke:#000000;stroke-width:0.6737500168383121"></polyline>
</g>
<g id="Axon">
<polyline points="0,0 4.570000171661377,13.720000267028809 9.859999656677246,18.739999771118164 13.350000381469727,23.670000076293945 15.59000015258789,28.110000610351562 16.84000015258789,32.86000061035156 20.170000076293945,36.209999084472656 23.6299991607666,37.9900016784668 28.170000076293945,37.439998626708984 30.479999542236328,39.310001373291016 34.779998779296875,39.189998626708984 36.720001220703125,41.0099983215332 36.58000183105469,44.47999954223633" style="fill:none;stroke:#000000;stroke-width:0.8616666793823242"></polyline>
</g>
<g id="Axon.1">
<polyline points="36.58000183105469,44.47999954223633 40.15999984741211,45.22999954223633 43.310001373291016,44.939998626708984 44.31999969482422,42.709999084472656" style="fill:none;stroke:#000000;stroke-width:0.6500000158945719"></polyline>
</g>
<g id="Axon.1.1">
<polyline points="44.31999969482422,42.709999084472656 48.939998626708984,37.970001220703125 50.7599983215332,35.4900016784668" style="fill:none;stroke:#000000;stroke-width:0.550000011920929"></polyline>
</g>
<g id="Axon.1.1.1">
<polyline points="50.7599983215332,35.4900016784668 50.369998931884766,30.920000076293945 51.40999984741211,25.690000534057617 52.900001525878906,23.860000610351562 56.650001525878906,24.559999465942383 59.09000015258789,24.850000381469727 60.93000030517578,25.790000915527344" style="fill:none;stroke:#000000;stroke-width:0.49000000953674316"></polyline>
</g>
<g id="Axon.1.1.2">
<polyline points="50.7599983215332,35.4900016784668 53.619998931884766,32.849998474121094 54.15999984741211,28.34000015258789" style="fill:none;stroke:#000000;stroke-width:0.49000000953674316"></polyline>
</g>
<g id="Axon.1.2">
<polyline points="44.31999969482422,42.709999084472656 48.11000061035156,44.65999984741211 51.16999816894531,47.7400016784668 50.90999984741211,51.439998626708984 53.77000045776367,54.68000030517578 57.540000915527344,57.70000076293945 59.41999816894531,59.630001068115234" style="fill:none;stroke:#000000;stroke-width:0.49000000953674316"></polyline>
</g>
<g id="Axon.1.2.1">
<polyline points="59.41999816894531,59.630001068115234 57.93000030517578,67.06999969482422 58.47999954223633,71.87000274658203 59.95000076293945,74.72000122070312" style="fill:none;stroke:#000000;stroke-width:0.49000000953674316"></polyline>
</g>
<g id="Axon.1.2.2">
<polyline points="59.41999816894531,59.630001068115234 63.97999954223633,64.4800033569336 65.73999786376953,67.44000244140625 68.94000244140625,68.4000015258789 73.45999908447266,68.11000061035156 75.72000122070312,65.8499984741211 77.55000305175781,62 77.56999969482422,60.099998474121094 77.51000213623047,56.2400016784668 79.8499984741211,50.599998474121094" style="fill:none;stroke:#000000;stroke-width:0.37444445821974015"></polyline>
</g>
<g id="Axon.2">
<polyline points="36.58000183105469,44.47999954223633 39.279998779296875,49.47999954223633 40.09000015258789,49.4900016784668 42.52000045776367,52.22999954223633" style="fill:none;stroke:#000000;stroke-width:0.36000001430511475"></polyline>
</g></g></svg>