
  <svg id="SVG_ROOT" xmlns="http://www.w3.org/2000/svg" class="innerBox" preserveAspectRatio="xMinYMin meet" style="shape-rendering:geometricPrecision; text-rendering:geometricPrecision; fill-rule:evenodd" viewBox="-101.9000015258789 -67.239990234375 219.60000610351562 658.52001953125" width="219.60000610351562mm" height="658.52001953125mm"><g transform="scale(1,-1)"><g id="Soma">
<polyline points="0,0" style="fill:none;stroke:#ffffff;stroke-width:20.878599166870117"></polyline>
</g>
<g id="Soma.1">
<polyline points="0,0 10.40999984741211,0.6200000047683716" style="fill:none;stroke:#ffffff;stroke-width:20.878599166870117"></polyline>
</g>
<g id="Soma.2">
<polyline points="0,0 -10.40999984741211,-0.6200000047683716" style="fill:none;stroke:#ffffff;stroke-width:20.878599166870117"></polyline>
</g>
<g id="(basal) Dendrite #1">
<polyline points="0,0 -7.949999809265137,0.38999998569488525 -8.319999694824219,0.6000000238418579 -8.550000190734863,0.8100000023841858 -8.800000190734863,0.9100000262260437 -9.020000457763672,0.8899999856948853 -9.260000228881836,1 -9.489999771118164,1.100000023841858 -9.609999656677246,1.2000000476837158 -9.829999923706055,1.190000057220459 -12.15999984741211,1.5099999904632568 -12.630000114440918,1.4800000190734863 -12.859999656677246,1.5700000524520874 -13.420000076293945,1.5399999618530273 -15.960000038146973,1.6200000047683716 -20.190000534057617,1.3600000143051147 -20.299999237060547,1.25 -21.200000762939453,1.0700000524520874 -21.420000076293945,0.949999988079071 -21.780000686645508,0.9300000071525574 -21.8700008392334,0.800000011920929 -22,0.6800000071525574" style="fill:none;stroke:#000000;stroke-width:0.10999999940395355"></polyline>
</g>
<g id="(basal) Dendrite #1.1">
<polyline points="-22,0.6800000071525574 -23.809999465942383,2.2899999618530273 -25.139999389648438,3.25 -25.25,3.3499999046325684 -25.600000381469727,3.450000047683716 -25.729999542236328,3.559999942779541 -25.950000762939453,3.6600000858306885 -26.190000534057617,3.759999990463257 -27.850000381469727,4.570000171661377 -28.209999084472656,4.78000020980835 -28.440000534057617,4.900000095367432 -28.68000030517578,4.989999771118164 -28.90999984741211,5.079999923706055 -29.030000686645508,5.199999809265137 -29.270000457763672,5.420000076293945 -30.709999084472656,6.349999904632568 -30.950000762939453,6.460000038146973 -31.190000534057617,6.550000190734863 -31.549999237060547,6.869999885559082 -31.65999984741211,6.989999771118164 -31.790000915527344,7.090000152587891 -33.22999954223633,8.039999961853027 -33.459999084472656,8.029999732971191 -33.59000015258789,8.140000343322754 -33.939998626708984,8.34000015258789 -34.279998779296875,8.319999694824219 -35.56999969482422,8.930000305175781 -35.93000030517578,9.020000457763672 -36.15999984741211,9.119999885559082 -36.40999984741211,9.220000267028809 -36.529998779296875,9.449999809265137 -37.0099983215332,9.760000228881836 -37.119998931884766,9.859999656677246 -38.34000015258789,10.949999809265137 -38.459999084472656,11.050000190734863 -38.689998626708984,11.039999961853027 -38.81999969482422,11.149999618530273 -38.93000030517578,11.260000228881836 -39.15999984741211,11.350000381469727 -40.56999969482422,11.84000015258789 -41.5,11.779999732971191 -41.720001220703125,11.880000114440918 -42.06999969482422,11.859999656677246 -43.2599983215332,12.380000114440918 -43.470001220703125,12.470000267028809 -43.720001220703125,12.579999923706055 -44.06999969482422,12.670000076293945 -44.310001373291016,12.779999732971191 -44.540000915527344,12.869999885559082 -45.130001068115234,13.289999961853027 -47.66999816894531,15.100000381469727 -47.900001525878906,15.300000190734863 -48.02000045776367,15.40999984741211 -48.15999984741211,15.640000343322754 -48.279998779296875,15.850000381469727 -48.40999984741211,16.09000015258789 -49.02000045776367,16.6200008392334 -49.2599983215332,16.940000534057617 -49.630001068115234,17.260000228881836 -50.689998626708984,17.780000686645508 -50.90999984741211,17.770000457763672 -51.15999984741211,17.850000381469727 -51.290000915527344,17.969999313354492 -51.5099983215332,18.06999969482422 -52.56999969482422,18.459999084472656 -52.810001373291016,18.450000762939453 -53.040000915527344,18.559999465942383 -53.400001525878906,18.760000228881836 -53.619998931884766,18.75 -53.86000061035156,18.84000015258789 -54.56999969482422,19.040000915527344 -54.790000915527344,19.139999389648438 -55.13999938964844,19.1200008392334 -55.2599983215332,19.219999313354492 -55.4900016784668,19.31999969482422 -55.619998931884766,19.440000534057617 -59.38999938964844,23.110000610351562 -59.7599983215332,23.209999084472656 -59.869998931884766,23.309999465942383 -60.09000015258789,23.299999237060547 -60.34000015258789,23.389999389648438 -62.06999969482422,23.639999389648438 -62.29999923706055,23.739999771118164 -62.54999923706055,23.829999923706055 -62.880001068115234,23.809999465942383 -63.130001068115234,23.90999984741211 -63.34000015258789,23.889999389648438 -64.9800033569336,24.389999389648438 -65.22000122070312,24.3700008392334 -65.44999694824219,24.469999313354492 -65.68000030517578,24.559999465942383 -66.02999877929688,24.540000915527344 -66.37999725341797,24.6299991607666 -66.5999984741211,24.6200008392334 -66.72000122070312,24.719999313354492 -66.97000122070312,24.84000015258789 -68.94999694824219,25.40999984741211 -69.30999755859375,25.5 -69.63999938964844,25.479999542236328 -69.87999725341797,25.559999465942383 -70.56999969482422,25.520000457763672 -71.5999984741211,25.579999923706055 -75.73999786376953,25.68000030517578 -77.91999816894531,25.770000457763672 -78.16000366210938,25.889999389648438 -79.80999755859375,26.469999313354492 -80.16999816894531,26.559999465942383 -80.38999938964844,26.540000915527344 -80.62000274658203,26.639999389648438 -80.73999786376953,26.760000228881836 -81.66999816894531,26.940000534057617 -82.04000091552734,27.020000457763672 -82.26000213623047,27.1200008392334 -82.62000274658203,27.34000015258789 -82.6500015258789,27.90999984741211" style="fill:none;stroke:#000000;stroke-width:0.10999999940395355"></polyline>
</g>
<g id="(basal) Dendrite #1.2">
<polyline points="-22,0.6800000071525574 -23.959999084472656,-0.8100000023841858 -24.040000915527344,-1.2699999809265137 -24.149999618530273,-1.5099999904632568 -24.1299991607666,-1.7300000190734863 -24.360000610351562,-1.9800000190734863 -24.450000762939453,-2.2100000381469727 -25.799999237060547,-2.640000104904175 -26.5,-2.680000066757202 -26.719999313354492,-2.809999942779541 -27.290000915527344,-2.8399999141693115 -28.299999237060547,-3.130000114440918 -28.760000228881836,-3.1600000858306885 -28.860000610351562,-3.2699999809265137 -29.09000015258789,-3.2899999618530273 -29.209999084472656,-3.5399999618530273 -29.43000030517578,-3.549999952316284 -30.790000915527344,-3.859999895095825 -32.959999084472656,-3.990000009536743" style="fill:none;stroke:#000000;stroke-width:0.10999999940395355"></polyline>
</g>
<g id="(basal) Dendrite #1.2.1">
<polyline points="-32.959999084472656,-3.990000009536743 -34.58000183105469,-3.619999885559082 -36.9900016784668,-3.759999990463257 -38.11000061035156,-4.170000076293945 -38.56999969482422,-4.199999809265137 -39.47999954223633,-4.380000114440918 -44.290000915527344,-4.670000076293945 -45.20000076293945,-4.730000019073486" style="fill:none;stroke:#000000;stroke-width:0.10999999940395355"></polyline>
</g>
<g id="(basal) Dendrite #1.2.1.1">
<polyline points="-45.20000076293945,-4.730000019073486 -46.02000045776367,-4.650000095367432 -46.599998474121094,-4.449999809265137 -46.83000183105469,-4.360000133514404 -47.41999816894531,-4.050000190734863 -47.779998779296875,-4.070000171661377 -47.880001068115234,-3.9700000286102295 -48.11000061035156,-3.9800000190734863 -48.939998626708984,-3.680000066757202 -49.529998779296875,-3.380000114440918 -49.650001525878906,-3.259999990463257 -50.25,-2.8499999046325684 -50.38999938964844,-2.630000114440918 -50.630001068115234,-2.4100000858306885 -51.11000061035156,-2.0999999046325684 -51.2400016784668,-1.8700000047683716 -51.47999954223633,-1.5299999713897705 -51.619998931884766,-1.3200000524520874 -51.7400016784668,-1.100000023841858 -51.869998931884766,-0.8700000047683716 -52.34000015258789,-0.6700000166893005 -52.459999084472656,-0.5699999928474426 -52.56999969482422,-0.46000000834465027 -52.81999969482422,-0.36000001430511475 -52.83000183105469,-0.25 -54.349998474121094,0.44999998807907104 -54.599998474121094,0.5699999928474426 -54.81999969482422,0.6600000262260437 -55.06999969482422,0.7699999809265137 -56.0099983215332,1.159999966621399 -56.25,1.2699999809265137 -56.47999954223633,1.3600000143051147 -56.720001220703125,1.350000023841858 -56.84000015258789,1.4500000476837158 -57.63999938964844,1.6399999856948853 -57.880001068115234,1.6200000047683716 -58.099998474121094,1.7300000190734863 -58.349998474121094,1.8200000524520874 -59.7400016784668,2.0799999237060547 -60.09000015258789,2.059999942779541 -60.310001373291016,2.1600000858306885 -61.130001068115234,2.2300000190734863 -61.2599983215332,2.3299999237060547 -61.59000015258789,2.309999942779541 -61.61000061035156,2.7699999809265137" style="fill:none;stroke:#000000;stroke-width:0.10999999940395355"></polyline>
</g>
<g id="(basal) Dendrite #1.2.1.2">
<polyline points="-45.20000076293945,-4.730000019073486 -47.33000183105469,-5.539999961853027 -47.779998779296875,-5.679999828338623 -49.040000915527344,-5.75 -50.33000183105469,-5.480000019073486 -51.130001068115234,-5.53000020980835 -52.689998626708984,-6.090000152587891 -52.93000030517578,-6.230000019073486 -53.25,-6.579999923706055 -55,-8.069999694824219 -56.540000915527344,-8.960000038146973 -56.77000045776367,-9.09000015258789 -56.97999954223633,-9.220000267028809 -57.209999084472656,-9.470000267028809 -57.41999816894531,-9.579999923706055 -57.65999984741211,-9.710000038146973 -58.779998779296875,-10.239999771118164 -58.9900016784668,-10.369999885559082 -59.34000015258789,-10.390000343322754 -59.54999923706055,-10.520000457763672 -62.29999923706055,-10.6899995803833 -62.529998779296875,-10.8100004196167 -62.75,-10.819999694824219 -62.849998474121094,-10.9399995803833 -63.09000015258789,-10.949999809265137 -64.98999786376953,-11.640000343322754 -65.22000122070312,-11.779999732971191 -65.44000244140625,-11.800000190734863 -65.66000366210938,-12.029999732971191 -66.01000213623047,-12.050000190734863 -67.25,-12.479999542236328 -67.58999633789062,-12.5 -67.69000244140625,-12.619999885559082 -71.25,-12.84000015258789 -71.4800033569336,-12.960000038146973 -73.04000091552734,-13.399999618530273 -78.30000305175781,-13.710000038146973 -80.37000274658203,-14.0600004196167 -80.58999633789062,-14.1899995803833 -80.80999755859375,-14.210000038146973 -81.25,-14.350000381469727 -81.37000274658203,-14.479999542236328 -87.36000061035156,-15.420000076293945" style="fill:none;stroke:#000000;stroke-width:0.10999999940395355"></polyline>
</g>
<g id="(basal) Dendrite #1.2.2">
<polyline points="-32.959999084472656,-3.990000009536743 -35.38999938964844,-6.889999866485596 -35.599998474121094,-7.130000114440918 -35.83000183105469,-7.269999980926514 -35.939998626708984,-7.510000228881836 -36.25,-7.869999885559082 -36.9900016784668,-9.050000190734863 -37.20000076293945,-9.1899995803833 -37.43000030517578,-9.300000190734863 -37.63999938964844,-9.550000190734863 -37.7400016784668,-9.789999961853027 -37.959999084472656,-10.020000457763672 -38.68000030517578,-11.460000038146973 -38.779998779296875,-11.569999694824219 -38.77000045776367,-11.6899995803833 -39.779998779296875,-14.279999732971191 -40.209999084472656,-14.640000343322754 -40.31999969482422,-14.760000228881836 -40.43000030517578,-14.890000343322754 -40.529998779296875,-15.119999885559082 -40.630001068115234,-15.119999885559082 -41.189998626708984,-15.5 -41.290000915527344,-15.619999885559082 -41.40999984741211,-15.739999771118164 -41.630001068115234,-15.75 -41.7400016784668,-15.880000114440918 -42.52000045776367,-16.280000686645508 -42.630001068115234,-16.399999618530273 -42.72999954223633,-16.520000457763672 -42.959999084472656,-16.649999618530273 -43.72999954223633,-17.149999618530273 -43.95000076293945,-17.280000686645508 -44.06999969482422,-17.399999618530273 -44.16999816894531,-17.6299991607666 -44.380001068115234,-17.760000228881836 -44.70000076293945,-18.229999542236328 -44.790000915527344,-18.600000381469727 -44.900001525878906,-18.829999923706055 -45.08000183105469,-19.639999389648438 -44.9900016784668,-21.010000228881836 -45.099998474121094,-21.1200008392334 -45.08000183105469,-21.350000381469727 -45.310001373291016,-21.479999542236328 -45.7400016784668,-21.969999313354492 -45.84000015258789,-22.09000015258789 -46.08000183105469,-22.100000381469727 -46.18000030517578,-22.229999542236328 -46.72999954223633,-22.700000762939453 -46.83000183105469,-22.84000015258789 -46.95000076293945,-22.950000762939453 -47.04999923706055,-23.079999923706055 -47.15999984741211,-23.190000534057617 -47.810001373291016,-23.809999465942383 -47.90999984741211,-24.040000915527344 -48.02000045776367,-24.15999984741211 -48.2400016784668,-24.299999237060547 -48.34000015258789,-24.520000457763672 -48.45000076293945,-24.530000686645508 -49.439998626708984,-25.510000228881836 -49.9900016784668,-25.889999389648438 -49.97999954223633,-26 -50.09000015258789,-26.1200008392334 -50.20000076293945,-26.260000228881836 -50.40999984741211,-26.3799991607666 -51.060001373291016,-26.979999542236328 -51.189998626708984,-26.989999771118164 -51.400001525878906,-27.1200008392334 -51.619998931884766,-27.479999542236328 -51.720001220703125,-27.600000381469727 -51.81999969482422,-27.719999313354492 -52.04999923706055,-27.959999084472656 -52.13999938964844,-28.209999084472656 -52.25,-28.450000762939453 -52.65999984741211,-29.15999984741211 -52.63999938964844,-29.3799991607666" style="fill:none;stroke:#000000;stroke-width:0.10999999940395355"></polyline>
</g>
<g id="(basal) Dendrite #2">
<polyline points="0,0 -4.78000020980835,4.940000057220459 -5.610000133514404,5.46999979019165 -5.730000019073486,5.559999942779541 -5.860000133514404,5.679999828338623 -6.090000152587891,5.769999980926514 -6.199999809265137,5.869999885559082 -6.340000152587891,5.989999771118164 -6.449999809265137,6.21999979019165 -7.670000076293945,7.170000076293945 -7.78000020980835,7.28000020980835 -8.020000457763672,7.380000114440918 -8.369999885559082,7.480000019073486 -8.600000381469727,7.570000171661377 -9.569999694824219,8.3100004196167 -9.800000190734863,8.40999984741211 -10.050000190734863,8.630000114440918 -10.170000076293945,8.75 -10.529999732971191,8.84000015258789 -10.529999732971191,8.960000038146973 -11.489999771118164,9.470000267028809 -11.720000267028809,9.680000305175781 -11.829999923706055,9.789999961853027 -12.550000190734863,10.09000015258789 -12.789999961853027,10.3100004196167 -13.140000343322754,10.390000343322754 -13.859999656677246,10.8100004196167 -14.100000381469727,10.90999984741211 -14.319999694824219,11.020000457763672 -14.569999694824219,11.239999771118164 -15.170000076293945,11.649999618530273 -15.40999984741211,11.760000228881836 -15.520000457763672,11.979999542236328" style="fill:none;stroke:#000000;stroke-width:0.10999999940395355"></polyline>
</g>
<g id="(basal) Dendrite #2.1">
<polyline points="-15.520000457763672,11.979999542236328 -15.710000038146973,13.100000381469727 -15.779999732971191,14.260000228881836 -15.569999694824219,14.510000228881836 -14.949999809265137,15.8100004196167 -14.619999885559082,15.9399995803833 -14.1899995803833,16.309999465942383" style="fill:none;stroke:#000000;stroke-width:0.10999999940395355"></polyline>
</g>
<g id="(basal) Dendrite #2.1.1">
<polyline points="-14.1899995803833,16.309999465942383 -13.680000305175781,17.25 -13.6899995803833,17.469999313354492 -13.149999618530273,18.31999969482422 -12.930000305175781,18.549999237060547 -12.520000457763672,19.170000076293945 -12.40999984741211,19.280000686645508 -12.420000076293945,19.5 -12.119999885559082,19.989999771118164 -12,20.110000610351562 -11.90999984741211,20.469999313354492 -11.800000190734863,20.690000534057617 -11.819999694824219,21.040000915527344 -11.729999542236328,21.15999984741211 -11.779999732971191,22.079999923706055 -11.550000190734863,22.200000762939453 -11.430000305175781,22.209999084472656 -12.010000228881836,22.170000076293945 -12.260000228881836,22.270000457763672 -12.260000228881836,22.3799991607666 -12.609999656677246,22.600000381469727 -12.600000381469727,22.479999542236328 -12.359999656677246,22.3700008392334 -12.260000228881836,22.270000457763672 -11.220000267028809,22.329999923706055 -11.449999809265137,22.549999237060547 -11.579999923706055,22.65999984741211 -11.829999923706055,22.8799991607666 -12.0600004196167,22.969999313354492 -12.180000305175781,23.06999969482422 -11.970000267028809,23.549999237060547 -11.640000343322754,23.68000030517578 -11.430000305175781,23.81999969482422" style="fill:none;stroke:#000000;stroke-width:0.10999999940395355"></polyline>
</g>
<g id="(basal) Dendrite #2.1.2">
<polyline points="-14.1899995803833,16.309999465942383 -11.039999961853027,19.3700008392334 -10.609999656677246,19.719999313354492 -10.489999771118164,19.969999313354492 -10.289999961853027,20.209999084472656 -10.1899995803833,20.440000534057617 -9.359999656677246,21.979999542236328 -9.380000114440918,22.329999923706055 -9.15999984741211,22.56999969482422 -8.960000038146973,22.940000534057617 -8.729999542236328,23.170000076293945 -8.649999618530273,23.420000076293945 -8.550000190734863,23.860000610351562 -8.4399995803833,24 -8.229999542236328,24.34000015258789 -8.130000114440918,24.700000762939453 -7.179999828338623,25.799999237060547 -7.070000171661377,25.920000076293945 -6.730000019073486,25.940000534057617 -6.619999885559082,26.15999984741211 -6.389999866485596,26.18000030517578 -6.170000076293945,26.309999465942383 -4.510000228881836,27.209999084472656 -4.300000190734863,27.34000015258789 -3.9600000381469727,27.489999771118164 -3.8499999046325684,27.600000381469727 -3.740000009536743,27.719999313354492 -2.640000104904175,28.709999084472656 -2.549999952316284,28.940000534057617 -2.3299999237060547,29.18000030517578 -1.409999966621399,30.84000015258789 -1.2999999523162842,30.969999313354492 -1.0800000429153442,31.209999084472656 -0.8399999737739563,31.219999313354492 -0.75,31.34000015258789 -0.5199999809265137,31.59000015258789 -0.3199999928474426,31.829999923706055 1.340000033378601,32.970001220703125 1.4299999475479126,33.08000183105469 1.7799999713897705,33.209999084472656" style="fill:none;stroke:#000000;stroke-width:0.10999999940395355"></polyline>
</g>
<g id="(basal) Dendrite #2.1.2.1">
<polyline points="1.7799999713897705,33.209999084472656 2.809999942779541,34.880001068115234 2.9000000953674316,35.56999969482422 2.9800000190734863,36.040000915527344 2.930000066757202,36.7400016784668 3.140000104904175,37.31999969482422 3.0999999046325684,37.88999938964844 3.8299999237060547,39.20000076293945 4.039999961853027,39.31999969482422 4.150000095367432,39.68000030517578 4.239999771118164,39.900001525878906 4.349999904632568,40.150001525878906 4.440000057220459,40.4900016784668 4.639999866485596,40.970001220703125 4.71999979019165,41.43000030517578 4.619999885559082,43.150001525878906 4.510000228881836,43.2400016784668 4.269999980926514,43.349998474121094 3.109999895095825,43.5099983215332 2.299999952316284,43.459999084472656 1.159999966621399,43.61000061035156 0.7900000214576721,43.709999084472656 0.5600000023841858,43.810001373291016 -0.12999999523162842,44.0099983215332 -0.25999999046325684,44.11000061035156 -0.47999998927116394,44.209999084472656 -0.6100000143051147,44.33000183105469 -0.9599999785423279,44.41999816894531 -1.190000057220459,44.400001525878906 -1.2999999523162842,44.5099983215332 -2.119999885559082,44.56999969482422 -2.240000009536743,44.66999816894531 -2.5799999237060547,44.650001525878906" style="fill:none;stroke:#000000;stroke-width:0.10999999940395355"></polyline>
</g>
<g id="(basal) Dendrite #2.1.2.2">
<polyline points="1.7799999713897705,33.209999084472656 5.139999866485596,34.56999969482422 5.590000152587891,34.59000015258789 5.710000038146973,34.720001220703125 5.929999828338623,34.84000015258789 6.260000228881836,35.08000183105469 6.489999771118164,35.099998474121094 6.599999904632568,35.22999954223633 6.820000171661377,35.36000061035156 7.159999847412109,35.5 8.720000267028809,36.15999984741211 8.9399995803833,36.290000915527344 9.15999984741211,36.40999984741211 9.380000114440918,36.41999816894531 9.609999656677246,36.54999923706055 9.850000381469727,36.560001373291016 10.069999694824219,36.709999084472656 10.170000076293945,36.81999969482422 10.510000228881836,36.84000015258789 12.529999732971191,37.650001525878906 12.989999771118164,37.66999816894531 13.109999656677246,37.790000915527344 13.90999984741211,37.84000015258789 14.239999771118164,37.9900016784668 15.930000305175781,38.31999969482422 16.739999771118164,38.369998931884766 16.959999084472656,38.47999954223633 17.299999237060547,38.5 19.020000457763672,38.849998474121094 19.239999771118164,38.97999954223633 19.68000030517578,39.119998931884766 19.780000686645508,39.22999954223633 20.790000915527344,39.650001525878906 21.020000457763672,39.880001068115234 21.239999771118164,40 21.329999923706055,40.13999938964844 21.56999969482422,40.2599983215332 21.68000030517578,40.380001068115234 21.780000686645508,40.5 21.889999389648438,40.630001068115234 22.6299991607666,41.47999954223633 22.719999313354492,41.83000183105469 23.020000457763672,42.650001525878906 23.010000228881836,42.86000061035156 23.110000610351562,43 23.229999542236328,43.22999954223633 23.31999969482422,43.45000076293945 23.719999313354492,44.52000045776367 23.799999237060547,44.880001068115234 23.93000030517578,44.97999954223633 24.329999923706055,45.939998626708984 24.43000030517578,46.060001373291016 24.6299991607666,46.529998779296875 24.719999313354492,46.88999938964844 24.81999969482422,47.119998931884766 24.93000030517578,47.34000015258789 26.06999969482422,49.369998931884766 26.170000076293945,49.5 26.290000915527344,49.61000061035156 26.3799991607666,49.970001220703125 26.3700008392334,50.18000030517578 26.469999313354492,50.31999969482422 27.350000381469727,52.7599983215332 27.450000762939453,53 27.56999969482422,53.13999938964844 27.549999237060547,53.47999954223633 27.760000228881836,53.84000015258789 27.850000381469727,54.06999969482422 27.829999923706055,54.29999923706055 27.940000534057617,54.40999984741211 28.139999389648438,55.0099983215332 28.1299991607666,55.119998931884766 29.59000015258789,59.56999969482422 29.579999923706055,59.79999923706055 29.780000686645508,60.029998779296875 29.770000457763672,60.2599983215332 29.889999389648438,60.4900016784668 30.389999389648438,61.439998626708984 30.5,61.689998626708984 30.600000381469727,61.93000030517578 30.809999465942383,62.15999984741211 31.309999465942383,63.220001220703125 31.43000030517578,63.470001220703125 31.520000457763672,63.70000076293945 31.850000381469727,64.05000305175781 32.06999969482422,64.19000244140625 32.16999816894531,64.30000305175781 33.380001068115234,65.18000030517578 33.5,65.31999969482422 33.709999084472656,65.44000244140625 33.93000030517578,65.56999969482422 34.59000015258789,66.16999816894531 34.810001373291016,66.30000305175781 35.040000915527344,66.44000244140625 35.2400016784668,66.9000015258789 35.220001220703125,67.23999786376953 34.41999816894531,67.19000244140625 34.29999923706055,67.08000183105469" style="fill:none;stroke:#000000;stroke-width:0.10999999940395355"></polyline>
</g>
<g id="(basal) Dendrite #2.2">
<polyline points="-15.520000457763672,11.979999542236328 -17.799999237060547,13.569999694824219 -18.40999984741211,13.970000267028809 -18.530000686645508,14.210000038146973 -18.65999984741211,14.319999694824219 -18.670000076293945,14.550000190734863 -18.90999984741211,14.649999618530273 -18.920000076293945,14.859999656677246 -19.399999618530273,15.300000190734863 -19.649999618530273,15.390000343322754 -20.489999771118164,16.040000915527344 -20.600000381469727,16.15999984741211 -20.850000381469727,16.360000610351562 -21.200000762939453,16.56999969482422 -21.329999923706055,16.68000030517578 -21.56999969482422,16.780000686645508 -21.68000030517578,16.8799991607666 -22.049999237060547,17.31999969482422 -22.280000686645508,17.420000076293945 -22.540000915527344,17.639999389648438 -22.770000457763672,17.739999771118164 -23.600000381469727,18.260000228881836 -23.84000015258789,18.489999771118164 -24.190000534057617,18.56999969482422 -24.90999984741211,18.860000610351562 -25.1299991607666,18.969999313354492 -25.5,19.06999969482422 -25.610000610351562,19.18000030517578 -25.84000015258789,19.170000076293945 -26.079999923706055,19.260000228881836 -26.309999465942383,19.360000610351562 -26.790000915527344,19.68000030517578 -27.350000381469727,19.649999618530273 -27.600000381469727,19.739999771118164 -28.530000686645508,19.90999984741211 -28.8799991607666,20.020000457763672 -29.81999969482422,20.420000076293945 -30.059999465942383,20.520000457763672 -30.299999237060547,20.610000610351562 -30.530000686645508,20.709999084472656 -31.229999542236328,20.90999984741211 -31.459999084472656,20.889999389648438 -32.279998779296875,21.170000076293945 -32.52000045776367,21.15999984741211 -32.630001068115234,21.389999389648438 -32.880001068115234,21.5 -32.880001068115234,21.610000610351562" style="fill:none;stroke:#000000;stroke-width:0.10999999940395355"></polyline>
</g>
<g id="(basal) Dendrite #2.2.1">
<polyline points="-32.880001068115234,21.610000610351562 -33.849998474121094,22.579999923706055 -34.459999084472656,23.1200008392334 -34.59000015258789,23.329999923706055 -34.709999084472656,23.450000762939453 -35.18000030517578,23.639999389648438 -35.29999923706055,23.75 -35.529998779296875,23.850000381469727 -36.36000061035156,24.040000915527344" style="fill:none;stroke:#000000;stroke-width:0.10999999940395355"></polyline>
</g>
<g id="(basal) Dendrite #2.2.1.1">
<polyline points="-36.36000061035156,24.040000915527344 -37.65999984741211,22.920000076293945 -38.459999084472656,22.8799991607666 -38.689998626708984,22.639999389648438 -38.900001525878906,22.5 -39.22999954223633,22.260000228881836 -40.099998474121094,21.389999389648438 -40.220001220703125,21.280000686645508 -40.310001373291016,21.15999984741211 -40.540000915527344,21.040000915527344 -40.7599983215332,20.780000686645508 -41.75,20.15999984741211 -42.09000015258789,20.010000228881836 -42.20000076293945,19.899999618530273 -42.29999923706055,19.780000686645508 -42.52000045776367,19.770000457763672 -43.31999969482422,19.3700008392334 -43.529998779296875,19.239999771118164 -43.869998931884766,19.110000610351562 -44.310001373291016,18.739999771118164 -44.52000045776367,18.610000610351562 -45.529998779296875,18.09000015258789 -45.75,17.969999313354492 -45.9900016784668,17.950000762939453 -46.09000015258789,17.829999923706055 -46.29999923706055,17.700000762939453 -46.529998779296875,17.559999465942383 -46.63999938964844,17.549999237060547 -46.75,17.440000534057617 -47.849998474121094,16.690000534057617 -48.08000183105469,16.440000534057617 -48.52000045776367,16.299999237060547 -48.630001068115234,16.06999969482422 -48.849998474121094,16.059999465942383 -48.95000076293945,15.9399995803833 -49.18000030517578,15.6899995803833 -49.400001525878906,15.680000305175781 -49.5099983215332,15.449999809265137 -50.380001068115234,14.9399995803833 -50.5,14.8100004196167 -50.7400016784668,14.789999961853027 -52.84000015258789,13.399999618530273 -52.93000030517578,13.279999732971191 -53.029998779296875,13.15999984741211 -53.2599983215332,13.039999961853027 -53.380001068115234,12.920000076293945 -53.47999954223633,12.789999961853027 -53.70000076293945,12.770000457763672 -53.93000030517578,12.539999961853027 -54.70000076293945,12.260000228881836" style="fill:none;stroke:#000000;stroke-width:0.10999999940395355"></polyline>
</g>
<g id="(basal) Dendrite #2.2.1.2">
<polyline points="-36.36000061035156,24.040000915527344 -37.90999984741211,25.09000015258789 -42.25,24.829999923706055 -43.88999938964844,25.190000534057617 -44,25.190000534057617 -44.2400016784668,25.280000686645508 -44.470001220703125,25.3799991607666 -44.59000015258789,25.479999542236328 -46.04999923706055,26.670000076293945 -46.279998779296875,26.770000457763672 -46.77000045776367,27.309999465942383 -46.88999938964844,27.420000076293945 -47.029998779296875,27.6299991607666 -47.150001525878906,27.75 -47.2599983215332,27.860000610351562 -47.5099983215332,27.950000762939453 -47.52000045776367,28.059999465942383 -47.630001068115234,28.18000030517578 -48.84000015258789,29.010000228881836 -49.060001373291016,29.1200008392334 -49.43000030517578,29.450000762939453 -49.560001373291016,29.65999984741211 -49.66999816894531,29.780000686645508 -49.790000915527344,29.889999389648438 -51.45000076293945,30.709999084472656 -52.040000915527344,31 -52.290000915527344,31.110000610351562 -52.40999984741211,31.219999313354492 -52.77000045776367,31.43000030517578 -53.11000061035156,31.6299991607666 -53.470001220703125,31.729999542236328 -55.0099983215332,32.33000183105469 -55.119998931884766,32.43000030517578 -55.599998474121094,32.619998931884766 -55.91999816894531,32.599998474121094 -56.060001373291016,32.72999954223633 -58.13999938964844,33.16999816894531 -58.7400016784668,33.25 -59.540000915527344,33.20000076293945 -59.7599983215332,33.290000915527344 -60.56999969482422,33.25 -60.79999923706055,33.34000015258789 -61.040000915527344,33.33000183105469 -64.95999908447266,33.54999923706055 -65.52999877929688,33.52000045776367 -65.86000061035156,33.619998931884766 -66.22000122070312,33.720001220703125 -66.91000366210938,33.79999923706055 -67.27999877929688,33.9900016784668 -67.73999786376953,33.970001220703125 -68.08000183105469,34.16999816894531 -68.55000305175781,34.27000045776367 -69.95999908447266,34.63999938964844 -70.41000366210938,34.619998931884766 -70.63999938964844,34.709999084472656 -70.76000213623047,34.81999969482422 -71.2300033569336,34.790000915527344 -71.45999908447266,34.88999938964844 -71.69000244140625,35 -72.27999877929688,34.970001220703125 -72.61000061035156,35.060001373291016" style="fill:none;stroke:#000000;stroke-width:0.10999999940395355"></polyline>
</g>
<g id="(basal) Dendrite #2.2.2">
<polyline points="-32.880001068115234,21.610000610351562 -32.91999816894531,22.290000915527344" style="fill:none;stroke:#000000;stroke-width:0.10999999940395355"></polyline>
</g>
<g id="(basal) Dendrite #2.2.2.1">
<polyline points="-32.91999816894531,22.290000915527344 -34.70000076293945,23.31999969482422 -36.130001068115234,23.940000534057617 -36.25,24.049999237060547 -36.59000015258789,24.139999389648438 -36.709999084472656,24.239999771118164 -36.81999969482422,24.350000381469727 -36.959999084472656,24.459999084472656 -37.18000030517578,24.450000762939453 -38.25,24.959999084472656 -38.83000183105469,25.040000915527344 -39.400001525878906,25.110000610351562 -39.7599983215332,25.200000762939453 -40.22999954223633,25.299999237060547 -42.58000183105469,26.299999237060547 -42.70000076293945,26.420000076293945 -42.93000030517578,26.510000228881836 -43.06999969482422,26.729999542236328 -43.310001373291016,26.829999923706055 -43.529998779296875,26.940000534057617 -43.65999984741211,27.040000915527344 -44.279998779296875,27.68000030517578 -44.310001373291016,28.25 -44.439998626708984,28.489999771118164 -44.54999923706055,28.59000015258789 -45.540000915527344,29.68000030517578 -45.65999984741211,29.790000915527344 -45.77000045776367,29.889999389648438 -45.900001525878906,30.010000228881836 -46.150001525878906,30.110000610351562 -47.45000076293945,30.950000762939453 -47.70000076293945,31.049999237060547 -48.15999984741211,31.479999542236328 -48.29999923706055,31.579999923706055 -48.41999816894531,31.790000915527344 -48.79999923706055,32.349998474121094 -48.91999816894531,32.45000076293945 -50.119998931884766,33.189998626708984 -50.349998474121094,33.290000915527344 -50.459999084472656,33.38999938964844 -51.06999969482422,33.709999084472656 -51.29999923706055,33.79999923706055 -51.52000045776367,33.900001525878906 -51.77000045776367,34.02000045776367 -52.84000015258789,34.75 -53.08000183105469,34.849998474121094 -53.20000076293945,34.95000076293945 -53.45000076293945,35.18000030517578 -53.56999969482422,35.279998779296875 -53.93000030517578,35.47999954223633 -55.119998931884766,36.439998626708984 -55.2599983215332,36.560001373291016 -55.380001068115234,36.779998779296875 -55.5,36.880001068115234 -55.7400016784668,36.86000061035156 -55.86000061035156,36.97999954223633 -56.81999969482422,37.599998474121094 -57.04999923706055,37.59000015258789 -57.27000045776367,37.70000076293945 -57.52000045776367,37.79999923706055 -57.86000061035156,37.88999938964844 -59.630001068115234,38.59000015258789 -59.970001220703125,38.68000030517578 -60.68000030517578,38.9900016784668 -60.91999816894531,39.09000015258789 -61.2599983215332,39.189998626708984 -61.5099983215332,39.27000045776367 -61.619998931884766,39.380001068115234 -61.97999954223633,39.47999954223633 -63.619998931884766,39.95000076293945 -63.84000015258789,39.93000030517578 -64.06999969482422,40.04999923706055 -64.19999694824219,40.150001525878906 -64.43000030517578,40.25 -64.66999816894531,40.22999954223633 -64.91000366210938,40.33000183105469 -65.26000213623047,40.54999923706055 -65.5999984741211,40.63999938964844" style="fill:none;stroke:#000000;stroke-width:0.10999999940395355"></polyline>
</g>
<g id="(basal) Dendrite #2.2.2.2">
<polyline points="-32.91999816894531,22.290000915527344 -33.790000915527344,21.549999237060547 -34.709999084472656,21.610000610351562 -35.060001373291016,21.700000762939453 -36.209999084472656,21.6299991607666 -36.650001525878906,21.3799991607666 -36.88999938964844,21.3700008392334 -36.9900016784668,21.25 -37.22999954223633,21.239999771118164 -37.45000076293945,21.100000381469727 -38.56999969482422,20.799999237060547 -39.25,20.75 -40.16999816894531,20.59000015258789 -40.959999084472656,20.540000915527344 -42.310001373291016,20 -42.529998779296875,19.8799991607666 -42.7599983215332,19.75 -42.970001220703125,19.6299991607666 -43.439998626708984,19.600000381469727 -43.540000915527344,19.459999084472656 -43.779998779296875,19.450000762939453 -44.790000915527344,19.059999465942383 -45.0099983215332,19.049999237060547 -45.11000061035156,18.90999984741211 -45.91999816894531,18.860000610351562 -47.16999816894531,18.56999969482422 -47.959999084472656,18.520000457763672 -48.63999938964844,18.260000228881836 -48.97999954223633,18.239999771118164 -49.209999084472656,18.09000015258789 -49.43000030517578,18.079999923706055 -49.77000045776367,17.84000015258789 -51.20000076293945,17.06999969482422 -52.22999954223633,17.010000228881836 -53.27000045776367,17.15999984741211 -53.63999938964844,17.25 -53.97999954223633,17.350000381469727 -54.220001220703125,17.459999084472656 -56.11000061035156,18.3799991607666 -56.36000061035156,18.579999923706055 -56.709999084472656,18.799999237060547 -56.81999969482422,18.90999984741211 -57.06999969482422,19 -57.43000030517578,19.219999313354492 -57.54999923706055,19.31999969482422 -58.970001220703125,20.149999618530273 -59.33000183105469,20.239999771118164 -60.27000045776367,20.639999389648438 -60.5,20.739999771118164 -60.86000061035156,20.850000381469727 -61.20000076293945,20.829999923706055 -63.18000030517578,21.280000686645508 -63.63999938964844,21.360000610351562 -64.11000061035156,21.440000534057617 -64.3499984741211,21.540000915527344 -64.80999755859375,21.639999389648438 -65.04000091552734,21.739999771118164 -65.1500015258789,21.729999542236328 -65.38999938964844,21.829999923706055 -65.62000274658203,21.920000076293945 -65.87000274658203,22.030000686645508 -67.8499984741211,22.600000381469727 -68.20999908447266,22.809999465942383 -68.55999755859375,22.899999618530273 -68.79000091552734,22.8799991607666 -69.0199966430664,22.979999542236328 -69.37000274658203,22.959999084472656 -69.72000122070312,23.18000030517578 -70.16999816894531,23.149999618530273 -70.41999816894531,23.25 -70.76000213623047,23.34000015258789 -74.5999984741211,24.139999389648438 -74.8499984741211,24.239999771118164 -75.08000183105469,24.229999542236328 -79.12000274658203,24.90999984741211 -80.51000213623047,24.93000030517578 -80.8499984741211,25.020000457763672 -82.01000213623047,24.950000762939453 -83.72000122070312,25.09000015258789 -84.19999694824219,25.170000076293945 -84.44000244140625,25.270000457763672 -84.66000366210938,25.360000610351562 -84.9000015258789,25.479999542236328 -85.26000213623047,25.56999969482422 -85.37000274658203,25.670000076293945 -87.36000061035156,26.239999771118164 -87.61000061035156,26.350000381469727 -88.41000366210938,26.530000686645508 -88.5199966430664,26.6299991607666 -88.7699966430664,26.729999542236328 -88.9000015258789,26.84000015258789 -89.12000274658203,26.829999923706055 -89.45999908447266,26.93000030517578 -93.69999694824219,27.030000686645508 -94.48999786376953,26.8700008392334 -94.95999908447266,26.84000015258789 -95.97000122070312,26.540000915527344 -96.55000305175781,26.5 -97.22000122070312,26.350000381469727 -98.0199966430664,26.299999237060547 -98.95999908447266,26.489999771118164 -99.30000305175781,26.469999313354492 -99.55000305175781,26.670000076293945 -99.7699966430664,26.65999984741211 -100.37000274658203,27.079999923706055 -100.61000061035156,27.190000534057617 -100.7300033569336,27.290000915527344 -100.83999633789062,27.399999618530273 -101.08999633789062,27.489999771118164 -101.44000244140625,27.709999084472656 -101.77999877929688,27.690000534057617 -101.9000015258789,27.790000915527344" style="fill:none;stroke:#000000;stroke-width:0.10999999940395355"></polyline>
</g>
<g id="(basal) Dendrite #3">
<polyline points="0,0 -6.849999904632568,-0.5099999904632568 -7.739999771118164,-0.7900000214576721 -8.079999923706055,-0.8100000023841858 -8.1899995803833,-0.9300000071525574 -8.3100004196167,-1.059999942779541 -8.960000038146973,-1.5700000524520874 -9.069999694824219,-1.6699999570846558 -9.180000305175781,-1.9199999570846558 -10.779999732971191,-3.740000009536743 -11.329999923706055,-4.110000133514404 -11.550000190734863,-4.239999771118164 -11.890000343322754,-4.369999885559082 -12.010000228881836,-4.489999771118164 -12.220000267028809,-4.619999885559082 -13.90999984741211,-5.190000057220459 -14.369999885559082,-5.320000171661377 -15.289999961853027,-5.369999885559082 -17,-5.25 -17.350000381469727,-5.269999980926514 -17.59000015258789,-5.179999828338623 -17.700000762939453,-5.059999942779541 -18.059999465942383,-5.079999923706055 -18.6299991607666,-5" style="fill:none;stroke:#000000;stroke-width:0.10999999940395355"></polyline>
</g>
<g id="(basal) Dendrite #3.1">
<polyline points="-18.6299991607666,-5 -21.049999237060547,-4.920000076293945 -21.31999969482422,-4.239999771118164 -21.559999465942383,-4.159999847412109 -21.670000076293945,-4.03000020980835 -22.059999465942383,-3.2699999809265137 -22.309999465942383,-2.940000057220459 -22.579999923706055,-2.390000104904175 -22.709999084472656,-2.259999990463257 -22.829999923706055,-2.049999952316284 -22.959999084472656,-1.940000057220459 -23.079999923706055,-1.7200000286102295 -23.59000015258789,-0.8299999833106995 -23.829999923706055,-0.6200000047683716 -23.950000762939453,-0.3799999952316284 -24.09000015258789,-0.1599999964237213 -24.209999084472656,0.029999999329447746 -24.969999313354492,0.9200000166893005 -25.100000381469727,1.1399999856948853 -25.31999969482422,1.2400000095367432 -25.450000762939453,1.340000033378601 -25.579999923706055,1.559999942779541 -25.700000762939453,1.6699999570846558 -25.829999923706055,2.009999990463257 -26.06999969482422,2.0999999046325684 -26.190000534057617,2.2300000190734863 -26.329999923706055,2.549999952316284 -27.40999984741211,3.5199999809265137 -27.549999237060547,3.75 -27.65999984741211,3.8499999046325684 -27.790000915527344,3.950000047683716 -28.139999389648438,4.050000190734863 -28.5,4.369999885559082 -28.739999771118164,4.46999979019165 -29.68000030517578,4.980000019073486" style="fill:none;stroke:#000000;stroke-width:0.10999999940395355"></polyline>
</g>
<g id="(basal) Dendrite #3.2">
<polyline points="-18.6299991607666,-5 -22,-6.46999979019165 -22.329999923706055,-6.610000133514404 -22.440000534057617,-6.730000019073486 -23.350000381469727,-6.78000020980835 -23.559999465942383,-6.900000095367432 -23.790000915527344,-6.920000076293945 -25.510000228881836,-7.25 -25.729999542236328,-7.389999866485596 -25.829999923706055,-7.510000228881836 -26.510000228881836,-7.550000190734863 -26.6200008392334,-7.670000076293945 -27.09000015258789,-7.699999809265137 -29.209999084472656,-8.739999771118164 -29.639999389648438,-8.989999771118164 -29.8799991607666,-9.010000228881836 -30.31999969482422,-9.270000457763672 -30.549999237060547,-9.390000343322754 -30.770000457763672,-9.529999732971191 -31.100000381469727,-9.65999984741211 -31.309999465942383,-9.779999732971191 -31.540000915527344,-9.920000076293945 -31.8799991607666,-10.15999984741211 -32.099998474121094,-10.300000190734863 -34.5,-12.380000114440918 -34.93000030517578,-12.869999885559082 -35.150001525878906,-13 -35.47999954223633,-13.260000228881836 -35.689998626708984,-13.489999771118164 -35.93000030517578,-13.510000228881836 -36.13999938964844,-13.640000343322754 -36.599998474121094,-13.770000457763672 -36.939998626708984,-13.90999984741211 -37.15999984741211,-14.039999961853027 -37.369998931884766,-14.180000305175781 -40.77000045776367,-15.069999694824219 -40.9900016784668,-15.180000305175781 -41.34000015258789,-15.210000038146973 -41.65999984741211,-15.34000015258789 -42.0099983215332,-15.479999542236328 -42.22999954223633,-15.489999771118164 -43.34000015258789,-16.020000457763672 -43.68000030517578,-16.270000457763672 -44.0099983215332,-16.6299991607666 -44.11000061035156,-16.760000228881836 -44.33000183105469,-16.889999389648438 -44.560001373291016,-17.010000228881836 -45.54999923706055,-17.760000228881836 -46,-18.020000457763672 -46.209999084472656,-18.1299991607666 -46.41999816894531,-18.270000457763672 -46.77000045776367,-18.290000915527344 -46.9900016784668,-18.530000686645508 -47.220001220703125,-18.65999984741211 -48.08000183105469,-19.290000915527344 -48.310001373291016,-19.520000457763672" style="fill:none;stroke:#000000;stroke-width:0.10999999940395355"></polyline>
</g>
<g id="(basal) Dendrite #4">
<polyline points="0,0 4.75,4.889999866485596 4.849999904632568,5.130000114440918 4.96999979019165,5.239999771118164 5.050000190734863,5.480000019073486 5.28000020980835,5.71999979019165 5.380000114440918,5.949999809265137 5.489999771118164,6.079999923706055 6.369999885559082,6.809999942779541 6.579999923706055,6.949999809265137 6.690000057220459,7.059999942779541 6.920000076293945,7.179999828338623 7.260000228881836,7.320000171661377 8.020000457763672,7.840000152587891 8.25,7.849999904632568 9.470000267028809,8.5 9.800000190734863,8.630000114440918 9.930000305175781,8.760000228881836 11.140000343322754,9.619999885559082 11.359999656677246,9.760000228881836 11.569999694824219,9.880000114440918 12.359999656677246,10.039999961853027 14.550000190734863,10.170000076293945 15.100000381469727,10.319999694824219 15.670000076293945,10.359999656677246 16.020000457763672,10.489999771118164 16.479999542236328,10.630000114440918 16.690000534057617,10.649999618530273 18.270000457763672,11.079999923706055 24.09000015258789,12.010000228881836 25.329999923706055,12.09000015258789 27.540000915527344,11.770000457763672 27.889999389648438,11.65999984741211 28.110000610351562,11.680000305175781 28.360000610351562,11.59000015258789 28.700000762939453,11.479999542236328 29.15999984741211,11.510000228881836 29.510000228881836,11.420000076293945 32.04999923706055,11.220000267028809 32.290000915527344,11.239999771118164 33.439998626708984,11.079999923706055 33.65999984741211,11.100000381469727" style="fill:none;stroke:#000000;stroke-width:0.10999999940395355"></polyline>
</g>
<g id="(basal) Dendrite #4.1">
<polyline points="33.65999984741211,11.100000381469727 36.40999984741211,11.140000343322754 36.529998779296875,11.380000114440918 37.279998779296875,12.130000114440918 37.61000061035156,12.25 37.84000015258789,12.390000343322754 38.630001068115234,12.4399995803833 38.86000061035156,12.5600004196167 38.959999084472656,12.6899995803833 39.06999969482422,12.8100004196167 39.75,13.079999923706055 39.970001220703125,13.319999694824219 40.06999969482422,13.4399995803833 40.279998779296875,13.5600004196167 40.40999984741211,13.6899995803833 40.95000076293945,14.170000076293945 41.16999816894531,14.180000305175781 41.400001525878906,14.319999694824219 41.61000061035156,14.550000190734863 41.84000015258789,14.6899995803833 42.04999923706055,14.930000305175781 42.5,15.199999809265137 42.709999084472656,15.3100004196167 43.040000915527344,15.670000076293945 43.689998626708984,16.18000030517578 43.790000915527344,16.420000076293945 44.0099983215332,16.65999984741211 44.119998931884766,16.780000686645508 44.209999084472656,17.010000228881836 44.869998931884766,17.6200008392334 44.97999954223633,17.739999771118164 45.09000015258789,17.979999542236328 45.720001220703125,18.829999923706055 45.939998626708984,19.059999465942383 46.380001068115234,19.09000015258789 47.06999969482422,19.3700008392334 47.18000030517578,19.479999542236328 48.369998931884766,20.59000015258789 48.59000015258789,20.84000015258789" style="fill:none;stroke:#000000;stroke-width:0.10999999940395355"></polyline>
</g>
<g id="(basal) Dendrite #4.1.1">
<polyline points="48.59000015258789,20.84000015258789 51.439998626708984,20.81999969482422" style="fill:none;stroke:#000000;stroke-width:0.10999999940395355"></polyline>
</g>
<g id="(basal) Dendrite #4.1.2">
<polyline points="48.59000015258789,20.84000015258789 49.84000015258789,22.68000030517578 49.939998626708984,22.90999984741211 54.369998931884766,25.469999313354492 55.16999816894531,25.8700008392334 55.5,26 55.72999954223633,26.139999389648438 56.04999923706055,26.270000457763672 56.279998779296875,26.389999389648438 56.84000015258789,26.65999984741211 57.18000030517578,26.799999237060547 57.72999954223633,27.059999465942383 58.310001373291016,27.200000762939453 58.7400016784668,27.34000015258789 59.08000183105469,27.479999542236328 59.9900016784668,27.770000457763672 60.650001525878906,28.030000686645508 62.70000076293945,28.610000610351562 63.36000061035156,28.760000228881836 63.93000030517578,28.93000030517578 64.61000061035156,29.190000534057617 65.29000091552734,29.34000015258789 66.30000305175781,29.639999389648438 67.75,30.190000534057617 73.12999725341797,32.70000076293945 73.68000030517578,32.95000076293945 74.58000183105469,33.36000061035156 74.91999816894531,33.4900016784668 75.47000122070312,33.63999938964844 75.81999969482422,33.7599983215332 76.04000091552734,33.77000045776367 76.1500015258789,34.02000045776367 76.5999984741211,34.16999816894531 77.1500015258789,34.40999984741211 77.5999984741211,34.66999816894531 78.2699966430664,34.84000015258789 78.72000122070312,35.09000015258789 79.19000244140625,35.119998931884766 79.62000274658203,35.380001068115234 80.75,35.66999816894531 81.30999755859375,35.91999816894531 81.87999725341797,36.09000015258789 82.66000366210938,36.36000061035156 82.88999938964844,36.47999954223633 83.56999969482422,36.7599983215332 84.01000213623047,36.90999984741211 84.58000183105469,37.040000915527344 85.12999725341797,37.31999969482422 85.4800033569336,37.45000076293945 86.26000213623047,37.720001220703125 87.16999816894531,38" style="fill:none;stroke:#000000;stroke-width:0.10999999940395355"></polyline>
</g>
<g id="(basal) Dendrite #4.2">
<polyline points="33.65999984741211,11.100000381469727 38.90999984741211,9.630000114440918 41.31999969482422,9.779999732971191 41.880001068115234,9.930000305175781 42.099998474121094,10.050000190734863 42.34000015258789,10.069999694824219 42.54999923706055,10.1899995803833 42.779998779296875,10.319999694824219 43.11000061035156,10.34000015258789 45.15999984741211,10.699999809265137 50.43000030517578,11.010000228881836 51.220001220703125,11.170000076293945 51.56999969482422,11.300000190734863 58.880001068115234,11.739999771118164 65.37000274658203,10.880000114440918 66.9800033569336,10.850000381469727 69.7300033569336,11.010000228881836 72.58000183105469,11.319999694824219 72.80000305175781,11.4399995803833" style="fill:none;stroke:#000000;stroke-width:0.10999999940395355"></polyline>
</g>
<g id="(basal) Dendrite #5">
<polyline points="0,0 5.989999771118164,5.119999885559082 7.690000057220459,5.570000171661377 7.909999847412109,5.579999923706055 8.380000114440918,5.730000019073486 8.9399995803833,5.760000228881836 9.050000190734863,5.880000114440918 9.170000076293945,5.889999866485596 9.59000015258789,6.360000133514404 9.6899995803833,6.489999771118164 10.390000343322754,6.53000020980835" style="fill:none;stroke:#000000;stroke-width:0.10999999940395355"></polyline>
</g>
<g id="(basal) Dendrite #5.1">
<polyline points="10.390000343322754,6.53000020980835 12.6899995803833,6.329999923706055 13.270000457763672,6.46999979019165 13.489999771118164,6.489999771118164 13.819999694824219,6.619999885559082 13.930000305175781,6.739999771118164 14.739999771118164,6.789999961853027 14.84000015258789,6.909999847412109 15.3100004196167,6.940000057220459 16.079999923706055,7.340000152587891 16.299999237060547,7.590000152587891 16.510000228881836,7.710000038146973 16.729999542236328,7.949999809265137" style="fill:none;stroke:#000000;stroke-width:0.10999999940395355"></polyline>
</g>
<g id="(basal) Dendrite #5.1.1">
<polyline points="16.729999542236328,7.949999809265137 17.719999313354492,8.59000015258789 18.170000076293945,8.949999809265137 18.280000686645508,9.079999923706055 18.260000228881836,9.420000076293945 18.329999923706055,10.100000381469727 18.549999237060547,10.350000381469727 18.530000686645508,10.59000015258789 18.829999923706055,11.300000190734863 18.700000762939453,13.449999809265137 18.559999465942383,13.8100004196167 18.360000610351562,17.110000610351562 18.09000015258789,17.899999618530273 17.75,17.989999771118164 17.520000457763672,17.979999542236328 17.389999389648438,18.079999923706055 16.809999465942383,18.15999984741211 16.809999465942383,18.290000915527344 16.559999465942383,18.3799991607666 15.850000381469727,18.68000030517578 15.5,18.899999618530273 15.149999618530273,19.09000015258789 14.90999984741211,19.200000762939453 14.069999694824219,19.610000610351562 13.960000038146973,19.84000015258789 13.710000038146973,19.93000030517578 13.479999542236328,19.920000076293945 13.359999656677246,20.1299991607666 13.119999885559082,20.229999542236328 13,20.350000381469727 12.770000457763672,20.450000762939453 12.529999732971191,20.549999237060547 11.329999923706055,21.510000228881836 11.100000381469727,21.600000381469727 10.84000015258789,21.829999923706055 10.609999656677246,21.93000030517578 10.369999885559082,22.139999389648438 10.239999771118164,22.239999771118164 9.890000343322754,22.350000381469727 9.779999732971191,22.450000762939453 9.649999618530273,22.559999465942383 8.65999984741211,23.639999389648438 8.539999961853027,23.75 8.420000076293945,23.969999313354492 8.270000457763672,24.43000030517578 8.15999984741211,24.649999618530273 8.029999732971191,24.860000610351562 8.010000228881836,25.100000381469727 7.460000038146973,26.43000030517578 7.349999904632568,26.65999984741211 7.190000057220459,27.1200008392334 7.159999847412109,27.68000030517578 6.380000114440918,29.25 6.130000114440918,29.56999969482422 5.889999866485596,29.90999984741211 5.510000228881836,30.219999313354492 5.389999866485596,30.450000762939453 5.139999866485596,30.65999984741211 4.920000076293945,30.760000228881836 4.409999847412109,31.299999237060547 4.400000095367432,31.540000915527344 3.309999942779541,32.720001220703125 3.0799999237060547,32.709999084472656 2.819999933242798,32.91999816894531 2.5999999046325684,32.90999984741211 0.8299999833106995,33.72999954223633 0.5899999737739563,33.81999969482422 0.3499999940395355,33.939998626708984 0.11999999731779099,34.029998779296875 0,34.13999938964844 -0.2199999988079071,34.119998931884766 -0.9399999976158142,34.43000030517578 -1.2699999809265137,34.40999984741211 -1.399999976158142,34.52000045776367 -1.6399999856948853,34.61000061035156 -1.850000023841858,34.709999084472656 -2.0899999141693115,34.81999969482422 -3.390000104904175,35.439998626708984 -3.5299999713897705,35.540000915527344 -3.869999885559082,35.630001068115234 -4.119999885559082,35.83000183105469 -4.480000019073486,36.04999923706055 -4.71999979019165,36.150001525878906 -4.829999923706055,36.25 -5.059999942779541,36.369998931884766 -6.829999923706055,37.290000915527344 -7.420000076293945,37.4900016784668 -7.659999847412109,37.56999969482422 -7.789999961853027,37.79999923706055 -8.020000457763672,37.779998779296875 -9.899999618530273,38.59000015258789 -10.010000228881836,38.689998626708984 -10.25,38.68000030517578 -10.470000267028809,38.79999923706055 -10.850000381469727,38.9900016784668 -11.069999694824219,39.09000015258789 -11.1899995803833,39.209999084472656 -11.4399995803833,39.310001373291016 -11.65999984741211,39.40999984741211 -13.239999771118164,40.68000030517578 -13.720000267028809,41.11000061035156 -13.729999542236328,41.349998474121094 -13.979999542236328,41.560001373291016 -14.100000381469727,41.65999984741211 -14.119999885559082,41.900001525878906 -14.800000190734863,43.689998626708984 -15.15999984741211,46.08000183105469 -14.979999542236328,46.65999984741211 -14.880000114440918,47.02000045776367 -14.899999618530273,47.36000061035156 -14.8100004196167,47.59000015258789" style="fill:none;stroke:#000000;stroke-width:0.10999999940395355"></polyline>
</g>
<g id="(basal) Dendrite #5.1.2">
<polyline points="16.729999542236328,7.949999809265137 20.639999389648438,9.899999618530273 21.739999771118164,10.539999961853027 21.959999084472656,10.65999984741211 22.190000534057617,10.8100004196167 22.290000915527344,10.90999984741211 22.510000228881836,11.0600004196167 22.860000610351562,11.3100004196167 23.079999923706055,11.430000305175781 24.389999389648438,12.3100004196167 24.600000381469727,12.5600004196167 24.940000534057617,12.6899995803833 25.290000915527344,12.819999694824219 25.510000228881836,12.949999809265137 25.950000762939453,13.210000038146973" style="fill:none;stroke:#000000;stroke-width:0.10999999940395355"></polyline>
</g>
<g id="(basal) Dendrite #5.1.2.1">
<polyline points="25.950000762939453,13.210000038146973 29.6299991607666,13.199999809265137 29.84000015258789,13.319999694824219 30.8799991607666,13.380000114440918 30.979999542236328,13.510000228881836 31.209999084472656,13.630000114440918 31.43000030517578,13.649999618530273 32.20000076293945,14.399999618530273 32.29999923706055,14.739999771118164 32.380001068115234,15.09000015258789 32.47999954223633,15.210000038146973 32.599998474121094,15.449999809265137 32.790000915527344,16.020000457763672" style="fill:none;stroke:#000000;stroke-width:0.10999999940395355"></polyline>
</g>
<g id="(basal) Dendrite #5.1.2.1.1">
<polyline points="32.790000915527344,16.020000457763672 34.119998931884766,16.559999465942383 34.439998626708984,17.059999465942383 34.529998779296875,17.399999618530273 34.7599983215332,17.540000915527344 34.869998931884766,17.760000228881836 35.08000183105469,17.899999618530273 35.189998626708984,18.1200008392334 36.470001220703125,19.579999923706055 36.58000183105469,19.700000762939453 36.90999984741211,19.950000762939453 37.25,20.209999084472656 37.560001373291016,20.559999465942383 37.790000915527344,20.690000534057617 38.02000045776367,20.709999084472656 39.70000076293945,21.260000228881836 40.959999084472656,21.329999923706055 43.689998626708984,21.6299991607666 46.220001220703125,21.780000686645508 49.08000183105469,21.81999969482422 55.4900016784668,22.209999084472656 55.849998474121094,22.1200008392334 56.29999923706055,22.149999618530273 56.650001525878906,22.059999465942383 56.900001525878906,21.959999084472656 57.22999954223633,21.979999542236328 59.09000015258789,21.520000457763672 59.33000183105469,21.540000915527344 59.54999923706055,21.43000030517578 60.13999938964844,21.469999313354492 60.380001068115234,21.360000610351562 60.4900016784668,21.3700008392334" style="fill:none;stroke:#000000;stroke-width:0.10999999940395355"></polyline>
</g>
<g id="(basal) Dendrite #5.1.2.1.2">
<polyline points="32.790000915527344,16.020000457763672 36.06999969482422,16.790000915527344 36.880001068115234,16.84000015258789 37.5099983215332,16.610000610351562 41.150001525878906,15.5600004196167 41.380001068115234,15.470000267028809 41.630001068115234,15.369999885559082 41.849998474121094,15.390000343322754 42.68000030517578,15.079999923706055 42.790000915527344,14.970000267028809 43.380001068115234,14.890000343322754 43.59000015258789,14.789999961853027 43.959999084472656,14.6899995803833 44.18000030517578,14.710000038146973 44.7599983215332,14.520000457763672 45,14.529999732971191 45.119998931884766,14.420000076293945 45.349998474121094,14.329999923706055 45.47999954223633,14.220000267028809 45.70000076293945,14.239999771118164 46.40999984741211,13.930000305175781" style="fill:none;stroke:#000000;stroke-width:0.10999999940395355"></polyline>
</g>
<g id="(basal) Dendrite #5.1.2.2">
<polyline points="25.950000762939453,13.210000038146973 32.84000015258789,16.219999313354492 33.81999969482422,17.190000534057617 33.91999816894531,17.43000030517578 34.130001068115234,17.65999984741211 34.220001220703125,17.899999618530273 34.45000076293945,18.149999618530273 34.540000915527344,18.5 34.630001068115234,18.729999542236328 34.75,18.959999084472656 35.9900016784668,21.219999313354492 36.08000183105469,21.459999084472656 36.310001373291016,21.700000762939453 36.290000915527344,21.93000030517578 36.400001525878906,22.049999237060547 36.4900016784668,22.280000686645508 36.81999969482422,22.649999618530273 37.02000045776367,23.010000228881836 38.09000015258789,24.34000015258789 38.310001373291016,24.459999084472656 38.63999938964844,24.700000762939453 39.09000015258789,24.969999313354492 39.31999969482422,25.09000015258789 39.41999816894531,25.209999084472656 39.630001068115234,25.350000381469727 39.869998931884766,25.479999542236328 39.970001220703125,25.59000015258789 40.619998931884766,26.309999465942383 40.81999969482422,26.56999969482422 41.060001373291016,26.700000762939453 41.150001525878906,26.93000030517578 41.36000061035156,27.049999237060547 41.4900016784668,27.18000030517578 43.040000915527344,27.959999084472656 43.15999984741211,28.079999923706055 44.04999923706055,28.59000015258789 44.2599983215332,28.719999313354492 44.61000061035156,28.739999771118164 44.810001373291016,28.989999771118164 45.599998474121094,29.260000228881836" style="fill:none;stroke:#000000;stroke-width:0.10999999940395355"></polyline>
</g>
<g id="(basal) Dendrite #5.1.2.2.1">
<polyline points="45.599998474121094,29.260000228881836 48.18000030517578,30.329999923706055 48.279998779296875,30.459999084472656 48.40999984741211,30.579999923706055 48.61000061035156,30.809999465942383 48.709999084472656,31.059999465942383 50.18000030517578,33.33000183105469 50.400001525878906,33.560001373291016 51.13999938964844,34.63999938964844 51.22999954223633,34.88999938964844 51.459999084472656,35.0099983215332 51.65999984741211,35.349998474121094 51.880001068115234,35.72999954223633 51.97999954223633,35.95000076293945 52.18000030517578,36.209999084472656 52.41999816894531,36.33000183105469 52.86000061035156,36.689998626708984 53.06999969482422,36.939998626708984 53.52000045776367,37.189998626708984 53.619998931884766,37.31999969482422 53.720001220703125,37.439998626708984 54.06999969482422,37.56999969482422 54.279998779296875,37.689998626708984 56.2400016784668,39.540000915527344 56.34000015258789,39.650001525878906 56.33000183105469,39.88999938964844 56.560001373291016,40.130001068115234 56.54999923706055,40.25" style="fill:none;stroke:#000000;stroke-width:0.10999999940395355"></polyline>
</g>
<g id="(basal) Dendrite #5.1.2.2.2">
<polyline points="45.599998474121094,29.260000228881836 52.86000061035156,32.560001373291016 53.790000915527344,32.619998931884766 56.099998474121094,34.150001525878906 56.650001525878906,34.5099983215332 57.75,35.38999938964844 58.18000030517578,35.7400016784668 58.40999984741211,36 58.7400016784668,36.13999938964844 58.970001220703125,36.369998931884766 60.939998626708984,39.709999084472656 61.150001525878906,39.939998626708984 61.4900016784668,40.20000076293945 61.90999984741211,40.689998626708984 62.13999938964844,40.70000076293945 62.25,40.81999969482422 62.58000183105469,41.08000183105469 62.810001373291016,41.09000015258789 63.02000045776367,41.33000183105469 63.2599983215332,41.34000015258789 66.27999877929688,42.439998626708984 66.75,42.59000015258789 67.08000183105469,42.720001220703125 67.29000091552734,42.83000183105469 67.62999725341797,42.86000061035156 67.86000061035156,42.9900016784668 67.97000122070312,43.11000061035156 68.43000030517578,43.2599983215332 68.63999938964844,43.38999938964844 71.48999786376953,43.90999984741211 71.93000030517578,44.04999923706055 72.27999877929688,44.06999969482422 72.72000122070312,44.20000076293945 80.5199966430664,44.66999816894531 80.95999908447266,44.59000015258789 83.7300033569336,44.7599983215332 86.04000091552734,44.43000030517578 86.26000213623047,44.45000076293945 86.72000122070312,44.59000015258789 86.94000244140625,44.709999084472656 87.16000366210938,44.849998474121094 87.62000274658203,44.880001068115234 87.83000183105469,45.11000061035156 89.80999755859375,46.61000061035156 90.02999877929688,46.86000061035156 90.55999755859375,47.349998474121094 90.79000091552734,47.470001220703125 91.12000274658203,47.720001220703125 91.33999633789062,47.86000061035156 91.55999755859375,47.97999954223633 91.88999938964844,48.220001220703125 96.79000091552734,50.810001373291016 97.25,50.95000076293945 97.80000305175781,51.11000061035156 98.02999877929688,51.2400016784668 98.94000244140625,51.5099983215332 99.48999786376953,51.66999816894531 99.83000183105469,51.810001373291016 100.05999755859375,51.93000030517578 100.51000213623047,51.959999084472656 100.97000122070312,52.09000015258789 104.13999938964844,52.86000061035156 105.16999816894531,52.91999816894531 105.16000366210938,53.04999923706055 111.38999938964844,52.75 113.0999984741211,52.970001220703125 113.56999969482422,53 113.68000030517578,53.119998931884766 114.2300033569336,53.279998779296875 115.58000183105469,53.83000183105469 116.23999786376953,54.310001373291016 116.2300033569336,54.439998626708984 116.45999908447266,54.45000076293945 116.68000030517578,54.56999969482422 117.69999694824219,54.75" style="fill:none;stroke:#000000;stroke-width:0.10999999940395355"></polyline>
</g>
<g id="(basal) Dendrite #5.2">
<polyline points="10.390000343322754,6.53000020980835 22.1200008392334,9.260000228881836" style="fill:none;stroke:#000000;stroke-width:0.10999999940395355"></polyline>
</g>
<g id="(basal) Dendrite #5.2.1">
<polyline points="22.1200008392334,9.260000228881836 23.700000762939453,11.649999618530273 23.90999984741211,11.890000343322754 24.020000457763672,12.010000228881836 24.229999542236328,12.369999885559082 24.329999923706055,12.600000381469727 24.31999969482422,12.720000267028809 24.420000076293945,12.960000038146973 25.209999084472656,14.960000038146973 25.329999923706055,15.1899995803833 25.40999984741211,15.539999961853027 25.510000228881836,15.65999984741211 25.489999771118164,16 25.600000381469727,16.34000015258789 25.690000534057617,16.579999923706055 25.799999237060547,16.81999969482422 25.780000686645508,17.149999618530273 25.860000610351562,17.6299991607666 25.959999084472656,17.979999542236328 26.059999465942383,18.209999084472656 26.15999984741211,18.440000534057617 26.459999084472656,20.989999771118164 26.420000076293945,21.670000076293945 26.530000686645508,21.920000076293945 26.510000228881836,22.25 26.579999923706055,22.829999923706055 26.549999237060547,23.399999618530273 26.639999389648438,23.649999618530273 26.6299991607666,23.8700008392334 26.899999618530273,26.989999771118164 26.979999542236328,27.56999969482422 26.8799991607666,29.170000076293945 27.1200008392334,31.25 27.200000762939453,31.489999771118164 27.6200008392334,32.40999984741211 27.600000381469727,32.650001525878906 27.809999465942383,32.88999938964844 27.889999389648438,33.349998474121094 28.010000228881836,33.599998474121094 28.100000381469727,33.81999969482422 28.209999084472656,33.939998626708984 28.8700008392334,36.40999984741211 28.860000610351562,36.619998931884766 29.1200008392334,37.68000030517578 29.100000381469727,38.13999938964844 29.65999984741211,40.2400016784668 29.780000686645508,40.47999954223633 29.8799991607666,40.58000183105469 30.079999923706055,40.959999084472656 30.309999465942383,41.189998626708984 30.510000228881836,41.41999816894531 30.5,41.65999984741211 30.600000381469727,41.779998779296875 31.149999618530273,42.5099983215332" style="fill:none;stroke:#000000;stroke-width:0.10999999940395355"></polyline>
</g>
<g id="(basal) Dendrite #5.2.2">
<polyline points="22.1200008392334,9.260000228881836 22.690000534057617,9.0600004196167" style="fill:none;stroke:#000000;stroke-width:0.10999999940395355"></polyline>
</g>
<g id="(basal) Dendrite #5.2.2.1">
<polyline points="22.690000534057617,9.0600004196167 25.579999923706055,8.899999618530273 26.829999923706055,9.180000305175781 28.079999923706055,9.260000228881836 28.309999465942383,9.170000076293945 28.549999237060547,9.079999923706055 29.84000015258789,8.5600004196167 30.079999923706055,8.579999923706055 30.31999969482422,8.359999656677246 30.559999465942383,8.270000457763672 31.270000457763672,7.96999979019165 31.510000228881836,7.75 31.860000610351562,7.659999847412109 32.09000015258789,7.559999942779541 33.40999984741211,6.71999979019165 33.650001525878906,6.5 33.77000045776367,6.409999847412109 34.13999938964844,6.070000171661377 34.380001068115234,5.739999771118164 34.63999938964844,5.53000020980835 34.880001068115234,5.199999809265137 34.9900016784668,5.099999904632568 35.13999938964844,4.869999885559082 37.119998931884766,2.3499999046325684 37.22999954223633,2.25 37.47999954223633,1.9199999570846558 37.72999954223633,1.7000000476837158 37.959999084472656,1.4900000095367432 38.099998474121094,1.3899999856948853 38.220001220703125,1.159999966621399 38.45000076293945,1.0499999523162842 40.25,-0.20000000298023224 40.5,-0.30000001192092896 40.83000183105469,-0.2800000011920929 41.08000183105469,-0.49000000953674316 41.439998626708984,-0.6000000238418579 41.65999984741211,-0.6899999976158142" style="fill:none;stroke:#000000;stroke-width:0.10999999940395355"></polyline>
</g>
<g id="(basal) Dendrite #5.2.2.2">
<polyline points="22.690000534057617,9.0600004196167 24.989999771118164,9.069999694824219 26.110000610351562,9.5 28.270000457763672,9.970000267028809 28.729999542236328,10 28.959999084472656,10.119999885559082 32.15999984741211,10.319999694824219 33.790000915527344,9.960000038146973 34.369998931884766,9.880000114440918 34.4900016784668,9.770000457763672 34.720001220703125,9.65999984741211 34.959999084472656,9.670000076293945 35.18000030517578,9.59000015258789 35.75,9.619999885559082 37.720001220703125,9.5 37.95000076293945,9.40999984741211 38.7599983215332,9.460000038146973 38.97999954223633,9.34000015258789 40.59000015258789,9.4399995803833" style="fill:none;stroke:#000000;stroke-width:0.10999999940395355"></polyline>
</g>
<g id="Apical dendrite">
<polyline points="0,0 4.5,-11.989999771118164 4.590000152587891,-13.359999656677246 4.860000133514404,-14.270000457763672 4.989999771118164,-14.359999656677246 5.119999885559082,-14.579999923706055 5.130000114440918,-14.8100004196167 5.25,-15.039999961853027 5.5,-15.25 6.019999980926514,-16.1299991607666 6.269999980926514,-16.56999969482422 6.510000228881836,-16.780000686645508 6.630000114440918,-16.889999389648438 6.760000228881836,-17.229999542236328 6.889999866485596,-17.34000015258789 7.010000228881836,-17.450000762939453 7.409999847412109,-18.459999084472656 7.519999980926514,-18.56999969482422 7.670000076293945,-18.90999984741211 7.789999961853027,-19.229999542236328 7.940000057220459,-19.450000762939453 8.0600004196167,-19.68000030517578 8.3100004196167,-19.889999389648438 8.460000038146973,-20.559999465942383 8.579999923706055,-20.799999237060547 8.739999771118164,-21.25 8.970000267028809,-21.690000534057617 9.359999656677246,-22.1200008392334 9.479999542236328,-22.239999771118164" style="fill:none;stroke:#000000;stroke-width:0.10999999940395355"></polyline>
</g>
<g id="Apical dendrite.1">
<polyline points="9.479999542236328,-22.239999771118164 11.430000305175781,-22.34000015258789 13.789999961853027,-21.40999984741211 14.130000114440918,-21.3799991607666 14.579999923706055,-21.1200008392334 15.149999618530273,-21.079999923706055 15.369999885559082,-20.969999313354492 15.710000038146973,-20.950000762939453 16.15999984741211,-20.799999237060547 16.6299991607666,-20.649999618530273 17.06999969482422,-20.6299991607666 19.920000076293945,-20.110000610351562 20.260000228881836,-20.09000015258789 20.3700008392334,-19.969999313354492 20.809999465942383,-19.81999969482422 20.920000076293945,-19.709999084472656 21.260000228881836,-19.56999969482422 21.600000381469727,-19.549999237060547 21.700000762939453,-19.43000030517578 22.059999465942383,-19.399999618530273 22.389999389648438,-19.15999984741211" style="fill:none;stroke:#000000;stroke-width:0.10999999940395355"></polyline>
</g>
<g id="Apical dendrite.2">
<polyline points="9.479999542236328,-22.239999771118164 10.130000114440918,-23.459999084472656" style="fill:none;stroke:#000000;stroke-width:0.10999999940395355"></polyline>
</g>
<g id="Apical dendrite.2.1">
<polyline points="10.130000114440918,-23.459999084472656 10.579999923706055,-23.549999237060547 11.039999961853027,-23.399999618530273 11.260000228881836,-23.270000457763672 11.84000015258789,-23.1200008392334" style="fill:none;stroke:#000000;stroke-width:0.10999999940395355"></polyline>
</g>
<g id="Apical dendrite.2.2">
<polyline points="10.130000114440918,-23.459999084472656 10.109999656677246,-27.020000457763672 10.289999961853027,-28.149999618530273 10.470000267028809,-31.010000228881836" style="fill:none;stroke:#000000;stroke-width:0.10999999940395355"></polyline>
</g>
<g id="Apical dendrite.2.2.1">
<polyline points="10.470000267028809,-31.010000228881836 8.229999542236328,-32.18000030517578 2.509999990463257,-32.52000045776367 1.7000000476837158,-32.45000076293945 -0.46000000834465027,-32.58000183105469 -0.800000011920929,-32.720001220703125 -4.320000171661377,-32.93000030517578 -4.550000190734863,-33.060001373291016 -5.449999809265137,-33.45000076293945 -5.670000076293945,-33.70000076293945 -5.889999866485596,-33.709999084472656 -5.880000114440918,-33.84000015258789 -6.650000095367432,-34.33000183105469 -6.880000114440918,-34.58000183105469 -7.099999904632568,-34.59000015258789 -7.329999923706055,-34.84000015258789 -8.09000015258789,-35.22999954223633 -8.210000038146973,-35.349998474121094 -8.550000190734863,-35.369998931884766 -8.65999984741211,-35.4900016784668 -8.880000114440918,-35.5 -9.100000381469727,-35.630001068115234 -9.319999694824219,-35.7599983215332 -10.470000267028809,-35.939998626708984 -10.90999984741211,-36.09000015258789 -11.380000114440918,-36.11000061035156 -12.050000190734863,-36.2599983215332 -12.289999961853027,-36.279998779296875 -12.380000114440918,-36.38999938964844 -12.5,-36.52000045776367 -12.720000267028809,-36.650001525878906 -12.949999809265137,-36.65999984741211 -14.180000305175781,-37.189998626708984 -14.520000457763672,-37.209999084472656 -14.739999771118164,-37.34000015258789 -15.079999923706055,-37.4900016784668 -15.539999961853027,-37.52000045776367 -15.760000228881836,-37.630001068115234 -15.979999542236328,-37.63999938964844 -18.1299991607666,-38.2400016784668 -18.93000030517578,-38.290000915527344 -19.15999984741211,-38.43000030517578 -19.389999389648438,-38.439998626708984 -19.610000610351562,-38.560001373291016 -20.520000457763672,-38.619998931884766 -20.739999771118164,-38.7400016784668 -21.31999969482422,-38.779998779296875 -21.549999237060547,-38.90999984741211 -21.8799991607666,-39.040000915527344 -22.229999542236328,-39.060001373291016 -24.489999771118164,-39.65999984741211 -25.399999618530273,-39.709999084472656 -25.5,-39.83000183105469 -26.299999237060547,-39.880001068115234 -27.209999084472656,-40.15999984741211 -27.43000030517578,-40.41999816894531 -27.639999389648438,-40.63999938964844 -28.06999969482422,-41.029998779296875 -28.170000076293945,-41.2599983215332 -28.5,-41.5099983215332 -28.610000610351562,-41.630001068115234 -29.049999237060547,-42.119998931884766 -29.260000228881836,-42.470001220703125 -29.68000030517578,-43.06999969482422 -29.780000686645508,-43.290000915527344 -29.8799991607666,-43.41999816894531 -29.989999771118164,-43.540000915527344 -30.219999313354492,-43.54999923706055 -30.43000030517578,-43.790000915527344 -32.97999954223633,-45.33000183105469 -33.439998626708984,-45.47999954223633 -33.65999984741211,-45.599998474121094 -34.09000015258789,-45.86000061035156 -34.310001373291016,-45.97999954223633 -34.77000045776367,-46.130001068115234 -35.099998474121094,-46.369998931884766 -35.65999984741211,-46.630001068115234 -36,-46.77000045776367 -36.11000061035156,-46.88999938964844 -36.45000076293945,-46.90999984741211 -36.779998779296875,-47.15999984741211 -37.11000061035156,-47.41999816894531 -37.439998626708984,-47.439998626708984 -39.810001373291016,-48.380001068115234 -40.599998474121094,-48.43000030517578 -41.04999923706055,-48.56999969482422 -42.09000015258789,-48.630001068115234 -44.45000076293945,-49.34000015258789 -44.689998626708984,-49.36000061035156 -44.790000915527344,-49.4900016784668 -45.13999938964844,-49.619998931884766 -45.470001220703125,-49.63999938964844 -45.70000076293945,-49.7599983215332 -46.029998779296875,-50.0099983215332 -46.13999938964844,-50.02000045776367 -46.349998474121094,-50.2599983215332 -48.11000061035156,-51.40999984741211 -48.45000076293945,-51.65999984741211 -48.90999984741211,-51.90999984741211 -49.22999954223633,-52.060001373291016 -49.459999084472656,-52.18000030517578 -49.779998779296875,-52.41999816894531 -50,-52.66999816894531 -51.34000015258789,-53.33000183105469 -51.560001373291016,-53.560001373291016 -51.880001068115234,-53.689998626708984 -52.11000061035156,-53.939998626708984 -53.439998626708984,-54.81999969482422 -53.540000915527344,-54.939998626708984 -53.869998931884766,-54.959999084472656 -53.900001525878906,-54.5" style="fill:none;stroke:#000000;stroke-width:0.10999999940395355"></polyline>
</g>
<g id="Apical dendrite.2.2.2">
<polyline points="10.470000267028809,-31.010000228881836 8.489999771118164,-36.40999984741211 8.539999961853027,-37.209999084472656 8.3100004196167,-37.33000183105469 8.229999542236328,-37.79999923706055 8.140000343322754,-38.13999938964844 8.15999984741211,-38.369998931884766 7.730000019073486,-40.810001373291016 7.610000133514404,-41.040000915527344 7.53000020980835,-41.279998779296875 7.550000190734863,-41.63999938964844 7.429999828338623,-41.869998931884766 7.340000152587891,-42.220001220703125 7.369999885559082,-42.560001373291016 7.25,-42.689998626708984 6.480000019073486,-44.79999923706055 6.260000228881836,-45.150001525878906 6.150000095367432,-45.279998779296875 6.050000190734863,-45.38999938964844 5.949999809265137,-45.630001068115234 5.840000152587891,-45.869998931884766 5.730000019073486,-45.97999954223633 5.639999866485596,-46.220001220703125 5.539999961853027,-46.34000015258789" style="fill:none;stroke:#000000;stroke-width:0.10999999940395355"></polyline>
</g>
<g id="Apical dendrite.2.2.2.1">
<polyline points="5.539999961853027,-46.34000015258789 3.4100000858306885,-47.400001525878906 2.5,-47.45000076293945 2.1700000762939453,-47.56999969482422 1.940000057220459,-47.709999084472656 1.7100000381469727,-47.84000015258789 0.009999999776482582,-48.040000915527344 -0.33000001311302185,-48.060001373291016 -0.5600000023841858,-47.97999954223633 -0.7900000214576721,-47.880001068115234 -1.0199999809265137,-47.88999938964844 -1.940000057220459,-47.81999969482422 -2.9600000381469727,-47.880001068115234 -4.340000152587891,-48.20000076293945 -4.550000190734863,-48.31999969482422 -4.659999847412109,-48.45000076293945 -4.880000114440918,-48.58000183105469 -5.21999979019165,-48.83000183105469 -6.320000171661377,-49.34000015258789 -6.559999942779541,-49.36000061035156 -7.110000133514404,-49.630001068115234 -8.020000457763672,-49.79999923706055 -8.239999771118164,-49.91999816894531 -8.460000038146973,-50.040000915527344 -8.699999809265137,-50.060001373291016 -9.489999771118164,-50.2400016784668 -9.710000038146973,-50.25 -9.84000015258789,-50.369998931884766 -10.739999771118164,-50.529998779296875 -11.1899995803833,-50.560001373291016 -11.3100004196167,-50.68000030517578 -11.510000228881836,-50.81999969482422 -12.989999771118164,-51.02000045776367 -13.229999542236328,-51.150001525878906 -13.680000305175781,-51.18000030517578 -13.800000190734863,-51.290000915527344 -14.029999732971191,-51.29999923706055 -14.130000114440918,-51.41999816894531 -14.359999656677246,-51.43000030517578 -15.59000015258789,-51.97999954223633 -15.930000305175781,-52 -16.040000915527344,-52.11000061035156 -16.270000457763672,-52.2400016784668 -16.479999542236328,-52.380001068115234 -16.709999084472656,-52.38999938964844 -16.920000076293945,-52.630001068115234 -18.030000686645508,-53.150001525878906 -18.15999984741211,-53.27000045776367 -18.3799991607666,-53.400001525878906 -18.479999542236328,-53.529998779296875 -19.25,-54.040000915527344 -19.459999084472656,-54.27000045776367 -19.790000915527344,-54.630001068115234 -20.549999237060547,-55.4900016784668 -20.639999389648438,-55.61000061035156 -21.540000915527344,-56.22999954223633 -21.75,-56.349998474121094 -21.969999313354492,-56.5 -22.190000534057617,-56.619998931884766 -22.420000076293945,-56.7400016784668 -23.43000030517578,-57.15999984741211 -23.65999984741211,-57.279998779296875 -23.8799991607666,-57.400001525878906 -24.200000762939453,-57.77000045776367 -25.43000030517578,-58.189998626708984 -25.780000686645508,-58.209999084472656 -26.1200008392334,-58.34000015258789 -27.950000762939453,-58.45000076293945 -28.290000915527344,-58.59000015258789 -28.510000228881836,-58.720001220703125 -28.850000381469727,-58.7400016784668 -29.06999969482422,-58.869998931884766 -29.510000228881836,-59 -29.6299991607666,-59.119998931884766 -30.06999969482422,-59.279998779296875 -31.100000381469727,-59.66999816894531 -31.31999969482422,-59.68000030517578 -31.649999618530273,-59.83000183105469 -31.75,-59.95000076293945 -31.989999771118164,-59.970001220703125 -32.33000183105469,-60.099998474121094 -32.65999984741211,-60.22999954223633 -32.900001525878906,-60.2400016784668 -34.220001220703125,-61.0099983215332 -34.56999969482422,-61.029998779296875 -34.66999816894531,-61.15999984741211 -34.88999938964844,-61.290000915527344 -35.900001525878906,-61.79999923706055 -40.650001525878906,-63.130001068115234 -40.599998474121094,-63.91999816894531 -40.689998626708984,-64.04000091552734 -40.79999923706055,-64.27999877929688" style="fill:none;stroke:#000000;stroke-width:0.10999999940395355"></polyline>
</g>
<g id="Apical dendrite.2.2.2.2">
<polyline points="5.539999961853027,-46.34000015258789 5.170000076293945,-53.83000183105469" style="fill:none;stroke:#000000;stroke-width:0.10999999940395355"></polyline>
</g>
<g id="Apical dendrite.2.2.2.2.1">
<polyline points="5.170000076293945,-53.83000183105469 3.259999990463257,-54.630001068115234 2.119999885559082,-54.70000076293945 1.899999976158142,-54.81999969482422 1.6799999475479126,-54.83000183105469 1.4600000381469727,-54.959999084472656 1.1100000143051147,-54.97999954223633 0.09000000357627869,-55.16999816894531 -0.4699999988079071,-55.20000076293945" style="fill:none;stroke:#000000;stroke-width:0.10999999940395355"></polyline>
</g>
<g id="Apical dendrite.2.2.2.2.2">
<polyline points="5.170000076293945,-53.83000183105469 5.010000228881836,-70.12000274658203 4.920000076293945,-70.69999694824219 4.730000019073486,-71.4000015258789 4.670000076293945,-72.0999984741211 4.71999979019165,-73.01000213623047 4.789999961853027,-94.93000030517578 4.630000114440918,-96.31999969482422 4.550000190734863,-96.88999938964844 4.559999942779541,-97.0199966430664 5.199999809265137,-107.63999938964844 4.059999942779541,-109.87999725341797 3.869999885559082,-110.47000122070312 3.680000066757202,-111.05999755859375 3.5199999809265137,-111.87000274658203 3.319999933242798,-112.45999908447266 3.109999895095825,-112.91999816894531 3.0199999809265137,-113.27999877929688 2.809999942779541,-113.62999725341797 2.7200000286102295,-114.11000061035156 2.630000114440918,-114.44000244140625 2.549999952316284,-114.91999816894531 0.7799999713897705,-119.7300033569336 0.6800000071525574,-120.06999969482422 0.49000000953674316,-120.77999877929688 0.07999999821186066,-121.72000122070312 0,-121.95999908447266 -0.10000000149011612,-122.30999755859375 -0.20000000298023224,-122.55000305175781 -0.28999999165534973,-123.12000274658203 -0.36000001430511475,-123.58999633789062 -0.33000001311302185,-124.1500015258789 -0.41999998688697815,-124.62999725341797 -0.5,-125.19999694824219 -0.49000000953674316,-125.43000030517578 -1.309999942779541,-130.86000061035156 -1.3799999952316284,-131.4499969482422 -1.6699999570846558,-132.25999450683594 -1.5700000524520874,-133.97999572753906 -3.359999895095825,-144.22000122070312 -3.380000114440918,-145.7100067138672 -3.490000009536743,-145.82000732421875 -3.5899999141693115,-146.1699981689453 -3.680000066757202,-148.47999572753906 -3.5899999141693115,-155.7100067138672 -3.759999990463257,-156.75 -4.539999961853027,-162.63999938964844" style="fill:none;stroke:#000000;stroke-width:0.10999999940395355"></polyline>
</g>
<g id="Apical dendrite.2.2.2.2.2.1">
<polyline points="-4.539999961853027,-162.63999938964844 -4.039999961853027,-163.52999877929688 -3.9200000762939453,-163.30999755859375 -3.0299999713897705,-163.1300048828125 -2.6600000858306885,-163.22999572753906 -2.440000057220459,-163.32000732421875 -2.200000047683716,-163.4199981689453 -2.0799999237060547,-163.52999877929688 -1.340000033378601,-164.27999877929688 -0.75,-164.82000732421875 -0.3700000047683716,-165.0399932861328 -0.15000000596046448,-165.02000427246094 0.07999999821186066,-165.1199951171875 2.5999999046325684,-165.08999633789062 3.180000066757202,-165.1699981689453 3.740000009536743,-165.13999938964844 3.9800000190734863,-165.22000122070312 5.269999980926514,-165.72999572753906 5.510000228881836,-165.82000732421875 5.739999771118164,-165.92999267578125 5.989999771118164,-166.13999938964844 6.21999979019165,-166.24000549316406 6.46999979019165,-166.35000610351562 6.949999809265137,-166.77000427246094" style="fill:none;stroke:#000000;stroke-width:0.10999999940395355"></polyline>
</g>
<g id="Apical dendrite.2.2.2.2.2.2">
<polyline points="-4.539999961853027,-162.63999938964844 -4.670000076293945,-167.02000427246094 -4.650000095367432,-167.3699951171875 -4.5,-168.27000427246094 -4.420000076293945,-169.52000427246094 -4.230000019073486,-170.44000244140625 -4.210000038146973,-170.88999938964844 -4.539999961853027,-173.2100067138672" style="fill:none;stroke:#000000;stroke-width:0.10999999940395355"></polyline>
</g>
<g id="Apical dendrite.2.2.2.2.2.2.1">
<polyline points="-4.539999961853027,-173.2100067138672 -6.369999885559082,-173.1999969482422 -6.940000057220459,-173.36000061035156 -7.170000076293945,-173.3699951171875 -7.380000114440918,-173.47999572753906 -7.5,-173.61000061035156 -7.489999771118164,-173.72999572753906 -8.029999732971191,-174.11000061035156 -8.380000114440918,-174.22999572753906 -8.600000381469727,-174.3699951171875 -8.699999809265137,-174.49000549316406 -8.930000305175781,-174.50999450683594 -10.720000267028809,-175.41000366210938 -10.930000305175781,-175.66000366210938 -11.260000228881836,-175.8000030517578 -11.600000381469727,-175.9199981689453 -11.819999694824219,-176.05999755859375 -12.149999618530273,-176.17999267578125 -12.5,-176.44000244140625 -13.069999694824219,-176.47999572753906 -14.869999885559082,-177.16000366210938 -15.3100004196167,-177.30999755859375 -17.149999618530273,-177.4199981689453 -19.209999084472656,-177.3000030517578 -19.440000534057617,-177.30999755859375 -19.670000076293945,-177.22000122070312 -19.920000076293945,-177.11000061035156 -20.15999984741211,-177.00999450683594 -20.8700008392334,-176.47999572753906 -21,-176.27000427246094 -21.139999389648438,-175.80999755859375 -21.540000915527344,-174.80999755859375 -21.670000076293945,-174.69000244140625 -21.790000915527344,-174.47000122070312 -21.90999984741211,-174.36000061035156 -22.549999237060547,-173.60000610351562 -22.649999618530273,-173.49000549316406 -22.809999465942383,-173.0399932861328 -22.940000534057617,-172.82000732421875 -22.950000762939453,-172.60000610351562 -23.190000534057617,-172.3699951171875 -23.440000534057617,-172.0399932861328 -23.920000076293945,-171.6199951171875 -24.15999984741211,-171.52000427246094 -24.520000457763672,-171.19000244140625 -25.729999542236328,-170.22999572753906 -25.84000015258789,-170.1300048828125 -26.09000015258789,-170.02999877929688 -26.209999084472656,-169.8000030517578 -26.229999542236328,-169.5800018310547 -26.729999542236328,-168.8000030517578 -26.75,-168.57000732421875 -26.860000610351562,-168.47000122070312 -26.989999771118164,-168.24000549316406" style="fill:none;stroke:#000000;stroke-width:0.10999999940395355"></polyline>
</g>
<g id="Apical dendrite.2.2.2.2.2.2.2">
<polyline points="-4.539999961853027,-173.2100067138672 -5.349999904632568,-176.7100067138672" style="fill:none;stroke:#000000;stroke-width:0.10999999940395355"></polyline>
</g>
<g id="Apical dendrite.2.2.2.2.2.2.2.1">
<polyline points="-5.349999904632568,-176.7100067138672 -7.150000095367432,-187.7100067138672 -7.050000190734863,-189.42999267578125 -7.079999923706055,-190.8000030517578 -7.119999885559082,-191.97000122070312 -7.199999809265137,-192.77999877929688 -7.260000228881836,-193.47000122070312 -7.159999847412109,-195.07000732421875 -7.010000228881836,-205.27000427246094 -7.099999904632568,-205.61000061035156 -7.380000114440918,-206.7899932861328 -7.269999980926514,-208.6199951171875 -7.360000133514404,-208.9499969482422 -7.329999923706055,-209.30999755859375 -7.53000020980835,-209.89999389648438 -7.619999885559082,-210.58999633789062 -7.579999923706055,-211.27999877929688 -7.639999866485596,-212.08999633789062 -7.610000133514404,-212.5399932861328 -7.880000114440918,-213.8300018310547 -7.96999979019165,-214.27000427246094 -7.960000038146973,-214.39999389648438 -6.380000114440918,-219.55999755859375 -6.480000019073486,-219.69000244140625 -6.349999904632568,-220.02999877929688 -6.110000133514404,-220.24000549316406 -5.699999809265137,-221.49000549316406 -5.559999942779541,-221.5800018310547 -5.539999961853027,-222.0500030517578 -5.400000095367432,-222.60000610351562 -5.320000171661377,-223.97999572753906 -5.510000228881836,-226.52999877929688 -5.610000133514404,-226.6300048828125 -5.789999961853027,-227.3300018310547 -5.889999866485596,-227.5800018310547 -6,-227.69000244140625 -6.099999904632568,-227.92999267578125 -6.53000020980835,-228.64999389648438 -6.619999885559082,-229 -6.820000171661377,-229.4600067138672 -6.940000057220459,-229.58999633789062 -7.139999866485596,-229.94000244140625 -7.239999771118164,-230.17999267578125 -7.440000057220459,-230.64999389648438 -8.529999732971191,-233.35000610351562 -8.630000114440918,-233.60000610351562 -8.729999542236328,-234.0500030517578 -8.800000190734863,-234.63999938964844 -8.770000457763672,-235.08999633789062 -8.880000114440918,-235.3300018310547 -8.979999542236328,-235.55999755859375 -9.069999694824219,-236.0399932861328 -9.170000076293945,-236.25999450683594 -10.229999542236328,-241.5 -10.1899995803833,-242.0500030517578 -10.390000343322754,-242.5399932861328 -10.470000267028809,-243.10000610351562 -10.5600004196167,-243.6999969482422 -10.539999961853027,-244.0399932861328 -10.619999885559082,-244.3800048828125 -10.609999656677246,-244.61000061035156 -10.710000038146973,-245.0800018310547 -10.789999961853027,-245.5399932861328 -10.739999771118164,-246.4499969482422 -10.84000015258789,-246.80999755859375 -10.479999542236328,-250.80999755859375 -10.329999923706055,-251.36000061035156 -10.25,-252.74000549316406 -8.880000114440918,-260.07000732421875 -8.729999542236328,-260.6300048828125 -8.609999656677246,-260.739990234375 -8.359999656677246,-261.19000244140625 -7.300000190734863,-263.5400085449219 -7.03000020980835,-263.9599914550781 -6.880000114440918,-264.7699890136719 -6.730000019073486,-265.1099853515625 -6.699999809265137,-265.57000732421875 -6.579999923706055,-265.7799987792969 -6.53000020980835,-266.5899963378906 -6.409999847412109,-267.0299987792969 -6.389999866485596,-267.3699951171875 -6.590000152587891,-271.2900085449219 -6.769999980926514,-272.3399963378906 -6.849999904632568,-272.9100036621094 -6.820000171661377,-273.4800109863281 -7.119999885559082,-274.19000244140625 -7.210000038146973,-274.5400085449219 -7.309999942779541,-274.8900146484375 -7.690000057220459,-276.07000732421875 -7.760000228881836,-276.760009765625 -7.949999809265137,-277.3399963378906 -8.039999961853027,-277.79998779296875 -8.239999771118164,-278.2699890136719 -8.4399995803833,-279.0899963378906 -8.510000228881836,-279.55999755859375 -8.470000267028809,-280.1300048828125 -8.5600004196167,-286.45001220703125 -8.390000343322754,-289.29998779296875 -7.389999866485596,-294.69000244140625 -7.170000076293945,-296.04998779296875 -6.889999866485596,-300.75 -7.090000152587891,-307.29998779296875 -7.170000076293945,-307.760009765625 -7.360000133514404,-308.45001220703125 -7.409999847412109,-309.3800048828125 -7.440000057220459,-310.760009765625 -7.340000152587891,-312.3699951171875 -7.550000190734863,-312.8299865722656 -7.429999828338623,-314.7699890136719 -7.5,-323.0400085449219 -7.449999809265137,-323.8500061035156 -7.670000076293945,-324.0899963378906 -7.619999885559082,-324.8999938964844 -7.679999828338623,-326.04998779296875 -7.599999904632568,-327.4200134277344 -8.720000267028809,-335.6000061035156 -7.820000171661377,-339 -7.570000171661377,-343 -7.099999904632568,-347.1000061035156 -7.010000228881836,-348.4800109863281 -7.059999942779541,-349.739990234375 -6.960000038146973,-351.45001220703125 -7.039999961853027,-351.79998779296875 -7.369999885559082,-358.0199890136719 -7.360000133514404,-358.2300109863281 -7.550000190734863,-358.94000244140625 -7.71999979019165,-359.8699951171875 -7.78000020980835,-360.7900085449219 -7.610000133514404,-363.5400085449219 -7.710000038146973,-363.8900146484375 -7.650000095367432,-364.9200134277344 -6.440000057220459,-377.07000732421875 -5.920000076293945,-378.20001220703125 -5.619999885559082,-379.3299865722656 -5.460000038146973,-380.1199951171875 -5.300000190734863,-380.79998779296875 -4.46999979019165,-394.5299987792969 -4.570000171661377,-394.989990234375 -4.659999847412109,-395.3299865722656 -4.5,-397.9700012207031 -4.599999904632568,-400.0400085449219 -2.619999885559082,-412.82000732421875 -2.240000009536743,-413.489990234375 -2.0799999237060547,-414.04998779296875 -2.0399999618530273,-414.6300048828125 -1.909999966621399,-415.17999267578125 -1.600000023841858,-420.32000732421875 -1.4500000476837158,-420.6600036621094 -1.340000033378601,-424.54998779296875 -1.5299999713897705,-425.260009765625 -1.4800000190734863,-426.04998779296875 -1.5800000429153442,-426.29998779296875 -1.409999966621399,-429.04998779296875 -1.4900000095367432,-429.3800048828125 -1.4700000286102295,-429.739990234375 -1.5800000429153442,-430.0799865722656 -1.399999976158142,-435 -1.3600000143051147,-435.67999267578125 -1.9700000286102295,-438.4599914550781 -2.069999933242798,-438.55999755859375 -1.9199999570846558,-441.2099914550781 -2.0199999809265137,-443.2799987792969 -1.9500000476837158,-444.4200134277344 -2.069999933242798,-444.6400146484375 -1.940000057220459,-446.82000732421875 -1.7799999713897705,-451.05999755859375 -1.559999942779541,-454.7200012207031 -1.7899999618530273,-456.9200134277344 -1.7699999809265137,-457.25 -1.909999966621399,-458.4100036621094 -2.130000114440918,-458.7699890136719 -2.119999885559082,-459 -2.3299999237060547,-459.2300109863281 -2.299999952316284,-459.70001220703125 -2.6600000858306885,-461.44000244140625 -2.630000114440918,-462.010009765625 -2.8299999237060547,-462.260009765625 -0.9700000286102295,-493.1300048828125 -0.8399999737739563,-493.5799865722656 -0.6899999976158142,-494.25 -0.6600000262260437,-494.7099914550781 0.019999999552965164,-498.4599914550781 0.10999999940395355,-500.07000732421875 0.27000001072883606,-500.739990234375 0.3499999940395355,-502.1199951171875 1.1799999475479126,-508.260009765625 1.3300000429153442,-508.94000244140625 1.5299999713897705,-510.2900085449219 1.5700000524520874,-510.989990234375 1.7200000286102295,-511.55999755859375 1.8799999952316284,-512.1300048828125 2.0199999809265137,-512.6799926757812 2.369999885559082,-516.3400268554688 2.259999990463257,-516.6799926757812 2.180000066757202,-517.1599731445312 2.2300000190734863,-517.8499755859375 2.119999885559082,-518.1799926757812 2.0199999809265137,-518.4299926757812 2.130000114440918,-520.260009765625 2.190000057220459,-525.0700073242188 2.369999885559082,-528.0499877929688 2.5199999809265137,-528.72998046875 2.6700000762939453,-529.1699829101562 2.690000057220459,-529.510009765625 2.819999933242798,-529.8499755859375 2.8499999046325684,-530.3099975585938 3.5399999618530273,-533.9500122070312 3.5899999141693115,-534.8400268554688 3.869999885559082,-535.6500244140625 4.039999961853027,-538.5 4.829999923706055,-543.969970703125 5.480000019073486,-554.719970703125 5.989999771118164,-557.6599731445312 6.03000020980835,-558.22998046875 6.190000057220459,-559.1300048828125 6.460000038146973,-559.7000122070312 6.489999771118164,-560.1599731445312 6.619999885559082,-560.5999755859375 6.639999866485596,-560.8300170898438 6.78000020980835,-561.1699829101562 6.800000190734863,-561.52001953125 7.630000114440918,-565.8300170898438 7.659999847412109,-566.3900146484375 7.820000171661377,-566.8499755859375 7.920000076293945,-568.4600219726562 8.0600004196167,-569.010009765625 8.1899995803833,-569.5800170898438 8.210000038146973,-569.8099975585938 9.1899995803833,-574.4500122070312 9.239999771118164,-575.260009765625 9.520000457763672,-576.1599731445312 9.5600004196167,-576.8300170898438 9.710000038146973,-577.4000244140625 9.850000381469727,-577.97998046875 10.010000228881836,-578.530029296875 10.029999732971191,-579 11.0600004196167,-584.7899780273438 11.229999542236328,-585.3400268554688 11.899999618530273,-587.030029296875 12.289999961853027,-587.7999877929688 12.3100004196167,-588.1500244140625 12.4399995803833,-588.3800048828125 12.569999694824219,-588.5999755859375 12.710000038146973,-589.030029296875 13.75,-591.1699829101562 13.869999885559082,-591.280029296875" style="fill:none;stroke:#000000;stroke-width:0.10999999940395355"></polyline>
</g>
<g id="Apical dendrite.2.2.2.2.2.2.2.2">
<polyline points="-5.349999904632568,-176.7100067138672 -2.059999942779541,-176.16000366210938 1.1299999952316284,-175.9600067138672 4.940000057220459,-176.08999633789062 5.610000133514404,-176.0500030517578 5.849999904632568,-176.1300048828125" style="fill:none;stroke:#000000;stroke-width:0.10999999940395355"></polyline>
</g></g></svg>