
  <svg id="SVG_ROOT" xmlns="http://www.w3.org/2000/svg" class="innerBox" preserveAspectRatio="xMinYMin meet" style="shape-rendering:geometricPrecision; text-rendering:geometricPrecision; fill-rule:evenodd" viewBox="-90.6963119506836 -185.70359802246094 188.179931640625 240.7983856201172" width="188.179931640625mm" height="240.7983856201172mm"><g transform="scale(1,-1)"><g id="Soma">
<polyline points="0,0" style="fill:none;stroke:#ffffff;stroke-width:18.12342071533203"></polyline>
</g>
<g id="Soma.1">
<polyline points="0,0 1.071231010022625,-8.632058509467898" style="fill:none;stroke:#ffffff;stroke-width:18.12342071533203"></polyline>
</g>
<g id="Soma.2">
<polyline points="0,0 -1.074123846184285,8.623040359398738" style="fill:none;stroke:#ffffff;stroke-width:18.12342071533203"></polyline>
</g>
<g id="(basal) Dendrite #1">
<polyline points="0,0 7.315178612821036,8.77220112743519 8.505909336920784,9.789408267154695 10.120311003871887,11.714794962383124 11.814253034698183,12.874158652615282 15.395654513445223,13.899035649398716 18.55914856432756,15.94346623017891 20.155643183160908,17.272792201704558" style="fill:none;stroke:#000000;stroke-width:0.27000001072883606"></polyline>
</g>
<g id="(basal) Dendrite #1.1">
<polyline points="20.155643183160908,17.272792201704558 22.34731716570868,18.8320446583258 24.173226544645065,23.31391336086041" style="fill:none;stroke:#000000;stroke-width:0.27000001072883606"></polyline>
</g>
<g id="(basal) Dendrite #1.1.1">
<polyline points="24.173226544645065,23.31391336086041 22.395864263856062,24.776641941656475 21.993488456007995,28.068835267939797 21.54030549859749,31.62786036329549 19.423772639911903,38.11339349170697 20.12228062325318,42.35059975934875 23.367690788040715,45.926049837543864 21.390700334419442,49.11776233700711 19.63357341833978,52.56548049367119 18.659567736956426,60.42540826378986 15.968112024134783,65.08596451548729 14.490707638007041,68.55943540484581 13.540352191065036,76.16182181356525 11.834193789838473,85.49669523921202 8.150143488208272,89.58153250888485 8.347975485051759,94.45043302765619 7.8434695713040545,100.56431667301312 7.181192855927512,105.8919821963357" style="fill:none;stroke:#000000;stroke-width:0.27000001072883606"></polyline>
</g>
<g id="(basal) Dendrite #1.1.1.1">
<polyline points="7.181192855927512,105.8919821963357 6.706373386258529,107.64997413612728 5.086296760840521,114.17854458476992 2.7524674318900777,118.0895575840044 1.316163379482627,121.06967764721851 0.2999432592449933,127.12566379382754 -0.6725144913742214,134.90399835451174 -1.6810225278312318,139.90248657165859 -1.286052087770643,145.03451446306437 -0.8779541724796902,150.894774217597 -1.6416085649740355,156.98580346664522 -2.3986806070844793,163.06463652190743 -4.875217845162879,168.00266924909636" style="fill:none;stroke:#000000;stroke-width:0.27000001072883606"></polyline>
</g>
<g id="(basal) Dendrite #1.1.1.2">
<polyline points="7.181192855927512,105.8919821963357 7.888602038301943,108.75144290791198 7.375378559810723,112.81018483425763 5.767665792096518,119.34459488276099 2.8771033381308113,123.48258330963196 1.2519558415490222,125.90671740776824 3.2456283949463254,128.88360370819225" style="fill:none;stroke:#000000;stroke-width:0.27000001072883606"></polyline>
</g>
<g id="(basal) Dendrite #1.1.2">
<polyline points="24.173226544645065,23.31391336086041 24.957243695794265,23.370253439650163 28.468340892083432,24.92826746923076 31.287362635239433,27.697837239361377 34.694188339356835,30.01020003175328 37.39673335841415,32.510684462351534 38.416409046248305,34.87866571223126 40.249458522110835,37.28301782580391 43.37460282324373,39.70121706562916 46.34111855934577,43.51377336445445 48.05831673679329,50.82952625279403 47.45687265493516,55.62723445705519 48.15694906505295,60.557221092738864 49.07791332579535,65.90427532633842 51.52318225877675,70.3174693432983 50.84068889253712,79.99783795402179 49.31120691407153,88.08448710592833 48.33683885334607,91.58879988029996 43.58545674498955,96.71734123288752 42.10417413876092,98.88539287055578 40.475380349218845,103.35882908784265 38.855265344064115,107.85932061543716 36.59095229368104,111.2674375954017 35.82706872135921,112.3494072891347" style="fill:none;stroke:#000000;stroke-width:0.27000001072883606"></polyline>
</g>
<g id="(basal) Dendrite #1.1.2.1">
<polyline points="35.82706872135921,112.3494072891347 35.017298667497194,116.63408223766835 31.561321193610404,120.97198420449418 31.113345802057633,122.28556735593294 30.558942633191666,125.27997770100272 28.259871923402862,128.93954252940654 27.13274902668679,133.18360558483613 26.27101458889477,138.4150056861938 23.13092315095238,142.65557463846417 22.272700059520023,146.2876032728128 21.217784219087523,152.60990020462557 18.913642043852054,158.09314435447826 16.93404522329706,163.31026156331978 16.110353620550224,169.90101796455977 13.389921411479524,174.8310503517234 11.214623140266372,177.46996368371023 10.865708613633618,180.27464295016364" style="fill:none;stroke:#000000;stroke-width:0.27000001072883606"></polyline>
</g>
<g id="(basal) Dendrite #1.1.2.2">
<polyline points="35.82706872135921,112.3494072891347 32.75107606502892,113.65240624471079 27.881143096471547,117.10305183737009 24.574221066688896,120.17203708802019 22.755757154306515,122.09165143737164 19.91045647138742,124.28846403103208 16.25759096809834,126.25382893852655 10.860314566381863,129.15884988816475 6.23740524506058,134.43822203105717 2.2159805925529747,136.94797177153777 -0.8676950372711815,141.83191393273202 -2.0669250134554282,149.15466706556705 -5.196266966475921,159.4171835787153 -5.998841374876992,170.0969858514187 -6.54444451182648,176.70422690029406 -6.6407549309792095,181.5720281902348 -6.091866972106363,185.70360051009806" style="fill:none;stroke:#000000;stroke-width:0.27000001072883606"></polyline>
</g>
<g id="(basal) Dendrite #1.2">
<polyline points="20.155643183160908,17.272792201704558 22.014687808980373,17.14785127701851 24.255338108263278,18.343363926075877 26.37529561748605,20.60947141146495 29.42597919597768,22.23816756031903 34.90786570213744,27.568029287377467 34.36935761182811,31.875040784163936 33.381314663667894,37.691774650301156 33.967612472003914,40.009179219049585 34.27709965763793,43.857943558180025 36.11461840946272,50.403965805666886 34.5864465574284,56.17235456937428 33.96157009736545,61.25123955616201 32.77492879648138,64.7911284686178 31.935940389125626,69.33894592200647 31.338867915001074,74.47944132498101 30.991515517661732,78.86519649783857 30.35544092892138,83.91752887758881 31.182176091321946,87.83587197176101 32.83137277482457,91.53789103587499" style="fill:none;stroke:#000000;stroke-width:0.27000001072883606"></polyline>
</g>
<g id="(basal) Dendrite #1.2.1">
<polyline points="32.83137277482457,91.53789103587499 32.353176617756915,94.05044994288303 33.253110529628884,97.4446745592866 33.29951488446189,101.28546143752766 34.14811559820281,104.56840157515657 35.060869342469516,107.44807202556689 36.013799961202054,110.3247960925072 36.63802043884622,115.99958071058131 36.9340972245193,119.86638983762464 37.67261534572129,124.52370563537279 40.26950101645382,128.20056732902884 44.690314571663855,133.1937314580037 45.40473383205992,136.088261555002 47.39575900701378,140.83968725535627 49.057321016082184,144.54754542626185 49.329593888430274,146.8806299914993 49.34934427526128,150.51366664180398 49.101805410698475,152.55496761495084" style="fill:none;stroke:#000000;stroke-width:0.27000001072883606"></polyline>
</g>
<g id="(basal) Dendrite #1.2.2">
<polyline points="32.83137277482457,91.53789103587499 33.97226537444032,92.903010142796 35.35690264626282,96.57366338563764 36.97712961911568,100.54517155032396 36.968467646388696,103.06969234932308 37.978330486814734,105.41404616301963 40.471585093887384,108.67268457939208 44.44751184557239,110.76391017858592 48.84745136901379,111.36397545534695 54.08510885703554,111.76256977219496 58.478706665918295,112.60453770426975 61.39545357219483,116.66003271307726 60.95832426261271,120.20368392453865 62.007311185545085,122.32898501982208 68.70666667213708,127.97117884652381 75.82449129806137,132.3338915683244 76.98646271228615,135.7599776256607 76.60937061295652,138.80390168493037 79.23061694316705,140.28267373033026 82.59925454316047,143.9159312695475 82.54625496193158,146.54919610943523 84.96722914613864,150.30489280736953 87.92627565705496,152.82555047213913 90.41953337464611,156.0841954658856 89.55815201243186,160.8893000831113 91.60845029852908,165.6454621449294 92.02140722546837,167.45623060363883 93.46202811396816,170.63887783496116 96.32452252989137,175.21212708824285 97.4836006808669,178.6291999028651 97.13548479007932,181.40364030108458" style="fill:none;stroke:#000000;stroke-width:0.27000001072883606"></polyline>
</g>
<g id="(basal) Dendrite #2">
<polyline points="0,0 -9.701068437508683,8.165126178618214 -11.365616018637152,11.440024198890578 -13.224186668645578,15.72792737422885 -14.32959860310509,18.973766139725843" style="fill:none;stroke:#000000;stroke-width:0.27000001072883606"></polyline>
</g>
<g id="(basal) Dendrite #2.1">
<polyline points="-14.32959860310509,18.973766139725843 -14.958260161842615,21.236230936786512 -16.738519611592242,22.65346684882276 -18.56986720227135,26.85526210529553" style="fill:none;stroke:#000000;stroke-width:0.27000001072883606"></polyline>
</g>
<g id="(basal) Dendrite #2.1.1">
<polyline points="-18.56986720227135,26.85526210529553 -22.012992158117093,33.13164354604906 -23.717914482486812,36.09209783111888 -25.0530730714841,39.51205680327035 -26.954373130472444,43.51030610005088 -27.654048846367928,49.08674983285362 -28.68632040721512,55.15811674415814 -31.7788829784866,58.76452414141698 -36.41331711395717,61.76021281959388 -39.253827054361075,67.68968918993924 -41.20277419595622,70.08859997453578 -43.62698840240641,72.22518307412102 -46.33374532342292,74.84280185717466 -49.212180422495145,75.74646730193862 -53.130094390744134,79.56018434868966 -56.26323566854361,81.37192145825652 -60.67628806558165,82.82433821744627 -63.65501579927459,85.69367597951054 -66.32762146724525,88.90474469387713 -71.05564498344687,91.38675879395434 -76.24513331497174,94.10606098287882 -80.41389796950519,91.34955921505245 -82.47276189213663,95.03833351655439 -85.25554695087575,96.51222307070631 -88.99159051656746,98.7521975724359 -90.69631098546812,99.91427191032979" style="fill:none;stroke:#000000;stroke-width:0.27000001072883606"></polyline>
</g>
<g id="(basal) Dendrite #2.1.2">
<polyline points="-18.56986720227135,26.85526210529553 -21.375459016108373,27.977264295469787 -24.261817328279115,29.80601104088374 -27.869022687632498,31.317425841723473 -33.12907202690333,31.176122129113075 -37.346708614804086,33.17232248601055 -39.23682462837439,33.52749324059851" style="fill:none;stroke:#000000;stroke-width:0.27000001072883606"></polyline>
</g>
<g id="(basal) Dendrite #2.2">
<polyline points="-14.32959860310509,18.973766139725843 -13.444958887050811,20.325057601408783 -13.20527498188041,22.64229051539795 -13.455702985674764,24.674580671646776" style="fill:none;stroke:#000000;stroke-width:0.27000001072883606"></polyline>
</g>
<g id="(basal) Dendrite #2.2.1">
<polyline points="-13.455702985674764,24.674580671646776 -12.872964043874383,28.981106499460207 -12.794696681488388,32.561425130765876 -11.645086365943884,35.98168018924295 -11.993206973539582,38.75611836077053 -11.31977630822071,44.02872181156377 -10.818014639721738,48.4059001722779 -11.7359148472328,55.780976685492085 -12.492988695942607,61.85981034760866 -13.775360262738038,71.21711811044685 -13.930146359464027,78.47609773708245 -14.396084388440975,84.3204868773513 -15.150268587100243,90.40833499589061 -14.097172183740811,97.21616924436216 -12.933526912907798,102.67961691621366 -11.609910604060788,107.22201482651923 -11.020566798581768,111.02931269058968 -11.03395734988018,112.59545665721055 -10.512975498458003,114.55734168138835 -9.193872183140515,117.16150794996591 -7.431259735599463,121.20810045406422 -5.554780380912414,125.19343547974526 -4.217125110758867,128.65977224503195 -2.4982158144193414,131.75709839763493 -2.5442258138409244,134.30000012651752 -2.8041225072414946,136.33548234133139" style="fill:none;stroke:#000000;stroke-width:0.27000001072883606"></polyline>
</g>
<g id="(basal) Dendrite #2.2.2">
<polyline points="-13.455702985674764,24.674580671646776 -13.585257834869994,25.677196677844254 -14.689217317928058,28.156045930510864 -15.261831877303706,32.09231657595087 -15.811683340165636,33.46346560156115 -16.512115587730044,35.198273146241874 -19.209394536709322,37.81271009156952 -22.3683608389609,41.2897270128378 -24.010654372886993,44.75726858430579 -24.763957470037393,48.78997338662166 -23.302783723834242,49.762476262445766 -24.864688910014035,53.855776218629906 -25.8669834190193,57.605687185318764 -27.161824178450267,61.48984684482096 -28.36960936296173,65.73987551889849 -27.91500654415583,68.33458666650783 -28.717658687961272,74.6478414257974 -30.370481019185487,76.89897207818723 -31.134133204461016,82.99000820803664 -32.99389428685412,87.20134402248982 -33.794441208950595,91.47649071379973 -35.47094933861637,94.4274003936342 -37.43747530408212,96.55913516477659 -37.80022538583389,99.33458483058311 -39.32752182246389,103.04782821546964 -40.54866687721532,106.53513125363139" style="fill:none;stroke:#000000;stroke-width:0.27000001072883606"></polyline>
</g>
<g id="(basal) Dendrite #3">
<polyline points="0,0 3.477173867240487,-12.496122011098887 3.079718457451295,-15.599568999867484 4.7396213870836075,-18.27515496248082 5.113819195147196,-21.32809858859277 5.525666100130022,-24.62347334881215 5.937513005112848,-27.91884810903153 6.413086558977777,-31.735161481570188 6.069094588498236,-35.32612516065054 2.420969049697957,-39.529174948778035 1.909772857201602,-41.875092347653634 -0.9440045949072756,-44.393211113407354 -1.3208973278175464,-47.35103205531615 -1.9753616366806068,-48.4099912772768 -2.062307783453934,-52.01736521889009 -2.210088570654762,-55.094784978415404" style="fill:none;stroke:#000000;stroke-width:0.27000001072883606"></polyline>
</g></g></svg>