
  <svg id="SVG_ROOT" xmlns="http://www.w3.org/2000/svg" class="innerBox" preserveAspectRatio="xMinYMin meet" style="shape-rendering:geometricPrecision; text-rendering:geometricPrecision; fill-rule:evenodd" viewBox="-120.5199966430664 -361.8399963378906 120.69999694824219 361.8399963378906" width="120.69999694824219mm" height="361.8399963378906mm"><g transform="scale(1,-1)"><g id="Axon">
<polyline points="0,0 0.18000000715255737,0.5699999928474426 -10.020000457763672,3.640000104904175 -10.6899995803833,4.650000095367432 -9.630000114440918,17.8799991607666 -12.569999694824219,21.06999969482422 -32.959999084472656,27.360000610351562 -36.810001373291016,30.850000381469727 -53.959999084472656,29.440000534057617 -55.65999984741211,30.31999969482422 -76.13999938964844,43.91999816894531 -82.37999725341797,51.529998779296875 -81.87999725341797,55.31999969482422" style="fill:none;stroke:#000000;stroke-width:1"></polyline>
</g>
<g id="Axon.1">
<polyline points="-81.87999725341797,55.31999969482422 -76.12000274658203,59.25 -75.62000274658203,63.029998779296875" style="fill:none;stroke:#000000;stroke-width:1"></polyline>
</g>
<g id="Axon.1.1">
<polyline points="-75.62000274658203,63.029998779296875 -68.81999969482422,67.08999633789062 -56.83000183105469,89.33999633789062 -57.77000045776367,94.87000274658203 -59.869998931884766,105.22000122070312 -55.209999084472656,111.87999725341797 -41.63999938964844,123.01000213623047 -35.5,133.4499969482422 -38.189998626708984,150.4499969482422 -21,170.33999633789062 -22.170000076293945,180.52000427246094 -17.100000381469727,190.6999969482422 -9.670000076293945,198.97000122070312 -9.09000015258789,203.0399932861328 -6.230000019073486,210.3000030517578 -2.509999990463257,222.5 -4.300000190734863,239.2100067138672 -8.289999961853027,242.27000427246094" style="fill:none;stroke:#000000;stroke-width:1"></polyline>
</g>
<g id="Axon.1.1.1">
<polyline points="-8.289999961853027,242.27000427246094 -6.050000190734863,245.32000732421875 -14.079999923706055,258.8900146484375 -14.260000228881836,258.32000732421875 -6.639999866485596,267.1700134277344 -5.659999847412109,285.4800109863281 -16.450000762939453,284.4800109863281 -15.960000038146973,293.6400146484375 -24.25,291.17999267578125 -22.190000534057617,299.0199890136719 -37.380001068115234,310.54998779296875 -40.91999816894531,317.25 -43.380001068115234,313.489990234375 -44.72999954223633,312.3699951171875 -44.290000915527344,316.010009765625 -50.91999816894531,320.1199951171875 -49.66999816894531,333.9100036621094 -51.720001220703125,336.79998779296875 -49.56999969482422,344.94000244140625 -59.869998931884766,340.1400146484375 -68.19999694824219,337.5299987792969 -81.01000213623047,331.04998779296875" style="fill:none;stroke:#000000;stroke-width:1"></polyline>
</g>
<g id="Axon.1.1.1.1">
<polyline points="-81.01000213623047,331.04998779296875 -81.1500015258789,335.989990234375 -90.77999877929688,337.7699890136719 -97.55000305175781,346.80999755859375 -102.83999633789062,354.260009765625 -107.7300033569336,357.6300048828125 -107.0999984741211,361.8399963378906" style="fill:none;stroke:#000000;stroke-width:1"></polyline>
</g>
<g id="Axon.1.1.1.2">
<polyline points="-81.01000213623047,331.04998779296875 -76.86000061035156,330.7799987792969 -72.33000183105469,320.9100036621094 -67.41000366210938,330.6499938964844 -69.3499984741211,346.92999267578125 -77,348.67999267578125 -84.87999725341797,355.0899963378906 -95.12999725341797,334.32000732421875 -93.55999755859375,327.6499938964844 -93.20999908447266,331.010009765625 -102.83999633789062,327.4200134277344 -103.06999969482422,332.07000732421875 -103.11000061035156,331.92999267578125" style="fill:none;stroke:#000000;stroke-width:1"></polyline>
</g>
<g id="Axon.1.1.2">
<polyline points="-8.289999961853027,242.27000427246094 -13.119999885559082,243.5500030517578 -12.84000015258789,244.39999389648438 -20.049999237060547,247.5800018310547 -36.630001068115234,250.24000549316406 -44.20000076293945,246.89999389648438 -49.91999816894531,248.47999572753906 -56.130001068115234,249.4199981689453 -63.63999938964844,241.77999877929688 -65.51000213623047,255.99000549316406 -68.47000122070312,253.80999755859375 -68.29000091552734,259.75 -70.73999786376953,259.1300048828125 -70.73999786376953,264.5 -67.47000122070312,262.30999755859375 -61.189998626708984,267.80999755859375 -54.06999969482422,267.489990234375 -51.61000061035156,265.8800048828125 -44.709999084472656,275.6000061035156" style="fill:none;stroke:#000000;stroke-width:1"></polyline>
</g>
<g id="Axon.1.1.2.1">
<polyline points="-44.709999084472656,275.6000061035156 -51.70000076293945,276.3399963378906 -58.15999984741211,275.6400146484375 -68.2699966430664,273.6300048828125" style="fill:none;stroke:#000000;stroke-width:1"></polyline>
</g>
<g id="Axon.1.1.2.1.1">
<polyline points="-68.2699966430664,273.6300048828125 -72.38999938964844,268.67999267578125 -71.54000091552734,268.239990234375 -70.41999816894531,252.52999877929688 -67.7699966430664,246.1300048828125" style="fill:none;stroke:#000000;stroke-width:1"></polyline>
</g>
<g id="Axon.1.1.2.1.2">
<polyline points="-68.2699966430664,273.6300048828125 -70.5999984741211,275.6700134277344 -81.08000183105469,275.6700134277344 -84.87999725341797,273.92999267578125" style="fill:none;stroke:#000000;stroke-width:1"></polyline>
</g>
<g id="Axon.1.1.2.2">
<polyline points="-44.709999084472656,275.6000061035156 -40.060001373291016,276.8900146484375 -41.61000061035156,249.13999938964844 -37.630001068115234,251.4499969482422 -36.599998474121094,246.2100067138672 -38.880001068115234,243.02000427246094 -42.90999984741211,240.55999755859375 -40.720001220703125,243.47000122070312" style="fill:none;stroke:#000000;stroke-width:1"></polyline>
</g>
<g id="Axon.1.2">
<polyline points="-75.62000274658203,63.029998779296875 -77.37999725341797,69.1500015258789" style="fill:none;stroke:#000000;stroke-width:1"></polyline>
</g>
<g id="Axon.1.2.1">
<polyline points="-77.37999725341797,69.1500015258789 -89.55999755859375,72.25 -118.01000213623047,91.97000122070312 -120.5199966430664,98.80000305175781 -119.54000091552734,98.79000091552734 -114.93000030517578,99.94999694824219" style="fill:none;stroke:#000000;stroke-width:1"></polyline>
</g>
<g id="Axon.1.2.2">
<polyline points="-77.37999725341797,69.1500015258789 -80.11000061035156,80.6500015258789 -75.62999725341797,86.73999786376953" style="fill:none;stroke:#000000;stroke-width:1"></polyline>
</g>
<g id="Axon.2">
<polyline points="-81.87999725341797,55.31999969482422 -85.83000183105469,58.52000045776367 -85.6500015258789,59.09000015258789" style="fill:none;stroke:#000000;stroke-width:1"></polyline>
</g>
<g id="Axon.2.1">
<polyline points="-85.6500015258789,59.09000015258789 -86.2699966430664,65.61000061035156 -92.18000030517578,66.62999725341797 -94.5999984741211,68.37999725341797 -89.08999633789062,85.33000183105469 -89.66999816894531,86.62999725341797 -86.80000305175781,93.9000015258789 -87.6500015258789,99.70999908447266 -89.22000122070312,101.0199966430664 -95.4000015258789,93.58000183105469" style="fill:none;stroke:#000000;stroke-width:1"></polyline>
</g>
<g id="Axon.2.2">
<polyline points="-85.6500015258789,59.09000015258789 -80.31999969482422,64.73999786376953 -75.38999938964844,61.529998779296875 -69.1500015258789,64.66000366210938 -72.87000274658203,73.94000244140625 -78.87000274658203,74.66999816894531 -81.91999816894531,72.20999908447266" style="fill:none;stroke:#000000;stroke-width:1"></polyline>
</g></g></svg>