
  <svg id="SVG_ROOT" xmlns="http://www.w3.org/2000/svg" class="innerBox" preserveAspectRatio="xMinYMin meet" style="shape-rendering:geometricPrecision; text-rendering:geometricPrecision; fill-rule:evenodd" viewBox="-118.36000061035156 -128.7999725341797 118.83999633789062 369.4399719238281" width="118.83999633789062mm" height="369.4399719238281mm"><g transform="scale(1,-1)"><g id="Soma">
<polyline points="0,0" style="fill:none;stroke:#ffffff;stroke-width:1"></polyline>
</g>
<g id="Soma.1">
<polyline points="0,0 -0.47999998927116394,-0.029999999329447746" style="fill:none;stroke:#ffffff;stroke-width:1"></polyline>
</g>
<g id="Soma.2">
<polyline points="0,0 0.47999998927116394,0.029999999329447746" style="fill:none;stroke:#ffffff;stroke-width:1"></polyline>
</g>
<g id="Axon">
<polyline points="0,0 -0.41999998688697815,0.4099999964237213 -5.03000020980835,2.8299999237060547 -6.920000076293945,1.7000000476837158 -7.010000228881836,-0.12999999523162842 -5.769999980926514,-0.07000000029802322 -7.139999866485596,-0.9200000166893005 -10.710000038146973,-0.5400000214576721 -15.319999694824219,-2.5799999237060547 -15.15999984741211,-3.180000066757202 -15.84000015258789,-3.119999885559082 -19.940000534057617,-3.990000009536743 -20.360000610351562,-4.010000228881836" style="fill:none;stroke:#000000;stroke-width:1"></polyline>
</g>
<g id="Axon.1">
<polyline points="-20.360000610351562,-4.010000228881836 -17.1200008392334,-2.819999933242798 -14.0600004196167,-0.17000000178813934 -13.970000267028809,0.949999988079071 -13.09000015258789,3.259999990463257 -14.180000305175781,10.329999923706055 -13.800000190734863,11.65999984741211 -16.719999313354492,20.139999389648438 -16.6299991607666,21.959999084472656 -18.010000228881836,25.56999969482422 -18.110000610351562,28.170000076293945" style="fill:none;stroke:#000000;stroke-width:1"></polyline>
</g>
<g id="Axon.1.1">
<polyline points="-18.110000610351562,28.170000076293945 -16.780000686645508,28.920000076293945 -16.649999618530273,29.450000762939453 -16.489999771118164,29.110000610351562 -15.960000038146973,29.389999389648438 -16.030000686645508,31.1299991607666 -12.8100004196167,33.189998626708984 -10.699999809265137,34.84000015258789 -10.199999809265137,36.0099983215332 -8.380000114440918,38.599998474121094 -8.109999656677246,38.529998779296875 -6.809999942779541,44.33000183105469 -7.71999979019165,46.189998626708984 -7.989999771118164,46.0099983215332" style="fill:none;stroke:#000000;stroke-width:1"></polyline>
</g>
<g id="Axon.1.1.1">
<polyline points="-7.989999771118164,46.0099983215332 -3.690000057220459,44.54999923706055 -3.2799999713897705,44.560001373291016" style="fill:none;stroke:#000000;stroke-width:1"></polyline>
</g>
<g id="Axon.1.1.2">
<polyline points="-7.989999771118164,46.0099983215332 -7.940000057220459,48.0099983215332 -7.019999980926514,48.7400016784668 -7.889999866485596,49.33000183105469 -5.840000152587891,49.84000015258789 -6.460000038146973,51.470001220703125" style="fill:none;stroke:#000000;stroke-width:1"></polyline>
</g>
<g id="Axon.1.1.2.1">
<polyline points="-6.460000038146973,51.470001220703125 -7.289999961853027,51.880001068115234 -7.309999942779541,52.310001373291016 -8.960000038146973,53.36000061035156 -11.930000305175781,55.84000015258789 -13.979999542236328,56.0099983215332 -13.979999542236328,55.7599983215332 -14.539999961853027,55.650001525878906" style="fill:none;stroke:#000000;stroke-width:1"></polyline>
</g>
<g id="Axon.1.1.2.2">
<polyline points="-6.460000038146973,51.470001220703125 -6.46999979019165,52.34000015258789" style="fill:none;stroke:#000000;stroke-width:1"></polyline>
</g>
<g id="Axon.1.1.2.2.1">
<polyline points="-6.46999979019165,52.34000015258789 -8.079999923706055,54.27000045776367 -5.889999866485596,54.20000076293945 -4.650000095367432,54.2599983215332" style="fill:none;stroke:#000000;stroke-width:1"></polyline>
</g>
<g id="Axon.1.1.2.2.2">
<polyline points="-6.46999979019165,52.34000015258789 -7.639999866485596,54.560001373291016 -9.300000190734863,54.47999954223633 -13.289999961853027,58.29999923706055 -14.460000038146973,60.52000045776367 -15.329999923706055,61.779998779296875 -16.860000610351562,66.41999816894531 -17.299999237060547,66.56999969482422 -18.649999618530273,70.41999816894531 -21.350000381469727,72.4000015258789 -23.329999923706055,74.12999725341797 -24.68000030517578,74" style="fill:none;stroke:#000000;stroke-width:1"></polyline>
</g>
<g id="Axon.1.1.2.2.2.1">
<polyline points="-24.68000030517578,74 -27.219999313354492,75.61000061035156 -29.639999389648438,77.94999694824219" style="fill:none;stroke:#000000;stroke-width:1"></polyline>
</g>
<g id="Axon.1.1.2.2.2.2">
<polyline points="-24.68000030517578,74 -25.25,74.05000305175781 -24.59000015258789,74" style="fill:none;stroke:#000000;stroke-width:1"></polyline>
</g>
<g id="Axon.1.2">
<polyline points="-18.110000610351562,28.170000076293945 -18.940000534057617,28.559999465942383 -21.190000534057617,34.130001068115234 -22.979999542236328,37.709999084472656 -23.860000610351562,43.13999938964844" style="fill:none;stroke:#000000;stroke-width:1"></polyline>
</g>
<g id="Axon.1.2.1">
<polyline points="-23.860000610351562,43.13999938964844 -25.040000915527344,45.79999923706055 -27.709999084472656,47.31999969482422 -28.709999084472656,52.22999954223633 -28.93000030517578,54.33000183105469 -31.5,57.2400016784668 -33.52000045776367,59.16999816894531 -33.650001525878906,59.06999969482422 -34.15999984741211,62.349998474121094 -35.68000030517578,62.54999923706055 -36.0099983215332,63.91999816894531" style="fill:none;stroke:#000000;stroke-width:1"></polyline>
</g>
<g id="Axon.1.2.1.1">
<polyline points="-36.0099983215332,63.91999816894531 -37.709999084472656,66.02999877929688 -38.81999969482422,66.06999969482422" style="fill:none;stroke:#000000;stroke-width:1"></polyline>
</g>
<g id="Axon.1.2.1.1.1">
<polyline points="-38.81999969482422,66.06999969482422 -47.58000183105469,66.27999877929688 -48.290000915527344,66.77999877929688" style="fill:none;stroke:#000000;stroke-width:1"></polyline>
</g>
<g id="Axon.1.2.1.1.2">
<polyline points="-38.81999969482422,66.06999969482422 -38.56999969482422,66.8499984741211 -45.81999969482422,73.93000030517578 -46.529998779296875,75.30000305175781 -52.43000030517578,74.95999908447266 -46.79999923706055,74.93000030517578" style="fill:none;stroke:#000000;stroke-width:1"></polyline>
</g>
<g id="Axon.1.2.1.2">
<polyline points="-36.0099983215332,63.91999816894531 -35.119998931884766,65.97000122070312 -37.33000183105469,70.20999908447266 -45.849998474121094,78.27999877929688 -46.45000076293945,79.47000122070312" style="fill:none;stroke:#000000;stroke-width:1"></polyline>
</g>
<g id="Axon.1.2.1.2.1">
<polyline points="-46.45000076293945,79.47000122070312 -46.91999816894531,81.19999694824219 -50.09000015258789,84.37000274658203 -51.09000015258789,86.22000122070312 -51.2599983215332,86.56999969482422" style="fill:none;stroke:#000000;stroke-width:1"></polyline>
</g>
<g id="Axon.1.2.1.2.2">
<polyline points="-46.45000076293945,79.47000122070312 -49.209999084472656,79.87999725341797 -50.47999954223633,81.12999725341797" style="fill:none;stroke:#000000;stroke-width:1"></polyline>
</g>
<g id="Axon.1.2.1.2.2.1">
<polyline points="-50.47999954223633,81.12999725341797 -56.91999816894531,84.66999816894531 -57.33000183105469,84.6500015258789 -60.16999816894531,79.91999816894531 -63.630001068115234,80.54000091552734 -64.19000244140625,80.87999725341797" style="fill:none;stroke:#000000;stroke-width:1"></polyline>
</g>
<g id="Axon.1.2.1.2.2.2">
<polyline points="-50.47999954223633,81.12999725341797 -50.61000061035156,81.30000305175781 -53.36000061035156,81.69999694824219 -56.709999084472656,79.55000305175781 -57.36000061035156,78.73999786376953 -57.619998931884766,78.80999755859375" style="fill:none;stroke:#000000;stroke-width:1"></polyline>
</g>
<g id="Axon.1.2.1.2.2.2.1">
<polyline points="-57.619998931884766,78.80999755859375 -57.27000045776367,76.4000015258789 -57.4900016784668,75.16000366210938 -59.119998931884766,74.66000366210938" style="fill:none;stroke:#000000;stroke-width:1"></polyline>
</g>
<g id="Axon.1.2.1.2.2.2.1.1">
<polyline points="-59.119998931884766,74.66000366210938 -53.93000030517578,71.5 -51.97999954223633,70.61000061035156" style="fill:none;stroke:#000000;stroke-width:1"></polyline>
</g>
<g id="Axon.1.2.1.2.2.2.1.2">
<polyline points="-59.119998931884766,74.66000366210938 -60.61000061035156,74.69000244140625 -68.16000366210938,78.2699966430664 -68.70999908447266,78.58999633789062" style="fill:none;stroke:#000000;stroke-width:1"></polyline>
</g>
<g id="Axon.1.2.1.2.2.2.2">
<polyline points="-57.619998931884766,78.80999755859375 -60.720001220703125,80.7699966430664 -61.189998626708984,82.05000305175781 -65.55999755859375,85.68000030517578 -66.01000213623047,86.97000122070312 -67.56999969482422,88.04000091552734 -69.69000244140625,89.94999694824219 -69.9800033569336,90.18000030517578" style="fill:none;stroke:#000000;stroke-width:1"></polyline>
</g>
<g id="Axon.1.2.1.2.2.2.2.1">
<polyline points="-69.9800033569336,90.18000030517578 -70.58999633789062,91.80999755859375 -71.2699966430664,91.61000061035156 -72.12000274658203,92.01000213623047 -72.56999969482422,93.30000305175781" style="fill:none;stroke:#000000;stroke-width:1"></polyline>
</g>
<g id="Axon.1.2.1.2.2.2.2.1.1">
<polyline points="-72.56999969482422,93.30000305175781 -73.27999877929688,93.52999877929688 -74.58000183105469,91.6500015258789 -73.5999984741211,90.91000366210938 -72.43000030517578,85.4000015258789 -71.73999786376953,84.88999938964844" style="fill:none;stroke:#000000;stroke-width:1"></polyline>
</g>
<g id="Axon.1.2.1.2.2.2.2.1.2">
<polyline points="-72.56999969482422,93.30000305175781 -74.33000183105469,96.70999908447266 -75.43000030517578,97.16999816894531" style="fill:none;stroke:#000000;stroke-width:1"></polyline>
</g>
<g id="Axon.1.2.1.2.2.2.2.1.2.1">
<polyline points="-75.43000030517578,97.16999816894531 -77.26000213623047,97.19000244140625 -77.37999725341797,96.66000366210938 -79.11000061035156,95.19000244140625 -81.77999877929688,88.98999786376953 -82.02999877929688,88.62000274658203" style="fill:none;stroke:#000000;stroke-width:1"></polyline>
</g>
<g id="Axon.1.2.1.2.2.2.2.1.2.2">
<polyline points="-75.43000030517578,97.16999816894531 -75.73999786376953,98.12000274658203 -79.86000061035156,98.37999725341797 -80.55000305175781,98.41999816894531 -83.05999755859375,99.62999725341797 -86.22000122070312,99.30999755859375 -86.9800033569336,97.52999877929688 -86.51000213623047,95.81999969482422 -87.38999938964844,93.5199966430664 -87.2300033569336,92.48999786376953" style="fill:none;stroke:#000000;stroke-width:1"></polyline>
</g>
<g id="Axon.1.2.1.2.2.2.2.2">
<polyline points="-69.9800033569336,90.18000030517578 -73.83999633789062,91.05999755859375 -77.33000183105469,92.98999786376953 -81.29000091552734,92.4800033569336 -81.16000366210938,92.55999755859375" style="fill:none;stroke:#000000;stroke-width:1"></polyline>
</g>
<g id="Axon.1.2.1.2.2.2.2.2.1">
<polyline points="-81.16000366210938,92.55999755859375 -79.94999694824219,89.75 -78.94000244140625,88.58000183105469 -78.55000305175781,89.04000091552734" style="fill:none;stroke:#000000;stroke-width:1"></polyline>
</g>
<g id="Axon.1.2.1.2.2.2.2.2.2">
<polyline points="-81.16000366210938,92.55999755859375 -83.36000061035156,93.5199966430664 -86.55000305175781,94.08000183105469 -88.86000061035156,93.63999938964844 -94.5199966430664,95.02999877929688 -95.73999786376953,94.9800033569336 -97.2699966430664,95.19000244140625 -97.4000015258789,94.9000015258789" style="fill:none;stroke:#000000;stroke-width:1"></polyline>
</g>
<g id="Axon.1.2.2">
<polyline points="-23.860000610351562,43.13999938964844 -24.030000686645508,43.91999816894531 -20.260000228881836,45.220001220703125 -20.600000381469727,47.20000076293945" style="fill:none;stroke:#000000;stroke-width:1"></polyline>
</g>
<g id="Axon.1.2.2.1">
<polyline points="-20.600000381469727,47.20000076293945 -20.6200008392334,47.63999938964844 -23.84000015258789,49.75 -25.06999969482422,53.689998626708984 -24.950000762939453,54.2400016784668" style="fill:none;stroke:#000000;stroke-width:1"></polyline>
</g>
<g id="Axon.1.2.2.2">
<polyline points="-20.600000381469727,47.20000076293945 -20.860000610351562,50.13999938964844 -23.18000030517578,53.869998931884766 -23.190000534057617,54.29999923706055" style="fill:none;stroke:#000000;stroke-width:1"></polyline>
</g>
<g id="Axon.1.2.2.2.1">
<polyline points="-23.190000534057617,54.29999923706055 -22.84000015258789,56.06999969482422 -22.43000030517578,55.81999969482422 -22.209999084472656,57.040000915527344 -20.530000686645508,56.25 -18.549999237060547,54.08000183105469 -18.690000534057617,53.9900016784668" style="fill:none;stroke:#000000;stroke-width:1"></polyline>
</g>
<g id="Axon.1.2.2.2.2">
<polyline points="-23.190000534057617,54.29999923706055 -23.3799991607666,55.25 -23.31999969482422,56.83000183105469 -22.06999969482422,60.439998626708984 -22.93000030517578,61.0099983215332 -25.229999542236328,64.56999969482422 -25.639999389648438,64.55999755859375 -28.43000030517578,69.30000305175781 -28.34000015258789,70.43000030517578 -28.799999237060547,71.29000091552734" style="fill:none;stroke:#000000;stroke-width:1"></polyline>
</g>
<g id="Axon.1.2.2.2.2.1">
<polyline points="-28.799999237060547,71.29000091552734 -28.940000534057617,71.37999725341797 -26.760000228881836,71.29000091552734 -25.450000762939453,69.16999816894531 -22.649999618530273,67.45999908447266 -22.809999465942383,68.08000183105469 -22.829999923706055,68.51000213623047" style="fill:none;stroke:#000000;stroke-width:1"></polyline>
</g>
<g id="Axon.1.2.2.2.2.2">
<polyline points="-28.799999237060547,71.29000091552734 -31.1299991607666,71.69999694824219" style="fill:none;stroke:#000000;stroke-width:1"></polyline>
</g>
<g id="Axon.1.2.2.2.2.2.1">
<polyline points="-31.1299991607666,71.69999694824219 -35.2400016784668,71.79000091552734 -37.58000183105469,72.6500015258789 -38.90999984741211,75.19000244140625 -39.119998931884766,77.27999877929688 -38.720001220703125,77.27999877929688" style="fill:none;stroke:#000000;stroke-width:1"></polyline>
</g>
<g id="Axon.1.2.2.2.2.2.2">
<polyline points="-31.1299991607666,71.69999694824219 -31.829999923706055,71.94000244140625 -34.709999084472656,75.80999755859375 -36.040000915527344,78.37000274658203 -39.66999816894531,80.19999694824219 -40.36000061035156,80.70999908447266 -41.810001373291016,82.27999877929688 -42.36000061035156,82.18000030517578 -43.11000061035156,84.41000366210938" style="fill:none;stroke:#000000;stroke-width:1"></polyline>
</g>
<g id="Axon.1.2.2.2.2.2.2.1">
<polyline points="-43.11000061035156,84.41000366210938 -43.09000015258789,83.2699966430664 -43.0099983215332,84.8499984741211 -41.7599983215332,84.47000122070312 -42.150001525878906,83.31999969482422 -40.06999969482422,83.2300033569336 -36.58000183105469,81.29000091552734 -33.939998626708984,79.93000030517578" style="fill:none;stroke:#000000;stroke-width:1"></polyline>
</g>
<g id="Axon.1.2.2.2.2.2.2.1.1">
<polyline points="-33.939998626708984,79.93000030517578 -32,79.76000213623047 -31.579999923706055,79.77999877929688" style="fill:none;stroke:#000000;stroke-width:1"></polyline>
</g>
<g id="Axon.1.2.2.2.2.2.2.1.2">
<polyline points="-33.939998626708984,79.93000030517578 -34.06999969482422,79.58000183105469 -33.38999938964844,79.52999877929688" style="fill:none;stroke:#000000;stroke-width:1"></polyline>
</g>
<g id="Axon.1.2.2.2.2.2.2.2">
<polyline points="-43.11000061035156,84.41000366210938 -46.7599983215332,86.25 -47.880001068115234,86.88999938964844 -49.04999923706055,89.79000091552734 -51.45000076293945,91.26000213623047 -51.59000015258789,91.16999816894531" style="fill:none;stroke:#000000;stroke-width:1"></polyline>
</g>
<g id="Axon.1.2.2.2.2.2.2.2.1">
<polyline points="-51.59000015258789,91.16999816894531 -51.27000045776367,93.52999877929688 -49.88999938964844,93.23999786376953 -49.88999938964844,92.98999786376953 -47.650001525878906,91.86000061035156" style="fill:none;stroke:#000000;stroke-width:1"></polyline>
</g>
<g id="Axon.1.2.2.2.2.2.2.2.2">
<polyline points="-51.59000015258789,91.16999816894531 -54.06999969482422,91.5" style="fill:none;stroke:#000000;stroke-width:1"></polyline>
</g>
<g id="Axon.1.2.2.2.2.2.2.2.2.1">
<polyline points="-54.06999969482422,91.5 -57.04999923706055,89.9800033569336 -58.439998626708984,86.26000213623047 -58.52000045776367,85.12999725341797" style="fill:none;stroke:#000000;stroke-width:1"></polyline>
</g>
<g id="Axon.1.2.2.2.2.2.2.2.2.2">
<polyline points="-54.06999969482422,91.5 -54.08000183105469,91.93000030517578" style="fill:none;stroke:#000000;stroke-width:1"></polyline>
</g>
<g id="Axon.1.2.2.2.2.2.2.2.2.2.1">
<polyline points="-54.08000183105469,91.93000030517578 -54.540000915527344,92.51000213623047 -55.56999969482422,94.56999969482422 -56.400001525878906,94.52999877929688" style="fill:none;stroke:#000000;stroke-width:1"></polyline>
</g>
<g id="Axon.1.2.2.2.2.2.2.2.2.2.2">
<polyline points="-54.08000183105469,91.93000030517578 -54.400001525878906,93.30999755859375 -54.540000915527344,93.47000122070312" style="fill:none;stroke:#000000;stroke-width:1"></polyline>
</g>
<g id="Axon.1.2.2.2.2.2.2.2.2.2.2.1">
<polyline points="-54.540000915527344,93.47000122070312 -56.18000030517578,90.11000061035156 -56.720001220703125,90.51000213623047 -62.59000015258789,93.30999755859375 -64.20999908447266,92.79000091552734 -64.44000244140625,91.56999969482422 -64.8499984741211,91.55000305175781" style="fill:none;stroke:#000000;stroke-width:1"></polyline>
</g>
<g id="Axon.1.2.2.2.2.2.2.2.2.2.2.1.1">
<polyline points="-64.8499984741211,91.55000305175781 -65.75,94.12000274658203 -67.54000091552734,94.22000122070312 -73.1500015258789,97.0999984741211" style="fill:none;stroke:#000000;stroke-width:1"></polyline>
</g>
<g id="Axon.1.2.2.2.2.2.2.2.2.2.2.1.2">
<polyline points="-64.8499984741211,91.55000305175781 -62.16999816894531,90 -61.59000015258789,88.55999755859375 -58.119998931884766,87.05999755859375 -55.5099983215332,87.69000244140625 -53.97999954223633,86.80000305175781 -55.099998474121094,86.56999969482422" style="fill:none;stroke:#000000;stroke-width:1"></polyline>
</g>
<g id="Axon.1.2.2.2.2.2.2.2.2.2.2.2">
<polyline points="-54.540000915527344,93.47000122070312 -55.939998626708984,94.19999694824219 -56.43000030517578,96.33999633789062 -62.630001068115234,97.37999725341797 -62.650001525878906,97.80999755859375" style="fill:none;stroke:#000000;stroke-width:1"></polyline>
</g>
<g id="Axon.1.2.2.2.2.2.2.2.2.2.2.2.1">
<polyline points="-62.650001525878906,97.80999755859375 -62.810001373291016,98.5999984741211 -63.619998931884766,97.43000030517578 -65.12000274658203,96.76000213623047 -64.47000122070312,93.55999755859375 -63.75,92.9000015258789" style="fill:none;stroke:#000000;stroke-width:1"></polyline>
</g>
<g id="Axon.1.2.2.2.2.2.2.2.2.2.2.2.2">
<polyline points="-62.650001525878906,97.80999755859375 -64.7300033569336,98.61000061035156 -64.38999938964844,100.79000091552734" style="fill:none;stroke:#000000;stroke-width:1"></polyline>
</g>
<g id="Axon.1.2.2.2.2.2.2.2.2.2.2.2.2.1">
<polyline points="-64.38999938964844,100.79000091552734 -64.6500015258789,103.7300033569336 -66.5999984741211,104.77999877929688 -66.94000244140625,105.9000015258789" style="fill:none;stroke:#000000;stroke-width:1"></polyline>
</g>
<g id="Axon.1.2.2.2.2.2.2.2.2.2.2.2.2.1.1">
<polyline points="-66.94000244140625,105.9000015258789 -66.7300033569336,107.55000305175781 -66.11000061035156,105.68000030517578 -64.23999786376953,106.54000091552734 -63.86000061035156,107.43000030517578" style="fill:none;stroke:#000000;stroke-width:1"></polyline>
</g>
<g id="Axon.1.2.2.2.2.2.2.2.2.2.2.2.2.1.2">
<polyline points="-66.94000244140625,105.9000015258789 -67.4000015258789,107.62000274658203 -73.19999694824219,108.66999816894531 -73.16999816894531,107.80000305175781" style="fill:none;stroke:#000000;stroke-width:1"></polyline>
</g>
<g id="Axon.1.2.2.2.2.2.2.2.2.2.2.2.2.1.2.1">
<polyline points="-73.16999816894531,107.80000305175781 -74.44999694824219,108.79000091552734 -74.62000274658203,109.13999938964844" style="fill:none;stroke:#000000;stroke-width:1"></polyline>
</g>
<g id="Axon.1.2.2.2.2.2.2.2.2.2.2.2.2.1.2.2">
<polyline points="-73.16999816894531,107.80000305175781 -73.38999938964844,106.12999725341797 -75.33999633789062,107.44999694824219 -76.87000274658203,107.63999938964844 -75.95999908447266,109.08000183105469 -78.01000213623047,109.41000366210938 -78.76000213623047,111.20999908447266 -81.05999755859375,113.63999938964844 -81.63999938964844,114.83000183105469 -82.01000213623047,113.5 -83.38999938964844,113.36000061035156 -82.33000183105469,114.19000244140625 -82.7300033569336,114.16999816894531" style="fill:none;stroke:#000000;stroke-width:1"></polyline>
</g>
<g id="Axon.1.2.2.2.2.2.2.2.2.2.2.2.2.2">
<polyline points="-64.38999938964844,100.79000091552734 -67.54000091552734,100.7300033569336 -70.2300033569336,102.70999908447266 -71.44999694824219,102.22000122070312 -71.44000244140625,102.47000122070312 -77.55999755859375,104.9000015258789 -78.83999633789062,102.8499984741211" style="fill:none;stroke:#000000;stroke-width:1"></polyline>
</g>
<g id="Axon.1.2.2.2.2.2.2.2.2.2.2.2.2.2.1">
<polyline points="-78.83999633789062,102.8499984741211 -78.81999969482422,102.41999816894531 -78.23999786376953,102.36000061035156" style="fill:none;stroke:#000000;stroke-width:1"></polyline>
</g>
<g id="Axon.1.2.2.2.2.2.2.2.2.2.2.2.2.2.2">
<polyline points="-78.83999633789062,102.8499984741211 -80.22000122070312,103.1500015258789 -80.58999633789062,105.83000183105469 -83.30999755859375,108.66000366210938" style="fill:none;stroke:#000000;stroke-width:1"></polyline>
</g>
<g id="Axon.1.2.2.2.2.2.2.2.2.2.2.2.2.2.2.1">
<polyline points="-83.30999755859375,108.66000366210938 -84,108.88999938964844 -84.18000030517578,110.11000061035156 -84.9000015258789,110.33000183105469" style="fill:none;stroke:#000000;stroke-width:1"></polyline>
</g>
<g id="Axon.1.2.2.2.2.2.2.2.2.2.2.2.2.2.2.2">
<polyline points="-83.30999755859375,108.66000366210938 -84.31999969482422,110.26000213623047 -87.51000213623047,111.51000213623047" style="fill:none;stroke:#000000;stroke-width:1"></polyline>
</g>
<g id="Axon.1.2.2.2.2.2.2.2.2.2.2.2.2.2.2.2.1">
<polyline points="-87.51000213623047,111.51000213623047 -88.97000122070312,113.9800033569336 -89.56999969482422,115.16999816894531" style="fill:none;stroke:#000000;stroke-width:1"></polyline>
</g>
<g id="Axon.1.2.2.2.2.2.2.2.2.2.2.2.2.2.2.2.1.1">
<polyline points="-89.56999969482422,115.16999816894531 -90.77999877929688,121.02999877929688 -90,122.37000274658203 -87.6500015258789,121.95999908447266 -86.94999694824219,121.02999877929688 -83.45999908447266,119.95999908447266 -84.11000061035156,118.72000122070312" style="fill:none;stroke:#000000;stroke-width:1"></polyline>
</g>
<g id="Axon.1.2.2.2.2.2.2.2.2.2.2.2.2.2.2.2.1.2">
<polyline points="-89.56999969482422,115.16999816894531 -91.23999786376953,115.97000122070312 -92.63999938964844,116.69999694824219 -95.16999816894531,118.31999969482422 -97.69000244140625,119.5199966430664 -101.16000366210938,121.01000213623047 -102.83000183105469,121.38999938964844" style="fill:none;stroke:#000000;stroke-width:1"></polyline>
</g>
<g id="Axon.1.2.2.2.2.2.2.2.2.2.2.2.2.2.2.2.1.2.1">
<polyline points="-102.83000183105469,121.38999938964844 -102.58000183105469,126.18000030517578 -102.36000061035156,127.13999938964844 -101.72000122070312,128.63999938964844" style="fill:none;stroke:#000000;stroke-width:1"></polyline>
</g>
<g id="Axon.1.2.2.2.2.2.2.2.2.2.2.2.2.2.2.2.1.2.2">
<polyline points="-102.83000183105469,121.38999938964844 -102.69000244140625,121.4800033569336" style="fill:none;stroke:#000000;stroke-width:1"></polyline>
</g>
<g id="Axon.1.2.2.2.2.2.2.2.2.2.2.2.2.2.2.2.1.2.2.1">
<polyline points="-102.69000244140625,121.4800033569336 -105.63999938964844,123.51000213623047 -107.1500015258789,123.9800033569336 -108.72000122070312,125.04000091552734 -110.72000122070312,127.63999938964844 -112.2300033569336,127.41000366210938 -114.05999755859375,128.8000030517578 -116.38999938964844,128.5399932861328 -117.94999694824219,125.8499984741211 -118.36000061035156,125.83999633789062" style="fill:none;stroke:#000000;stroke-width:1"></polyline>
</g>
<g id="Axon.1.2.2.2.2.2.2.2.2.2.2.2.2.2.2.2.1.2.2.2">
<polyline points="-102.69000244140625,121.4800033569336 -102.44000244140625,122.0999984741211 -104.04000091552734,121.1500015258789 -109.0999984741211,120.41999816894531 -108.83000183105469,121.02999877929688" style="fill:none;stroke:#000000;stroke-width:1"></polyline>
</g>
<g id="Axon.1.2.2.2.2.2.2.2.2.2.2.2.2.2.2.2.1.2.2.2.1">
<polyline points="-108.83000183105469,121.02999877929688 -111.44999694824219,121.26000213623047 -112.30999755859375,118.52999877929688 -112.69000244140625,117.20999908447266 -114.47000122070312,117.05000305175781 -114.70999908447266,115.55999755859375" style="fill:none;stroke:#000000;stroke-width:1"></polyline>
</g>
<g id="Axon.1.2.2.2.2.2.2.2.2.2.2.2.2.2.2.2.1.2.2.2.2">
<polyline points="-108.83000183105469,121.02999877929688 -110.9000015258789,122.06999969482422 -112.1500015258789,122.0199966430664 -113.26000213623047,122.93000030517578" style="fill:none;stroke:#000000;stroke-width:1"></polyline>
</g>
<g id="Axon.1.2.2.2.2.2.2.2.2.2.2.2.2.2.2.2.1.2.2.2.2.1">
<polyline points="-113.26000213623047,122.93000030517578 -114.80999755859375,124.26000213623047 -115.73999786376953,127.26000213623047 -115.88999938964844,127.5999984741211" style="fill:none;stroke:#000000;stroke-width:1"></polyline>
</g>
<g id="Axon.1.2.2.2.2.2.2.2.2.2.2.2.2.2.2.2.1.2.2.2.2.2">
<polyline points="-113.26000213623047,122.93000030517578 -115.93000030517578,120.45999908447266 -116.22000122070312,120.72000122070312" style="fill:none;stroke:#000000;stroke-width:1"></polyline>
</g>
<g id="Axon.1.2.2.2.2.2.2.2.2.2.2.2.2.2.2.2.2">
<polyline points="-87.51000213623047,111.51000213623047 -88.30999755859375,111.05000305175781 -87.66000366210938,108.37999725341797 -91.4800033569336,107.94999694824219" style="fill:none;stroke:#000000;stroke-width:1"></polyline>
</g>
<g id="Axon.1.2.2.2.2.2.2.2.2.2.2.2.2.2.2.2.2.1">
<polyline points="-91.4800033569336,107.94999694824219 -93.9800033569336,109.16000366210938 -95.3499984741211,108.75" style="fill:none;stroke:#000000;stroke-width:1"></polyline>
</g>
<g id="Axon.1.2.2.2.2.2.2.2.2.2.2.2.2.2.2.2.2.2">
<polyline points="-91.4800033569336,107.94999694824219 -91.58999633789062,107.69999694824219 -91.94999694824219,106.36000061035156 -92.9000015258789,106.48999786376953 -93.2699966430664,105.19000244140625 -94.51000213623047,105.12999725341797" style="fill:none;stroke:#000000;stroke-width:1"></polyline>
</g>
<g id="Axon.1.2.2.2.2.2.2.2.2.2.2.2.2.2.2.2.2.2.1">
<polyline points="-94.51000213623047,105.12999725341797 -93.41999816894531,101.79000091552734 -88.70999908447266,100.33999633789062" style="fill:none;stroke:#000000;stroke-width:1"></polyline>
</g>
<g id="Axon.1.2.2.2.2.2.2.2.2.2.2.2.2.2.2.2.2.2.2">
<polyline points="-94.51000213623047,105.12999725341797 -97.31999969482422,103.97000122070312 -97.7300033569336,103.51000213623047" style="fill:none;stroke:#000000;stroke-width:1"></polyline>
</g>
<g id="Axon.1.2.2.2.2.2.2.2.2.2.2.2.2.2.2.2.2.2.2.1">
<polyline points="-97.7300033569336,103.51000213623047 -97.31999969482422,99.79000091552734" style="fill:none;stroke:#000000;stroke-width:1"></polyline>
</g>
<g id="Axon.1.2.2.2.2.2.2.2.2.2.2.2.2.2.2.2.2.2.2.2">
<polyline points="-97.7300033569336,103.51000213623047 -102.93000030517578,102.66999816894531 -105.76000213623047,100.98999786376953 -106.62000274658203,102.23999786376953 -106.51000213623047,103.20999908447266" style="fill:none;stroke:#000000;stroke-width:1"></polyline>
</g>
<g id="Axon.1.2.2.2.2.2.2.2.2.2.2.2.2.2.2.2.2.2.2.2.1">
<polyline points="-106.51000213623047,103.20999908447266 -107.18000030517578,102.83999633789062 -106.77999877929688,103.9800033569336 -111.51000213623047,106.12999725341797 -115.69999694824219,107.66999816894531 -117.47000122070312,107.5199966430664 -117.37999725341797,108.91000366210938 -116.55999755859375,108.94999694824219" style="fill:none;stroke:#000000;stroke-width:1"></polyline>
</g>
<g id="Axon.1.2.2.2.2.2.2.2.2.2.2.2.2.2.2.2.2.2.2.2.2">
<polyline points="-106.51000213623047,103.20999908447266 -106.97000122070312,104.48999786376953 -108.2300033569336,105.31999969482422" style="fill:none;stroke:#000000;stroke-width:1"></polyline>
</g>
<g id="Axon.1.2.2.2.2.2.2.2.2.2.2.2.2.2.2.2.2.2.2.2.2.1">
<polyline points="-108.2300033569336,105.31999969482422 -107.75,106.91000366210938 -106.01000213623047,112.36000061035156 -106.56999969482422,113.38999938964844 -106.4000015258789,115.91000366210938" style="fill:none;stroke:#000000;stroke-width:1"></polyline>
</g>
<g id="Axon.1.2.2.2.2.2.2.2.2.2.2.2.2.2.2.2.2.2.2.2.2.2">
<polyline points="-108.2300033569336,105.31999969482422 -109.79000091552734,106.62999725341797 -111.68000030517578,109.51000213623047 -111.58999633789062,110.91000366210938 -111.97000122070312,110.45999908447266 -113.98999786376953,113.48999786376953 -114.86000061035156,114.06999969482422 -114.48999786376953,115.4000015258789 -114.37000274658203,116.3499984741211" style="fill:none;stroke:#000000;stroke-width:1"></polyline>
</g>
<g id="Axon.2">
<polyline points="-20.360000610351562,-4.010000228881836 -20.6299991607666,-3.940000057220459 -23.440000534057617,-6.230000019073486 -38.619998931884766,-7.340000152587891 -38.720001220703125,-8.029999732971191 -45.810001373291016,-9.289999961853027 -48.09000015258789,-10.609999656677246 -49.59000015258789,-11.029999732971191" style="fill:none;stroke:#000000;stroke-width:1"></polyline>
</g>
<g id="Axon.2.1">
<polyline points="-49.59000015258789,-11.029999732971191 -51.099998474121094,-11.260000228881836 -51.279998779296875,-10.479999542236328 -46.70000076293945,-3.1600000858306885 -50.5099983215332,-0.7200000286102295 -51.33000183105469,-0.3100000023841858 -50.7599983215332,6.659999847412109 -50.79999923706055,8.399999618530273 -49.66999816894531,11.0600004196167 -51.54999923706055,13.920000076293945 -55.529998779296875,21.59000015258789 -56.08000183105469,21.479999542236328 -54.25,28.079999923706055 -50.72999954223633,32.7599983215332 -50.939998626708984,34.83000183105469 -49.09000015258789,37.25 -48.7400016784668,42.75 -51.58000183105469,45.06999969482422 -53.2400016784668,45.43000030517578" style="fill:none;stroke:#000000;stroke-width:1"></polyline>
</g>
<g id="Axon.2.1.1">
<polyline points="-53.2400016784668,45.43000030517578 -56.939998626708984,45.70000076293945 -60.310001373291016,47.290000915527344 -64.5999984741211,48.59000015258789 -65.47000122070312,50.290000915527344 -64.45999908447266,52.41999816894531 -60.970001220703125,50.65999984741211 -60.27000045776367,50.43000030517578 -60.95000076293945,50.4900016784668" style="fill:none;stroke:#000000;stroke-width:1"></polyline>
</g>
<g id="Axon.2.1.2">
<polyline points="-53.2400016784668,45.43000030517578 -53.02000045776367,50.84000015258789 -52.650001525878906,52.13999938964844 -52.83000183105469,52.91999816894531" style="fill:none;stroke:#000000;stroke-width:1"></polyline>
</g>
<g id="Axon.2.1.2.1">
<polyline points="-52.83000183105469,52.91999816894531 -51.79999923706055,54.619998931884766 -50.290000915527344,58.349998474121094 -42.599998474121094,57.709999084472656 -39.61000061035156,58.119998931884766 -39.220001220703125,58.560001373291016" style="fill:none;stroke:#000000;stroke-width:1"></polyline>
</g>
<g id="Axon.2.1.2.2">
<polyline points="-52.83000183105469,52.91999816894531 -53.7400016784668,55.06999969482422" style="fill:none;stroke:#000000;stroke-width:1"></polyline>
</g>
<g id="Axon.2.1.2.2.1">
<polyline points="-53.7400016784668,55.06999969482422 -58.040000915527344,56.790000915527344 -59.5099983215332,59.66999816894531 -59.689998626708984,60.459999084472656 -59.22999954223633,59.16999816894531 -58.83000183105469,59.619998931884766" style="fill:none;stroke:#000000;stroke-width:1"></polyline>
</g>
<g id="Axon.2.1.2.2.2">
<polyline points="-53.7400016784668,55.06999969482422 -54.81999969482422,58.83000183105469 -54.25,61.81999969482422 -56.560001373291016,65.11000061035156 -59.400001525878906,68.12999725341797 -64.4000015258789,69.63999938964844 -65.37999725341797,69.94999694824219" style="fill:none;stroke:#000000;stroke-width:1"></polyline>
</g>
<g id="Axon.2.2">
<polyline points="-49.59000015258789,-11.029999732971191 -49.56999969482422,-11.470000267028809 -52.290000915527344,-12.1899995803833 -55.099998474121094,-14.489999771118164 -57.93000030517578,-15.90999984741211 -62.29999923706055,-20.450000762939453 -64.9800033569336,-22.479999542236328 -69.06999969482422,-23.780000686645508 -70.44000244140625,-23.940000534057617 -71.02999877929688,-26.489999771118164 -75.76000213623047,-36.77000045776367 -79,-42.93000030517578 -79.77999877929688,-43.81999969482422 -81.25,-53.810001373291016 -82.33000183105469,-54.88999938964844 -83.05000305175781,-65.9800033569336 -83.72000122070312,-66.61000061035156" style="fill:none;stroke:#000000;stroke-width:1"></polyline>
</g>
<g id="Axon.2.2.1">
<polyline points="-83.72000122070312,-66.61000061035156 -88.19999694824219,-68.12000274658203 -91.62999725341797,-71.91000366210938 -93.37999725341797,-72.69000244140625 -94.18000030517578,-73.8499984741211 -95.5199966430664,-74.61000061035156 -98.87000274658203,-77.0199966430664 -99.4800033569336,-78.69999694824219 -102.08000183105469,-79.05999755859375" style="fill:none;stroke:#000000;stroke-width:1"></polyline>
</g>
<g id="Axon.2.2.2">
<polyline points="-83.72000122070312,-66.61000061035156 -83.83000183105469,-67.56999969482422 -81.83000183105469,-74.19000244140625 -81.04000091552734,-77.54000091552734 -78.79000091552734,-79.79000091552734 -77.26000213623047,-80.23999786376953 -77.5,-81.7300033569336 -77.36000061035156,-81.91000366210938 -75.12000274658203,-83.72000122070312 -73.83999633789062,-84.95999908447266 -74.37999725341797,-86.19999694824219 -71.68000030517578,-88.19000244140625 -71.94999694824219,-88.80000305175781 -67.41999816894531,-93.02999877929688 -64.91999816894531,-98.93000030517578 -62.91999816894531,-100.83999633789062 -63.45000076293945,-101.38999938964844 -62.59000015258789,-106.2300033569336 -61.34000015258789,-107.02999877929688 -61.400001525878906,-109.30000305175781 -57.560001373291016,-113.4800033569336 -55.380001068115234,-116.87000274658203 -53.2400016784668,-118.94000244140625 -49.36000061035156,-128.17999267578125 -49.20000076293945,-132.52000427246094 -48.33000183105469,-134.2100067138672 -47.09000015258789,-134.16000366210938 -47.29999923706055,-136.0800018310547 -47.15999984741211,-136 -44.79999923706055,-145.02000427246094 -45.70000076293945,-146.4600067138672 -45.810001373291016,-154.88999938964844 -47.25,-157.30999755859375 -47.95000076293945,-160.80999755859375 -49.22999954223633,-163.55999755859375 -49.68000030517578,-170.02000427246094 -50.63999938964844,-170.14999389648438 -50.209999084472656,-171.00999450683594 -51.29999923706055,-175.38999938964844 -52.29999923706055,-177.9600067138672 -51.52000045776367,-180.6300048828125 -52.189998626708984,-181.6999969482422 -51.9900016784668,-186.64999389648438 -53.45000076293945,-191.92999267578125 -56.369998931884766,-194.47999572753906 -58.95000076293945,-195.55999755859375 -61.900001525878906,-197.25 -66.30999755859375,-200.49000549316406 -69.58999633789062,-201.05999755859375 -71.30999755859375,-202.27999877929688 -70.72000122070312,-203.47000122070312" style="fill:none;stroke:#000000;stroke-width:1"></polyline>
</g>
<g id="Axon.2.2.2.1">
<polyline points="-70.72000122070312,-203.47000122070312 -70.30000305175781,-210.92999267578125 -70.9800033569336,-215.5800018310547 -74.68000030517578,-215.3000030517578 -76.36000061035156,-214.49000549316406 -78.27999877929688,-214.5 -78.69000244140625,-213.82000732421875 -77.58999633789062,-213.58999633789062 -78.87999725341797,-211.91000366210938 -79.70999908447266,-211.9499969482422" style="fill:none;stroke:#000000;stroke-width:1"></polyline>
</g>
<g id="Axon.2.2.2.2">
<polyline points="-70.72000122070312,-203.47000122070312 -70.2300033569336,-205.17999267578125 -70.11000061035156,-205.10000610351562" style="fill:none;stroke:#000000;stroke-width:1"></polyline>
</g>
<g id="Axon.2.2.2.2.1">
<polyline points="-70.11000061035156,-205.10000610351562 -68.73999786376953,-204.25 -67.41000366210938,-199.07000732421875 -66.44999694824219,-198.92999267578125 -67.47000122070312,-197.07000732421875 -66.6500015258789,-197.02999877929688" style="fill:none;stroke:#000000;stroke-width:1"></polyline>
</g>
<g id="Axon.2.2.2.2.2">
<polyline points="-70.11000061035156,-205.10000610351562 -69.58999633789062,-208.1199951171875 -68.3499984741211,-208.07000732421875 -67.38999938964844,-212.3699951171875 -67.2300033569336,-216.7100067138672" style="fill:none;stroke:#000000;stroke-width:1"></polyline>
</g>
<g id="Axon.2.2.2.2.2.1">
<polyline points="-67.2300033569336,-216.7100067138672 -63.619998931884766,-217.67999267578125 -63.439998626708984,-218.91000366210938 -66.11000061035156,-221.36000061035156 -65.41000366210938,-221.85000610351562 -62.45000076293945,-227.89999389648438 -61.56999969482422,-229.35000610351562 -60.59000015258789,-230.33999633789062 -59.04999923706055,-231.22000122070312 -57.34000015258789,-232.63999938964844 -57.31999969482422,-233.5" style="fill:none;stroke:#000000;stroke-width:1"></polyline>
</g>
<g id="Axon.2.2.2.2.2.1.1">
<polyline points="-57.31999969482422,-233.5 -57.279998779296875,-233.6699981689453 -63.540000915527344,-231.77999877929688 -64.19000244140625,-232.16000366210938" style="fill:none;stroke:#000000;stroke-width:1"></polyline>
</g>
<g id="Axon.2.2.2.2.2.1.2">
<polyline points="-57.31999969482422,-233.5 -53.65999984741211,-236.0500030517578 -51.040000915527344,-236.5399932861328 -45.88999938964844,-238.82000732421875 -45.56999969482422,-240.63999938964844 -46.41999816894531,-240.0800018310547 -46.29999923706055,-239.5399932861328" style="fill:none;stroke:#000000;stroke-width:1"></polyline>
</g>
<g id="Axon.2.2.2.2.2.2">
<polyline points="-67.2300033569336,-216.7100067138672 -68.16000366210938,-218.14999389648438 -72.62999725341797,-219.63999938964844" style="fill:none;stroke:#000000;stroke-width:1"></polyline>
</g>
<g id="Axon.2.2.2.2.2.2.1">
<polyline points="-72.62999725341797,-219.63999938964844 -75.20999908447266,-220.6999969482422 -76.97000122070312,-220.8800048828125 -77.55000305175781,-220.5399932861328" style="fill:none;stroke:#000000;stroke-width:1"></polyline>
</g>
<g id="Axon.2.2.2.2.2.2.2">
<polyline points="-72.62999725341797,-219.63999938964844 -75.20999908447266,-220.00999450683594 -77.68000030517578,-220.1199951171875 -79.0199966430664,-220.4499969482422 -79.1500015258789,-220.5399932861328" style="fill:none;stroke:#000000;stroke-width:1"></polyline>
</g>
<g id="Axon.2.2.2.2.2.2.2.1">
<polyline points="-79.1500015258789,-220.5399932861328 -79.95999908447266,-224.74000549316406 -80.37000274658203,-225.1999969482422" style="fill:none;stroke:#000000;stroke-width:1"></polyline>
</g>
<g id="Axon.2.2.2.2.2.2.2.1.1">
<polyline points="-80.37000274658203,-225.1999969482422 -81.23999786376953,-227.92999267578125 -84.62999725341797,-228.61000061035156" style="fill:none;stroke:#000000;stroke-width:1"></polyline>
</g>
<g id="Axon.2.2.2.2.2.2.2.1.2">
<polyline points="-80.37000274658203,-225.1999969482422 -80.44000244140625,-226.33999633789062 -80.2699966430664,-227.5500030517578 -82.86000061035156,-228.1699981689453 -83.26000213623047,-228.1999969482422" style="fill:none;stroke:#000000;stroke-width:1"></polyline>
</g>
<g id="Axon.2.2.2.2.2.2.2.2">
<polyline points="-79.1500015258789,-220.5399932861328 -79.87000274658203,-220.30999755859375 -87.69000244140625,-220.2100067138672 -87.81999969482422,-220.3000030517578 -92.33000183105469,-220.94000244140625 -92.44000244140625,-221.6300048828125" style="fill:none;stroke:#000000;stroke-width:1"></polyline>
</g>
<g id="Axon.2.2.2.2.2.2.2.2.1">
<polyline points="-92.44000244140625,-221.6300048828125 -91.56999969482422,-222.1999969482422 -91.30000305175781,-222.02000427246094" style="fill:none;stroke:#000000;stroke-width:1"></polyline>
</g>
<g id="Axon.2.2.2.2.2.2.2.2.2">
<polyline points="-92.44000244140625,-221.6300048828125 -95.5999984741211,-221.25 -96.98999786376953,-220.52999877929688 -98.0999984741211,-220.75999450683594 -100.63999938964844,-218.69000244140625 -103.41999816894531,-218.1199951171875 -109.30999755859375,-217.77000427246094 -110.26000213623047,-218.5800018310547" style="fill:none;stroke:#000000;stroke-width:1"></polyline>
</g>
<g id="Axon.2.2.2.2.2.2.2.2.2.1">
<polyline points="-110.26000213623047,-218.5800018310547 -111.58999633789062,-220.4600067138672 -114.48999786376953,-219.72999572753906 -114.51000213623047,-219.27999877929688" style="fill:none;stroke:#000000;stroke-width:1"></polyline>
</g>
<g id="Axon.2.2.2.2.2.2.2.2.2.2">
<polyline points="-110.26000213623047,-218.5800018310547 -113.37999725341797,-219.24000549316406" style="fill:none;stroke:#000000;stroke-width:1"></polyline>
</g></g></svg>