
  <svg id="SVG_ROOT" xmlns="http://www.w3.org/2000/svg" class="innerBox" preserveAspectRatio="xMinYMin meet" style="shape-rendering:geometricPrecision; text-rendering:geometricPrecision; fill-rule:evenodd" viewBox="-262.6000061035156 -316.8900146484375 415.2900085449219 508.9900207519531" width="415.2900085449219mm" height="508.9900207519531mm"><g transform="scale(1,-1)"><g id="Soma">
<polyline points="0,0" style="fill:none;stroke:#ffffff;stroke-width:11.4399995803833"></polyline>
</g>
<g id="Soma.1">
<polyline points="0,0 0.9300000071525574,5.53000020980835" style="fill:none;stroke:#ffffff;stroke-width:11.4399995803833"></polyline>
</g>
<g id="Soma.2">
<polyline points="0,0 -0.9300000071525574,-5.53000020980835" style="fill:none;stroke:#ffffff;stroke-width:11.4399995803833"></polyline>
</g>
<g id="Apical dendrite">
<polyline points="0,0 -1.309999942779541,4.019999980926514 -2.069999933242798,4.940000057220459 -2.819999933242798,5.900000095367432 -3.440000057220459,6.949999809265137 -3.8399999141693115,8.109999656677246 -4.150000095367432,9.289999961853027 -4.460000038146973,10.489999771118164 -4.78000020980835,11.6899995803833 -5.199999809265137,12.859999656677246 -5.730000019073486,14 -6.269999980926514,15.140000343322754 -6.679999828338623,16.31999969482422 -6.96999979019165,17.530000686645508 -7.400000095367432,18.65999984741211 -7.96999979019165,19.700000762939453 -8.5,20.719999313354492 -9,21.760000228881836 -9.619999885559082,22.719999313354492 -10.25,23.65999984741211 -10.859999656677246,24.610000610351562 -11.510000228881836,25.530000686645508 -12.079999923706055,26.479999542236328 -12.569999694824219,27.5 -13.069999694824219,28.489999771118164 -13.699999809265137,29.40999984741211 -14.15999984741211,30.40999984741211 -14.329999923706055,31.5" style="fill:none;stroke:#000000;stroke-width:0.8068518528231868"></polyline>
</g>
<g id="Apical dendrite.1">
<polyline points="-14.329999923706055,31.5 -14.960000038146973,32.040000915527344 -15.720000267028809,32.86000061035156 -16.43000030517578,33.709999084472656 -16.989999771118164,34.68000030517578 -17.290000915527344,35.7400016784668 -17.549999237060547,36.83000183105469 -18.450000762939453,38.86000061035156 -19.65999984741211,40.779998779296875 -20.399999618530273,41.68000030517578 -21.1200008392334,42.619998931884766 -21.59000015258789,43.72999954223633 -21.690000534057617,44.93000030517578 -21.600000381469727,46.13999938964844 -21.489999771118164,47.349998474121094 -21.420000076293945,48.560001373291016 -21.729999542236328,49.7400016784668 -22.25,50.880001068115234 -23.049999237060547,51.779998779296875 -24.010000228881836,52.459999084472656 -25.020000457763672,53.029998779296875 -26.079999923706055,53.4900016784668 -27.15999984741211,53.95000076293945" style="fill:none;stroke:#000000;stroke-width:1.0267909196290104"></polyline>
</g>
<g id="Apical dendrite.1.1">
<polyline points="-27.15999984741211,53.95000076293945 -27.799999237060547,54.439998626708984 -28.479999542236328,55.04999923706055 -29.059999465942383,55.81999969482422 -29.110000610351562,56.720001220703125 -28.309999465942383,56.689998626708984 -28.8799991607666,57.060001373291016 -29.719999313354492,57.529998779296875 -30.030000686645508,58.22999954223633 -30.59000015258789,58.900001525878906 -31.40999984741211,59.310001373291016 -32.400001525878906,59.279998779296875 -33.349998474121094,59.279998779296875 -33.7400016784668,59.88999938964844 -33.09000015258789,60.59000015258789 -32.15999984741211,61.130001068115234 -31.450000762939453,61.84000015258789 -31.09000015258789,62.7599983215332 -30.899999618530273,63.66999816894531 -30.729999542236328,64.55999755859375 -30.59000015258789,65.47000122070312 -30.540000915527344,66.41000366210938 -30.739999771118164,67.33000183105469 -31.219999313354492,68.19000244140625 -31.829999923706055,68.95999908447266 -32.43000030517578,69.66999816894531 -32.529998779296875,70.5 -32.040000915527344,71.33999633789062 -32.58000183105469,72.05999755859375 -33.560001373291016,72.20999908447266 -34.59000015258789,72.16000366210938 -35.630001068115234,71.86000061035156 -36.56999969482422,71.2300033569336 -37.41999816894531,70.4800033569336 -38.0099983215332,69.56999969482422 -37.779998779296875,69.44999694824219 -38.470001220703125,70 -39.380001068115234,70.45999908447266 -39.97999954223633,71.23999786376953 -40.45000076293945,72.19000244140625 -41.13999938964844,72.98999786376953 -41.95000076293945,73.70999908447266 -42.86000061035156,74.26000213623047 -43.77000045776367,74.7300033569336 -44.70000076293945,75.18000030517578 -45.65999984741211,75.52999877929688 -46.65999984741211,75.75 -47.689998626708984,75.95999908447266 -48.70000076293945,76.16999816894531 -49.70000076293945,76.43000030517578 -50.439998626708984,77.08999633789062 -51.09000015258789,77.83999633789062 -51.720001220703125,78.61000061035156 -52.369998931884766,79.4000015258789 -53.02000045776367,80.18000030517578 -53.61000061035156,81.04000091552734 -53.880001068115234,82.0999984741211 -54.61000061035156,82.9800033569336" style="fill:none;stroke:#000000;stroke-width:0.5843894732625861"></polyline>
</g>
<g id="Apical dendrite.1.2">
<polyline points="-27.15999984741211,53.95000076293945 -28.450000762939453,54.06999969482422 -29.600000381469727,54.27000045776367 -30.579999923706055,55.040000915527344" style="fill:none;stroke:#000000;stroke-width:0.7525999943415324"></polyline>
</g>
<g id="Apical dendrite.1.2.1">
<polyline points="-30.579999923706055,55.040000915527344 -30.68000030517578,54.970001220703125 -31.270000457763672,56.0099983215332 -31.420000076293945,57.150001525878906 -31.260000228881836,58.279998779296875 -31.059999465942383,59.380001068115234 -30.690000534057617,60.400001525878906 -30.139999389648438,61.34000015258789 -29.479999542236328,62.209999084472656 -28.739999771118164,63.02000045776367 -28.09000015258789,63.849998474121094 -27.649999618530273,64.7300033569336 -27.389999389648438,65.6500015258789 -27.25,66.58000183105469 -27.350000381469727,67.47000122070312 -27.860000610351562,68.11000061035156 -28.530000686645508,68.66999816894531 -29.190000534057617,69.29000091552734 -29.670000076293945,70.08999633789062 -29.790000915527344,71.04000091552734 -29.65999984741211,72.04000091552734 -29.440000534057617,73.05999755859375 -28.8799991607666,73.9000015258789 -27.979999542236328,74.41999816894531" style="fill:none;stroke:#000000;stroke-width:0.7772260748821757"></polyline>
</g>
<g id="Apical dendrite.1.2.1.1">
<polyline points="-27.979999542236328,74.41999816894531 -27.790000915527344,74.87000274658203 -27.860000610351562,75.80999755859375 -28.1299991607666,76.75 -28.479999542236328,77.69000244140625 -29.06999969482422,78.5199966430664 -29.899999618530273,79.13999938964844 -30.729999542236328,79.69999694824219 -31.030000686645508,80.44000244140625 -30.399999618530273,81.12000274658203 -29.84000015258789,81.83999633789062 -29.780000686645508,82.76000213623047 -29.969999313354492,83.66999816894531 -30.479999542236328,84.38999938964844 -31.3700008392334,84.66999816894531 -31.969999313354492,85.30999755859375 -32.130001068115234,86.23999786376953 -32.15999984741211,87.2300033569336 -32.33000183105469,88.26000213623047 -32.400001525878906,89.31999969482422 -32.439998626708984,90.4000015258789 -32.45000076293945,91.44000244140625 -32.27000045776367,92.43000030517578 -32.029998779296875,93.38999938964844 -31.690000534057617,94.3499984741211 -31.31999969482422,95.31999969482422 -31.950000762939453,96.12999725341797 -32.47999954223633,97.05000305175781 -33.13999938964844,97.87999725341797 -33.790000915527344,98.66000366210938 -34.59000015258789,99.30000305175781 -35.43000030517578,99.9000015258789 -35.88999938964844,100.79000091552734 -36.119998931884766,101.88999938964844 -36.369998931884766,102.88999938964844 -36.91999816894531,103.79000091552734 -37.709999084472656,104.58999633789062 -38.66999816894531,104.98999786376953 -39.720001220703125,105.29000091552734 -40.58000183105469,105.88999938964844 -41.18000030517578,106.79000091552734 -41.810001373291016,107.69000244140625 -42.470001220703125,108.38999938964844 -43.13999938964844,109.29000091552734 -43.91999816894531,109.98999786376953 -44.81999969482422,110.69000244140625 -45.720001220703125,111.38999938964844 -46.689998626708984,111.98999786376953 -47.66999816894531,112.48999786376953 -48.66999816894531,112.98999786376953 -49.66999816894531,113.48999786376953 -50.599998474121094,114.08999633789062 -51.439998626708984,114.79000091552734 -52.15999984741211,115.58999633789062 -52.77000045776367,116.48999786376953 -53.439998626708984,117.29000091552734 -54.29999923706055,117.98999786376953 -55.31999969482422,118.38999938964844 -56.290000915527344,118.88999938964844 -57.06999969482422,119.69000244140625 -57.810001373291016,120.48999786376953 -58.66999816894531,121.08999633789062 -59.56999969482422,121.79000091552734 -60.16999816894531,122.58999633789062 -60.33000183105469,123.58999633789062 -60.349998474121094,124.69000244140625 -60.68000030517578,125.69000244140625 -61.40999984741211,126.38999938964844 -62.16999816894531,127.19000244140625 -62.720001220703125,128.08999633789062 -63.15999984741211,129.08999633789062 -63.709999084472656,129.99000549316406 -64.4800033569336,130.7899932861328 -65.30999755859375,131.49000549316406 -65.93000030517578,132.38999938964844 -66.58000183105469,133.2899932861328 -67.33999633789062,134.08999633789062 -68.02999877929688,134.99000549316406 -68.62000274658203,135.88999938964844 -69.19999694824219,136.88999938964844 -69.69999694824219,137.7899932861328 -70.18000030517578,138.7899932861328 -71.02999877929688,139.38999938964844 -72.08000183105469,139.69000244140625 -73.02999877929688,140.19000244140625 -73.77999877929688,140.99000549316406 -74.5999984741211,141.69000244140625 -75.5199966430664,142.2899932861328 -76.5199966430664,142.69000244140625 -77.54000091552734,142.99000549316406 -78.33000183105469,143.69000244140625 -79.06999969482422,144.49000549316406 -79.56999969482422,145.2899932861328 -80.25,146.08999633789062 -81.08999633789062,146.69000244140625 -81.95999908447266,147.19000244140625 -82.83999633789062,147.7899932861328 -83.68000030517578,148.38999938964844 -84.4800033569336,149.08999633789062 -85.25,149.7899932861328 -85.61000061035156,150.7899932861328 -85.55000305175781,151.7899932861328 -85.75,152.69000244140625" style="fill:none;stroke:#000000;stroke-width:0.562054903776038"></polyline>
</g>
<g id="Apical dendrite.1.2.1.2">
<polyline points="-27.979999542236328,74.41999816894531 -28.389999389648438,73.98999786376953 -29.360000610351562,73.7300033569336 -30.389999389648438,74.01000213623047 -31.3799991607666,74.41000366210938 -32.38999938964844,74.7699966430664 -33.459999084472656,75 -34.56999969482422,74.9000015258789 -35.63999938964844,74.70999908447266 -36.59000015258789,74.94999694824219 -37.470001220703125,75.36000061035156 -38.349998474121094,75.8499984741211 -39.2400016784668,76.38999938964844 -40.130001068115234,76.91999816894531 -41.060001373291016,77.44999694824219 -42.029998779296875,77.83000183105469 -42.7400016784668,77.33999633789062 -43.099998474121094,76.18000030517578 -43.709999084472656,75.18000030517578 -44.720001220703125,74.69999694824219 -45.810001373291016,74.70999908447266 -46.91999816894531,74.80000305175781 -48.029998779296875,74.58000183105469 -49.130001068115234,74.26000213623047 -50.2599983215332,74.2300033569336 -51.400001525878906,74.3499984741211 -52.540000915527344,74.37999725341797 -53.66999816894531,74.27999877929688 -54.790000915527344,74.05999755859375 -55.869998931884766,73.7300033569336 -56.97999954223633,73.48999786376953 -58.09000015258789,73.4000015258789 -59.189998626708984,73.2699966430664 -60.25,72.94999694824219 -61.290000915527344,72.54000091552734 -62.33000183105469,72.20999908447266 -63.369998931884766,71.88999938964844 -64.37999725341797,71.5999984741211 -65.3499984741211,71.5999984741211 -66.25,71.91999816894531 -67.0999984741211,72.33999633789062 -68,72.72000122070312 -68.94000244140625,73.01000213623047 -69.93000030517578,73.13999938964844 -70.91000366210938,73.12999725341797 -71.88999938964844,73.11000061035156 -72.83999633789062,73.27999877929688 -73.69000244140625,73.75 -74.5999984741211,74.19000244140625 -75.68000030517578,74.19000244140625 -76.80000305175781,74.0199966430664 -77.81999969482422,74.20999908447266 -78.44999694824219,74.93000030517578 -79.41000366210938,75.27999877929688 -80.48999786376953,75.47000122070312 -81.5199966430664,75.87999725341797 -82.61000061035156,76.1500015258789 -83.73999786376953,76.3499984741211 -84.86000061035156,76.55000305175781 -85.9800033569336,76.73999786376953 -86.91999816894531,77.30000305175781 -87.73999786376953,78.04000091552734 -88.41000366210938,78.87999725341797 -88.93000030517578,79.80000305175781 -89.4000015258789,80.7300033569336 -89.73999786376953,81.7300033569336 -90.12999725341797,82.72000122070312 -90.75,83.55000305175781 -91.41000366210938,84.38999938964844 -91.93000030517578,85.33000183105469 -92.44000244140625,86.30999755859375 -92.94000244140625,87.27999877929688" style="fill:none;stroke:#000000;stroke-width:0.5359830980149793"></polyline>
</g>
<g id="Apical dendrite.1.2.2">
<polyline points="-30.579999923706055,55.040000915527344 -31.020000457763672,56.45000076293945 -30.770000457763672,57.63999938964844 -30.239999771118164,58.689998626708984 -29.670000076293945,59.720001220703125 -29.31999969482422,60.83000183105469 -29.18000030517578,61.970001220703125 -29.34000015258789,63.06999969482422 -29.889999389648438,64.04000091552734 -30.479999542236328,65.01000213623047" style="fill:none;stroke:#000000;stroke-width:0.7593333356910281"></polyline>
</g>
<g id="Apical dendrite.1.2.2.1">
<polyline points="-30.479999542236328,65.01000213623047 -31.200000762939453,65.29000091552734 -32.2599983215332,65.75 -33.189998626708984,66.38999938964844 -33.79999923706055,67.31999969482422 -34.33000183105469,68.30999755859375 -34.959999084472656,69.23999786376953 -35.59000015258789,70.18000030517578 -36.04999923706055,71.22000122070312 -36.279998779296875,72.38999938964844" style="fill:none;stroke:#000000;stroke-width:0.6703333324856229"></polyline>
</g>
<g id="Apical dendrite.1.2.2.1.1">
<polyline points="-36.279998779296875,72.38999938964844 -36.16999816894531,73.20999908447266 -35.93000030517578,74.4000015258789 -35.56999969482422,75.55000305175781 -35.08000183105469,76.6500015258789 -34.83000183105469,77.81999969482422 -34.66999816894531,78.9800033569336 -34.52000045776367,80.1500015258789 -34.369998931884766,81.31999969482422 -34.220001220703125,82.5199966430664 -34.099998474121094,83.7300033569336 -33.97999954223633,84.94000244140625 -33.880001068115234,86.16000366210938 -33.79999923706055,87.37000274658203 -33.970001220703125,88.54000091552734 -34.40999984741211,89.62999725341797 -35.0099983215332,90.62999725341797 -35.650001525878906,91.62999725341797 -36.220001220703125,92.69999694824219 -36.650001525878906,93.8499984741211 -36.7400016784668,95.08000183105469 -36.95000076293945,95.9800033569336 -37.970001220703125,95.72000122070312 -39.08000183105469,95.52999877929688 -40.22999954223633,95.55999755859375 -41.38999938964844,95.61000061035156" style="fill:none;stroke:#000000;stroke-width:0.6719599950313568"></polyline>
</g>
<g id="Apical dendrite.1.2.2.1.1.1">
<polyline points="-41.38999938964844,95.61000061035156 -42.79999923706055,96.02999877929688 -43.93000030517578,96.30999755859375 -44.95000076293945,96.79000091552734 -45.77000045776367,97.58000183105469 -46.41999816894531,98.52999877929688 -47.150001525878906,99.41000366210938 -48.13999938964844,99.95999908447266 -49.290000915527344,99.98999786376953 -50.439998626708984,99.98999786376953 -51.560001373291016,100.29000091552734 -52.56999969482422,100.88999938964844 -53.529998779296875,101.69000244140625 -54.43000030517578,102.48999786376953 -55.279998779296875,103.29000091552734 -56.189998626708984,104.19000244140625 -56.7599983215332,105.29000091552734 -57.310001373291016,106.38999938964844 -57.900001525878906,107.38999938964844 -58.810001373291016,108.19000244140625 -59.959999084472656,108.19000244140625 -61.119998931884766,108.29000091552734 -62.2599983215332,108.58999633789062 -63.29999923706055,109.19000244140625 -64.13999938964844,109.98999786376953 -64.93000030517578,110.88999938964844 -65.7699966430664,111.69000244140625 -66.62999725341797,112.58999633789062 -67.54000091552734,113.38999938964844 -68.43000030517578,114.19000244140625 -69.41999816894531,114.98999786376953 -70.31999969482422,115.79000091552734 -70.98999786376953,116.79000091552734 -71.66000366210938,117.79000091552734 -72.5199966430664,118.58999633789062 -73.45999908447266,119.29000091552734 -74.41000366210938,119.98999786376953 -75.48999786376953,120.38999938964844 -76.62000274658203,120.38999938964844 -77.72000122070312,120.08999633789062 -78.7699966430664,119.69000244140625 -79.8499984741211,119.38999938964844 -81.01000213623047,119.38999938964844 -82.16999816894531,119.38999938964844 -83.31999969482422,119.38999938964844 -84.47000122070312,119.29000091552734 -85.51000213623047,119.58999633789062 -86.12999725341797,120.48999786376953 -86.51000213623047,121.48999786376953 -87.30000305175781,122.29000091552734 -88.41999816894531,122.58999633789062 -89.55999755859375,122.79000091552734 -90.6500015258789,123.29000091552734 -91.68000030517578,123.88999938964844 -92.75,124.29000091552734 -93.88999938964844,124.58999633789062 -95.05000305175781,124.69000244140625 -96.19999694824219,124.79000091552734 -97.3499984741211,124.98999786376953 -98.37000274658203,125.69000244140625 -99.31999969482422,126.48999786376953 -99.91999816894531,127.58999633789062 -100.19999694824219,128.7899932861328 -100.4000015258789,129.99000549316406 -101.0999984741211,130.88999938964844 -102.19999694824219,131.38999938964844 -103.30000305175781,131.88999938964844 -103.9000015258789,132.99000549316406 -104,134.19000244140625 -104.0999984741211,135.38999938964844 -104.80000305175781,136.38999938964844 -105.9000015258789,136.7899932861328 -107.0999984741211,136.88999938964844 -108.0999984741211,137.2899932861328 -109,138.19000244140625 -109.5999984741211,139.19000244140625 -110.19999694824219,140.2899932861328 -110.9000015258789,141.2899932861328 -111.69999694824219,142.08999633789062 -112.5,143.08999633789062 -113.19999694824219,143.99000549316406 -114.0999984741211,144.7899932861328 -114.9000015258789,145.69000244140625 -115.19999694824219,146.88999938964844 -115.30000305175781,148.08999633789062 -115.9000015258789,149.19000244140625 -116.69999694824219,149.99000549316406 -117.69999694824219,150.69000244140625 -118.30000305175781,151.49000549316406 -118.5,152.69000244140625 -118.4000015258789,153.88999938964844 -118.5,155.08999633789062 -119.0999984741211,155.88999938964844 -120.19999694824219,156.49000549316406 -120.9000015258789,157.2899932861328 -121.0999984741211,158.49000549316406 -121.0999984741211,159.69000244140625 -121.4000015258789,160.7899932861328 -122,161.88999938964844 -122.5999984741211,162.88999938964844 -123.5,163.69000244140625 -124.30000305175781,164.58999633789062 -125.30000305175781,165.19000244140625 -126.4000015258789,165.58999633789062 -127.5,166.08999633789062 -128.60000610351562,166.58999633789062 -129.6999969482422,166.99000549316406 -130.8000030517578,167.08999633789062 -131.89999389648438,167.38999938964844 -132.89999389648438,168.19000244140625 -133.5,169.19000244140625 -134.39999389648438,170.08999633789062 -135.5,170.49000549316406 -136.6999969482422,170.7899932861328 -137.8000030517578,171.2899932861328 -138.8000030517578,171.88999938964844 -139.6999969482422,172.7899932861328 -140.60000610351562,173.69000244140625 -141.60000610351562,174.49000549316406 -142.5,175.2899932861328 -143.60000610351562,175.7899932861328 -144.6999969482422,176.08999633789062 -145.8000030517578,176.58999633789062 -146.39999389648438,177.69000244140625 -146.89999389648438,178.88999938964844 -147.6999969482422,179.88999938964844 -148.5,180.88999938964844 -149,182.08999633789062 -149.3000030517578,183.2899932861328 -150,184.2899932861328 -151,184.99000549316406 -152.10000610351562,185.58999633789062 -153.1999969482422,186.19000244140625 -154,186.99000549316406 -154.89999389648438,187.49000549316406 -155.39999389648438,187.7899932861328 -155.6999969482422,188.08999633789062" style="fill:none;stroke:#000000;stroke-width:0.5617279410362244"></polyline>
</g>
<g id="Apical dendrite.1.2.2.1.1.2">
<polyline points="-41.38999938964844,95.61000061035156 -40.349998474121094,95.70999908447266 -39.29999923706055,96.08999633789062 -38.29999923706055,96.62000274658203 -37.81999969482422,97.69999694824219 -37.7599983215332,98.83999633789062 -37.970001220703125,99.94000244140625 -38.52000045776367,100.88999938964844 -39.06999969482422,101.88999938964844 -39.18000030517578,102.88999938964844 -38.939998626708984,103.98999786376953 -38.4900016784668,104.98999786376953 -37.869998931884766,105.98999786376953 -37.31999969482422,106.98999786376953 -37.04999923706055,108.08999633789062 -37.189998626708984,109.19000244140625 -37.810001373291016,110.19000244140625 -38.689998626708984,110.98999786376953 -39.52000045776367,111.88999938964844 -39.97999954223633,112.98999786376953 -40.029998779296875,114.29000091552734 -40.040000915527344,115.48999786376953 -40.20000076293945,116.79000091552734 -40.4900016784668,117.98999786376953 -40.709999084472656,119.29000091552734 -41.38999938964844,120.19000244140625 -42.369998931884766,120.88999938964844 -43.18000030517578,121.69000244140625 -43.93000030517578,122.58999633789062 -44.72999954223633,123.38999938964844 -45.5,124.29000091552734 -46.15999984741211,125.19000244140625 -46.75,126.19000244140625 -47.400001525878906,127.08999633789062 -48.029998779296875,128.19000244140625 -48.349998474121094,129.2899932861328 -48.22999954223633,130.49000549316406 -47.7599983215332,131.58999633789062 -47.83000183105469,132.88999938964844 -48.09000015258789,134.08999633789062 -48.0099983215332,135.19000244140625 -47.84000015258789,136.38999938964844 -47.720001220703125,137.49000549316406 -47.7400016784668,138.69000244140625 -47.9900016784668,139.7899932861328 -48.369998931884766,140.7899932861328 -48.79999923706055,141.88999938964844 -49.2599983215332,142.88999938964844 -49.900001525878906,143.7899932861328 -50.56999969482422,144.69000244140625 -51.209999084472656,145.58999633789062 -51.91999816894531,146.38999938964844 -52.5,147.38999938964844 -52.79999923706055,148.38999938964844 -52.81999969482422,149.49000549316406 -52.54999923706055,150.58999633789062 -52.189998626708984,151.69000244140625 -51.86000061035156,152.7899932861328 -51.400001525878906,153.88999938964844 -50.849998474121094,154.88999938964844 -50.27000045776367,155.88999938964844 -49.650001525878906,156.88999938964844 -49.02000045776367,157.88999938964844 -48.47999954223633,158.99000549316406 -48.130001068115234,160.08999633789062 -47.97999954223633,161.2899932861328 -47.310001373291016,162.2899932861328 -46.34000015258789,162.88999938964844 -45.380001068115234,163.49000549316406 -44.7400016784668,164.38999938964844 -44.4900016784668,165.58999633789062 -44.619998931884766,166.7899932861328 -45.40999984741211,167.69000244140625 -46.43000030517578,168.2899932861328 -46.66999816894531,169.38999938964844 -46.43000030517578,170.58999633789062 -45.95000076293945,171.69000244140625 -45.220001220703125,172.58999633789062 -44.41999816894531,173.38999938964844 -43.689998626708984,174.2899932861328 -43.099998474121094,175.2899932861328 -42.720001220703125,176.38999938964844 -42.5,177.58999633789062 -42.33000183105469,178.7899932861328 -42.16999816894531,179.88999938964844 -41.97999954223633,181.08999633789062 -41.619998931884766,182.19000244140625 -40.91999816894531,183.08999633789062 -39.959999084472656,183.69000244140625 -38.970001220703125,184.2899932861328 -38.150001525878906,184.99000549316406 -37.7400016784668,186.08999633789062 -37.619998931884766,187.2899932861328 -37.810001373291016,188.38999938964844 -38.369998931884766,189.49000549316406 -39.20000076293945,190.2899932861328 -40.119998931884766,191.08999633789062 -41,191.99000549316406 -41.869998931884766,192.7899932861328 -42.79999923706055,193.58999633789062 -43.5099983215332,194.58999633789062 -43.86000061035156,195.7899932861328 -43.95000076293945,196.99000549316406 -44.029998779296875,198.08999633789062 -44.0099983215332,199.2899932861328 -43.75,200.38999938964844 -43.20000076293945,201.38999938964844 -42.40999984741211,202.19000244140625 -41.54999923706055,202.99000549316406 -40.650001525878906,203.69000244140625 -39.7400016784668,204.38999938964844 -39.15999984741211,205.2899932861328 -39.029998779296875,206.38999938964844 -39.02000045776367,207.58999633789062 -38.97999954223633,208.69000244140625 -39.18000030517578,209.7899932861328 -39.790000915527344,210.69000244140625" style="fill:none;stroke:#000000;stroke-width:0.806305171343787"></polyline>
</g>
<g id="Apical dendrite.1.2.2.1.1.2.1">
<polyline points="-39.790000915527344,210.69000244140625 -39.779998779296875,211.2899932861328 -39.7599983215332,212.38999938964844 -40.18000030517578,213.2899932861328 -41.099998474121094,213.88999938964844 -42.130001068115234,214.2899932861328 -43.189998626708984,214.69000244140625 -44.22999954223633,215.08999633789062 -45.189998626708984,215.58999633789062 -45.880001068115234,216.38999938964844 -45.97999954223633,217.38999938964844 -45.900001525878906,218.38999938964844 -46.08000183105469,219.49000549316406 -46.2400016784668,220.58999633789062 -46.150001525878906,221.69000244140625 -45.869998931884766,222.69000244140625 -45.45000076293945,223.69000244140625 -45.279998779296875,224.7899932861328 -45.58000183105469,225.7899932861328 -46.040000915527344,226.7899932861328 -46.52000045776367,227.7899932861328 -47.15999984741211,228.58999633789062 -47.810001373291016,229.49000549316406 -48.220001220703125,230.49000549316406 -48.349998474121094,231.58999633789062 -48.22999954223633,232.69000244140625 -47.970001220703125,233.69000244140625 -47.56999969482422,234.69000244140625 -47.2400016784668,235.69000244140625 -47.130001068115234,236.7899932861328 -47.09000015258789,237.7899932861328 -46.75,238.7899932861328 -46.33000183105469,239.7899932861328 -46.11000061035156,240.7899932861328 -46.040000915527344,241.88999938964844 -46.02000045776367,242.88999938964844 -45.70000076293945,243.88999938964844 -44.88999938964844,244.69000244140625 -43.72999954223633,244.58999633789062 -42.56999969482422,244.49000549316406 -41.59000015258789,244.88999938964844 -41.060001373291016,245.7899932861328 -40.310001373291016,246.2899932861328 -39.29999923706055,246.58999633789062 -38.689998626708984,247.38999938964844 -38.220001220703125,248.19000244140625 -37.47999954223633,248.88999938964844 -36.470001220703125,249.38999938964844 -35.54999923706055,249.7899932861328 -34.900001525878906,250.58999633789062 -34.38999938964844,251.38999938964844 -33.77000045776367,252.19000244140625 -32.77000045776367,252.58999633789062 -31.6299991607666,252.58999633789062 -31.059999465942383,253.19000244140625 -30.549999237060547,253.7899932861328 -29.799999237060547,254.49000549316406 -29.149999618530273,255.19000244140625 -28.739999771118164,256.0899963378906 -28.31999969482422,256.989990234375 -27.59000015258789,257.7900085449219 -26.610000610351562,258.0899963378906 -26.079999923706055,258.7900085449219 -26.239999771118164,259.2900085449219 -26.719999313354492,259.5899963378906 -26.65999984741211,259.5899963378906 -25.56999969482422,259.5899963378906 -24.90999984741211,260.2900085449219 -24.65999984741211,261.19000244140625 -24.770000457763672,262.19000244140625 -25.440000534057617,262.8900146484375 -25.90999984741211,263.2900085449219 -26.139999389648438,263.989990234375 -26.1299991607666,264.7900085449219 -25.8700008392334,265.5899963378906 -25.639999389648438,266.489990234375 -25.639999389648438,267.3900146484375 -26.1200008392334,268.19000244140625 -26.729999542236328,268.8900146484375 -27.059999465942383,269.69000244140625 -27.1200008392334,270.69000244140625 -27.040000915527344,271.69000244140625 -27.25,272.5899963378906 -27.59000015258789,273.489990234375 -27.649999618530273,274.489990234375 -27.739999771118164,275.3900146484375 -28.149999618530273,276.19000244140625 -28.559999465942383,276.989990234375 -28.56999969482422,277.8900146484375 -28.81999969482422,278.7900085449219 -29.5,279.2900085449219 -29.690000534057617,280.0899963378906 -29.40999984741211,280.989990234375 -28.93000030517578,281.7900085449219 -28.1299991607666,282.3900146484375 -27.709999084472656,283.2900085449219 -27.209999084472656,284.0899963378906 -27.010000228881836,284.8900146484375 -27.09000015258789,285.5899963378906 -26.760000228881836,286.3900146484375 -25.950000762939453,286.8900146484375 -25.290000915527344,287.489990234375 -24.729999542236328,288.2900085449219 -23.829999923706055,288.7900085449219 -22.790000915527344,289.19000244140625 -22.25,289.7900085449219 -22.6200008392334,290.69000244140625 -22.850000381469727,291.5899963378906 -23.100000381469727,292.3900146484375 -23.229999542236328,293.3900146484375 -23.030000686645508,294.2900085449219 -22.40999984741211,295.0899963378906 -21.8700008392334,295.989990234375 -22.360000610351562,296.8900146484375 -22.8700008392334,297.7900085449219 -23.479999542236328,298.5899963378906 -24.020000457763672,299.489990234375 -24.229999542236328,300.3900146484375 -24.239999771118164,301.3900146484375 -24.15999984741211,302.3900146484375 -23.93000030517578,303.2900085449219 -23.3700008392334,304.0899963378906 -23,304.989990234375 -23.25,305.8900146484375 -23.649999618530273,306.7900085449219 -23.700000762939453,307.7900085449219 -23.420000076293945,308.7900085449219 -22.899999618530273,309.69000244140625 -22.229999542236328,310.489990234375 -21.459999084472656,311.19000244140625 -20.760000228881836,311.989990234375 -20.18000030517578,312.7900085449219 -19.489999771118164,313.5899963378906 -18.479999542236328,313.989990234375 -17.360000610351562,313.7900085449219 -16.25,313.489990234375 -15.260000228881836,313.7900085449219 -14.65999984741211,314.69000244140625 -14.050000190734863,315.5899963378906 -13.180000305175781,316.3900146484375 -12.649999618530273,316.8900146484375" style="fill:none;stroke:#000000;stroke-width:0.4997971426163401"></polyline>
</g>
<g id="Apical dendrite.1.2.2.1.1.2.2">
<polyline points="-39.790000915527344,210.69000244140625 -40.43000030517578,211.08999633789062 -41.189998626708984,211.7899932861328 -41.25,212.99000549316406 -41.33000183105469,214.19000244140625" style="fill:none;stroke:#000000;stroke-width:0.49585001170635223"></polyline>
</g>
<g id="Apical dendrite.1.2.2.1.1.2.2.1">
<polyline points="-41.33000183105469,214.19000244140625 -41.880001068115234,215.08999633789062 -42.59000015258789,216.08999633789062 -43.029998779296875,217.08999633789062 -43.060001373291016,218.19000244140625 -43.11000061035156,219.38999938964844 -43.720001220703125,220.2899932861328 -44.77000045776367,220.88999938964844 -45.900001525878906,221.08999633789062 -47.04999923706055,221.38999938964844 -48.209999084472656,221.69000244140625 -49.349998474121094,222.08999633789062 -50.459999084472656,222.58999633789062 -51.5099983215332,223.19000244140625 -51.959999084472656,224.2899932861328 -51.86000061035156,225.58999633789062 -51.540000915527344,226.69000244140625 -50.91999816894531,227.69000244140625 -50.16999816894531,228.58999633789062 -49.540000915527344,229.58999633789062 -49.15999984741211,230.69000244140625 -49.36000061035156,231.88999938964844 -50.0099983215332,232.99000549316406 -50.72999954223633,233.99000549316406 -51.25,235.08999633789062 -51.47999954223633,236.2899932861328 -51.61000061035156,237.38999938964844 -51.720001220703125,238.69000244140625 -51.75,239.88999938964844 -51.66999816894531,241.08999633789062 -51.75,242.2899932861328 -52.2599983215332,243.49000549316406 -52.79999923706055,244.58999633789062 -53.31999969482422,245.69000244140625 -53.75,246.88999938964844 -54.04999923706055,247.99000549316406 -54.31999969482422,249.2899932861328 -54.619998931884766,250.38999938964844 -54.849998474121094,251.38999938964844 -55.22999954223633,252.38999938964844 -55.84000015258789,253.38999938964844 -56.70000076293945,254.2899932861328 -57.66999816894531,254.99000549316406 -58.63999938964844,255.69000244140625 -59.119998931884766,256.489990234375 -58.5099983215332,257.3900146484375 -57.959999084472656,258.3900146484375 -57.16999816894531,259.19000244140625 -56.400001525878906,260.0899963378906 -56.0099983215332,261.0899963378906 -55.810001373291016,262.2900085449219 -56.04999923706055,263.489990234375 -56.7599983215332,264.489990234375 -57.470001220703125,265.3900146484375 -58.150001525878906,266.2900085449219 -58.619998931884766,267.3900146484375 -59.099998474121094,268.3900146484375 -59.560001373291016,269.3900146484375" style="fill:none;stroke:#000000;stroke-width:0.5922105254834158"></polyline>
</g>
<g id="Apical dendrite.1.2.2.1.1.2.2.2">
<polyline points="-41.33000183105469,214.19000244140625 -40.790000915527344,214.49000549316406 -39.77000045776367,214.88999938964844 -38.72999954223633,215.38999938964844 -37.83000183105469,216.08999633789062 -37.29999923706055,217.08999633789062 -36.630001068115234,217.99000549316406 -35.79999923706055,218.7899932861328 -35.040000915527344,219.69000244140625 -34.099998474121094,220.2899932861328 -33.04999923706055,220.38999938964844 -31.989999771118164,220.38999938964844 -30.959999084472656,220.7899932861328 -30.309999465942383,221.7899932861328 -29.290000915527344,222.08999633789062 -28.219999313354492,222.2899932861328 -27.200000762939453,222.58999633789062 -26.5,223.49000549316406 -26.25,224.69000244140625 -26.079999923706055,225.7899932861328 -25.899999618530273,226.99000549316406 -25.600000381469727,228.08999633789062 -25.010000228881836,229.08999633789062 -24.229999542236328,229.99000549316406 -23.3799991607666,230.69000244140625 -22.549999237060547,231.49000549316406 -22,232.49000549316406 -21.690000534057617,233.69000244140625 -21.06999969482422,234.58999633789062 -20.100000381469727,235.10000610351562 -19.139999389648438,235.60000610351562 -18.25,236.10000610351562 -17.360000610351562,236.39999389648438 -16.559999465942383,237 -15.8100004196167,237.6999969482422 -15,238.3000030517578 -14.149999618530273,239 -13.40999984741211,239.8000030517578 -13.279999732971191,240.89999389648438 -13.350000381469727,242.1999969482422 -13.279999732971191,243.39999389648438 -12.90999984741211,244.60000610351562 -12.260000228881836,245.60000610351562 -11.510000228881836,246.39999389648438 -10.75,247.1999969482422 -10.039999961853027,248 -9.270000457763672,248.8000030517578 -8.5,249.6999969482422 -7.909999847412109,250.6999969482422 -7.570000171661377,251.8000030517578 -7.329999923706055,253 -6.809999942779541,254 -5.800000190734863,254.39999389648438 -4.699999809265137,254.6999969482422 -3.6500000953674316,255.1999969482422 -2.559999942779541,255.5 -1.4600000381469727,255.8000030517578 -0.550000011920929,256.5 0.03999999910593033,257.3999938964844 0.699999988079071,258.3999938964844 1.5099999904632568,259.20001220703125 2.5199999809265137,259.70001220703125 3.6600000858306885,259.79998779296875 4.800000190734863,259.79998779296875 5.940000057220459,259.79998779296875 7.050000190734863,260.1000061035156 8.149999618530273,260.3999938964844 9.279999732971191,260.6000061035156 10.350000381469727,261 11.270000457763672,261.70001220703125 12.020000457763672,262.5 12.9399995803833,263.20001220703125 14.050000190734863,263.3999938964844 15.0600004196167,264 16,264.6000061035156 16.959999084472656,265.29998779296875 17.920000076293945,265.8999938964844 18.889999389648438,266.5 19.59000015258789,267.3999938964844 20.1200008392334,268.3999938964844 20.6200008392334,269.3999938964844 21.309999465942383,270.29998779296875 22.09000015258789,271.1000061035156 23.170000076293945,271.5 24.219999313354492,271.1000061035156 25.270000457763672,270.6000061035156" style="fill:none;stroke:#000000;stroke-width:0.40939764660947464"></polyline>
</g>
<g id="Apical dendrite.1.2.2.1.2">
<polyline points="-36.279998779296875,72.38999938964844 -37.61000061035156,73.52999877929688 -38.630001068115234,74.13999938964844 -39.709999084472656,74.69999694824219 -40.2599983215332,75.79000091552734 -40.45000076293945,77 -40.5099983215332,78.2300033569336 -40.97999954223633,79.33999633789062 -41.91999816894531,80.04000091552734 -43.040000915527344,80.36000061035156 -44.189998626708984,80.61000061035156 -45.349998474121094,80.70999908447266 -46.2599983215332,80.16999816894531 -47.290000915527344,79.7699966430664 -48.310001373291016,79.37999725341797 -49.22999954223633,78.80000305175781 -50.369998931884766,78.6500015258789 -51.529998779296875,78.81999969482422 -52.66999816894531,79.05999755859375 -53.84000015258789,79.12999725341797" style="fill:none;stroke:#000000;stroke-width:0.7570526348917108"></polyline>
</g>
<g id="Apical dendrite.1.2.2.1.2.1">
<polyline points="-53.84000015258789,79.12999725341797 -54.209999084472656,79.08000183105469 -55.310001373291016,78.73999786376953 -56.38999938964844,78.3499984741211 -57.459999084472656,77.98999786376953 -58.58000183105469,77.69999694824219 -59.70000076293945,77.44999694824219 -60.84000015258789,77.29000091552734 -61.9900016784668,77.22000122070312 -63.150001525878906,77.2300033569336 -64.31999969482422,77.31999969482422 -65.4800033569336,77.41000366210938 -66.62000274658203,77.2699966430664 -67.75,77.02999877929688 -68.87000274658203,76.80000305175781 -69.98999786376953,76.55999755859375 -71.12000274658203,76.38999938964844 -72.2300033569336,76.16999816894531 -73.36000061035156,76.0199966430664 -74.4800033569336,75.87999725341797 -75.58999633789062,75.69999694824219 -76.69999694824219,75.56999969482422 -77.83000183105469,75.5199966430664 -78.97000122070312,75.56999969482422 -80.12999725341797,75.73999786376953 -81.29000091552734,75.81999969482422 -82.44000244140625,75.8499984741211 -83.5999984741211,76 -84.73999786376953,76.20999908447266 -85.87000274658203,76.44999694824219 -87.01000213623047,76.73999786376953 -88.11000061035156,77.08000183105469 -89.23999786376953,77.16999816894531 -90.31999969482422,76.86000061035156 -91.41999816894531,76.56999969482422 -92.52999877929688,76.58000183105469 -93.66000366210938,76.72000122070312 -94.76000213623047,76.94000244140625 -95.83000183105469,77.29000091552734 -96.86000061035156,77.73999786376953 -97.95999908447266,78.08000183105469 -99.0999984741211,78.0199966430664 -100.19999694824219,77.76000213623047 -101.4000015258789,77.66000366210938 -102.5,77.87999725341797 -103.5999984741211,78.13999938964844 -104.80000305175781,78.22000122070312 -105.9000015258789,78.54000091552734 -106.9000015258789,79.11000061035156 -107.80000305175781,79.68000030517578 -108.80000305175781,80.2300033569336 -109.9000015258789,80.5999984741211 -111,80.80999755859375 -112.19999694824219,80.87000274658203 -113.30000305175781,80.7300033569336 -114.5,80.66999816894531 -115.5999984741211,80.94000244140625 -116.5999984741211,81.4000015258789 -117.5999984741211,81.97000122070312 -118.5999984741211,82.47000122070312 -119.80000305175781,82.73999786376953 -120.9000015258789,82.68000030517578 -121.9000015258789,82.2699966430664 -123.0999984741211,82.05999755859375 -124.19999694824219,82.33000183105469 -125.19999694824219,82.6500015258789 -126.30000305175781,82.98999786376953 -127.30000305175781,83.51000213623047 -128.1999969482422,84.26000213623047 -129.10000610351562,84.88999938964844 -130.1999969482422,85.19999694824219 -131.3000030517578,85.44000244140625 -132.39999389648438,85.88999938964844 -133.39999389648438,86.41000366210938 -134.5,86.83000183105469 -135.60000610351562,87.0999984741211 -136.6999969482422,87.3499984741211 -137.6999969482422,87.83000183105469 -138.6999969482422,88.44999694824219 -139.60000610351562,89.08999633789062 -140.60000610351562,89.72000122070312 -141.60000610351562,90.27999877929688 -142.60000610351562,90.76000213623047 -143.6999969482422,91.04000091552734 -144.8000030517578,91.02999877929688 -146,91.11000061035156 -147.10000610351562,91.31999969482422 -148.3000030517578,91.52999877929688 -149.39999389648438,91.63999938964844 -150.60000610351562,91.55000305175781 -151.6999969482422,91.55999755859375 -152.8000030517578,91.68000030517578 -153.89999389648438,91.81999969482422 -155,91.94999694824219 -156.1999969482422,91.95999908447266 -157.1999969482422,91.5999984741211 -158.3000030517578,91.26000213623047 -159.39999389648438,90.95999908447266 -160.5,90.58999633789062 -161.60000610351562,90.37999725341797 -162.8000030517578,90.26000213623047 -163.89999389648438,90.37999725341797 -165,90.86000061035156 -166,91.44000244140625 -167.10000610351562,91.79000091552734 -168.1999969482422,92.02999877929688 -169.3000030517578,92.25 -170.5,92.3499984741211 -171.60000610351562,92.2300033569336 -172.6999969482422,91.94000244140625 -173.89999389648438,91.68000030517578 -175,91.58999633789062 -176.10000610351562,91.69999694824219 -177.3000030517578,91.9000015258789 -178.39999389648438,92.11000061035156 -179.5,92.37999725341797 -180.60000610351562,92.79000091552734 -181.60000610351562,93.31999969482422 -182.6999969482422,93.7699966430664 -183.8000030517578,94.19000244140625 -184.8000030517578,94.7699966430664 -185.8000030517578,95.37999725341797 -186.8000030517578,95.83999633789062 -188,96.06999969482422 -189.10000610351562,96.08000183105469 -190.3000030517578,96.05000305175781 -191.39999389648438,96.30000305175781 -192.5,96.81999969482422 -193.60000610351562,97.36000061035156 -194.6999969482422,97.80999755859375 -195.8000030517578,98.47000122070312 -196.6999969482422,99.33999633789062 -197.6999969482422,99.9800033569336 -198.8000030517578,100.19000244140625 -200,100.29000091552734 -201.1999969482422,100.48999786376953 -202.3000030517578,100.58999633789062 -203.5,100.48999786376953 -204.60000610351562,100.29000091552734 -205.5,99.5999984741211 -206.10000610351562,98.69999694824219 -206.8000030517578,98 -207.89999389648438,98.13999938964844 -209,98.5199966430664 -210.1999969482422,98.83000183105469 -211.3000030517578,99.12000274658203 -212.39999389648438,99.4800033569336 -213.5,99.8499984741211 -214.60000610351562,100.08999633789062 -215.8000030517578,100.29000091552734 -216.89999389648438,100.58999633789062 -217.89999389648438,100.98999786376953 -219,101.19000244140625 -220.1999969482422,101.48999786376953 -221.3000030517578,101.58999633789062 -222.39999389648438,101.79000091552734 -223.60000610351562,101.79000091552734 -224.6999969482422,101.98999786376953 -225.8000030517578,102.29000091552734 -226.89999389648438,102.69000244140625 -228,103.08999633789062 -229,103.58999633789062 -230.10000610351562,103.98999786376953 -231.1999969482422,104.29000091552734 -232.3000030517578,104.58999633789062 -233.39999389648438,104.98999786376953 -234.5,104.98999786376953 -235.6999969482422,105.08999633789062 -236.8000030517578,105.29000091552734 -238,105.38999938964844 -239.1999969482422,105.48999786376953 -240.3000030517578,105.69000244140625 -241.39999389648438,106.19000244140625 -242.39999389648438,106.88999938964844 -243.5,107.38999938964844 -244.5,107.88999938964844 -245.5,108.48999786376953 -246.60000610351562,108.98999786376953 -247.60000610351562,109.48999786376953 -248.60000610351562,109.98999786376953 -249.6999969482422,110.29000091552734 -250.89999389648438,110.58999633789062 -251.89999389648438,111.08999633789062 -252.89999389648438,111.69000244140625 -253.89999389648438,112.38999938964844 -254.89999389648438,113.08999633789062 -255.89999389648438,113.69000244140625 -257,114.29000091552734 -258.1000061035156,114.69000244140625 -259.20001220703125,115.08999633789062 -260.3999938964844,115.48999786376953 -261.5,115.79000091552734 -262.6000061035156,115.88999938964844" style="fill:none;stroke:#000000;stroke-width:0.412896874671181"></polyline>
</g>
<g id="Apical dendrite.1.2.2.1.2.2">
<polyline points="-53.84000015258789,79.12999725341797 -54.02000045776367,79.2699966430664 -55.040000915527344,79.7699966430664 -56.20000076293945,80.06999969482422 -57.34000015258789,80.12999725341797 -58.36000061035156,79.69999694824219 -59.33000183105469,79.95999908447266 -60.0099983215332,81.0199966430664 -60.63999938964844,82.11000061035156 -61.630001068115234,82.6500015258789 -62.7599983215332,82.5199966430664 -63.7599983215332,83.08000183105469 -64.30999755859375,84.13999938964844 -65.05000305175781,85.05000305175781 -66.05999755859375,85.66000366210938 -67.1500015258789,86.18000030517578 -68.26000213623047,86.66000366210938 -69.36000061035156,87.16000366210938 -70.41999816894531,87.72000122070312 -71.47000122070312,88.26000213623047 -72.54000091552734,88.69000244140625 -73.6500015258789,89.01000213623047 -74.7300033569336,89.33999633789062 -75.7699966430664,89.80999755859375 -76.81999969482422,90.26000213623047 -77.93000030517578,90.58000183105469 -79.0199966430664,90.95999908447266 -80,91.55999755859375 -80.94000244140625,92.25 -81.91999816894531,92.87999725341797 -82.93000030517578,93.44999694824219 -83.97000122070312,93.58000183105469 -84.9000015258789,92.9800033569336 -85.79000091552734,92.33999633789062 -86.87000274658203,92.11000061035156 -87.95999908447266,92.48999786376953 -88.98999786376953,93.12000274658203 -90.06999969482422,93.56999969482422 -91.22000122070312,93.7300033569336 -92.37999725341797,93.66999816894531 -93.52999877929688,93.63999938964844 -94.69000244140625,93.8499984741211 -95.80999755859375,94.27999877929688 -96.66000366210938,95.11000061035156 -97.11000061035156,96.26000213623047 -97.7300033569336,97.30000305175781 -98.77999877929688,97.77999877929688 -99.91000366210938,97.7699966430664 -101,97.55000305175781 -102.0999984741211,97.66999816894531 -103.19999694824219,98.04000091552734 -104.30000305175781,98.48999786376953 -105.30000305175781,99.20999908447266 -106.0999984741211,100.19000244140625 -106.69999694824219,101.29000091552734 -107.30000305175781,102.38999938964844 -108.19999694824219,103.08999633789062 -109.30000305175781,103.48999786376953 -110.4000015258789,104.08999633789062 -111,105.19000244140625 -111.5,106.29000091552734 -112,107.38999938964844 -112.80000305175781,108.29000091552734 -113.5,109.29000091552734 -113.80000305175781,110.48999786376953 -113.9000015258789,111.69000244140625 -114.4000015258789,112.88999938964844 -115,113.88999938964844 -115.5999984741211,114.88999938964844 -116.0999984741211,115.98999786376953 -116.4000015258789,117.19000244140625 -116.9000015258789,118.19000244140625 -117.9000015258789,118.69000244140625 -119,119.29000091552734 -119.69999694824219,120.19000244140625 -120.4000015258789,121.19000244140625 -121.4000015258789,121.88999938964844 -122.30000305175781,122.58999633789062 -123.30000305175781,123.19000244140625 -124.19999694824219,123.98999786376953 -125.19999694824219,124.69000244140625 -126.30000305175781,125.08999633789062 -127.4000015258789,125.08999633789062 -128.60000610351562,125.19000244140625 -129.6999969482422,125.69000244140625 -130.60000610351562,126.48999786376953 -131.60000610351562,127.08999633789062 -132.6999969482422,127.58999633789062 -133.8000030517578,127.88999938964844 -135,128.19000244140625 -136.1999969482422,128.49000549316406 -137.3000030517578,128.69000244140625 -138.5,128.99000549316406 -139.60000610351562,129.2899932861328 -140.6999969482422,129.69000244140625 -141.8000030517578,130.19000244140625 -143,130.58999633789062 -144.10000610351562,131.08999633789062 -145,131.7899932861328 -145.6999969482422,132.88999938964844 -145.6999969482422,134.08999633789062 -145.39999389648438,135.2899932861328 -145.1999969482422,136.49000549316406 -145.10000610351562,137.69000244140625 -145.39999389648438,138.88999938964844 -146.1999969482422,139.69000244140625 -147.3000030517578,140.2899932861328 -147.6999969482422,141.38999938964844 -147.3000030517578,142.49000549316406 -146.89999389648438,143.58999633789062 -146.6999969482422,144.7899932861328 -146.6999969482422,145.99000549316406 -146.6999969482422,147.19000244140625 -146.6999969482422,148.2899932861328 -146.8000030517578,149.58999633789062 -147,150.69000244140625 -147.1999969482422,151.99000549316406 -147.1999969482422,153.19000244140625 -147.1999969482422,154.38999938964844 -147.1999969482422,155.69000244140625 -147,156.7899932861328 -146.60000610351562,157.99000549316406 -145.89999389648438,158.88999938964844 -145.39999389648438,159.99000549316406 -145.6999969482422,161.2899932861328 -146.39999389648438,162.2899932861328 -147.10000610351562,163.2899932861328 -147.8000030517578,164.38999938964844 -148.6999969482422,165.2899932861328 -149.60000610351562,165.99000549316406 -149.8000030517578,166.88999938964844 -149.8000030517578,167.99000549316406 -149.1999969482422,168.99000549316406 -148.39999389648438,169.88999938964844 -147.39999389648438,170.08999633789062 -146.3000030517578,170.08999633789062 -145.10000610351562,170.19000244140625 -144,170.38999938964844 -142.89999389648438,170.69000244140625 -141.8000030517578,170.7899932861328" style="fill:none;stroke:#000000;stroke-width:0.46837553982254415"></polyline>
</g>
<g id="Apical dendrite.1.2.2.2">
<polyline points="-30.479999542236328,65.01000213623047 -29.969999313354492,65.06999969482422 -29.329999923706055,65.9800033569336 -29.049999237060547,67.05999755859375 -28.860000610351562,68.16999816894531 -28.850000381469727,69.29000091552734 -29.059999465942383,70.38999938964844 -29.1299991607666,71.51000213623047 -28.979999542236328,72.63999938964844 -28.649999618530273,73.75 -28.020000457763672,74.73999786376953 -27.489999771118164,75.77999877929688 -26.969999313354492,76.80999755859375 -26.479999542236328,77.83000183105469 -26.229999542236328,78.9000015258789 -25.979999542236328,79.95999908447266 -25.549999237060547,80.94000244140625 -24.809999465942383,81.7699966430664 -24.170000076293945,82.66000366210938 -23.969999313354492,83.80000305175781 -23.799999237060547,84.94000244140625 -23.6299991607666,86.0999984741211 -23.459999084472656,87.2300033569336 -23.270000457763672,88.33000183105469 -23.06999969482422,89.41000366210938 -22.860000610351562,90.45999908447266 -22.59000015258789,91.5 -22.1200008392334,92.45999908447266 -21.43000030517578,93.31999969482422 -21,94.29000091552734 -21.139999389648438,95.36000061035156 -21.350000381469727,96.44999694824219 -21,97.45999908447266 -20.219999313354492,98.26000213623047 -19.3700008392334,99.02999877929688 -18.639999389648438,99.88999938964844 -18.149999618530273,100.88999938964844 -17.770000457763672,101.98999786376953 -17.5,103.08999633789062 -17.420000076293945,104.19000244140625 -17.200000762939453,105.38999938964844 -16.59000015258789,106.29000091552734 -15.770000457763672,107.08999633789062 -14.960000038146973,107.88999938964844 -14.350000381469727,108.88999938964844 -14.010000228881836,109.88999938964844 -13.65999984741211,110.98999786376953 -13.039999961853027,111.98999786376953 -12.270000457763672,112.79000091552734 -11.649999618530273,113.69000244140625 -11.170000076293945,114.79000091552734 -10.720000267028809,115.79000091552734 -10.210000038146973,116.79000091552734 -9.649999618530273,117.79000091552734 -9.119999885559082,118.79000091552734 -8.65999984741211,119.79000091552734 -8.229999542236328,120.88999938964844 -7.730000019073486,121.88999938964844 -7.019999980926514,122.79000091552734 -6.159999847412109,123.48999786376953 -5.289999961853027,124.29000091552734 -4.429999828338623,124.98999786376953 -3.4600000381469727,125.58999633789062 -2.380000114440918,125.98999786376953 -1.3899999856948853,126.48999786376953 -0.5299999713897705,127.29000091552734 0.33000001311302185,127.98999786376953 0.9700000286102295,129 1.2100000381469727,130.1999969482422 1.3799999952316284,131.3000030517578 1.5800000429153442,132.5 2,133.60000610351562 2.509999990463257,134.6999969482422 3.130000114440918,135.6999969482422 3.8399999141693115,136.60000610351562 4.610000133514404,137.5 5.300000190734863,138.39999389648438 5.920000076293945,139.39999389648438 6.539999961853027,140.39999389648438 6.670000076293945,141.5 5.809999942779541,142.3000030517578 4.980000019073486,143.1999969482422 4.909999847412109,144.3000030517578 5.53000020980835,145.1999969482422 6.340000152587891,146.10000610351562 7.010000228881836,147 7.369999885559082,148.10000610351562 7.46999979019165,149.3000030517578 7.460000038146973,150.39999389648438 7.46999979019165,151.60000610351562 7.559999942779541,152.8000030517578 7.539999961853027,153.89999389648438 7.239999771118164,155 6.929999828338623,156.10000610351562 6.829999923706055,157.3000030517578 6.619999885559082,158.39999389648438 6.440000057220459,159.5 6.599999904632568,160.6999969482422 6.940000057220459,161.8000030517578 7.21999979019165,162.89999389648438 7.400000095367432,164 7.400000095367432,165.1999969482422 7.010000228881836,166.3000030517578 6.230000019073486,167.1999969482422 5.369999885559082,168 4.699999809265137,169 4.519999980926514,170.1999969482422 4.619999885559082,171.39999389648438 4.730000019073486,172.5 4.730000019073486,173.6999969482422 4.900000095367432,174.8000030517578 5.400000095367432,175.8000030517578 5.809999942779541,176.89999389648438 5.710000038146973,178 5.349999904632568,179.10000610351562 5.21999979019165,180.1999969482422 5.239999771118164,181.3000030517578 4.760000228881836,182.3000030517578 4.489999771118164,183.39999389648438 4.960000038146973,184.5 5.300000190734863,185.60000610351562 5.320000171661377,186.6999969482422 5.21999979019165,187.8000030517578 5.159999847412109,188.89999389648438 5.239999771118164,190.10000610351562 5.369999885559082,191.1999969482422 5.420000076293945,192.3000030517578 5.489999771118164,193.3000030517578 5.860000133514404,194.3000030517578 6.300000190734863,195.3000030517578 6.199999809265137,196.39999389648438 5.920000076293945,197.39999389648438 6.110000133514404,198.5 6.769999980926514,199.39999389648438 7.539999961853027,200.3000030517578 8.020000457763672,201.3000030517578 8.09000015258789,202.5 7.849999904632568,203.60000610351562 7.739999771118164,204.8000030517578 7.639999866485596,205.89999389648438 7.21999979019165,207 6.940000057220459,208.10000610351562 6.849999904632568,209.1999969482422 6.460000038146973,210.1999969482422 5.920000076293945,211.10000610351562 5.329999923706055,211.89999389648438 4.75,212.6999969482422 4.260000228881836,213.5 4.010000228881836,214.3000030517578" style="fill:none;stroke:#000000;stroke-width:0.516593241711726"></polyline>
</g>
<g id="Apical dendrite.2">
<polyline points="-14.329999923706055,31.5 -13.8100004196167,32.59000015258789 -13.079999923706055,33.5 -12.130000114440918,34.06999969482422 -11.039999961853027,34.2400016784668 -9.960000038146973,34.22999954223633 -8.899999618530273,34.220001220703125 -7.829999923706055,34.439998626708984 -6.840000152587891,34.97999954223633 -5.920000076293945,35.66999816894531 -5.059999942779541,36.41999816894531 -4.28000020980835,37.2400016784668 -3.5999999046325684,38.13999938964844 -2.809999942779541,38.93000030517578 -1.9500000476837158,39.66999816894531 -1.1699999570846558,40.5 -0.36000001430511475,41.29999923706055 0.5199999809265137,42.029998779296875 1.5199999809265137,42.58000183105469 2.619999885559082,42.70000076293945 3.7100000381469727,42.63999938964844 4.789999961853027,42.58000183105469 5.900000095367432,42.709999084472656 6.789999961853027,43.400001525878906 7.210000038146973,44.5099983215332 7.78000020980835,45.47999954223633 8.760000228881836,46.060001373291016 9.529999732971191,46.86000061035156 9.869999885559082,47.970001220703125 10.039999961853027,49.130001068115234 10.210000038146973,50.279998779296875 10.390000343322754,51.43000030517578 10.619999885559082,52.56999969482422 10.949999809265137,53.689998626708984 11.399999618530273,54.7599983215332 12.069999694824219,55.689998626708984 12.90999984741211,56.4900016784668 13.720000267028809,57.310001373291016 14.630000114440918,57.97999954223633 15.65999984741211,58.470001220703125 16.739999771118164,58.79999923706055 17.799999237060547,59.2599983215332 18.690000534057617,59.959999084472656 19.40999984741211,60.84000015258789 20.09000015258789,61.75 20.920000076293945,62.54999923706055 21.860000610351562,63.189998626708984 22.920000076293945,63.59000015258789 24.040000915527344,63.709999084472656 25.18000030517578,63.7400016784668 26.31999969482422,63.77000045776367 27.450000762939453,63.79999923706055 28.56999969482422,63.97999954223633 29.6299991607666,64.4000015258789 30.59000015258789,65.0199966430664 31.440000534057617,65.79000091552734 32.060001373291016,66.76000213623047 32.5,67.81999969482422 32.84000015258789,68.93000030517578 33.16999816894531,70.02999877929688 33.709999084472656,71.04000091552734 34.5099983215332,71.86000061035156 35.5099983215332,72.38999938964844 36.599998474121094,72.68000030517578 37.70000076293945,72.9000015258789 38.779998779296875,73.19000244140625 39.7599983215332,73.76000213623047 40.61000061035156,74.52999877929688 41.2599983215332,75.5 41.720001220703125,76.56999969482422 42.380001068115234,77.54000091552734 43.189998626708984,78.3499984741211 44,79.19000244140625 44.9900016784668,79.7300033569336 46,79.63999938964844 45.959999084472656,78.68000030517578 46.22999954223633,77.88999938964844 47.06999969482422,78.51000213623047 47.560001373291016,79.58000183105469 47.91999816894531,80.70999908447266 48.2400016784668,81.81999969482422 48.58000183105469,82.93000030517578 49.220001220703125,83.83000183105469 50.209999084472656,84.37999725341797 51.20000076293945,84.9000015258789 52.189998626708984,85.20999908447266 53.20000076293945,85.1500015258789 54.22999954223633,85.12000274658203 55.27000045776367,85.37999725341797 56.060001373291016,86.1500015258789 56.41999816894531,87.2699966430664 56.72999954223633,88.41999816894531 57.59000015258789,88.97000122070312 58.599998474121094,88.80999755859375 59.630001068115234,88.58000183105469 60.689998626708984,88.44999694824219 61.77000045776367,88.38999938964844 62.810001373291016,88.77999877929688 63.529998779296875,89.66000366210938 64.54000091552734,90.12000274658203 65.63999938964844,90.41000366210938 66.75,90.37999725341797 67.6500015258789,89.76000213623047 68.72000122070312,89.54000091552734 69.8499984741211,89.62000274658203 70.94999694824219,89.8499984741211 72.01000213623047,90.26000213623047 73.06999969482422,90.63999938964844 74.08000183105469,90.23999786376953 74.76000213623047,89.43000030517578 75.81999969482422,89.19999694824219 76.94000244140625,89.16000366210938 78.05000305175781,89.30999755859375 79.1500015258789,89.5999984741211 80.25,89.88999938964844 81.30000305175781,90.33999633789062 82.37999725341797,90.70999908447266 83.4800033569336,90.9800033569336 84.5999984741211,91.16999816894531 85.68000030517578,91.37999725341797 86.62000274658203,92.05000305175781 87.5999984741211,92.47000122070312 88.62999725341797,92.22000122070312 89.55000305175781,91.66999816894531 90.56999969482422,91.27999877929688 91.68000030517578,91.23999786376953 92.7300033569336,91.62999725341797 93.69999694824219,92.23999786376953 94.66000366210938,92.87999725341797 95.54000091552734,93.5999984741211 96.30999755859375,94.45999908447266 97.12000274658203,95.26000213623047 98.01000213623047,95.97000122070312 98.88999938964844,96.69000244140625 99.9000015258789,97.13999938964844 100.88999938964844,96.7300033569336 101.98999786376953,96.4000015258789 103.08999633789062,96.69000244140625 104.08999633789062,97.12000274658203 105.19000244140625,97.41000366210938 106.38999938964844,97.58999633789062 107.48999786376953,97.58999633789062 108.69000244140625,97.69999694824219 109.29000091552734,98.48999786376953 109.79000091552734,99.5199966430664 110.69000244140625,100.19999694824219 111.79000091552734,100.5 112.88999938964844,100.5999984741211 114.08999633789062,100.5999984741211 115.19000244140625,100.4000015258789 116.29000091552734,100.19999694824219 117.48999786376953,100.4000015258789 118.48999786376953,101 119.48999786376953,101.30000305175781 120.69000244140625,101.5 121.79000091552734,101.5 122.88999938964844,101.69999694824219 123.98999786376953,101.80000305175781 125.08999633789062,102 126.19000244140625,102.4000015258789 127.29000091552734,102.9000015258789 128.19000244140625,103.5 129.19000244140625,103.9000015258789 130.2899932861328,103.5 131.2899932861328,103.19999694824219 132.38999938964844,103.5 133.38999938964844,103.9000015258789 134.38999938964844,104.5 135.2899932861328,105.0999984741211 136.2899932861328,105.69999694824219 136.88999938964844,106.69999694824219 137.58999633789062,107.69999694824219 138.38999938964844,108.5 139.2899932861328,109.19999694824219 140.19000244140625,109.80000305175781 141.19000244140625,110.0999984741211 142.08999633789062,109.80000305175781 142.99000549316406,109.4000015258789 143.99000549316406,109.4000015258789 145.08999633789062,109.5999984741211 146.19000244140625,109.5999984741211 147.2899932861328,109.4000015258789 148.2899932861328,109 149.38999938964844,109.0999984741211 150.49000549316406,109.0999984741211 151.49000549316406,108.5999984741211 152.69000244140625,108.19999694824219" style="fill:none;stroke:#000000;stroke-width:0.46902903281552816"></polyline>
</g>
<g id="(basal) Dendrite #1">
<polyline points="0,0 4.139999866485596,-0.3700000047683716 5.239999771118164,-0.07999999821186066 6.289999961853027,0.33000001311302185 7.349999904632568,0.75 8.460000038146973,0.8600000143051147 9.520000457763672,0.46000000834465027 10.4399995803833,-0.20999999344348907 11.1899995803833,-1.090000033378601 11.6899995803833,-2.1600000858306885 12.260000228881836,-3.2100000381469727 13.229999542236328,-3.430000066757202 14.300000190734863,-3.109999895095825 15.4399995803833,-3.2799999713897705 16.489999771118164,-3.8399999141693115 17.520000457763672,-4.440000057220459 18.549999237060547,-5.010000228881836 19.65999984741211,-5.420000076293945 20.780000686645508,-5.809999942779541 21.579999923706055,-6.659999847412109 22.290000915527344,-7.659999847412109 22.959999084472656,-8.6899995803833 23.6299991607666,-9.729999542236328 24.459999084472656,-10.630000114440918" style="fill:none;stroke:#000000;stroke-width:0.7066434738428696"></polyline>
</g>
<g id="(basal) Dendrite #1.1">
<polyline points="24.459999084472656,-10.630000114440918 25.260000228881836,-10.970000267028809 26.290000915527344,-10.880000114440918 27.309999465942383,-10.550000190734863 27.389999389648438,-10.15999984741211 27.040000915527344,-11.1899995803833 27.260000228881836,-12.380000114440918 27.739999771118164,-13.5 28.399999618530273,-14.460000038146973 28.739999771118164,-15.630000114440918 29.8700008392334,-15.960000038146973 30.649999618530273,-16.579999923706055 29.829999923706055,-17.200000762939453 28.790000915527344,-17.030000686645508 27.719999313354492,-16.850000381469727 26.600000381469727,-16.8799991607666 25.469999313354492,-16.8700008392334 24.899999618530273,-15.850000381469727" style="fill:none;stroke:#000000;stroke-width:0.5413647109971327"></polyline>
</g>
<g id="(basal) Dendrite #1.2">
<polyline points="24.459999084472656,-10.630000114440918 25.260000228881836,-10.979999542236328 26.40999984741211,-10.84000015258789 27.5,-10.470000267028809 28.600000381469727,-10.329999923706055 29.510000228881836,-10.800000190734863 30.440000534057617,-11.3100004196167 31.40999984741211,-11.770000457763672 32.459999084472656,-12.140000343322754 33.540000915527344,-12.470000267028809 34.650001525878906,-12.8100004196167 35.72999954223633,-13.220000267028809 36.72999954223633,-13.800000190734863 37.689998626708984,-14.4399995803833 38.790000915527344,-14.770000457763672 39.72999954223633,-14.59000015258789 40.25,-13.649999618530273 41.06999969482422,-12.970000267028809 42.189998626708984,-12.84000015258789 43.34000015258789,-13.029999732971191 44.470001220703125,-13.289999961853027 45.619998931884766,-13.550000190734863 46.779998779296875,-13.729999542236328 47.939998626708984,-13.819999694824219 49.09000015258789,-14.069999694824219 50.22999954223633,-14.390000343322754 51.369998931884766,-14.399999618530273 52.5,-14.239999771118164 53.650001525878906,-14.260000228881836 54.810001373291016,-14.229999542236328 55.959999084472656,-14.220000267028809 56.959999084472656,-14.729999542236328 57.939998626708984,-15.350000381469727 59.040000915527344,-15.710000038146973 60.18000030517578,-15.880000114440918 61.33000183105469,-15.989999771118164 62.45000076293945,-16.229999542236328 63.439998626708984,-16.809999465942383 64.30999755859375,-17.559999465942383 65.36000061035156,-18.030000686645508 66.51000213623047,-18.190000534057617 67.4800033569336,-18.790000915527344 68.51000213623047,-19.31999969482422 69.63999938964844,-19.549999237060547 70.76000213623047,-19.829999923706055 71.79000091552734,-20.309999465942383 72.87000274658203,-20.670000076293945 73.9800033569336,-20.8700008392334 75.12999725341797,-20.989999771118164 76.26000213623047,-20.889999389648438 77.4000015258789,-20.809999465942383 78.5,-21.1299991607666 79.54000091552734,-21.6200008392334 80.55999755859375,-22.209999084472656 81.6500015258789,-22.6299991607666 82.72000122070312,-23.100000381469727 83.80999755859375,-23.510000228881836 84.9800033569336,-23.6299991607666 85.80999755859375,-24.56999969482422" style="fill:none;stroke:#000000;stroke-width:0.6330689654268068"></polyline>
</g>
<g id="(basal) Dendrite #2">
<polyline points="0,0 -3.4600000381469727,-2.990000009536743 -4.489999771118164,-3.4700000286102295 -5.599999904632568,-3.549999952316284 -6.679999828338623,-3.2899999618530273 -7.730000019073486,-2.930000066757202 -8.800000190734863,-2.5899999141693115 -9.90999984741211,-2.5899999141693115 -10.949999809265137,-3.0399999618530273 -11.850000381469727,-3.759999990463257 -12.710000038146973,-4.519999980926514 -13.5600004196167,-5.300000190734863 -14.380000114440918,-6.139999866485596 -15.319999694824219,-6.78000020980835 -16.399999618530273,-7.150000095367432 -17.520000457763672,-7.269999980926514 -18.649999618530273,-7.300000190734863 -19.3700008392334,-8.180000305175781" style="fill:none;stroke:#000000;stroke-width:0.785517650492051"></polyline>
</g>
<g id="(basal) Dendrite #2.1">
<polyline points="-19.3700008392334,-8.180000305175781 -19.43000030517578,-9.170000076293945 -19.799999237060547,-10.220000267028809 -20.729999542236328,-10.800000190734863 -21.760000228881836,-11.15999984741211 -22.799999237060547,-11.479999542236328 -23.860000610351562,-11.729999542236328 -24.93000030517578,-11.960000038146973 -25.969999313354492,-12.359999656677246 -26.889999389648438,-13.039999961853027 -27.59000015258789,-13.930000305175781 -28.110000610351562,-14.979999542236328 -28.75,-15.920000076293945 -29.639999389648438,-16.649999618530273 -30.56999969482422,-17.31999969482422 -31.579999923706055,-17.799999237060547 -32.65999984741211,-17.81999969482422 -33.72999954223633,-17.639999389648438 -34.81999969482422,-17.649999618530273 -35.810001373291016,-18.139999389648438 -36.77000045776367,-18.719999313354492 -37.83000183105469,-19 -38.869998931884766,-19.3799991607666 -39.7599983215332,-20.079999923706055 -40.41999816894531,-21.049999237060547 -41.119998931884766,-21.969999313354492 -42.099998474121094,-22.5 -43.16999816894531,-22.690000534057617 -44.2400016784668,-22.950000762939453 -45.31999969482422,-23.139999389648438 -46.34000015258789,-23.610000610351562 -47.08000183105469,-24.510000228881836 -47.560001373291016,-25.579999923706055 -48.119998931884766,-26.610000610351562 -49.189998626708984,-26.8700008392334 -50.279998779296875,-27.010000228881836 -51.27000045776367,-27.56999969482422 -52.08000183105469,-28.399999618530273 -52.43000030517578,-29.530000686645508 -52.75,-30.700000762939453" style="fill:none;stroke:#000000;stroke-width:0.484733331661958"></polyline>
</g>
<g id="(basal) Dendrite #2.2">
<polyline points="-19.3700008392334,-8.180000305175781 -18.790000915527344,-9.149999618530273 -19.3700008392334,-10.140000343322754 -20.219999313354492,-10.930000305175781 -21.170000076293945,-11.569999694824219 -22.209999084472656,-12.039999961853027 -23.260000228881836,-12.510000228881836 -24.290000915527344,-12.989999771118164 -25.329999923706055,-13.470000267028809 -26.360000610351562,-13.960000038146973 -27.170000076293945,-14.760000228881836 -27.760000228881836,-15.729999542236328 -28.559999465942383,-16.549999237060547 -29.3700008392334,-17.34000015258789 -29.969999313354492,-18.309999465942383 -30.559999465942383,-19.290000915527344 -31.299999237060547,-20.149999618530273" style="fill:none;stroke:#000000;stroke-width:1.0042999982833862"></polyline>
</g>
<g id="(basal) Dendrite #2.2.1">
<polyline points="-31.299999237060547,-20.149999618530273 -32.52000045776367,-20.950000762939453 -33.08000183105469,-21.93000030517578 -33.31999969482422,-23.049999237060547 -33.900001525878906,-24.020000457763672 -34.84000015258789,-24.65999984741211 -35.779998779296875,-24.399999618530273 -36.54999923706055,-23.829999923706055 -37.56999969482422,-24.040000915527344 -38.36000061035156,-24.8799991607666 -39.029998779296875,-25.84000015258789 -39.869998931884766,-26.579999923706055 -40.95000076293945,-26.889999389648438 -42.060001373291016,-27.079999923706055 -43.150001525878906,-27.399999618530273 -44.22999954223633,-27.799999237060547 -45.220001220703125,-28.329999923706055 -46.09000015258789,-29.049999237060547 -46.7400016784668,-29.950000762939453 -47.2599983215332,-30.90999984741211 -47.849998474121094,-31.84000015258789 -48.599998474121094,-32.630001068115234 -49.619998931884766,-33.06999969482422 -50.709999084472656,-33.40999984741211 -51.720001220703125,-33.91999816894531 -52.630001068115234,-34.58000183105469 -53.41999816894531,-35.369998931884766 -54.11000061035156,-36.25 -54.689998626708984,-37.209999084472656 -55.099998474121094,-38.25 -55.68000030517578,-39.20000076293945 -56.68000030517578,-39.369998931884766 -57.65999984741211,-38.91999816894531 -58.709999084472656,-38.52000045776367 -59.83000183105469,-38.599998474121094 -60.810001373291016,-39.16999816894531 -61.650001525878906,-39.900001525878906 -62.650001525878906,-40.43000030517578 -63.7599983215332,-40.75 -64.81999969482422,-41.16999816894531 -65.93000030517578,-41.439998626708984 -66.54000091552734,-42.349998474121094 -66.76000213623047,-43.45000076293945 -66.98999786376953,-44.560001373291016 -67.33999633789062,-45.630001068115234 -67.83000183105469,-46.65999984741211 -68.30000305175781,-47.66999816894531 -68.98999786376953,-48.54999923706055 -70,-49.06999969482422 -71.12999725341797,-49.279998779296875 -72.25,-49.5099983215332 -73.2699966430664,-50 -73.91000366210938,-50.790000915527344 -73.44000244140625,-51.560001373291016 -72.61000061035156,-52.13999938964844 -72.2699966430664,-52.9900016784668 -72.81999969482422,-53.84000015258789 -73.80999755859375,-54.38999938964844 -74.7699966430664,-54.97999954223633 -75.5,-55.83000183105469 -76.02999877929688,-56.81999969482422 -76.44999694824219,-57.849998474121094 -76.9000015258789,-58.869998931884766 -77.4800033569336,-59.810001373291016 -78.0999984741211,-60.72999954223633 -78.79000091552734,-61.560001373291016 -79.83000183105469,-61.79999923706055 -80.98999786376953,-61.68000030517578 -82.11000061035156,-61.849998474121094 -83.05000305175781,-62.439998626708984 -83.7699966430664,-63.290000915527344 -84.30999755859375,-64.2699966430664 -84.7699966430664,-65.29000091552734 -85.04000091552734,-66.37000274658203 -85.33999633789062,-67.4800033569336 -86.30999755859375,-68.01000213623047 -87.43000030517578,-68.2300033569336 -88.20999908447266,-69.04000091552734 -88.48999786376953,-70.12000274658203 -88.87999725341797,-71.16999816894531 -89.41999816894531,-72.16000366210938 -90.19000244140625,-73.01000213623047 -90.94999694824219,-73.86000061035156 -91.4000015258789,-74.88999938964844 -91.66999816894531,-75.9800033569336 -91.76000213623047,-77.08999633789062 -92.08999633789062,-78.1500015258789 -92.62000274658203,-79.08999633789062 -93.5999984741211,-79.63999938964844 -94.7300033569336,-79.86000061035156 -95.77999877929688,-80.19000244140625 -96.08999633789062,-81.2300033569336 -95.9000015258789,-82.30000305175781 -95.80999755859375,-83.4000015258789 -95.86000061035156,-84.5 -95.8499984741211,-85.61000061035156 -95.79000091552734,-86.70999908447266 -96,-87.77999877929688 -96.61000061035156,-88.70999908447266 -97.54000091552734,-89.36000061035156 -98.58999633789062,-89.80999755859375 -99.55000305175781,-90.37999725341797 -100.29000091552734,-91.22000122070312 -100.88999938964844,-92.16999816894531 -101.29000091552734,-93.19999694824219 -101.69000244140625,-94.27999877929688 -102.08999633789062,-95.33999633789062 -102.79000091552734,-96.30999755859375 -103.58999633789062,-97.06999969482422 -104.58999633789062,-97.69000244140625 -105.08999633789062,-98.5199966430664 -105.38999938964844,-99.5199966430664 -105.79000091552734,-100.5 -106.19000244140625,-101.5 -106.79000091552734,-102.4000015258789 -107.58999633789062,-103.19999694824219 -108.48999786376953,-103.80000305175781 -109.48999786376953,-104.30000305175781 -110.29000091552734,-105.0999984741211 -110.58999633789062,-106.0999984741211 -110.88999938964844,-107.19999694824219 -111.48999786376953,-108.0999984741211 -112.29000091552734,-108.9000015258789 -113.19000244140625,-109.69999694824219 -114.08999633789062,-110.4000015258789 -115.19000244140625,-110.5 -116.29000091552734,-110.30000305175781 -117.38999938964844,-110.30000305175781 -118.38999938964844,-110.9000015258789 -119.19000244140625,-111.69999694824219 -119.98999786376953,-112.5 -121.08999633789062,-112.9000015258789 -122.19000244140625,-113.19999694824219 -123.08999633789062,-113.9000015258789 -123.48999786376953,-114.9000015258789 -123.69000244140625,-116.0999984741211 -123.79000091552734,-117.19999694824219 -123.98999786376953,-118.30000305175781 -124.29000091552734,-119.4000015258789 -124.38999938964844,-120.5 -124.19000244140625,-121.5999984741211 -123.38999938964844,-122.5 -122.69000244140625,-123.19999694824219 -123.08999633789062,-124.19999694824219 -124.08999633789062,-124.80000305175781 -124.98999786376953,-125.30000305175781 -125.48999786376953,-126.30000305175781 -125.48999786376953,-127.5 -125.69000244140625,-128.6999969482422 -126.48999786376953,-129.39999389648438 -126.08999633789062,-130.3000030517578 -125.08999633789062,-131 -124.48999786376953,-132.10000610351562 -124.38999938964844,-133.3000030517578 -124.38999938964844,-134.39999389648438 -124.48999786376953,-135.60000610351562 -125.38999938964844,-136.3000030517578 -125.79000091552734,-137.1999969482422 -125.58999633789062,-138.39999389648438 -125.58999633789062,-139.60000610351562 -126.08999633789062,-140.60000610351562 -126.48999786376953,-141.6999969482422 -126.38999938964844,-142.8000030517578 -126.29000091552734,-144 -126.48999786376953,-145.10000610351562 -127.08999633789062,-146.10000610351562 -127.69000244140625,-147.10000610351562 -127.98999786376953,-148.1999969482422 -127.79000091552734,-149.3000030517578 -127.48999786376953,-150.3000030517578 -127.29000091552734,-151.5 -127.08999633789062,-152.60000610351562 -127.19000244140625,-153.8000030517578 -127.38999938964844,-154.89999389648438 -127.79000091552734,-156.10000610351562 -128.38999938964844,-157 -128.99000549316406,-158 -128.69000244140625,-159.10000610351562 -128.7899932861328,-160.3000030517578 -129.08999633789062,-161.39999389648438 -129.08999633789062,-162.5 -128.88999938964844,-163.60000610351562 -129.58999633789062,-164.5 -129.7899932861328,-165.60000610351562 -130.08999633789062,-166.6999969482422 -130.19000244140625,-167.8000030517578" style="fill:none;stroke:#000000;stroke-width:0.5640118919514321"></polyline>
</g>
<g id="(basal) Dendrite #2.2.2">
<polyline points="-31.299999237060547,-20.149999618530273 -31.100000381469727,-20.43000030517578 -30.760000228881836,-21.260000228881836 -30.649999618530273,-22.290000915527344 -30.8700008392334,-23.350000381469727 -31.350000381469727,-24.3700008392334 -31.969999313354492,-25.329999923706055 -32.72999954223633,-26.170000076293945 -33.779998779296875,-26.489999771118164 -34.93000030517578,-26.450000762939453 -35.7599983215332,-27.15999984741211 -36.040000915527344,-28.219999313354492 -36.33000183105469,-29.280000686645508 -36.84000015258789,-30.270000457763672 -37.619998931884766,-31.079999923706055 -38.36000061035156,-31.93000030517578 -38.38999938964844,-33.02000045776367 -37.90999984741211,-34.0099983215332 -37.5099983215332,-35.029998779296875 -37.400001525878906,-36.130001068115234 -37.470001220703125,-37.2599983215332 -37.68000030517578,-38.369998931884766 -38.130001068115234,-39.40999984741211 -38.869998931884766,-40.27000045776367 -39.81999969482422,-40.90999984741211 -40.779998779296875,-41.540000915527344 -41.470001220703125,-42.40999984741211 -41.4900016784668,-43.54999923706055 -41.349998474121094,-44.68000030517578 -41.68000030517578,-45.7400016784668 -42.40999984741211,-46.619998931884766 -43.15999984741211,-47.439998626708984 -43.650001525878906,-48.47999954223633 -44.29999923706055,-49.349998474121094 -45.34000015258789,-49.7599983215332 -46.36000061035156,-50.189998626708984 -47.060001373291016,-51.08000183105469 -47.31999969482422,-52.209999084472656 -47.22999954223633,-53.38999938964844 -47.41999816894531,-54.5 -48.119998931884766,-55.369998931884766 -48.959999084472656,-56.13999938964844 -49.689998626708984,-56.97999954223633 -50.119998931884766,-57.9900016784668 -50.20000076293945,-59.060001373291016 -49.97999954223633,-60.13999938964844 -49.9900016784668,-61.22999954223633 -50.52000045776367,-62.20000076293945 -51.40999984741211,-62.880001068115234 -52.400001525878906,-63.45000076293945 -53.400001525878906,-64.0199966430664 -54.349998474121094,-64.6500015258789 -55.36000061035156,-65.18000030517578 -56.310001373291016,-65.80999755859375 -56.5,-66.87999725341797 -56.25,-67.98999786376953 -56.29999923706055,-69.12999725341797 -56.880001068115234,-70.11000061035156 -57.810001373291016,-70.7699966430664 -58.810001373291016,-71.27999877929688 -59.66999816894531,-72.05999755859375 -60.400001525878906,-72.97000122070312 -61.119998931884766,-73.88999938964844 -61.689998626708984,-74.88999938964844 -62.09000015258789,-75.97000122070312 -62.529998779296875,-77.02999877929688 -62.709999084472656,-78.1500015258789 -62.5099983215332,-79.30000305175781 -62.47999954223633,-80.47000122070312 -62.720001220703125,-81.61000061035156 -63.040000915527344,-82.72000122070312 -63.7400016784668,-83.5199966430664 -64.87000274658203,-83.52999877929688 -66,-83.44000244140625 -66.87000274658203,-83.97000122070312 -67.11000061035156,-85.02999877929688 -67.13999938964844,-86.13999938964844 -67.27999877929688,-87.27999877929688 -67.6500015258789,-88.37000274658203 -68.18000030517578,-89.37000274658203 -68.83999633789062,-90.30999755859375 -69.51000213623047,-91.2300033569336 -70.12000274658203,-92.16000366210938 -70.79000091552734,-93.05000305175781 -71.37999725341797,-93.9800033569336 -72.04000091552734,-94.87999725341797 -72.97000122070312,-95.54000091552734 -73.76000213623047,-96.31999969482422 -74.27999877929688,-97.33000183105469 -74.81999969482422,-98.30000305175781 -75.69000244140625,-99 -76.73999786376953,-99.44000244140625 -77.58000183105469,-100.19999694824219 -78.11000061035156,-101.0999984741211 -78.91999816894531,-101.9000015258789 -79.93000030517578,-102.4000015258789 -80.63999938964844,-103.30000305175781 -81.05000305175781,-104.30000305175781 -81.7699966430664,-105.19999694824219 -82.80999755859375,-105.5999984741211 -83.37000274658203,-106.5 -83.33999633789062,-107.5999984741211 -83.12000274658203,-108.69999694824219 -83.2699966430664,-109.80000305175781 -83.77999877929688,-110.80000305175781 -84.20999908447266,-111.9000015258789 -84.30999755859375,-113 -84.16000366210938,-114.0999984741211 -83.94000244140625,-115.19999694824219 -83.9000015258789,-116.30000305175781 -83.94999694824219,-117.4000015258789 -83.83000183105469,-118.4000015258789 -83.52999877929688,-119.5 -83.12999725341797,-120.5 -82.69000244140625,-121.5 -82.55000305175781,-122.5 -83.01000213623047,-123.5 -83.7300033569336,-124.30000305175781 -84.51000213623047,-125.0999984741211 -85.22000122070312,-126 -85.58999633789062,-127 -85.80999755859375,-128.10000610351562 -86.27999877929688,-129.10000610351562 -86.94000244140625,-130 -87.44999694824219,-131 -87.73999786376953,-132.10000610351562 -87.54000091552734,-133.10000610351562 -86.88999938964844,-134 -86.44000244140625,-135 -86.6500015258789,-136 -87.13999938964844,-137.10000610351562 -87.27999877929688,-138.1999969482422 -87.27999877929688,-139.39999389648438 -86.9000015258789,-140.5 -86.47000122070312,-141.60000610351562 -85.94999694824219,-142.60000610351562 -85.52999877929688,-143.8000030517578 -84.97000122070312,-144.8000030517578 -84.62000274658203,-145.89999389648438 -84.05999755859375,-146.89999389648438 -83.7699966430664,-148.10000610351562 -83.83000183105469,-149.1999969482422 -83.83000183105469,-150.3000030517578 -83.87999725341797,-151.39999389648438 -84.20999908447266,-152.39999389648438 -84.4800033569336,-153.39999389648438 -84.69999694824219,-154.39999389648438 -84.91999816894531,-155.39999389648438 -85.19999694824219,-156.5 -85.75,-157.5 -86.13999938964844,-158.5 -86.02999877929688,-159.60000610351562 -86.30000305175781,-160.6999969482422 -86.7699966430664,-161.6999969482422 -86.88999938964844,-162.8000030517578 -86.94000244140625,-163.89999389648438 -87.16999816894531,-165 -87.23999786376953,-166.10000610351562 -87.37000274658203,-167.1999969482422 -87.88999938964844,-168.1999969482422 -88.29000091552734,-169.1999969482422 -88.33999633789062,-170.39999389648438 -88.12999725341797,-171.5 -87.75,-172.5 -87.5999984741211,-173.60000610351562 -87.94000244140625,-174.60000610351562 -88.45999908447266,-175.60000610351562 -88.7699966430664,-176.6999969482422 -88.72000122070312,-177.8000030517578 -88.62000274658203,-178.89999389648438 -88.69000244140625,-180.10000610351562 -88.77999877929688,-181.1999969482422 -88.87000274658203,-182.3000030517578 -89.41000366210938,-183.1999969482422 -90.3499984741211,-183.89999389648438 -91.30000305175781,-184.5 -92.11000061035156,-185.3000030517578 -92.7699966430664,-186.3000030517578 -93.37999725341797,-187.1999969482422 -93.9000015258789,-188.3000030517578 -94.16000366210938,-189.39999389648438 -94.08000183105469,-190.5 -94.8499984741211,-191.1999969482422 -95.54000091552734,-192.10000610351562" style="fill:none;stroke:#000000;stroke-width:0.5736721324138954"></polyline>
</g>
<g id="(basal) Dendrite #3">
<polyline points="0,0 -1.8799999952316284,-3.799999952316284 -2.5399999618530273,-4.75 -3.2799999713897705,-5.650000095367432 -4.159999847412109,-6.050000190734863 -4.949999809265137,-6.75 -5.800000190734863,-7.510000228881836 -5.670000076293945,-8.699999809265137 -5.340000152587891,-9.90999984741211 -5.010000228881836,-11.09000015258789 -4.46999979019165,-12.130000114440918 -3.4100000858306885,-12.640000343322754 -2.380000114440918,-13.109999656677246 -1.840000033378601,-13.920000076293945 -2.619999885559082,-14.739999771118164 -2.880000114440918,-15.800000190734863 -2.809999942779541,-17.010000228881836 -2.619999885559082,-18.200000762939453 -2.809999942779541,-19.280000686645508 -3.569999933242798,-20.110000610351562 -4.050000190734863,-21.15999984741211 -4.46999979019165,-22.229999542236328 -4.78000020980835,-23.350000381469727 -4.900000095367432,-24.549999237060547 -4.5,-25.600000381469727 -3.759999990463257,-26.56999969482422 -3.4000000953674316,-27.719999313354492 -3.6600000858306885,-28.899999618530273" style="fill:none;stroke:#000000;stroke-width:0.5639925930235121"></polyline>
</g>
<g id="(basal) Dendrite #3.1">
<polyline points="-3.6600000858306885,-28.899999618530273 -3.7799999713897705,-29.360000610351562 -4.590000152587891,-29.260000228881836 -5.610000133514404,-29.260000228881836 -6.539999961853027,-29.84000015258789" style="fill:none;stroke:#000000;stroke-width:0.4135499969124794"></polyline>
</g>
<g id="(basal) Dendrite #3.2">
<polyline points="-3.6600000858306885,-28.899999618530273 -3.940000057220459,-29.260000228881836 -4.880000114440918,-29.920000076293945 -5.889999866485596,-30.450000762939453 -6.960000038146973,-30.8700008392334 -8.029999732971191,-31.260000228881836" style="fill:none;stroke:#000000;stroke-width:0.558240008354187"></polyline>
</g>
<g id="(basal) Dendrite #4">
<polyline points="0,0 -0.3199999928474426,-1.3899999856948853 -0.1599999964237213,-1.9600000381469727 -0.07999999821186066,-2.7699999809265137 -0.20999999344348907,-3.680000066757202 -0.4000000059604645,-4.679999828338623 -0.5400000214576721,-5.71999979019165 -0.5699999928474426,-6.789999961853027 -0.7599999904632568,-7.860000133514404 -1.0499999523162842,-8.890000343322754" style="fill:none;stroke:#000000;stroke-width:0.5830222302012973"></polyline>
</g>
<g id="(basal) Dendrite #4.1">
<polyline points="-1.0499999523162842,-8.890000343322754 -0.6000000238418579,-8.989999771118164 0.3100000023841858,-8.710000038146973 1.0099999904632568,-7.800000190734863 1.2000000476837158,-8.65999984741211 1.809999942779541,-9.380000114440918 2.3399999141693115,-10.199999809265137 2.5199999809265137,-11.180000305175781 3.2200000286102295,-11.869999885559082 3.950000047683716,-12.539999961853027 4.559999942779541,-13.289999961853027" style="fill:none;stroke:#000000;stroke-width:0.6700000047683716"></polyline>
</g>
<g id="(basal) Dendrite #4.1.1">
<polyline points="4.559999942779541,-13.289999961853027 5.510000228881836,-13.6899995803833 6.28000020980835,-13.760000228881836 7.010000228881836,-13.970000267028809 7.610000133514404,-14.430000305175781 8.039999961853027,-14.079999923706055 7.840000152587891,-12.829999923706055 7.610000133514404,-11.59000015258789 7.139999866485596,-10.40999984741211 6.050000190734863,-10.149999618530273 5.309999942779541,-10.829999923706055 5.010000228881836,-11.670000076293945 4.570000171661377,-11.989999771118164 5.010000228881836,-11.369999885559082 5.710000038146973,-10.510000228881836 5.96999979019165,-9.529999732971191 4.889999866485596,-9.739999771118164 4.059999942779541,-10.300000190734863 3.7300000190734863,-11.100000381469727 4.119999885559082,-11.760000228881836 4.380000114440918,-11.109999656677246 3.4000000953674316,-10.75 2.9100000858306885,-11.539999961853027 3.0999999046325684,-12.470000267028809 3.8499999046325684,-13.109999656677246 4.809999942779541,-13.510000228881836 5.800000190734863,-13.770000457763672 6.849999904632568,-13.779999732971191 7.78000020980835,-14.039999961853027 8.180000305175781,-14.829999923706055 8.380000114440918,-15.720000267028809 8.770000457763672,-16.559999465942383 9.579999923706055,-16.950000762939453 10.329999923706055,-17.18000030517578 10.600000381469727,-17.850000381469727 10.630000114440918,-18.670000076293945 10.890000343322754,-19.459999084472656 11.34000015258789,-20.170000076293945 11.970000267028809,-20.790000915527344 12.630000114440918,-21.329999923706055 13.350000381469727,-21.450000762939453 13.380000114440918,-21.84000015258789 12.430000305175781,-22.31999969482422 11.850000381469727,-23.049999237060547 12.550000190734863,-23.6299991607666 13.350000381469727,-24.049999237060547 13.40999984741211,-24.809999465942383 13.180000305175781,-25.6299991607666 12.90999984741211,-26.459999084472656 12.109999656677246,-26.75 11.010000228881836,-26.68000030517578 11.180000305175781,-27.040000915527344 11.720000267028809,-27.350000381469727 11.329999923706055,-27.959999084472656 10.350000381469727,-28.229999542236328 9.380000114440918,-28.43000030517578 9.130000114440918,-29.139999389648438 9.739999771118164,-29.65999984741211 10.649999618530273,-29.399999618530273 11.529999732971191,-28.739999771118164 12.029999732971191,-28.950000762939453 12.270000457763672,-29.639999389648438 12.930000305175781,-30.09000015258789 13.869999885559082,-30.040000915527344 14.880000114440918,-29.979999542236328 15.859999656677246,-30.190000534057617 16.690000534057617,-30.649999618530273 17.149999618530273,-31.43000030517578 17.469999313354492,-32.29999923706055 18.100000381469727,-32.95000076293945 18.65999984741211,-32.7599983215332 18.809999465942383,-31.56999969482422 19.540000915527344,-30.719999313354492 20.450000762939453,-30.059999465942383 21.350000381469727,-29.649999618530273 21.829999923706055,-30.190000534057617 21.440000534057617,-29.90999984741211 21.93000030517578,-29.010000228881836 22.899999618530273,-28.780000686645508 23.899999618530273,-28.8700008392334 24.8700008392334,-28.780000686645508 25.59000015258789,-28.280000686645508 26.18000030517578,-28.43000030517578 26.829999923706055,-28.739999771118164 27.559999465942383,-29.010000228881836 28.40999984741211,-29.209999084472656 29.200000762939453,-29.579999923706055 29.799999237060547,-30.270000457763672 30.479999542236328,-30.889999389648438 31.200000762939453,-31.469999313354492 31.829999923706055,-32.130001068115234 32.40999984741211,-32.83000183105469 33.06999969482422,-33.41999816894531 33.599998474121094,-33.47999954223633 33.25,-32.9900016784668 32.95000076293945,-32.439998626708984" style="fill:none;stroke:#000000;stroke-width:0.4911873676274952"></polyline>
</g>
<g id="(basal) Dendrite #4.1.2">
<polyline points="4.559999942779541,-13.289999961853027 4.239999771118164,-14.65999984741211 3.369999885559082,-15.210000038146973 2.259999990463257,-15.4399995803833 1.159999966621399,-15.680000305175781 0.33000001311302185,-16.25 0.38999998569488525,-17.100000381469727 1.159999966621399,-17.59000015258789 2.1500000953674316,-17.790000915527344 2.6600000858306885,-18.360000610351562 2.259999990463257,-19.18000030517578 1.659999966621399,-19.969999313354492 1.3300000429153442,-20.8700008392334 1.409999966621399,-21.670000076293945 1.9800000190734863,-22.06999969482422 2.180000066757202,-22.850000381469727 2.569999933242798,-23.600000381469727 2.9600000381469727,-24.299999237060547 2.0999999046325684,-24.489999771118164 1.100000023841858,-24.700000762939453 0.9100000262260437,-25.459999084472656 1.6100000143051147,-25.979999542236328 2.509999990463257,-25.719999313354492 3.2100000381469727,-24.790000915527344 4.070000171661377,-24.31999969482422 4.849999904632568,-24.6200008392334 4.909999847412109,-25.43000030517578 4.840000152587891,-26.31999969482422 5.320000171661377,-27.059999465942383 6.170000076293945,-27.5 7.110000133514404,-27.81999969482422 7.699999809265137,-28.360000610351562 8.149999618530273,-27.959999084472656 8.529999732971191,-28.399999618530273 8.899999618530273,-29.18000030517578 9.210000038146973,-30.06999969482422 9.350000381469727,-31.059999465942383 9.229999542236328,-32.09000015258789 9.109999656677246,-33.08000183105469 9.630000114440918,-33.810001373291016 10.119999885559082,-34.54999923706055 10.100000381469727,-35.54999923706055 10.25,-36.5099983215332 10.600000381469727,-37.380001068115234 11.100000381469727,-38.18000030517578 11.850000381469727,-38.83000183105469 12.760000228881836,-39.31999969482422 13.760000228881836,-39.66999816894531 14.760000228881836,-40 15.770000457763672,-40.36000061035156 16.75,-40.72999954223633 17.709999084472656,-41.06999969482422 18.6200008392334,-41.470001220703125 19.450000762939453,-41.97999954223633 20.219999313354492,-42.56999969482422 20.940000534057617,-43.2400016784668 21.5,-43.9900016784668 22.010000228881836,-44.75 22.75,-45.34000015258789 23.579999923706055,-45.880001068115234 24.190000534057617,-46.58000183105469 24.389999389648438,-47.45000076293945 24.34000015258789,-48.349998474121094 24.8799991607666,-48.88999938964844 25.780000686645508,-48.2400016784668 26.719999313354492,-48.119998931884766 26.81999969482422,-48.97999954223633 26.040000915527344,-49.689998626708984 26.219999313354492,-49.849998474121094 27.290000915527344,-49.66999816894531 28.290000915527344,-49.84000015258789 29.049999237060547,-50.470001220703125 29.389999389648438,-51.400001525878906 29.6299991607666,-52.33000183105469 30.229999542236328,-52.470001220703125 31.149999618530273,-52.29999923706055 31.68000030517578,-52.84000015258789 31.90999984741211,-53.68000030517578 32.34000015258789,-54.439998626708984 32.9900016784668,-55.11000061035156 33.209999084472656,-55.91999816894531 33.290000915527344,-56.7599983215332 34.06999969482422,-57.029998779296875 34.90999984741211,-57.439998626708984 35.439998626708984,-58.16999816894531 35.84000015258789,-59.06999969482422 36.52000045776367,-59.86000061035156 37.20000076293945,-60.66999816894531" style="fill:none;stroke:#000000;stroke-width:0.6665471268111262"></polyline>
</g>
<g id="(basal) Dendrite #4.2">
<polyline points="-1.0499999523162842,-8.890000343322754 -1.350000023841858,-9.680000305175781 -1.899999976158142,-10.65999984741211 -2.190000057220459,-11.729999542236328 -3,-12.460000038146973 -4.139999866485596,-12.630000114440918 -5.300000190734863,-12.609999656677246 -6.440000057220459,-12.5600004196167 -7.46999979019165,-12.979999542236328 -8.460000038146973,-13.529999732971191 -9.460000038146973,-14.079999923706055 -10.390000343322754,-14.739999771118164 -11.029999732971191,-15.65999984741211 -11.079999923706055,-16.790000915527344 -10.680000305175781,-17.889999389648438 -10.170000076293945,-18.979999542236328 -10.050000190734863,-20.149999618530273 -10.25,-21.31999969482422 -10.3100004196167,-22.5 -9.970000267028809,-23.610000610351562 -9.729999542236328,-24.729999542236328 -10.1899995803833,-25.729999542236328 -11.050000190734863,-26.469999313354492 -11.760000228881836,-27.350000381469727 -12.319999694824219,-28.31999969482422 -12.829999923706055,-29.31999969482422 -13.09000015258789,-30.40999984741211 -12.970000267028809,-31.520000457763672 -12.720000267028809,-32.630001068115234 -13.039999961853027,-33.720001220703125 -13.640000343322754,-34.689998626708984 -14.170000076293945,-35.70000076293945 -14.489999771118164,-36.779998779296875 -14.350000381469727,-37.900001525878906 -13.880000114440918,-38.88999938964844 -14.050000190734863,-39.97999954223633 -14.789999961853027,-40.84000015258789 -15.34000015258789,-41.77000045776367 -15.079999923706055,-42.849998474121094 -14.779999732971191,-43.90999984741211 -14.850000381469727,-45.02000045776367 -15.3100004196167,-46.02000045776367 -16.200000762939453,-46.709999084472656 -17.190000534057617,-47.2599983215332 -17.780000686645508,-48.130001068115234 -17.81999969482422,-49.2400016784668 -18,-50.349998474121094 -18.469999313354492,-51.380001068115234 -19.15999984741211,-52.310001373291016 -19.8799991607666,-53.220001220703125 -20.6200008392334,-54.099998474121094 -21.420000076293945,-54.95000076293945 -21.889999389648438,-55.90999984741211 -21.700000762939453,-57.09000015258789 -21.540000915527344,-58.2599983215332 -21.809999465942383,-59.380001068115234 -22.649999618530273,-60.029998779296875 -23.760000228881836,-60.130001068115234 -24.81999969482422,-60.470001220703125 -25.40999984741211,-61.349998474121094 -25.59000015258789,-62.43000030517578 -25.719999313354492,-63.5099983215332 -25.969999313354492,-64.56999969482422 -26.270000457763672,-65.62000274658203 -26.579999923706055,-66.69000244140625 -27.09000015258789,-67.69999694824219 -27.59000015258789,-68.69999694824219 -28.030000686645508,-69.76000213623047 -28.43000030517578,-70.80999755859375 -28.68000030517578,-71.9000015258789 -28.510000228881836,-72.97000122070312 -28.209999084472656,-73.98999786376953 -27.899999618530273,-75.01000213623047 -27.65999984741211,-76.06999969482422 -27.84000015258789,-77.1500015258789 -28.100000381469727,-78.26000213623047 -28.18000030517578,-79.41000366210938 -28.280000686645508,-80.55999755859375 -28.829999923706055,-81.56999969482422 -29.8700008392334,-82.02999877929688 -30.950000762939453,-82.37999725341797 -31.989999771118164,-82.8499984741211 -32.95000076293945,-83.47000122070312 -33.91999816894531,-84.08000183105469 -34.91999816894531,-84.66000366210938 -35.619998931884766,-85.5999984741211" style="fill:none;stroke:#000000;stroke-width:0.5129270599168889"></polyline>
</g>
<g id="Axon">
<polyline points="0,0 -0.550000011920929,-4.789999961853027 -0.9700000286102295,-7.010000228881836 -1.5,-8.029999732971191 -1.7899999618530273,-9.149999618530273 -1.559999942779541,-10.300000190734863 -1.2000000476837158,-11.449999809265137 -0.6700000166893005,-12.539999961853027 0.07000000029802322,-13.479999542236328 0.8899999856948853,-14.399999618530273 1.5099999904632568,-15.449999809265137 1.75,-16.649999618530273 1.5,-17.260000228881836 1.309999942779541,-17.43000030517578 0.8100000023841858,-18.34000015258789 0.5899999737739563,-19.549999237060547 0.029999999329447746,-20.450000762939453 -0.9300000071525574,-20.860000610351562 -1.7999999523162842,-21.559999465942383 -1.7300000190734863,-22.670000076293945 -1.409999966621399,-23.68000030517578 -0.699999988079071,-24.700000762939453 -0.3700000047683716,-25.809999465942383 -1.059999942779541,-26.209999084472656 -2.0899999141693115,-26.1200008392334 -2.569999933242798,-27.139999389648438 -2.819999933242798,-28.229999542236328 -3.25,-29.360000610351562 -4.210000038146973,-29.93000030517578 -5.230000019073486,-30.450000762939453 -5.519999980926514,-31.440000534057617 -5.510000228881836,-32.630001068115234 -5.510000228881836,-33.58000183105469 -5.260000228881836,-35.36000061035156 -4.739999771118164,-36.459999084472656 -4.71999979019165,-37.63999938964844 -4.46999979019165,-38.689998626708984 -3.5799999237060547,-39.400001525878906 -3.359999895095825,-40.369998931884766 -3.559999942779541,-41.459999084472656 -2.799999952316284,-42.06999969482422 -1.899999976158142,-42.619998931884766 -1.1299999952316284,-43.36000061035156 -0.23999999463558197,-43.939998626708984 0.47999998927116394,-44.68000030517578 1.3200000524520874,-44.900001525878906 2.440000057220459,-45.09000015258789 3.5,-45.439998626708984 2.9600000381469727,-44.779998779296875 2.380000114440918,-43.900001525878906 1.590000033378601,-43.18000030517578 0.699999988079071,-42.56999969482422" style="fill:none;stroke:#000000;stroke-width:0.5491999983787537"></polyline>
</g></g></svg>