
  <svg id="SVG_ROOT" xmlns="http://www.w3.org/2000/svg" class="innerBox" preserveAspectRatio="xMinYMin meet" style="shape-rendering:geometricPrecision; text-rendering:geometricPrecision; fill-rule:evenodd" viewBox="-75.27999877929688 -226.14999389648438 130.6300048828125 227.00999450683594" width="130.6300048828125mm" height="227.00999450683594mm"><g transform="scale(1,-1)"><g id="Soma">
<polyline points="0,0" style="fill:none;stroke:#ffffff;stroke-width:10.626899719238281"></polyline>
</g>
<g id="Soma.1">
<polyline points="0,0 5.230000019073486,-0.8600000143051147" style="fill:none;stroke:#ffffff;stroke-width:10.626899719238281"></polyline>
</g>
<g id="Soma.2">
<polyline points="0,0 -5.239999771118164,0.8600000143051147" style="fill:none;stroke:#ffffff;stroke-width:10.626899719238281"></polyline>
</g>
<g id="(basal) Dendrite">
<polyline points="0,0 0.550000011920929,6.889999866485596 -0.09000000357627869,10.960000038146973 -0.4300000071525574,13.449999809265137 -0.8799999952316284,16.350000381469727 -0.9900000095367432,19.170000076293945 -1.2000000476837158,21.290000915527344" style="fill:none;stroke:#000000;stroke-width:2.258333365122477"></polyline>
</g>
<g id="(basal) Dendrite.1">
<polyline points="-1.2000000476837158,21.290000915527344 -2.9700000286102295,23.079999923706055 -4.559999942779541,25.959999084472656 -5.96999979019165,28.84000015258789" style="fill:none;stroke:#000000;stroke-width:1.2999999523162842"></polyline>
</g>
<g id="(basal) Dendrite.1.1">
<polyline points="-5.96999979019165,28.84000015258789 -8.380000114440918,31.299999237060547 -9.720000267028809,32.27000045776367" style="fill:none;stroke:#000000;stroke-width:1.1100000143051147"></polyline>
</g>
<g id="(basal) Dendrite.1.1.1">
<polyline points="-9.720000267028809,32.27000045776367 -13.359999656677246,34.189998626708984 -14.539999961853027,37.20000076293945 -15.529999732971191,43.75 -16.15999984741211,51.369998931884766 -16.280000686645508,57.40999984741211 -17.399999618530273,64.37000274658203 -17.170000076293945,70.33999633789062 -18.209999084472656,79.91000366210938 -19.8799991607666,85.81999969482422 -23.729999542236328,97.72000122070312 -25.65999984741211,107.63999938964844 -26.829999923706055,111.95999908447266 -29.270000457763672,116.51000213623047 -32.38999938964844,122.66000366210938 -36.7400016784668,131.63999938964844 -38,138.8000030517578 -37.93000030517578,147.25999450683594 -36.349998474121094,152.25999450683594 -38.7599983215332,158.11000061035156 -42.66999816894531,161.75" style="fill:none;stroke:#000000;stroke-width:0.5955000042915344"></polyline>
</g>
<g id="(basal) Dendrite.1.1.1.1">
<polyline points="-42.66999816894531,161.75 -43.41999816894531,169.77000427246094 -44.650001525878906,178.24000549316406 -45.060001373291016,186.00999450683594 -45.95000076293945,194.25 -47.7599983215332,201.49000549316406 -48.369998931884766,204.60000610351562" style="fill:none;stroke:#000000;stroke-width:0.3700000047683716"></polyline>
</g>
<g id="(basal) Dendrite.1.1.1.2">
<polyline points="-42.66999816894531,161.75 -45.18000030517578,165.9199981689453 -51.90999984741211,174.17999267578125 -54.40999984741211,180.61000061035156 -59.029998779296875,193.58999633789062 -60.47999954223633,197.38999938964844 -63.939998626708984,207.1699981689453 -66.27999877929688,213.38999938964844 -70.83999633789062,219.97000122070312 -75.27999877929688,226.14999389648438" style="fill:none;stroke:#000000;stroke-width:0.3700000047683716"></polyline>
</g>
<g id="(basal) Dendrite.1.1.2">
<polyline points="-9.720000267028809,32.27000045776367 -10.0600004196167,35.900001525878906 -10.829999923706055,42.599998474121094 -11.880000114440918,46.540000915527344 -13.170000076293945,51.2599983215332 -12.630000114440918,55.66999816894531 -14.899999618530273,62.439998626708984 -16.729999542236328,68.37999725341797 -19.40999984741211,72.58999633789062 -21.450000762939453,84.19000244140625 -22.84000015258789,90.62000274658203 -22.329999923706055,97.12000274658203 -23.760000228881836,103.18000030517578 -27.530000686645508,110.01000213623047 -28.719999313354492,116.41999816894531 -30.809999465942383,122.0199966430664 -33.11000061035156,128.60000610351562 -35.63999938964844,133.7100067138672 -37.70000076293945,141.75999450683594 -41.43000030517578,146.50999450683594 -45.02000045776367,156.6999969482422 -47.779998779296875,165.0399932861328 -49.52000045776367,169.27000427246094" style="fill:none;stroke:#000000;stroke-width:0.7522727332331918"></polyline>
</g>
<g id="(basal) Dendrite.1.2">
<polyline points="-5.96999979019165,28.84000015258789 -5.980000019073486,32.209999084472656 -5.940000057220459,35.779998779296875 -6.630000114440918,40.790000915527344 -8.199999809265137,49.4900016784668 -9.149999618530273,56.2400016784668 -9.789999961853027,62.540000915527344 -9.1899995803833,66.19999694824219" style="fill:none;stroke:#000000;stroke-width:0.9300000071525574"></polyline>
</g>
<g id="(basal) Dendrite.1.2.1">
<polyline points="-9.1899995803833,66.19999694824219 -11.1899995803833,68.9800033569336 -11.59000015258789,76.75 -11.970000267028809,79.05999755859375 -12.970000267028809,84.30000305175781 -13.529999732971191,87.7699966430664 -14.029999732971191,93.87000274658203 -14.920000076293945,100.97000122070312 -16.280000686645508,107.58000183105469 -18.420000076293945,112.83999633789062 -19.850000381469727,117.7699966430664 -18.65999984741211,123.97000122070312 -18.059999465942383,127.61000061035156 -16.979999542236328,131.77000427246094 -16.079999923706055,138.38999938964844 -14.420000076293945,145.05999755859375 -14.0600004196167,149.50999450683594" style="fill:none;stroke:#000000;stroke-width:0.811875008046627"></polyline>
</g>
<g id="(basal) Dendrite.1.2.2">
<polyline points="-9.1899995803833,66.19999694824219 -7.53000020980835,68.37000274658203 -6.010000228881836,75.2699966430664 -4.670000076293945,82.18000030517578 -3.619999885559082,87.44999694824219 -3.299999952316284,95.11000061035156 -2.759999990463257,100.66999816894531" style="fill:none;stroke:#000000;stroke-width:0.8350000083446503"></polyline>
</g>
<g id="(basal) Dendrite.1.2.2.1">
<polyline points="-2.759999990463257,100.66999816894531 -5.019999980926514,101.79000091552734 -6.929999828338623,109.62000274658203 -6.889999866485596,113.19000244140625 -7.420000076293945,119.0999984741211 -8.279999732971191,125.25 -9.489999771118164,130.52999877929688 -9.609999656677246,135.42999267578125 -9.819999694824219,144.49000549316406 -11.670000076293945,150.25 -12.569999694824219,156.22999572753906 -13.40999984741211,162.57000732421875 -14.819999694824219,169.92999267578125 -16.600000381469727,177.3800048828125 -17.670000076293945,183.3800048828125 -17.75,188.64999389648438 -19.59000015258789,194.58999633789062 -21.690000534057617,201.13999938964844 -22.260000228881836,209.1300048828125 -25.100000381469727,215.8000030517578 -27.770000457763672,219.05999755859375" style="fill:none;stroke:#000000;stroke-width:0.3700000047683716"></polyline>
</g>
<g id="(basal) Dendrite.1.2.2.2">
<polyline points="-2.759999990463257,100.66999816894531 -2.130000114440918,105.62999725341797 -1.9800000190734863,112.19999694824219 -0.9900000095367432,118.20999908447266 -0.019999999552965164,124.08999633789062 -1.3899999856948853,129.38999938964844 -1.7100000381469727,135.4499969482422 -2.9100000858306885,139.5800018310547 -4.570000171661377,147.75 -5.46999979019165,152.61000061035156 -7.460000038146973,159.8800048828125 -8.850000381469727,165.17999267578125 -12.0600004196167,173.0500030517578 -13.369999885559082,177.5800018310547 -13.5600004196167,183.25 -14.630000114440918,185.88999938964844 -16.3799991607666,189 -16.56999969482422,199.16000366210938 -16.59000015258789,205.9499969482422 -17.260000228881836,213.17999267578125 -18.15999984741211,219.16000366210938" style="fill:none;stroke:#000000;stroke-width:0.5020000040531158"></polyline>
</g>
<g id="(basal) Dendrite.2">
<polyline points="-1.2000000476837158,21.290000915527344 0.5,25.889999389648438 0.8799999952316284,30.520000457763672 0.8999999761581421,36.34000015258789 -0.8700000047683716,40.40999984741211 -1.7799999713897705,42.79999923706055 -2.5799999237060547,45.95000076293945 -3.2300000190734863,48.86000061035156 -3.559999942779541,53.61000061035156 -3.430000066757202,57.91999816894531 -2.9200000762939453,64.41000366210938 -3.2100000381469727,75.16999816894531 -6.590000152587891,92.27999877929688 -7.260000228881836,96.1500015258789 -7.239999771118164,99.69999694824219 -7,104.55999755859375 -6.380000114440918,109.52999877929688 -5.75,116.75" style="fill:none;stroke:#000000;stroke-width:1.2988235144054188"></polyline>
</g>
<g id="(basal) Dendrite.2.1">
<polyline points="-5.75,116.75 -3.819999933242798,119.25 -2.8299999237060547,121.9000015258789 -0.20999999344348907,125.2300033569336 0.9100000262260437,129.75999450683594 3.700000047683716,134.17999267578125 7.269999980926514,137.52999877929688 10.510000228881836,142.44000244140625 13.800000190734863,146.4199981689453 18.18000030517578,152.47000122070312 22.329999923706055,155.91000366210938" style="fill:none;stroke:#000000;stroke-width:0.5600000023841858"></polyline>
</g>
<g id="(basal) Dendrite.2.1.1">
<polyline points="22.329999923706055,155.91000366210938 27.260000228881836,159.6199951171875 29.420000076293945,162.44000244140625 33.59000015258789,168.3300018310547 37.27000045776367,173.5500030517578 42.220001220703125,180.80999755859375 46.29999923706055,186.16000366210938 48.599998474121094,191.0399932861328 49.2400016784668,194.88999938964844 52.08000183105469,200.6199951171875 53.0099983215332,205.16000366210938 55.310001373291016,210.0399932861328 55.349998474121094,214.72999572753906 54.959999084472656,220.4499969482422" style="fill:none;stroke:#000000;stroke-width:0.47230769579227155"></polyline>
</g>
<g id="(basal) Dendrite.2.1.2">
<polyline points="22.329999923706055,155.91000366210938 23.780000686645508,163.5500030517578 24.989999771118164,170.88999938964844 25.610000610351562,176.97999572753906 26.489999771118164,183.41000366210938 27.920000076293945,187.49000549316406 28.860000610351562,192.0500030517578 31.25,197.47999572753906 32.88999938964844,202.85000610351562 34.310001373291016,209.17999267578125 35.06999969482422,217.14999389648438 34.900001525878906,219.6199951171875" style="fill:none;stroke:#000000;stroke-width:0.4563636400482871"></polyline>
</g>
<g id="(basal) Dendrite.2.2">
<polyline points="-5.75,116.75 -9.59000015258789,123.0199966430664 -11.520000457763672,126.1500015258789 -14.90999984741211,131.8000030517578 -18.6299991607666,134.2899932861328 -22.969999313354492,137.6300048828125 -25.780000686645508,138.86000061035156 -28.799999237060547,138.7899932861328 -31.3700008392334,141.4600067138672 -34.720001220703125,145.02999877929688 -37.40999984741211,149.24000549316406" style="fill:none;stroke:#000000;stroke-width:0.4650000035762787"></polyline>
</g></g></svg>