
  <svg id="SVG_ROOT" xmlns="http://www.w3.org/2000/svg" class="innerBox" preserveAspectRatio="xMinYMin meet" style="shape-rendering:geometricPrecision; text-rendering:geometricPrecision; fill-rule:evenodd" viewBox="123 -463.8999938964844 722 400.8999938964844" width="722mm" height="400.8999938964844mm"><g transform="scale(1,-1)"><g id="Axon #1">
<polyline points="267,272.79998779296875 266,273 265,273.29998779296875 264,273.79998779296875 264,274.79998779296875 263,276.29998779296875 263,278.5 264,280.6000061035156 265,282.3999938964844 265,283.6000061035156 266,284.29998779296875 267,284.5 268,284.29998779296875 269,283.6000061035156 269,282.3999938964844 269,280.79998779296875 268,279.3999938964844 268,277.70001220703125 268,276 268,274.29998779296875 268,272.79998779296875" style="fill:none;stroke:#ff0000;stroke-width:16"></polyline>
</g>
<g id="Axon #2">
<polyline points="264,274.79998779296875 263,274.20001220703125 263,273.8999938964844 263,273.70001220703125 262,273.5 262,273.20001220703125 262,272.8999938964844 261,272.70001220703125 261,272.5 261,272.29998779296875 261,272.1000061035156 261,271.8999938964844 260,271.70001220703125 260,271.5 260,271.29998779296875 260,271.1000061035156 259,270.8999938964844 259,270.70001220703125 259,270.5 259,270.20001220703125 258,269.8999938964844 258,269.70001220703125 258,269.5 258,269.20001220703125 257,269 257,268.70001220703125 257,268.3999938964844 257,268 257,267.6000061035156 257,267 256,266.3999938964844 256,265.8999938964844 256,265.3999938964844 256,265 256,264.6000061035156 256,264.20001220703125 256,263.70001220703125 256,263.29998779296875 256,262.8999938964844 255,262.3999938964844 255,262 255,261.6000061035156 255,261.29998779296875 255,261 255,260.70001220703125 254,260.29998779296875 254,259.8999938964844 254,259.3999938964844 254,259 254,258.5 254,257.8999938964844 254,257.29998779296875 254,256.70001220703125 253,256.1000061035156 253,255.39999389648438 253,254.6999969482422 253,254 253,253.5 253,253 253,252.39999389648438 253,251.89999389648438 253,251.3000030517578 252,250.8000030517578 252,250.1999969482422 252,249.6999969482422 252,249.3000030517578 252,249 252,248.8000030517578 251,248.6999969482422 251,248.5 251,248.1999969482422 251,248 251,247.6999969482422 250,247.5 250,247.3000030517578 250,247.10000610351562 250,246.89999389648438 249,246.8000030517578 249,246.60000610351562 249,246.5 248,246.39999389648438 248,246.3000030517578 247,246.1999969482422 247,246.10000610351562 246,245.89999389648438 246,245.6999969482422 245,245.5 245,245.3000030517578 244,245.10000610351562 244,244.89999389648438 244,244.6999969482422 243,244.5 243,244.3000030517578 242,244.10000610351562 242,243.89999389648438 242,243.6999969482422 241,243.39999389648438 241,243.10000610351562 240,242.89999389648438 240,242.6999969482422 240,242.5 240,242.39999389648438 239,242.1999969482422 239,242 239,241.8000030517578 239,241.6999969482422 239,241.5 238,241.3000030517578 238,241.10000610351562 238,241 237,240.8000030517578 237,240.60000610351562 237,240.39999389648438 236,240.3000030517578 236,240.10000610351562 236,240 235,239.8000030517578 235,239.6999969482422 234,239.60000610351562 234,239.5 233,239.5 232,239.5 232,239.5 231,239.39999389648438 230,239.3000030517578 230,239.1999969482422 229,239.10000610351562 229,239.10000610351562 228,239 228,238.89999389648438 227,238.8000030517578 227,238.6999969482422 227,238.6999969482422 226,238.6999969482422 226,238.6999969482422 225,238.6999969482422 225,238.6999969482422 224,238.6999969482422 224,238.6999969482422 223,238.6999969482422 222,238.6999969482422 222,238.6999969482422 221,238.8000030517578 221,238.89999389648438 220,239 220,239.10000610351562 219,239.3000030517578 219,239.39999389648438 219,239.39999389648438 218,239.5 218,239.60000610351562 217,239.6999969482422 217,239.8000030517578 216,239.89999389648438 216,240 215,240.1999969482422 215,240.39999389648438 214,240.5 214,240.60000610351562 213,240.6999969482422 213,240.8000030517578 212,240.8000030517578 212,240.8000030517578 211,240.8000030517578 211,240.8000030517578 210,240.8000030517578 210,240.8000030517578 209,240.8000030517578 208,240.8000030517578 208,240.8000030517578 207,240.8000030517578 207,240.8000030517578 206,240.6999969482422 206,240.6999969482422 205,240.5 204,240.39999389648438 204,240.1999969482422 203,240.10000610351562 203,239.8000030517578 202,239.60000610351562 202,239.5 201,239.3000030517578 201,239.1999969482422 201,239 200,238.89999389648438 200,238.6999969482422 199,238.5 199,238.3000030517578 198,238.10000610351562 198,237.89999389648438 198,237.6999969482422 197,237.39999389648438 197,237.1999969482422 197,236.89999389648438 197,236.60000610351562 196,236.39999389648438 196,236.10000610351562 196,235.89999389648438 196,235.60000610351562 195,235.3000030517578 195,235 195,234.60000610351562 195,234.3000030517578 194,233.89999389648438 194,233.5 194,233.10000610351562 194,232.8000030517578 194,232.39999389648438 194,232 194,231.39999389648438 194,230.89999389648438 194,230.1999969482422 194,229.6999969482422 194,229.1999969482422 194,228.6999969482422 194,228.3000030517578 195,227.89999389648438 195,227.5 195,227 195,226.5 195,225.89999389648438 195,225.5 195,225.10000610351562 195,224.8000030517578 195,224.39999389648438 195,224 196,223.60000610351562 196,223.1999969482422 196,222.6999969482422 196,222.1999969482422 196,221.8000030517578 197,221.3000030517578 197,220.89999389648438 197,220.5 197,220.1999969482422 197,219.8000030517578 197,219.60000610351562 197,219.3000030517578 198,219 198,218.8000030517578 198,218.60000610351562 198,218.3000030517578 198,218 199,217.60000610351562 199,217.39999389648438 199,217.1999969482422 199,217 199,216.8000030517578 199,216.60000610351562 200,216.39999389648438 200,216.1999969482422 200,215.89999389648438 200,215.5 200,215.3000030517578 201,215.10000610351562 201,214.89999389648438 201,214.6999969482422 201,214.5 202,214.3000030517578 202,214.10000610351562 202,214 203,213.89999389648438 203,213.8000030517578 203,213.6999969482422" style="fill:none;stroke:#ff0000;stroke-width:2"></polyline>
</g>
<g id="Axon #3">
<polyline points="253,251.3000030517578 252,251.1999969482422 253,251.10000610351562 253,250.8000030517578 253,250.5 253,250.1999969482422 253,249.89999389648438 253,249.6999969482422 254,249.5 254,249.39999389648438 254,249.1999969482422 254,249 254,248.8000030517578 254,248.60000610351562 255,248.3000030517578 255,247.89999389648438 255,247.5 255,247.10000610351562 255,246.8000030517578 255,246.39999389648438 256,246 256,245.60000610351562 256,245.10000610351562 256,244.6999969482422 256,244.39999389648438 256,244.10000610351562 256,243.8000030517578 256,243.39999389648438 257,243.10000610351562 257,242.60000610351562 257,242.3000030517578 257,242 257,241.6999969482422 257,241.39999389648438 257,241 257,240.6999969482422 258,240.39999389648438 258,240 258,239.60000610351562 258,239.10000610351562 258,238.5 258,238 258,237.5 258,237.10000610351562 258,236.60000610351562 258,236.10000610351562 258,235.5 258,234.89999389648438 258,234.39999389648438 258,234 258,233.60000610351562 258,233.10000610351562 258,232.60000610351562 258,232 258,231.5 258,231.10000610351562 258,230.6999969482422 258,230.3000030517578 258,230 258,229.60000610351562 257,229.1999969482422 257,228.8000030517578 257,228.3000030517578 257,227.89999389648438 257,227.5 257,227.1999969482422 257,226.8000030517578 256,226.5 256,226.1999969482422 256,225.89999389648438 256,225.6999969482422 256,225.5 256,225.1999969482422 255,225 255,224.6999969482422 255,224.3000030517578 254,223.89999389648438 254,223.3000030517578 253,222.8000030517578 253,222.3000030517578 253,221.8000030517578 253,221.3000030517578 252,220.8000030517578 252,220.3000030517578 252,219.89999389648438 251,219.5 251,219.1999969482422 251,218.8000030517578 251,218.5 250,218 250,217.60000610351562 250,217.1999969482422 250,216.89999389648438 249,216.5 249,216 249,215.60000610351562 248,215.1999969482422 248,214.89999389648438 247,214.5 247,214.10000610351562 247,213.8000030517578 246,213.39999389648438 246,213.1999969482422 246,212.89999389648438 245,212.6999969482422 245,212.5 245,212.3000030517578 244,212.10000610351562 244,211.8000030517578 244,211.60000610351562 243,211.3000030517578 243,211.10000610351562 243,210.89999389648438 242,210.6999969482422 242,210.5 242,210.39999389648438 241,210.3000030517578 241,210.10000610351562 240,209.8000030517578 240,209.5 239,209.1999969482422 238,209 238,208.89999389648438 237,208.6999969482422 237,208.5 236,208.1999969482422 236,207.89999389648438 235,207.6999969482422 235,207.5 234,207.39999389648438 233,207.1999969482422 233,207 233,206.8000030517578 232,206.6999969482422 232,206.5 231,206.3000030517578 231,206.1999969482422 230,206.10000610351562 230,206 230,206" style="fill:none;stroke:#ff0000;stroke-width:2"></polyline>
</g>
<g id="Axon #4">
<polyline points="258,233.60000610351562 258,233.5 258,233.39999389648438 259,233.3000030517578 259,233.1999969482422 260,233.10000610351562 260,232.89999389648438 260,232.60000610351562 261,232.3000030517578 261,232 261,231.8000030517578 261,231.5 262,231.3000030517578 262,230.89999389648438 262,230.60000610351562 262,230.1999969482422 263,229.89999389648438 263,229.5 264,229.3000030517578 264,229.10000610351562 264,228.89999389648438 265,228.6999969482422 265,228.5 265,228.1999969482422 265,228 266,227.6999969482422 266,227.3000030517578 266,226.89999389648438 266,226.5 266,226.10000610351562 267,225.89999389648438 267,225.5 267,225.10000610351562 268,224.6999969482422 269,224.1999969482422 269,223.89999389648438 270,223.60000610351562 270,223.3000030517578 271,222.89999389648438 272,222.3000030517578 272,221.8000030517578 273,221.3000030517578 274,220.8000030517578 275,220.1999969482422 275,219.6999969482422 276,219.10000610351562 276,218.6999969482422 277,218.3000030517578 277,218 278,217.8000030517578 278,217.5 278,217.1999969482422 279,216.8000030517578 279,216.3000030517578 280,215.8000030517578 280,215.1999969482422 281,214.60000610351562 281,214 282,213.3000030517578 282,212.6999969482422 283,212.10000610351562 283,211.5 284,210.89999389648438 284,210.3000030517578 285,209.6999969482422 285,209.10000610351562 286,208.5 287,207.89999389648438 287,207.39999389648438 288,206.8000030517578 288,206.10000610351562 289,205.3000030517578 290,204.5 290,203.60000610351562 291,202.60000610351562 292,201.6999969482422 292,200.89999389648438 293,200.1999969482422 293,199.60000610351562 293,198.89999389648438 293,198.1999969482422 294,197.60000610351562 294,197 294,196.39999389648438 294,195.89999389648438 294,195.5 295,195.10000610351562 295,194.60000610351562 295,194.10000610351562 295,193.5 296,192.89999389648438 296,192.3000030517578 296,191.6999969482422 296,191.1999969482422 297,190.5 297,189.89999389648438 297,189.1999969482422 298,188.60000610351562 298,188 298,187.5 299,186.8000030517578 299,186.1999969482422 300,185.60000610351562 300,185.10000610351562 300,184.6999969482422 300,184.39999389648438 301,183.8000030517578 301,183.1999969482422 302,182.39999389648438 303,181.6999969482422 303,181.10000610351562 304,180.60000610351562 304,180.1999969482422 305,179.8000030517578 305,179.39999389648438 306,178.89999389648438 306,178.5 307,178.1999969482422 307,177.89999389648438 308,177.6999969482422 308,177.5 309,177.39999389648438 309,177.1999969482422 310,177 310,176.8000030517578 310,176.60000610351562 311,176.5 312,176.3000030517578 312,176.10000610351562 313,175.8000030517578 314,175.60000610351562 314,175.39999389648438 315,175.1999969482422 315,174.89999389648438 316,174.60000610351562 316,174.1999969482422 317,174 318,173.6999969482422 318,173.5 319,173.1999969482422 320,172.89999389648438 321,172.6999969482422 321,172.5 322,172.39999389648438 322,172.1999969482422 323,172 324,171.6999969482422 325,171.39999389648438 325,171.10000610351562 326,170.89999389648438 327,170.60000610351562 327,170.39999389648438 328,170.1999969482422 329,169.8000030517578 330,169.3000030517578 330,168.8000030517578 331,168.3000030517578 332,167.8000030517578 332,167.5 333,167.10000610351562" style="fill:none;stroke:#ff0000;stroke-width:2"></polyline>
</g>
<g id="Axon #5">
<polyline points="268,272.79998779296875 268,273.1000061035156 268,273 268,272.79998779296875 269,272.5 269,272.29998779296875 269,272 270,271.70001220703125 270,271.3999938964844 270,271.20001220703125 270,270.8999938964844 271,270.5 271,270.1000061035156 271,269.79998779296875 271,269.3999938964844 272,269 272,268.5 272,268 272,267.6000061035156 273,267.20001220703125 273,266.8999938964844 273,266.70001220703125 274,266.5 275,266.20001220703125 275,265.79998779296875 276,265.6000061035156 276,265.5 277,265.5 277,265.6000061035156 278,265.5 278,265.3999938964844 278,265.20001220703125 278,264.8999938964844 279,264.5 279,264 279,263.5 279,262.8999938964844 280,262.5 280,262 280,261.6000061035156 281,261.20001220703125 281,260.70001220703125 282,260.29998779296875 283,260.1000061035156 283,259.8999938964844 284,259.70001220703125 285,259.6000061035156 285,259.5 286,259.29998779296875 286,259 287,258.79998779296875 288,258.6000061035156 289,258.3999938964844 290,258.20001220703125 290,258 291,257.70001220703125 292,257.5 292,257.29998779296875 293,257.1000061035156 294,256.8999938964844 294,256.70001220703125 295,256.3999938964844 295,256.1000061035156 296,255.8000030517578 297,255.5 298,255.1999969482422 298,254.89999389648438 299,254.60000610351562 300,254.39999389648438 300,254.10000610351562 301,253.89999389648438 301,253.60000610351562 302,253.3000030517578 302,253 303,252.60000610351562 304,252.1999969482422 305,251.8000030517578 305,251.5 306,251.10000610351562 307,250.6999969482422 307,250.3000030517578 308,249.8000030517578 308,249.39999389648438 308,249 308,248.60000610351562 309,248.10000610351562 309,247.39999389648438 309,246.6999969482422 310,246 310,245.5 310,245.10000610351562 311,244.6999969482422 311,244.39999389648438 311,244.1999969482422 311,244.10000610351562 312,243.89999389648438 312,243.8000030517578 312,243.5 312,243.1999969482422 313,242.6999969482422 313,242.1999969482422 313,241.60000610351562 314,241 314,240.1999969482422 315,239.5 315,239 316,238.60000610351562 316,238.3000030517578 316,237.89999389648438 317,237.39999389648438 317,236.89999389648438 317,236.39999389648438 317,236 317,235.5 318,234.89999389648438 318,234.3000030517578 319,233.60000610351562 319,233 319,232.39999389648438 320,231.6999969482422 320,231.10000610351562 321,230.5 321,229.8000030517578 321,229.10000610351562 321,228.5 322,227.8000030517578 322,227.10000610351562 322,226.39999389648438 322,225.60000610351562 322,224.89999389648438 323,224.1999969482422 323,223.5 323,222.8000030517578 323,222.3000030517578 323,221.6999969482422 323,221.10000610351562 322,220.39999389648438 322,219.5 322,218.5 322,217.39999389648438 322,216.39999389648438 321,215.5 321,214.60000610351562 321,213.8000030517578 320,213.10000610351562 320,212.5 320,211.89999389648438 320,211.39999389648438 319,210.89999389648438 319,210.3000030517578 319,209.6999969482422 318,209.10000610351562 318,208.5 318,207.89999389648438 317,207.3000030517578 317,206.8000030517578 317,206.1999969482422 317,205.60000610351562 317,205 317,204.39999389648438 317,203.6999969482422 317,202.89999389648438 317,202 317,201.3000030517578 317,200.89999389648438 317,200.89999389648438" style="fill:none;stroke:#ff0000;stroke-width:2"></polyline>
</g>
<g id="Axon #6">
<polyline points="310,246 310,246 311,246.10000610351562 312,246.10000610351562 312,246.10000610351562 313,246.3000030517578 313,246.39999389648438 314,246.60000610351562 315,246.8000030517578 316,246.89999389648438 317,247 317,247.10000610351562 318,247.1999969482422 319,247.3000030517578 320,247.60000610351562 322,247.8000030517578 323,248.10000610351562 324,248.1999969482422 324,248.3000030517578 325,248.39999389648438 326,248.5 327,248.6999969482422 328,248.8000030517578 329,248.89999389648438 330,248.89999389648438 331,248.89999389648438 332,248.89999389648438 333,248.89999389648438" style="fill:none;stroke:#ff0000;stroke-width:2"></polyline>
</g>
<g id="Axon #7">
<polyline points="322,218.5 323,217.6999969482422 323,217 324,216.1999969482422 324,215.5 325,214.8000030517578 325,214.1999969482422 325,213.6999969482422 325,213.1999969482422 326,212.5 326,211.6999969482422 326,210.60000610351562 326,208.8000030517578 327,206.10000610351562 328,202.1999969482422 330,197.3000030517578 333,192.3000030517578 335,187.89999389648438 337,185.10000610351562 338,183.60000610351562" style="fill:none;stroke:#ff0000;stroke-width:2"></polyline>
</g>
<g id="Axon #8">
<polyline points="263,276.29998779296875 262,276.29998779296875 262,276.1000061035156 261,276 260,275.8999938964844 260,275.79998779296875 259,275.79998779296875 258,275.79998779296875 257,275.79998779296875 256,275.79998779296875 255,275.8999938964844 254,276.1000061035156 253,276.20001220703125 252,276.29998779296875 251,276.3999938964844 250,276.6000061035156 250,276.8999938964844 249,277.29998779296875 248,277.70001220703125 247,278.1000061035156 246,278.5 246,278.79998779296875 245,279.1000061035156 244,279.3999938964844 244,279.6000061035156 244,279.8999938964844 243,280.20001220703125 243,280.3999938964844 242,280.6000061035156 241,280.79998779296875 241,280.8999938964844 240,281 239,281 239,281 238,281 237,280.8999938964844 237,280.70001220703125 236,280.5 236,280.3999938964844 235,280.29998779296875 235,280.1000061035156 235,279.79998779296875 234,279.3999938964844 234,278.8999938964844 234,278.5 233,278.1000061035156 233,277.70001220703125 233,277.29998779296875 233,277 232,276.70001220703125 232,276.3999938964844 231,276.1000061035156 230,275.70001220703125 229,275.3999938964844 228,275.1000061035156 227,274.70001220703125 226,274.29998779296875 226,274 225,273.70001220703125 225,273.3999938964844 224,273 224,272.70001220703125 223,272.3999938964844 222,272.20001220703125 221,272.1000061035156 220,272.1000061035156 219,272.1000061035156 218,272.1000061035156 217,272.1000061035156 216,271.8999938964844 216,271.70001220703125 215,271.3999938964844 214,271.20001220703125 213,270.8999938964844 212,270.6000061035156 211,270.20001220703125 210,269.8999938964844 209,269.6000061035156 209,269.29998779296875 208,269.1000061035156 207,268.8999938964844 205,268.6000061035156 204,268.29998779296875 203,268 202,267.79998779296875 200,267.3999938964844 198,267.20001220703125 197,267 196,266.8999938964844 195,266.70001220703125 193,266.6000061035156 192,266.3999938964844 190,266.29998779296875 186,266.1000061035156 183,265.8999938964844 179,265.5 176,265.1000061035156 174,264.6000061035156 173,264" style="fill:none;stroke:#ff0000;stroke-width:2"></polyline>
</g>
<g id="Axon #9">
<polyline points="234,279.3999938964844 234,279.6000061035156 233,279.8999938964844 233,280.29998779296875 232,280.70001220703125 231,281.1000061035156 231,281.3999938964844 231,281.70001220703125 230,281.8999938964844 230,282.20001220703125 229,282.6000061035156 228,282.8999938964844 227,283.29998779296875 226,283.6000061035156 225,283.79998779296875 225,284 224,284.1000061035156 223,284.20001220703125 222,284.29998779296875 222,284.29998779296875 221,284.29998779296875 220,284.29998779296875 218,284.29998779296875 217,284.20001220703125 216,284 215,283.79998779296875 214,283.5 212,283.29998779296875 211,283 210,282.70001220703125 209,282.5 208,282.29998779296875 207,282.20001220703125 206,282 205,281.8999938964844 204,281.70001220703125 203,281.70001220703125 201,281.70001220703125 201,281.79998779296875 200,282 199,282.20001220703125 198,282.3999938964844 197,282.6000061035156 196,282.70001220703125 194,282.8999938964844 193,283.1000061035156 192,283.20001220703125 190,283.29998779296875 188,283.29998779296875 186,283.20001220703125 184,283.20001220703125 182,283.1000061035156 180,283 178,282.79998779296875 177,282.5 175,282.1000061035156 174,281.6000061035156 174,281.1000061035156 173,280.3999938964844 172,279.6000061035156 171,278.8999938964844 170,278.29998779296875 169,277.6000061035156 168,276.79998779296875 167,276.1000061035156 166,275.3999938964844" style="fill:none;stroke:#ff0000;stroke-width:2"></polyline>
</g>
<g id="Axon #10">
<polyline points="225,283.79998779296875 226,284.70001220703125 226,285.29998779296875 225,286.1000061035156 225,286.8999938964844 225,287.70001220703125 225,288.6000061035156 225,289.6000061035156 224,290.6000061035156 224,291.79998779296875 224,293 223,294.20001220703125 223,295.5 222,296.70001220703125 222,297.79998779296875 221,298.79998779296875 220,299.79998779296875 219,301 218,302 217,302.8999938964844 216,303.6000061035156 215,304.20001220703125 214,304.79998779296875 213,305.3999938964844 212,306.20001220703125 211,307.1000061035156 210,307.8999938964844 209,308.6000061035156 209,309.1000061035156 208,309.3999938964844 207,309.6000061035156 206,309.8999938964844 205,310.29998779296875 203,310.70001220703125 201,311.1000061035156 199,311.5 196,311.8999938964844 193,312.1000061035156 190,312.3999938964844 188,312.6000061035156 187,312.79998779296875 185,313 184,313.3999938964844 182,313.79998779296875 181,314.20001220703125 181,314.6000061035156 181,314.8999938964844 180,315.29998779296875 178,315.6000061035156 177,316 176,316.29998779296875 174,316.70001220703125 172,317.29998779296875 170,318.20001220703125 167,319.20001220703125 164,320.1000061035156 162,320.79998779296875 160,321.29998779296875 158,321.8999938964844 156,322.5 153,323.29998779296875 151,324.1000061035156 149,324.8999938964844 147,325.6000061035156 146,326.3999938964844 144,327.1000061035156 142,327.70001220703125 141,328.20001220703125 139,328.5 138,328.79998779296875 136,328.79998779296875 133,328.79998779296875 131,328.79998779296875 129,328.79998779296875 127,328.79998779296875 126,328.8999938964844" style="fill:none;stroke:#ff0000;stroke-width:2"></polyline>
</g>
<g id="Axon #11">
<polyline points="268,284.29998779296875 268,285 268,285.79998779296875 267,286.6000061035156 267,287.3999938964844 267,288.20001220703125 267,289.1000061035156 267,290 267,290.70001220703125 266,291.5 266,292.20001220703125 266,293.1000061035156 266,294.1000061035156 266,295.1000061035156 265,296 265,297 264,298.20001220703125 263,299.29998779296875 262,300.29998779296875 262,301 261,301.70001220703125 260,302.6000061035156 259,303.5 258,304.3999938964844 256,305.29998779296875 255,306.20001220703125 254,307.20001220703125 253,308.1000061035156 251,309.1000061035156 250,309.8999938964844 249,310.6000061035156 248,311.29998779296875 247,312 246,312.5 245,313 244,313.3999938964844 243,313.70001220703125 242,313.8999938964844 242,314.20001220703125 241,314.5 240,314.8999938964844 239,315.3999938964844 238,316 237,316.5 236,317 235,317.6000061035156 234,318.20001220703125 234,318.79998779296875 233,319.3999938964844 233,320.1000061035156 232,320.79998779296875 232,321.5 232,322.20001220703125 231,322.8999938964844 231,323.5 230,324.29998779296875 229,325.29998779296875 229,326.1000061035156 228,326.70001220703125 227,327 226,327.1000061035156 224,327.1000061035156 223,327.1000061035156 222,326.8999938964844 220,326.70001220703125 219,326.3999938964844 218,326 216,325.6000061035156 215,325.20001220703125 214,324.79998779296875 212,324.70001220703125 211,324.70001220703125 210,324.70001220703125 209,324.79998779296875 207,325 206,325.20001220703125 205,325.6000061035156 203,326.20001220703125 202,327 200,327.79998779296875 199,328.5 198,329.1000061035156 197,329.8999938964844 196,330.79998779296875 194,331.8999938964844 193,332.79998779296875 193,333.6000061035156" style="fill:none;stroke:#ff0000;stroke-width:2"></polyline>
</g>
<g id="Axon #12">
<polyline points="226,327.1000061035156 226,327.6000061035156 226,328.29998779296875 226,329.1000061035156 226,330 226,330.79998779296875 226,331.6000061035156 225,332.29998779296875 225,333 225,333.70001220703125 224,334.3999938964844 224,335.20001220703125 223,336.20001220703125 222,337.20001220703125 222,338.20001220703125 221,339.1000061035156 220,340.20001220703125 219,341.3999938964844 218,342.8999938964844 217,344.3999938964844 216,346.1000061035156 215,347.8999938964844 214,349.70001220703125 213,351.20001220703125 213,352.3999938964844 212,353.3999938964844 211,355.1000061035156 209,357.5 206,360.29998779296875 204,363.70001220703125" style="fill:none;stroke:#ff0000;stroke-width:2"></polyline>
</g>
<g id="Axon #13">
<polyline points="258,304.3999938964844 259,305 259,305.3999938964844 260,305.79998779296875 260,306.20001220703125 261,306.6000061035156 261,307 261,307.3999938964844 262,307.8999938964844 262,308.3999938964844 263,308.8999938964844 263,309.3999938964844 264,309.79998779296875 264,310.1000061035156 265,310.5 266,310.8999938964844 266,311.29998779296875 267,311.70001220703125 268,312.1000061035156 268,312.3999938964844 269,312.6000061035156 270,313 271,313.29998779296875 272,313.70001220703125 272,314 273,314.3999938964844 274,314.70001220703125 275,314.8999938964844 276,315.20001220703125" style="fill:none;stroke:#ff0000;stroke-width:2"></polyline>
</g>
<g id="Axon #14">
<polyline points="269,280.79998779296875 269,281 270,281.29998779296875 271,281.5 272,281.6000061035156 273,281.70001220703125 273,281.8999938964844 274,282 275,282.1000061035156 276,282.20001220703125 277,282.20001220703125 278,282.29998779296875 279,282.3999938964844 280,282.5 281,282.5 281,282.3999938964844 282,282.20001220703125 283,282.1000061035156 284,281.79998779296875 285,281.70001220703125 286,281.6000061035156 287,281.5 289,281.3999938964844 290,281.3999938964844 291,281.5 292,281.6000061035156 292,281.70001220703125 292,281.8999938964844" style="fill:none;stroke:#ff0000;stroke-width:2"></polyline>
</g>
<g id="Axon #15">
<polyline points="236,317 236,318.8999938964844 236,319.8999938964844 236,320.8999938964844 236,321.79998779296875 236,322.79998779296875 236,323.8999938964844 236,324.79998779296875 236,325.8999938964844 236,326.8999938964844 237,328 237,328.8999938964844 237,329.79998779296875 237,330.6000061035156 238,331.5 238,332.6000061035156 238,333.70001220703125 238,334.70001220703125 239,335.70001220703125 239,336.79998779296875 239,338.1000061035156 240,339.6000061035156 240,341.20001220703125 241,342.79998779296875 241,344.29998779296875 242,345.6000061035156 242,346.79998779296875 243,347.79998779296875 244,348.70001220703125 244,349.5 245,350.29998779296875 246,350.8999938964844 246,351.6000061035156 247,352.20001220703125 248,352.79998779296875 249,353.3999938964844 250,353.8999938964844 251,354.3999938964844 252,354.79998779296875 253,355.29998779296875 254,355.8999938964844 255,356.5 256,357.20001220703125 256,357.8999938964844 257,358.6000061035156 257,359.29998779296875 258,360 258,360.8999938964844 258,361.79998779296875 258,362.79998779296875 258,363.79998779296875 258,364.6000061035156 258,365.5 258,366.3999938964844 258,367.5 257,368.70001220703125 257,370.1000061035156 256,371.6000061035156 256,373.1000061035156 256,374.5 255,375.79998779296875 254,376.8999938964844 254,377.70001220703125 253,378.29998779296875 252,378.8999938964844 251,379.5 250,380.1000061035156 249,380.79998779296875 249,381.5 248,382.29998779296875 248,383.20001220703125 248,384.29998779296875 247,385.3999938964844 247,386.3999938964844 247,387.29998779296875 247,388 246,388.5 245,388.79998779296875 245,388.79998779296875" style="fill:none;stroke:#ff0000;stroke-width:2"></polyline>
</g>
<g id="Axon #16">
<polyline points="253,378.29998779296875 253,379.20001220703125 253,379.79998779296875 253,380.5 253,381.29998779296875 253,382.29998779296875 253,383.29998779296875 253,384.5 253,385.5 253,386.3999938964844 254,387.29998779296875 254,388.3999938964844 255,389.6000061035156 255,390.8999938964844 256,392.20001220703125 256,393.29998779296875 256,394.29998779296875 256,395.20001220703125" style="fill:none;stroke:#ff0000;stroke-width:2"></polyline>
</g>
<g id="Axon #17">
<polyline points="204,363.70001220703125 204,364.3999938964844 203,365.1000061035156 203,366 203,367.1000061035156 203,368.29998779296875 203,369.5 202,370.70001220703125 202,372.20001220703125 201,374.1000061035156 201,376.1000061035156 201,378.20001220703125 200,380.20001220703125 199,382.1000061035156 198,384.1000061035156 196,386.20001220703125 194,388.6000061035156 192,390.79998779296875 190,392.8999938964844 189,394.6000061035156 187,396.20001220703125 186,397.3999938964844 184,398.3999938964844 183,399.3999938964844 181,400.6000061035156 179,402 177,403.6000061035156 175,405.29998779296875 174,406.8999938964844 174,408.20001220703125 173,409.6000061035156 173,411 172,412.70001220703125 172,414.20001220703125 171,415.70001220703125 170,417.29998779296875 169,419.3999938964844 167,421.6000061035156 166,423.6000061035156 164,425.1000061035156 162,426.20001220703125 160,427.20001220703125 158,428.1000061035156 157,429 156,430 155,431.29998779296875 154,432.70001220703125 153,434.5 151,436.1000061035156 150,437.6000061035156 149,438.79998779296875 147,439.8999938964844 145,441.1000061035156 143,442.5 141,443.8999938964844 139,445.29998779296875 138,446.79998779296875 136,448.3999938964844 135,450.20001220703125 133,452 132,453.5 131,454.70001220703125 130,455.79998779296875 129,457.1000061035156 128,458.6000061035156 126,460.29998779296875 125,461.70001220703125 124,462.79998779296875 123,463.8999938964844" style="fill:none;stroke:#ff0000;stroke-width:2"></polyline>
</g>
<g id="Axon #18">
<polyline points="502,251.3000030517578 502,251.3000030517578 502,251.39999389648438 501,251.6999969482422 501,252 500,252.39999389648438 499,252.8000030517578 499,253.1999969482422 498,253.5 498,253.6999969482422 497,253.89999389648438 497,254.1999969482422 496,254.39999389648438 495,254.60000610351562 495,254.8000030517578 494,255.10000610351562 493,255.39999389648438 493,255.8000030517578 492,256.20001220703125 491,256.6000061035156 491,256.8999938964844 490,257.20001220703125 489,257.3999938964844 489,257.5 488,257.6000061035156 487,257.70001220703125 487,257.70001220703125 486,257.70001220703125 485,257.79998779296875 484,257.8999938964844 483,257.8999938964844 483,258 482,258.1000061035156 481,258.1000061035156 481,258.29998779296875 480,258.6000061035156 480,259 479,259.3999938964844 478,259.8999938964844 477,260.29998779296875 476,260.70001220703125 476,261 475,261.20001220703125 474,261.29998779296875 474,261.3999938964844 473,261.29998779296875 472,261.20001220703125 472,261 471,260.70001220703125 471,260.3999938964844 470,259.8999938964844 469,259.3999938964844 469,258.8999938964844 468,258.29998779296875 468,257.70001220703125 467,257.1000061035156 467,256.6000061035156 466,256.20001220703125 466,255.8000030517578 465,255.5 464,255.10000610351562 464,254.8000030517578 463,254.5 463,254.1999969482422 462,254 461,253.89999389648438 460,253.8000030517578 459,253.6999969482422 458,253.60000610351562 457,253.5 456,253.5 455,253.5 454,253.39999389648438 453,253.3000030517578 452,253.1999969482422 451,253.1999969482422 450,253.10000610351562 449,253 448,253 447,253 446,253 445,253 444,253.10000610351562 443,253.3000030517578 442,253.60000610351562 441,253.89999389648438 440,254.1999969482422 439,254.5 438,254.6999969482422 437,254.89999389648438 436,255 435,255.1999969482422 434,255.3000030517578 433,255.39999389648438 432,255.5 431,255.60000610351562 430,255.6999969482422 430,255.89999389648438 429,256 428,256.1000061035156 427,256.1000061035156 426,256.20001220703125 425,256.20001220703125 425,256.20001220703125 424,256.29998779296875 423,256.29998779296875 423,256.29998779296875 422,256.29998779296875 421,256.29998779296875 420,256.29998779296875 419,256.29998779296875 417,256.29998779296875 416,256.29998779296875 415,256.20001220703125 414,256.20001220703125 413,256.20001220703125 412,256.20001220703125 411,256.20001220703125 411,256.1000061035156 410,255.89999389648438 409,255.6999969482422 408,255.39999389648438 407,255.10000610351562 406,254.6999969482422 405,254.39999389648438 405,254.1999969482422 404,254 403,253.8000030517578 402,253.6999969482422 401,253.5 400,253.3000030517578 399,253.1999969482422 399,253.10000610351562 398,253 397,252.89999389648438 396,252.8000030517578 395,252.60000610351562 394,252.5 393,252.3000030517578 392,252.3000030517578 391,252.1999969482422 390,252.1999969482422 389,252.1999969482422 389,252.1999969482422 388,252.1999969482422 387,252.1999969482422 386,252.1999969482422 385,252.1999969482422 384,252.1999969482422 383,252.1999969482422 382,252.1999969482422 382,252.1999969482422 381,252.1999969482422 380,252.1999969482422 380,252.1999969482422 379,252.3000030517578 379,252.39999389648438 378,252.60000610351562 378,252.8000030517578 377,253 376,253.1999969482422 376,253.39999389648438 375,253.5 374,253.6999969482422 373,253.8000030517578 372,253.89999389648438 372,254.10000610351562 371,254.1999969482422 371,254.3000030517578 370,254.39999389648438 369,254.60000610351562 369,254.6999969482422 368,254.8000030517578 367,254.89999389648438 366,255 365,255.1999969482422 364,255.3000030517578 364,255.39999389648438 363,255.60000610351562 363,255.6999969482422 362,256 362,256.1000061035156 361,256.3999938964844 360,256.6000061035156 360,257.1000061035156 359,257.5 359,258.1000061035156 358,258.6000061035156 358,259 358,259.3999938964844 357,259.79998779296875 357,260.1000061035156 357,260.5 357,260.8999938964844 356,261.3999938964844 356,261.8999938964844 355,262.3999938964844 355,262.8999938964844 355,263.29998779296875 354,263.79998779296875 354,264.29998779296875 354,264.70001220703125 353,265 353,265.29998779296875 353,265.6000061035156 352,265.79998779296875 352,266.1000061035156 351,266.29998779296875 351,266.5 350,266.70001220703125 350,266.8999938964844 349,267.1000061035156 349,267.29998779296875 348,267.5 348,267.70001220703125 347,267.8999938964844 347,268.1000061035156 347,268.20001220703125 346,268.29998779296875 346,268.3999938964844 345,268.5 345,268.6000061035156 344,268.79998779296875 344,268.8999938964844 343,269 343,269.20001220703125 343,269.29998779296875 342,269.3999938964844 342,269.5" style="fill:none;stroke:#ff0000;stroke-width:2"></polyline>
</g>
<g id="Axon #19">
<polyline points="430,255.6999969482422 431,256.29998779296875 431,256.79998779296875 431,257.29998779296875 431,257.8999938964844 432,258.5 432,259.1000061035156 432,259.8999938964844 433,260.70001220703125 433,261.6000061035156 433,262.3999938964844 433,263.3999938964844 433,264.20001220703125 433,264.8999938964844 432,265.3999938964844 432,265.79998779296875 432,266.29998779296875 431,266.79998779296875 430,267.29998779296875 429,267.8999938964844 429,268.3999938964844 428,268.8999938964844 427,269.3999938964844 426,269.8999938964844 425,270.3999938964844 424,271.1000061035156 423,271.79998779296875 422,272.5 421,273.20001220703125 419,273.8999938964844 418,274.6000061035156 417,275.3999938964844 416,276.29998779296875 415,277.3999938964844 414,278.5 413,279.6000061035156 412,280.70001220703125 412,281.70001220703125 411,282.79998779296875 411,284 410,285.3999938964844 409,286.79998779296875 409,288.29998779296875 408,289.70001220703125 407,291.1000061035156 407,292.20001220703125 406,293.20001220703125 405,294 404,294.79998779296875 403,295.6000061035156 402,296.5 402,297.3999938964844 401,298.3999938964844 400,299.3999938964844 400,300.3999938964844 399,301.20001220703125 398,302 398,302.79998779296875 397,303.70001220703125 396,304.5 395,305.29998779296875 395,306.1000061035156 394,306.8999938964844 393,307.70001220703125 392,308.5 391,309.3999938964844 391,310.29998779296875 390,311.20001220703125 389,312.1000061035156 389,313 389,313.8999938964844 388,314.79998779296875 388,315.6000061035156 387,316.3999938964844 386,317.20001220703125 385,317.8999938964844 385,318.29998779296875 384,318.5" style="fill:none;stroke:#ff0000;stroke-width:2"></polyline>
</g>
<g id="Axon #20">
<polyline points="433,263.3999938964844 433,263.79998779296875 433,264.1000061035156 433,264.5 434,264.8999938964844 434,265.29998779296875 434,265.6000061035156 435,266 435,266.3999938964844 435,266.8999938964844 436,267.3999938964844 436,267.8999938964844 437,268.29998779296875 437,268.70001220703125 437,269 438,269.3999938964844 438,269.70001220703125 439,270.1000061035156 439,270.5 440,270.8999938964844 440,271.3999938964844 441,271.79998779296875 441,272.29998779296875 441,272.79998779296875 442,273.3999938964844 442,273.8999938964844 443,274.29998779296875 443,274.70001220703125 444,275.1000061035156 444,275.5 445,275.8999938964844 445,276.29998779296875 446,276.79998779296875 447,277.29998779296875 448,277.70001220703125 449,277.8999938964844 450,278.1000061035156 451,278.1000061035156 451,278 452,277.79998779296875 452,277.6000061035156 453,277.3999938964844 453,277.1000061035156 454,276.70001220703125 455,276.29998779296875 455,275.70001220703125 456,275.1000061035156 457,274.5 458,274 458,273.5 459,272.8999938964844 460,272.3999938964844 461,272.1000061035156 462,271.8999938964844 463,271.70001220703125 463,271.5 464,271.3999938964844" style="fill:none;stroke:#ff0000;stroke-width:2"></polyline>
</g>
<g id="Axon #21">
<polyline points="458,274 457,273.29998779296875 457,272.8999938964844 457,272.3999938964844 457,272 457,271.3999938964844 456,270.79998779296875 456,270.1000061035156 456,269.3999938964844 455,268.79998779296875 455,268.1000061035156 454,267.5 454,266.79998779296875 454,266.20001220703125 453,265.6000061035156 453,265 452,264.5 452,264.1000061035156 451,263.8999938964844 451,263.79998779296875" style="fill:none;stroke:#ff0000;stroke-width:2"></polyline>
</g>
<g id="Axon #22">
<polyline points="482,258.1000061035156 482,258 482,257.8999938964844 482,257.70001220703125 482,257.3999938964844 482,257.20001220703125 481,257 481,256.70001220703125 481,256.3999938964844 480,256.1000061035156 480,256 479,255.89999389648438 479,255.6999969482422 478,255.60000610351562 477,255.39999389648438 477,255.39999389648438 476,255.3000030517578 475,255.1999969482422 474,254.89999389648438 473,254.60000610351562 473,254.1999969482422 472,253.8000030517578 472,253.5 472,253.10000610351562 471,252.6999969482422 471,252.39999389648438 470,252.1999969482422 470,251.89999389648438 469,251.60000610351562 469,251.3000030517578 468,250.89999389648438 467,250.60000610351562 466,250.1999969482422 465,249.6999969482422 464,249.10000610351562 464,248.60000610351562 463,248.10000610351562 462,247.6999969482422 462,247.39999389648438 461,247.10000610351562 460,246.89999389648438 460,246.8000030517578 459,246.6999969482422 459,246.60000610351562 459,246.60000610351562" style="fill:none;stroke:#ff0000;stroke-width:2"></polyline>
</g>
<g id="Axon #23">
<polyline points="342,269.5 341,269.5 341,269.6000061035156 340,269.6000061035156 340,269.6000061035156 339,269.6000061035156 338,269.6000061035156 337,269.6000061035156 336,269.6000061035156 335,269.6000061035156 335,269.70001220703125 334,269.70001220703125 333,269.79998779296875 332,269.8999938964844 332,269.8999938964844 331,269.8999938964844 330,270 329,270.1000061035156 329,270.20001220703125 328,270.29998779296875 327,270.3999938964844 326,270.3999938964844 325,270.3999938964844 324,270.1000061035156 323,269.79998779296875 323,269.5 322,269.20001220703125 321,268.8999938964844 320,268.6000061035156 319,268.3999938964844 318,268.29998779296875 317,268.20001220703125 316,268.1000061035156 315,268 314,267.8999938964844 313,267.8999938964844 311,267.79998779296875 310,267.79998779296875 309,267.79998779296875 308,267.79998779296875 308,267.79998779296875 307,267.79998779296875 306,267.79998779296875 305,267.79998779296875 305,268 304,268.20001220703125 303,268.3999938964844 302,268.6000061035156 301,268.8999938964844 300,269.1000061035156 299,269.3999938964844 298,269.6000061035156 297,269.70001220703125 296,269.79998779296875 296,270 295,270.20001220703125 294,270.3999938964844 293,270.70001220703125 292,271.20001220703125 291,271.70001220703125 290,272.1000061035156 289,272.5 288,272.79998779296875 287,273.1000061035156 286,273.3999938964844 285,273.5 285,273.70001220703125 284,273.8999938964844 283,274.1000061035156 283,274.20001220703125 282,274.29998779296875 281,274.3999938964844 280,274.5 279,274.6000061035156 278,274.79998779296875 278,275.1000061035156 277,275.3999938964844 276,275.79998779296875 274,276.1000061035156 273,276.5 272,276.70001220703125 271,276.8999938964844 270,277.1000061035156 269,277.29998779296875 269,277.5 268,277.70001220703125" style="fill:none;stroke:#ff0000;stroke-width:2"></polyline>
</g>
<g id="Axon #24">
<polyline points="432,247.39999389648438 432,246.8000030517578 432,246.3000030517578 432,245.60000610351562 432,244.6999969482422 432,243.5 431,242.3000030517578 431,241 431,239.89999389648438 431,238.89999389648438 430,238 430,237 430,236 430,235.10000610351562 429,234.10000610351562 429,233.10000610351562 429,232.10000610351562 430,231 430,229.89999389648438 431,228.6999969482422 432,227.3000030517578 433,226 434,224.8000030517578 434,223.6999969482422 435,222.8000030517578 435,222 436,221.3000030517578 436,220.60000610351562 437,219.89999389648438 438,219.1999969482422 438,218.6999969482422 439,218.3000030517578 439,218 440,217.5 440,217 441,216.39999389648438 441,215.6999969482422 441,215 442,214.3000030517578 442,213.8000030517578 442,213.3000030517578 442,213.10000610351562 443,212.89999389648438 444,212.89999389648438 445,212.8000030517578 446,212.8000030517578 448,212.8000030517578 449,212.8000030517578 450,212.8000030517578 451,212.89999389648438 452,212.8000030517578 453,212.6999969482422 454,212.10000610351562 455,211 456,209.39999389648438 456,207.39999389648438 457,205.3000030517578 457,203.39999389648438 457,201.8000030517578 457,200.60000610351562 458,199.6999969482422 458,198.89999389648438 458,198.1999969482422 459,197.5 459,197 459,196.5 459,196.1999969482422" style="fill:none;stroke:#ff0000;stroke-width:2"></polyline>
</g>
<g id="Axon #25">
<polyline points="441,216.39999389648438 441,216.5 441,216.6999969482422 441,216.89999389648438 442,217.1999969482422 442,217.5 442,217.8000030517578 443,218.10000610351562 443,218.5 443,219.10000610351562 444,219.8000030517578 444,220.8000030517578 445,222.10000610351562 446,223.5 446,224.6999969482422 447,225.6999969482422 448,226.39999389648438 449,226.89999389648438 449,227.10000610351562 450,227.1999969482422 451,227.3000030517578 452,227.39999389648438 452,227.5 453,227.60000610351562 454,227.6999969482422 455,227.89999389648438 456,228.10000610351562 457,228.3000030517578 458,228.60000610351562 459,228.89999389648438 461,229.1999969482422 462,229.60000610351562 464,229.89999389648438 465,230.3000030517578 467,230.6999969482422 469,231.10000610351562 471,231.5 472,231.8000030517578 474,232.10000610351562 475,232.5 476,233 477,233.6999969482422 478,234.3000030517578 479,234.8000030517578" style="fill:none;stroke:#ff0000;stroke-width:2"></polyline>
</g>
<g id="Axon #26">
<polyline points="454,227.6999969482422 455,225.39999389648438 456,224.10000610351562 457,223 457,222.10000610351562 457,221.1999969482422 458,220.10000610351562 458,219.10000610351562 459,218.10000610351562 459,217.39999389648438 460,216.8000030517578 461,216.3000030517578 461,215.60000610351562 462,214.60000610351562 463,213.39999389648438 463,212.10000610351562 463,211 463,210 464,209.10000610351562 464,208.10000610351562 464,207 464,206.10000610351562 464,205.3000030517578 464,204.8000030517578 464,204.1999969482422 463,203.39999389648438 463,202.39999389648438 462,201.3000030517578 461,200.1999969482422 461,199.10000610351562 460,198.10000610351562 460,197.39999389648438 459,196.89999389648438 459,196.5 459,196.1999969482422 459,196.1999969482422" style="fill:none;stroke:#ff0000;stroke-width:2"></polyline>
</g>
<g id="Axon #27">
<polyline points="479,234.8000030517578 478,235.60000610351562 478,236.3000030517578 478,237.1999969482422 478,238 478,238.8000030517578 478,239.60000610351562 478,240.1999969482422 478,241 478,241.6999969482422 478,242.5 479,243.3000030517578 479,243.89999389648438 480,244.5 481,244.6999969482422 482,244.8000030517578 483,244.8000030517578 484,244.6999969482422 485,244.60000610351562 486,244.5 488,244.60000610351562 489,244.8000030517578 490,245.10000610351562 490,245.39999389648438 491,246 492,246.60000610351562 492,247.39999389648438 493,248.3000030517578 493,249.1999969482422 494,250.10000610351562 494,251 495,251.6999969482422 495,252.39999389648438 495,253 495,253.60000610351562 496,254.10000610351562 496,254.39999389648438 496,254.5 496,254.39999389648438" style="fill:none;stroke:#ff0000;stroke-width:2"></polyline>
</g>
<g id="Axon #28">
<polyline points="479,234.8000030517578 479,234.8000030517578 480,234.6999969482422 481,234.60000610351562 482,234.3000030517578 483,234.10000610351562 484,233.8000030517578 485,233.5 487,233.10000610351562 489,232.6999969482422 490,232.1999969482422 492,231.8000030517578 493,231.5 495,231.1999969482422 496,230.89999389648438 498,230.8000030517578 499,230.6999969482422 501,230.60000610351562 502,230.6999969482422 503,230.8000030517578 504,230.89999389648438 505,231.10000610351562 506,231.3000030517578 507,231.3000030517578 509,231.10000610351562 510,230.8000030517578 511,230.5 512,230.1999969482422 513,230 514,230 515,230 516,230.39999389648438 517,231.10000610351562 518,232.10000610351562 518,233.10000610351562 519,233.89999389648438 519,234.6999969482422 520,235.60000610351562 520,236.5 521,237.3000030517578 521,238 521,238.8000030517578 522,239.8000030517578 522,241.1999969482422 522,242.60000610351562 523,244 524,245.1999969482422 524,246.10000610351562 525,246.6999969482422 526,247.39999389648438 527,248.10000610351562 528,249.1999969482422 529,250.39999389648438 530,251.6999969482422 530,252.6999969482422 531,253.5 531,254.1999969482422 532,254.8000030517578 532,255.60000610351562 533,256.3999938964844 533,257.29998779296875 534,258 534,258.5 535,258.79998779296875 535,258.8999938964844" style="fill:none;stroke:#ff0000;stroke-width:2"></polyline>
</g>
<g id="Axon #29">
<polyline points="522,239.8000030517578 522,239.60000610351562 522,239.39999389648438 523,239.1999969482422 524,239 525,238.8000030517578 525,238.5 526,238.3000030517578 527,238 528,237.39999389648438 530,236.60000610351562 531,235.6999969482422 532,234.8000030517578 533,233.89999389648438 534,233 535,232.10000610351562 536,231.1999969482422 536,230.3000030517578 536,229.39999389648438 537,228.39999389648438 537,227.39999389648438 538,226.60000610351562 539,225.89999389648438 540,225.3000030517578 541,224.6999969482422 543,224 545,223.39999389648438 547,222.60000610351562 549,221.89999389648438 550,221 552,220.3000030517578 552,219.5 553,218.8000030517578 554,217.8000030517578 555,216.6999969482422 556,215.39999389648438 556,214.10000610351562 557,212.89999389648438 558,211.6999969482422 559,210.5 560,209.5 561,208.39999389648438 563,207.1999969482422 564,206.10000610351562 565,205.10000610351562 567,204.10000610351562 568,203 569,202 571,201 572,200.10000610351562 574,199.1999969482422 576,198.3000030517578 578,197.1999969482422 581,196 584,194.6999969482422 586,193.3000030517578 589,192 591,190.3000030517578 594,188.60000610351562 596,187 598,185.60000610351562 599,184.10000610351562 600,182.5 601,180.60000610351562 602,179 603,177.60000610351562 603,176.60000610351562 604,175.89999389648438" style="fill:none;stroke:#ff0000;stroke-width:2"></polyline>
</g>
<g id="Axon #30">
<polyline points="556,215.39999389648438 556,215.60000610351562 557,215.5 558,215.1999969482422 559,214.8000030517578 561,214.1999969482422 562,213.6999969482422 563,213.1999969482422 564,212.60000610351562 566,211.89999389648438 567,211.10000610351562 568,210.1999969482422 568,209.39999389648438 569,208.8000030517578 569,208.3000030517578" style="fill:none;stroke:#ff0000;stroke-width:2"></polyline>
</g>
<g id="Axon #31">
<polyline points="459,197 459,196.6999969482422 459,196.10000610351562 459,195.1999969482422 459,193.89999389648438 459,192.5 458,190.89999389648438 458,189.5 458,188.1999969482422 458,186.89999389648438 457,185.60000610351562 457,184.3000030517578 456,183 456,181.8000030517578 455,180.39999389648438 454,178.8000030517578 454,177.1999969482422 453,175.6999969482422 453,174.39999389648438 452,173.3000030517578 451,172.10000610351562 451,171 451,169.60000610351562 451,168.1999969482422 451,167 451,166.10000610351562 451,165.1999969482422 451,164.39999389648438 451,163.5 451,162.39999389648438 451,161.3000030517578 450,160 450,158.60000610351562 450,157 450,155.60000610351562 449,154.10000610351562 449,152.60000610351562 448,151.10000610351562 447,149.6999969482422 447,148.3000030517578 446,147.1999969482422 445,146.1999969482422 445,145.10000610351562 444,143.89999389648438 444,142.39999389648438 443,140.8000030517578 443,139.1999969482422 443,137.5 443,135.6999969482422 443,133.6999969482422 443,131.8000030517578 444,130 444,128.39999389648438 444,126.80000305175781 444,125.30000305175781 444,123.80000305175781 443,122.0999984741211 444,120.30000305175781 444,118.30000305175781 444,116.19999694824219 444,114.30000305175781 444,112.30000305175781 444,110.19999694824219 444,107.69999694824219 444,105.19999694824219 443,102.5999984741211 443,100.5999984741211 442,98.80000305175781 441,97.19999694824219 441,95.4000015258789 440,93.5999984741211 440,91.69999694824219 440,90 440,88.0999984741211 440,86.0999984741211 439,84 439,81.9000015258789 439,79.9000015258789 439,78.19999694824219 438,76.5 438,75 438,73.5 438,72 438,70.4000015258789 438,68.5 438,66.5999984741211 438,64.80000305175781 437,63" style="fill:none;stroke:#ff0000;stroke-width:2"></polyline>
</g>
<g id="Axon #32">
<polyline points="444,112.30000305175781 444,111.9000015258789 445,111.69999694824219 446,111.4000015258789 447,111.0999984741211 448,110.9000015258789 449,110.5999984741211 451,110.30000305175781 452,109.9000015258789 453,109.30000305175781 454,108.80000305175781 455,108.19999694824219 456,107.5999984741211 457,107 458,106.4000015258789" style="fill:none;stroke:#ff0000;stroke-width:2"></polyline>
</g>
<g id="Axon #33">
<polyline points="406,371.5 407,370.79998779296875 408,370.29998779296875 408,369.5 409,368.29998779296875 410,367.1000061035156 411,365.70001220703125 412,364.29998779296875 413,362.79998779296875 414,361.20001220703125 415,359.70001220703125 415,358.5 416,357.3999938964844 417,356.6000061035156 418,355.8999938964844 419,355.29998779296875 421,354.79998779296875 424,354.3999938964844 426,354 429,353.6000061035156 432,353.20001220703125 434,352.79998779296875 437,352.5 439,352.1000061035156 441,351.6000061035156 443,351.29998779296875 445,351.1000061035156 446,351 449,350.8999938964844 451,350.8999938964844 454,350.8999938964844 456,350.8999938964844 458,350.8999938964844 461,351 462,351.3999938964844 464,351.8999938964844 466,352.5 467,352.8999938964844 469,353.20001220703125 471,353.5 472,353.8999938964844 473,354.20001220703125 475,354.3999938964844 477,354.20001220703125 478,353.6000061035156 480,353 481,352.6000061035156 482,352.3999938964844 483,352.20001220703125 484,352.1000061035156 485,352.1000061035156 486,352.1000061035156 486,352.1000061035156" style="fill:none;stroke:#ff0000;stroke-width:2"></polyline>
</g>
<g id="Axon #34">
<polyline points="406,371.5 404,372.70001220703125 404,372.8999938964844 404,372.8999938964844 404,372.5 405,372.1000061035156 405,371.70001220703125 406,371.5" style="fill:none;stroke:#ff0000;stroke-width:2"></polyline>
</g>
<g id="Axon #35">
<polyline points="486,352.1000061035156 486,351.1000061035156 486,350.20001220703125 486,349.1000061035156 485,347.8999938964844 485,346.5 485,345.1000061035156 485,343.8999938964844 485,342.8999938964844 485,341.79998779296875 484,340.79998779296875 484,339.6000061035156 484,338.6000061035156 483,337.70001220703125 483,337 483,336.29998779296875 482,335.3999938964844 482,334.3999938964844 480,333.29998779296875 479,332.1000061035156 478,331 477,329.8999938964844 476,328.79998779296875 475,327.70001220703125 474,326.6000061035156 474,325.6000061035156 473,324.79998779296875 473,324.3999938964844 472,323.8999938964844 472,323.20001220703125 471,322.29998779296875 470,321.29998779296875 469,320.29998779296875 468,319.29998779296875 467,318.3999938964844 466,317.20001220703125 466,315.79998779296875 466,314.3999938964844 465,313.20001220703125 465,312.29998779296875 465,311.3999938964844 465,310.5 465,309.3999938964844 465,308 464,306.6000061035156 464,305.20001220703125 463,303.79998779296875 463,302.6000061035156 462,301.5 462,300.5 461,299.3999938964844 460,298.29998779296875 459,297.20001220703125 459,296.1000061035156 458,294.8999938964844 458,293.6000061035156 457,292.29998779296875 457,291 457,289.70001220703125 457,288.29998779296875 456,287 456,285.6000061035156 456,284.20001220703125 455,283 455,281.8999938964844 454,280.8999938964844 454,280.1000061035156 454,279.3999938964844 453,278.8999938964844 453,278.29998779296875 453,277.79998779296875 453,277.3999938964844 453,277.20001220703125 453,277.3999938964844" style="fill:none;stroke:#ff0000;stroke-width:2"></polyline>
</g>
<g id="Axon #36">
<polyline points="472,261 472,261.29998779296875 472,261.79998779296875 472,262.29998779296875 472,262.8999938964844 473,263.6000061035156 473,264.20001220703125 473,264.8999938964844 474,265.6000061035156 475,266.3999938964844 475,267.3999938964844 476,268.6000061035156 477,269.8999938964844 477,271.29998779296875 478,272.70001220703125 479,274.20001220703125 479,275.6000061035156 480,277.1000061035156 481,278.5 482,279.79998779296875 483,281.1000061035156 484,282.6000061035156 485,284.20001220703125 486,286 486,287.79998779296875 486,289.6000061035156 487,291.5 488,293.1000061035156 489,294.3999938964844 490,295.70001220703125 492,297.20001220703125 494,299 495,301 497,302.79998779296875 498,304.5 499,305.8999938964844 499,307.20001220703125 500,308.5 502,310 504,311.6000061035156 506,313.29998779296875 507,314.6000061035156 509,315.6000061035156 510,316.29998779296875 511,317.20001220703125 513,318.20001220703125 515,319.3999938964844 517,320.70001220703125 519,322.20001220703125 521,323.5 522,324.79998779296875 524,325.8999938964844 525,327.1000061035156 527,328.3999938964844 529,329.79998779296875 530,331.20001220703125 531,332.6000061035156 533,333.8999938964844 534,335.29998779296875 536,336.70001220703125 538,338.20001220703125 539,339.79998779296875 540,341.6000061035156 541,343.29998779296875 541,344.8999938964844 542,346.5 542,348 542,349.6000061035156 542,351.29998779296875 543,353.29998779296875 543,355.20001220703125 544,357.20001220703125 544,359.29998779296875 544,361.6000061035156 544,364 543,365.8999938964844 543,367.20001220703125" style="fill:none;stroke:#ff0000;stroke-width:2"></polyline>
</g>
<g id="Axon #37">
<polyline points="543,355.20001220703125 544,354.70001220703125 544,354.5 544,354.3999938964844 545,354.3999938964844 546,354.3999938964844 547,354.3999938964844 548,354.3999938964844 549,354.3999938964844 551,354.3999938964844 552,354.3999938964844 554,354.29998779296875 556,354.1000061035156 557,353.70001220703125 559,353.20001220703125 560,352.6000061035156 561,351.8999938964844 562,351.20001220703125 563,350.8999938964844 564,350.70001220703125 565,350.70001220703125 566,350.79998779296875 568,351 571,351.3999938964844 573,352 574,352.70001220703125 576,353.3999938964844 578,353.79998779296875 579,354.1000061035156 581,354.20001220703125 583,354.20001220703125 584,354.20001220703125 586,354.1000061035156 588,354.1000061035156 590,354 591,353.79998779296875 592,353.70001220703125 593,353.5 594,353.29998779296875 595,353.1000061035156 597,352.8999938964844 599,352.79998779296875 600,352.8999938964844 602,353.1000061035156 603,353.6000061035156 604,354.3999938964844 604,355.5 605,356.8999938964844 605,358.5 606,360.29998779296875 606,362.29998779296875 607,364.20001220703125 607,366 608,367.5 608,368.6000061035156" style="fill:none;stroke:#ff0000;stroke-width:2"></polyline>
</g>
<g id="Axon #38">
<polyline points="535,258.8999938964844 536,259.20001220703125 536,259.29998779296875 538,259.3999938964844 539,259.6000061035156 541,259.79998779296875 544,260.1000061035156 546,260.5 549,261 551,261.6000061035156 552,262.3999938964844 554,263.29998779296875 556,264.20001220703125 557,265.20001220703125 558,266 559,266.79998779296875 560,267.5 562,268 564,268.3999938964844 566,268.79998779296875 568,269.20001220703125 570,269.70001220703125 572,270.1000061035156 573,270.5 575,270.79998779296875 577,270.79998779296875 579,270.79998779296875 581,270.70001220703125 583,270.79998779296875 585,271.1000061035156 586,271.6000061035156 587,272.29998779296875 588,273 589,273.5 591,273.79998779296875 593,273.8999938964844 594,273.8999938964844 595,274 596,274 598,274 599,274 601,274 602,274.1000061035156 604,274.1000061035156 606,274.20001220703125 608,274.20001220703125 611,274.20001220703125 614,274.20001220703125 616,274.20001220703125 617,274.3999938964844" style="fill:none;stroke:#ff0000;stroke-width:2"></polyline>
</g>
<g id="Axon #39">
<polyline points="557,265.20001220703125 557,264.6000061035156 557,264.20001220703125 557,263.79998779296875 557,263.29998779296875 558,262.70001220703125 558,262.1000061035156 558,261.5 558,260.6000061035156 558,259.5 558,258.3999938964844 559,257.5 559,256.8999938964844 560,256.5 562,256 563,255.39999389648438 565,254.6999969482422 566,253.6999969482422 567,252.8000030517578 568,251.89999389648438" style="fill:none;stroke:#ff0000;stroke-width:2"></polyline>
</g>
<g id="Axon #40">
<polyline points="579,270.79998779296875 579,270.5 580,270 581,269.3999938964844 582,268.79998779296875 583,268.1000061035156 585,267.5 586,266.8999938964844 587,266.5 589,266 591,265.6000061035156 593,265.20001220703125 594,264.70001220703125 596,264.20001220703125 597,263.70001220703125 598,263.29998779296875" style="fill:none;stroke:#ff0000;stroke-width:2"></polyline>
</g>
<g id="Axon #41">
<polyline points="588,273 587,273.70001220703125 586,274.20001220703125 586,274.79998779296875 584,275.5 583,276.20001220703125 582,276.79998779296875 581,277.20001220703125 580,277.6000061035156 579,277.8999938964844 578,278" style="fill:none;stroke:#ff0000;stroke-width:2"></polyline>
</g>
<g id="Axon #42">
<polyline points="535,258.79998779296875 533,259.1000061035156 532,259.5 530,259.79998779296875 528,260.29998779296875 526,260.70001220703125 525,261.20001220703125 523,261.5 521,261.79998779296875 519,262.1000061035156 517,262.3999938964844 515,262.70001220703125 514,262.79998779296875 512,262.70001220703125 511,262.1000061035156 510,261.1000061035156 509,259.70001220703125 508,258.29998779296875 507,257.1000061035156 507,256.29998779296875 506,255.60000610351562 505,255 504,254.39999389648438 504,253.8000030517578 503,253.1999969482422 502,252.6999969482422 502,252.3000030517578 502,251.89999389648438 502,251.60000610351562 502,251.39999389648438" style="fill:none;stroke:#ff0000;stroke-width:2"></polyline>
</g>
<g id="Axon #43">
<polyline points="506,255.60000610351562 505,256.29998779296875 504,256.70001220703125 503,257.20001220703125 502,257.70001220703125 501,258.20001220703125 500,258.70001220703125 499,259.1000061035156 499,259.3999938964844 498,259.70001220703125 498,260.1000061035156 497,260.20001220703125 496,260.1000061035156 494,259.70001220703125 493,259.1000061035156 492,258.6000061035156 491,258.1000061035156 490,257.79998779296875 490,257.6000061035156 489,257.3999938964844" style="fill:none;stroke:#ff0000;stroke-width:2"></polyline>
</g>
<g id="Axon #44">
<polyline points="477,260.29998779296875 477,260.70001220703125 477,261.20001220703125 478,262.1000061035156 478,263.29998779296875 479,264.6000061035156 479,265.8999938964844 480,267.20001220703125 480,268.6000061035156 481,269.79998779296875 481,271 482,272.20001220703125 483,273.29998779296875 484,274.3999938964844 486,275.29998779296875 487,276 488,276.6000061035156 489,277 490,277.20001220703125 490,277.29998779296875 491,277.29998779296875 493,277.29998779296875 494,277.29998779296875 495,277.20001220703125 497,277.1000061035156 498,276.79998779296875 500,276.29998779296875 502,275.79998779296875 504,275.29998779296875 506,274.8999938964844 507,274.5 509,274.29998779296875 510,274.20001220703125 511,274.29998779296875 512,274.3999938964844 514,274.5 515,274.79998779296875 517,275.1000061035156 519,275.6000061035156 520,276 522,276.29998779296875 524,276.3999938964844 526,276.5 528,276.70001220703125 530,277.1000061035156 532,277.5 534,278.1000061035156 536,278.8999938964844 538,279.79998779296875 539,280.70001220703125 541,281.6000061035156 542,282.5 544,283.29998779296875 545,284 547,284.70001220703125 549,285.5 550,286.3999938964844 552,287.20001220703125 554,287.5 556,287.5 558,287.1000061035156 560,286.6000061035156 562,286.1000061035156 563,285.8999938964844 564,286 566,286.5 567,287.3999938964844 569,288.3999938964844 570,289.70001220703125 571,291 573,292.29998779296875 574,293.5 576,294.3999938964844 578,295.1000061035156 579,295.79998779296875 581,296.5 583,297.20001220703125 584,297.79998779296875 586,298.3999938964844 587,299 589,299.70001220703125 591,300.5 592,301.5 594,302.5 595,303.5 598,304.29998779296875 600,304.8999938964844 604,305.29998779296875" style="fill:none;stroke:#ff0000;stroke-width:2"></polyline>
</g>
<g id="Axon #45">
<polyline points="498,260.1000061035156 498,260.6000061035156 498,261.1000061035156 499,261.70001220703125 499,262.3999938964844 500,263.1000061035156 501,264 502,264.79998779296875 503,265.6000061035156 505,266.1000061035156 507,266.29998779296875 509,266.29998779296875 510,266.20001220703125 512,266.1000061035156 513,266 514,265.8999938964844 515,265.8999938964844 516,265.8999938964844 518,265.8999938964844 520,266 522,266 524,266.1000061035156 525,266.20001220703125 527,266.29998779296875 527,266.5 528,266.79998779296875 529,267.29998779296875 530,267.79998779296875 531,268.5 533,269.20001220703125 534,269.8999938964844 536,270.5 538,271 540,271.5 542,272.20001220703125 544,273.1000061035156 547,274.20001220703125 549,275.29998779296875 550,276.29998779296875 551,277.20001220703125 552,277.79998779296875 553,278.20001220703125 555,278.5 557,278.79998779296875 558,279.20001220703125 560,279.5 562,279.79998779296875 564,280.1000061035156 565,280.29998779296875" style="fill:none;stroke:#ff0000;stroke-width:2"></polyline>
</g>
<g id="Axon #46">
<polyline points="538,259.3999938964844 538,262 539,263.6000061035156 541,265 542,265.79998779296875 542,266.5 543,267.20001220703125 544,267.8999938964844 546,268.5 547,268.79998779296875 549,268.8999938964844 551,269 552,269 554,268.8999938964844 555,268.79998779296875 556,268.6000061035156 557,268.3999938964844 557,268.20001220703125 558,268 559,267.8999938964844 559,267.79998779296875 560,267.5" style="fill:none;stroke:#ff0000;stroke-width:2"></polyline>
</g>
<g id="Axon #47">
<polyline points="591,273.79998779296875 590,274.6000061035156 590,275.3999938964844 591,276.5 591,277.70001220703125 592,278.8999938964844 593,279.8999938964844 595,280.79998779296875 597,281.6000061035156 598,282.3999938964844 600,283.20001220703125 602,284.1000061035156 604,285.3999938964844 605,286.70001220703125 606,287.79998779296875 607,288.5" style="fill:none;stroke:#ff0000;stroke-width:2"></polyline>
</g>
<g id="Axon #48">
<polyline points="583,268.1000061035156 583,267.70001220703125 583,267.3999938964844 583,267 582,266.6000061035156 582,265.8999938964844 581,265.20001220703125 580,264.3999938964844 580,263.70001220703125 579,263 578,262.5 578,262.1000061035156" style="fill:none;stroke:#ff0000;stroke-width:2"></polyline>
</g>
<g id="Axon #49">
<polyline points="566,253.6999969482422 565,253.5 565,253 565,252.3000030517578 565,251.5 564,250.60000610351562 564,249.5 563,248.39999389648438 562,247.3000030517578 561,246.1999969482422 560,245.1999969482422 558,244.5 556,244.10000610351562 554,244.10000610351562 552,244.3000030517578 550,244.5 548,244.8000030517578" style="fill:none;stroke:#ff0000;stroke-width:2"></polyline>
</g>
<g id="Axon #50">
<polyline points="501,252 500,250.6999969482422 500,249.6999969482422 500,248.6999969482422 500,247.6999969482422 499,246.60000610351562 499,245.1999969482422 498,243.6999969482422 497,242.3000030517578 496,241.3000030517578 496,240.60000610351562" style="fill:none;stroke:#ff0000;stroke-width:2"></polyline>
</g>
<g id="Axon #51">
<polyline points="812,195.89999389648438 813,197.8000030517578 814,199.3000030517578 816,200.89999389648438 817,202.6999969482422 818,204.5 819,206.1999969482422 820,207.6999969482422 821,209.10000610351562 822,210.39999389648438 824,211.5 825,212.60000610351562 827,213.8000030517578 829,215.10000610351562 831,216.39999389648438 833,217.60000610351562 834,218.5 836,219.1999969482422 836,219.60000610351562 837,219.6999969482422" style="fill:none;stroke:#ff0000;stroke-width:2"></polyline>
</g>
<g id="Axon #52">
<polyline points="837,219.6999969482422 837,219 837,218.3000030517578 837,217.39999389648438 837,216.1999969482422 837,215 837,213.5 838,211.60000610351562 838,209.39999389648438 838,207.3000030517578 839,205.60000610351562 839,204 840,202.5 840,201.1999969482422 841,199.89999389648438 842,198.6999969482422 842,197.39999389648438 843,196.3000030517578 844,195.1999969482422 844,193.89999389648438 844,192.5 845,191 845,189.8000030517578 844,188.89999389648438" style="fill:none;stroke:#ff0000;stroke-width:2"></polyline>
</g>
<g id="Axon #53">
<polyline points="837,219 837,219.8000030517578 837,220.6999969482422 837,221.6999969482422 837,222.6999969482422 837,223.8000030517578 837,225.10000610351562 837,226.60000610351562 837,228.10000610351562 837,229.5 837,230.8000030517578 837,232.1999969482422 837,233.89999389648438 837,236 836,238.60000610351562 835,241.3000030517578 834,243.89999389648438 833,246.3000030517578 831,248.5 830,250.60000610351562 828,252.5 827,254.1999969482422 827,255.89999389648438 826,258 825,260.3999938964844 825,263.1000061035156 824,265.8999938964844 823,268.5 823,270.6000061035156 822,272.3999938964844 821,274 820,275.6000061035156 820,277.5 819,279.20001220703125 819,280.8999938964844 819,282.6000061035156 820,284.5 820,286.6000061035156 820,288.70001220703125 820,290.5 819,292.5 819,294.70001220703125 817,297.20001220703125 816,299.79998779296875 815,302 815,303.70001220703125 814,305.1000061035156 814,306.29998779296875 813,307.5 813,308.70001220703125 813,309.70001220703125 812,310.5 812,310.8999938964844 812,311.20001220703125" style="fill:none;stroke:#ff0000;stroke-width:2"></polyline>
</g>
<g id="Axon #54">
<polyline points="812,311.20001220703125 811,310.79998779296875 810,310.5 809,310.20001220703125 808,310.20001220703125 807,310.5 806,311.5 805,313 804,314.8999938964844 802,316.6000061035156 800,318.29998779296875 798,319.79998779296875 795,321.3999938964844 793,323.1000061035156 791,324.79998779296875 790,326.1000061035156 788,327.20001220703125 785,328.1000061035156 783,329.1000061035156 780,330.29998779296875 778,331.5 776,332.70001220703125 774,333.70001220703125 773,334.5 772,335.1000061035156" style="fill:none;stroke:#ff0000;stroke-width:2"></polyline>
</g>
<g id="Axon #55">
<polyline points="812,311.20001220703125 812,311.6000061035156 813,311.79998779296875 813,311.79998779296875 814,311.70001220703125 815,311.5 816,311.3999938964844 818,311.20001220703125 819,311.20001220703125 821,311.3999938964844 823,311.8999938964844 825,312.70001220703125 827,313.5 829,314.5 830,315.3999938964844 832,316.3999938964844 833,317.5 833,318.79998779296875 834,320.29998779296875 834,321.79998779296875 834,323 834,323.8999938964844 834,324.70001220703125 833,325.8999938964844 832,327.5 830,329.1000061035156 829,330.3999938964844 827,331.5 826,332.5 825,333.70001220703125 823,335.1000061035156 822,336.8999938964844 820,338.79998779296875 819,340.70001220703125 818,342.29998779296875 816,343.6000061035156 815,344.79998779296875 814,345.8999938964844 813,346.70001220703125 812,347.29998779296875 811,347.8999938964844 809,348.29998779296875 808,348.70001220703125 807,349 806,349.3999938964844 805,349.79998779296875 805,350.1000061035156 804,350 804,349.6000061035156 803,348.8999938964844 801,348.1000061035156 800,347.5 798,347.1000061035156 797,346.8999938964844 796,346.79998779296875 795,346.70001220703125 794,346.79998779296875 792,347 791,347.5 790,348.20001220703125 789,349 788,349.70001220703125 787,350.3999938964844 785,350.79998779296875 784,350.8999938964844 782,350.8999938964844 780,350.8999938964844 779,350.8999938964844 777,350.8999938964844 775,351 773,351.1000061035156 771,351.29998779296875 770,351.70001220703125 768,352.29998779296875 767,353 766,353.6000061035156 765,354.29998779296875 764,354.79998779296875 763,355.3999938964844 762,356.29998779296875 761,357.29998779296875 760,358.20001220703125 758,359 757,359.3999938964844 755,359.6000061035156 754,359.3999938964844 753,358.8999938964844 752,358.5 751,358.3999938964844 750,358.79998779296875 749,359.29998779296875 749,359.8999938964844 748,360.3999938964844 747,361 745,362 743,363.29998779296875 742,364.3999938964844 741,365.5 740,366.1000061035156 739,366.70001220703125 737,367.29998779296875 736,368 734,369 732,369.8999938964844 730,370.6000061035156 729,371 728,371.29998779296875 726,371.5 726,371.79998779296875 725,372.29998779296875 725,372.8999938964844 724,373.29998779296875 722,373.5 720,373.6000061035156 717,373.6000061035156 715,373.79998779296875 714,374.1000061035156 712,374.6000061035156 711,375.20001220703125 709,375.70001220703125 708,376 707,376 705,376.1000061035156 704,376.20001220703125 702,376.3999938964844 701,376.3999938964844 700,376.20001220703125 699,375.70001220703125 697,374.8999938964844 696,374 694,373.1000061035156 693,372.29998779296875 691,371.6000061035156 690,371 689,370.5 688,370 688,369.3999938964844 687,368.29998779296875 686,367 686,365.5 686,364.1000061035156 685,362.3999938964844 685,360.70001220703125 684,359.20001220703125 684,358 683,357 682,356.1000061035156 681,355 681,353.8999938964844 680,352.79998779296875 679,351.8999938964844 678,351.1000061035156 677,350.20001220703125 675,349.3999938964844 674,348.5 673,347.6000061035156 671,346.79998779296875 670,345.8999938964844 669,345.1000061035156 668,344.29998779296875 666,343.3999938964844 665,342.70001220703125 664,341.79998779296875 662,341.1000061035156 660,340.29998779296875 659,339.5 658,338.5 657,337.3999938964844 656,336.3999938964844 655,335.6000061035156 653,335 652,334.6000061035156 650,334.1000061035156 648,333.3999938964844 647,332.5 646,331.5 644,330.5 643,329.79998779296875 642,329 641,328.20001220703125 640,327.20001220703125 639,326.3999938964844 639,325.70001220703125 638,325.29998779296875 638,325.1000061035156" style="fill:none;stroke:#ff0000;stroke-width:2"></polyline>
</g>
<g id="Axon #56">
<polyline points="638,325.29998779296875 638,325.20001220703125 637,325.20001220703125 635,325.20001220703125 634,325.3999938964844 632,325.5 631,325.6000061035156 630,325.5 629,325.29998779296875 627,324.8999938964844 625,324.3999938964844 623,323.79998779296875 622,323.29998779296875 620,323 618,322.70001220703125 617,322.29998779296875 615,321.79998779296875 614,321 613,319.79998779296875 613,318.20001220703125 612,316.3999938964844 612,314.29998779296875 611,312.1000061035156 611,309.8999938964844 611,308.1000061035156 611,306.5 611,305.20001220703125 611,304 611,302.6000061035156 610,301.29998779296875 609,300.1000061035156 609,299 608,298.1000061035156 607,297.29998779296875 606,296.6000061035156 605,295.8999938964844 604,295.1000061035156 603,294.29998779296875 602,293.5 601,292.70001220703125 600,292.1000061035156 599,291.6000061035156 598,291 596,290.29998779296875 595,289.3999938964844 593,288.5 592,287.79998779296875 591,287.3999938964844 590,287.20001220703125 589,287 587,286.79998779296875 586,286.3999938964844 584,285.79998779296875 583,285 581,284.20001220703125 580,283.6000061035156 579,283.1000061035156 577,282.70001220703125 575,282.3999938964844 574,282 572,281.79998779296875 570,281.5 569,281.29998779296875 568,281.20001220703125 567,281 566,280.79998779296875 566,280.70001220703125 565,280.29998779296875" style="fill:none;stroke:#ff0000;stroke-width:2"></polyline>
</g>
<g id="Axon #57">
<polyline points="507,256.29998779296875 507,256.20001220703125 508,256.29998779296875 509,256.5 510,256.70001220703125 511,256.6000061035156 512,256.20001220703125 512,255.3000030517578 512,253.89999389648438 511,252.39999389648438 511,250.6999969482422 510,249.1999969482422 508,248.10000610351562 507,247.39999389648438" style="fill:none;stroke:#ff0000;stroke-width:2"></polyline>
</g>
<g id="Axon #58">
<polyline points="486,352.1000061035156 486,352.20001220703125 486,352.5 486,353.1000061035156 487,353.8999938964844 487,354.70001220703125 488,355.5 488,356.20001220703125 488,356.8999938964844 489,357.79998779296875 490,358.6000061035156 491,359.29998779296875 491,359.70001220703125 492,360.1000061035156 493,360.6000061035156 493,361.29998779296875 494,362.1000061035156 494,363 495,364 495,365 496,366.1000061035156 496,367.20001220703125 497,368.3999938964844 497,369.70001220703125 498,371.1000061035156 498,372.3999938964844 499,373.79998779296875 499,375.20001220703125 500,376.5 500,377.8999938964844 501,379.20001220703125 502,380.6000061035156" style="fill:none;stroke:#ff0000;stroke-width:2"></polyline>
</g>
<g id="Axon #59">
<polyline points="502,380.6000061035156 503,382 504,383.3999938964844 505,384.70001220703125 505,386.20001220703125 505,387.6000061035156 506,389.20001220703125 507,390.6000061035156 507,391.8999938964844 508,392.8999938964844 508,393.6000061035156" style="fill:none;stroke:#ff0000;stroke-width:4"></polyline>
</g></g></svg>